<svg width="367" height="341" viewBox="0 0 367 341" fill="none" xmlns="http://www.w3.org/2000/svg">
<path d="M208.062 316.441C223.883 308.356 237.278 295.309 248.471 282.935C296.178 241.466 352.367 194.117 364.783 129.352C386.476 7.78327 240.907 -50.122 278.706 54.1728C288.023 71.7935 308.288 86.964 312.896 107.3C324.007 197.139 211.63 291.45 124.044 293.818C116.908 294.002 109.793 294.573 102.739 295.696C59.5572 302.618 41.0451 290.592 46.3663 239.608C42.2684 166.716 143.392 36.2254 220.886 78.1639C278.583 99.2964 269.715 133.292 234.321 172.617C218.134 184.072 200.804 177.783 180.967 183.03C-10.2506 233.238 302.294 323.363 301.071 108.219C287.88 41.82 207.104 12.7857 147.531 35.6129C116.011 47.6391 108.651 61.9724 81.1887 87.4336C-9.39435 165.124 -54.4922 356.603 111.138 339.983C139.131 337.165 171.017 335.348 208.042 316.421L208.062 316.441Z" fill="#FEFFEE"/>
</svg>
