<svg width="356" height="371" viewBox="0 0 356 371" fill="none" xmlns="http://www.w3.org/2000/svg">
<path d="M350.607 51.7715C327.267 -27.7973 235.117 0.782572 288.495 76.1383C308.342 104.238 325.425 84.6605 316.72 136.513C287.852 308.453 221.268 163.961 219.262 133.327C217.257 102.693 232.142 147.636 250.894 150.17C271.297 152.934 291.634 145.333 284.944 116.724C255.75 29.564 158.321 117.732 182.736 181.158C194.982 215.775 244.819 216.821 239.714 244.144C234.608 271.466 208.427 331.918 144.156 269.192C119.098 244.739 121.891 231.504 123.158 190.755C123.551 177.953 139.492 170.314 141.872 157.233C148.744 80.5338 114.876 53.0575 78.0808 119.421C78.0808 119.421 25.4411 66.5317 6.60217 102.175C-9.38646 132.415 81.2574 245.775 81.2574 245.775C81.2574 245.775 107.947 394.634 239.263 361.899C298.639 347.1 359.148 102.607 350.607 51.7811V51.7715ZM66.2284 191.83C54.5009 199.268 39.1456 138.116 49.3665 130.256C59.5873 122.396 70.9789 138.692 69.8849 145.784C68.762 153.135 77.9464 184.393 66.2188 191.821L66.2284 191.83ZM120.567 161.523C110.48 169.968 87.7161 158.884 87.7161 146.072C87.7161 133.26 102.764 102.175 117.688 102.175C132.611 102.175 135.951 107.53 135.951 115.87C135.951 124.21 130.653 153.078 120.567 161.523Z" fill="#EBFEB3"/>
<path d="M86.9584 129.151C85.5284 133.125 85.1158 137.578 84.943 141.877C84.943 142.28 84.9334 142.683 84.9238 143.096L84.9814 144.343C85.0486 145.198 85.1158 146.013 85.2885 146.954C85.6148 148.768 86.2195 150.418 86.8241 152.011C87.4383 153.653 88.3596 155.63 89.5496 157.453C90.73 159.286 92.1408 160.946 93.4076 162.117C95.375 163.912 97.352 164.622 99.2906 165.14C101.258 165.649 103.206 165.985 105.673 166.752C108.264 167.52 109.972 167.808 111.767 168.048C112.669 168.163 113.609 168.24 114.742 168.23C115.874 168.211 117.199 168.125 118.888 167.712C119.502 167.549 120.74 167.069 121.757 166.445C122.285 166.167 122.717 165.812 123.053 165.582C123.379 165.332 123.59 165.179 123.6 165.169L117.486 157.875C116.22 158.931 115.001 159.545 113.763 159.977C112.534 160.399 111.296 160.649 109.761 160.524C107.918 160.361 106.22 159.44 104.454 158.825C102.937 158.288 101.364 157.808 99.8376 157.165C98.3117 156.522 96.8337 155.697 95.6725 154.555C93.3404 152.261 92.5439 149.363 92.4671 147.155C92.4191 146.109 92.3711 144.689 92.3711 143.221C92.3807 141.752 92.4479 140.178 92.9086 138.336C93.3404 136.675 94.8567 135.015 95.7877 132.664L86.9392 129.151H86.9584Z" fill="#EBFEB3"/>
<path d="M137.453 104.391C136.541 103.191 135.341 102.231 134.113 101.502C133.499 101.118 132.865 100.878 132.242 100.59C131.618 100.322 130.994 100.187 130.37 99.9952C127.894 99.4002 125.591 99.333 123.441 99.333C121.838 99.3618 120.245 99.5249 118.691 99.7169C118.288 99.7649 117.942 99.7841 117.491 99.8417L116.147 100.024C115.284 100.206 114.41 100.341 113.585 100.571C111.867 100.965 109.765 101.627 107.827 102.567C105.888 103.489 104.074 104.621 102.74 105.638C100.706 107.222 99.6981 108.94 98.7864 110.638C97.8939 112.356 97.1166 114.093 95.6482 116.032C94.1511 118.066 93.2202 119.324 92.2509 120.61C91.2816 121.896 90.2547 123.201 88.748 125.475C88.4697 125.898 88.009 126.8 87.6347 127.615C87.4524 128.018 87.27 128.402 87.1548 128.681C87.0397 128.969 86.9629 129.151 86.9629 129.161L95.8114 132.673C97.7979 127.635 98.1722 125.341 99.8805 122.222C100.907 120.389 102.433 118.921 103.614 117.26C104.621 115.83 105.495 114.304 106.483 112.874C107.462 111.454 108.537 110.062 109.871 109.074C111.195 108.076 112.606 107.442 113.94 107.097C115.284 106.742 116.512 106.742 117.568 106.847H117.673L117.846 106.867L118.182 106.895C118.403 106.905 118.623 106.915 118.835 106.924C119.266 106.934 119.679 106.924 120.082 106.915C120.869 106.924 121.627 106.876 122.386 106.838C123.835 106.828 125.389 106.752 126.896 107.231C127.261 107.308 127.539 107.529 127.846 107.74C128.173 107.942 128.403 108.239 128.662 108.508C128.95 108.757 129.075 109.103 129.315 109.343C129.41 109.487 129.478 109.631 129.574 109.755C129.679 109.871 129.766 110.014 129.852 110.149L137.443 104.41L137.453 104.391Z" fill="#EBFEB3"/>
<path d="M123.623 165.171C125.6 163.395 126.885 161.303 127.864 159.24C128.843 157.167 129.525 155.084 130.168 153.107C131.118 150.132 131.578 146.984 132.701 144.192C133.882 141.332 136.089 137.119 137.164 134.182C137.999 131.927 138.047 130.055 138.037 128.184C138.018 126.312 137.951 124.451 138.431 122.09C138.93 119.623 139.237 118.097 139.525 116.37C139.65 115.487 139.784 114.642 139.861 113.558C139.88 113.011 139.947 112.445 139.909 111.763C139.899 111.427 139.88 111.072 139.87 110.698C139.841 110.324 139.774 109.911 139.717 109.479C139.678 109.162 139.582 108.692 139.381 108.145C139.189 107.598 138.997 106.994 138.69 106.437C138.392 105.88 138.152 105.352 137.874 104.997C137.615 104.642 137.452 104.412 137.452 104.402L129.861 110.141C130.101 110.391 130.244 110.708 130.446 110.967C130.571 111.303 130.782 111.543 130.887 111.907C131.022 112.234 131.166 112.541 131.252 112.896C131.367 113.222 131.473 113.558 131.55 113.913C131.732 114.585 131.838 115.305 131.934 115.996C132.01 116.677 132.02 117.454 131.962 118.318C131.818 120.372 131.041 122.397 130.724 124.479C130.168 128.069 130.35 131.85 129.333 135.391C128.315 138.913 126.569 141.764 125.091 144.988C124.285 146.725 123.853 148.241 123.383 149.739C122.922 151.226 122.452 152.743 121.54 154.307C120.724 155.718 118.834 156.716 117.48 157.886L123.594 165.18L123.623 165.171Z" fill="#EBFEB3"/>
<path d="M41.7087 150.542C42.2173 154.103 43.7528 157.538 44.9525 160.811C45.845 163.258 47.1501 165.667 47.6204 168.21C48.0907 170.821 48.3018 174.928 48.868 177.606C49.2903 179.66 50.202 181.051 51.1713 182.385C52.1502 183.729 53.1771 185.015 54.06 186.972C55.0197 189.007 55.6915 190.293 56.4976 191.665C56.9103 192.347 57.3614 193.057 58.062 193.882C58.2443 194.093 58.4267 194.305 58.6378 194.525C58.8298 194.717 59.204 195.063 59.5495 195.322C60.2405 195.84 61.0563 196.358 62.0543 196.723C62.7741 197.04 64.396 197.289 65.7971 197.001C66.4881 196.867 67.1312 196.675 67.5726 196.454C67.7934 196.349 67.9757 196.262 68.1005 196.205C68.2252 196.138 68.302 196.099 68.302 196.099L64.0793 187.51C64.0793 187.51 64.0985 187.596 64.0409 187.673C64.0121 187.711 63.9833 187.75 63.9353 187.779C63.9065 187.798 63.8874 187.807 63.8874 187.836C63.8778 187.865 63.7338 187.798 63.6474 187.759C62.8605 187.385 61.9872 186.694 61.2098 185.59C60.2693 184.266 59.8854 182.519 59.1177 180.974C57.7933 178.316 55.7971 175.763 54.895 172.75C54.012 169.736 54.0696 166.838 53.5898 163.767C53.0811 160.456 51.6895 158.469 51.0273 155.158C50.7394 153.671 51.3824 151.742 51.1521 149.554L41.6895 150.552L41.7087 150.542Z" fill="#EBFEB3"/>
<path d="M74.6241 143.296C74.2691 140.83 73.271 138.882 72.1097 137.164C70.9485 135.446 69.5953 133.968 68.2133 132.625C66.1404 130.59 63.578 129.112 61.1115 127.538C59.8351 126.732 58.1077 125.676 55.9483 125.206C53.8178 124.697 51.3802 124.899 49.6815 125.523C49.0481 125.772 48.4339 126.041 47.9349 126.367C47.4166 126.732 47.0423 126.953 46.4473 127.557C45.3821 128.642 44.8926 129.774 44.5663 130.801C43.9617 132.865 43.9233 134.659 43.4146 136.818C42.9252 139.074 42.7141 140.427 42.4358 141.838C42.1767 143.239 41.8888 144.669 41.6008 147.02C41.5529 147.452 41.5625 148.325 41.6008 149.093C41.62 149.477 41.6488 149.832 41.6584 150.091C41.6776 150.35 41.6968 150.523 41.6968 150.523L51.1594 149.525C50.8715 147.193 50.574 145.59 50.3245 144.179C50.075 142.778 49.8735 141.569 49.931 140.11C49.9982 138.392 50.7276 136.828 51.0923 135.523L51.7257 133.239C52.4647 132.385 53.3572 131.751 54.336 131.655C55.3053 131.54 56.2075 131.934 57.0328 132.509C57.8581 133.095 58.6259 133.853 59.4609 134.707C60.363 135.638 61.2459 136.339 62.148 137.126C63.0406 137.913 63.9427 138.795 64.6624 140.062C65.2862 141.195 65.0271 143.057 65.1615 144.304L74.6241 143.277V143.296Z" fill="#EBFEB3"/>
<path d="M68.319 196.099C68.6741 195.908 69.0484 195.62 69.413 195.332C69.8353 195.015 70.0177 194.852 70.2672 194.631C70.7087 194.17 71.1213 193.691 71.5244 193.211C71.8699 192.702 72.1962 192.184 72.5129 191.666C72.772 191.138 73.0119 190.6 73.2422 190.073C74.058 187.932 74.3075 185.879 74.4802 183.978C74.7202 181.119 74.2403 178.345 74.4802 175.735C74.749 173.047 75.5743 168.978 75.7087 166.291C75.939 162.155 73.7797 160.207 73.6262 156.195C73.5494 154.113 73.5782 152.846 73.6741 151.55C73.7317 150.907 73.7989 150.264 73.8948 149.535C74.0004 148.825 74.1252 147.98 74.3459 147.193C74.3939 147.078 74.4131 146.8 74.4707 146.694L74.4995 146.579L74.5378 146.377C74.5858 146.061 74.6242 145.734 74.653 145.418C74.6914 144.823 74.6914 144.276 74.6722 143.901C74.6434 143.537 74.6242 143.297 74.6242 143.287L65.1616 144.314C65.1808 144.477 65.2096 144.631 65.2096 144.736C65.2287 144.871 65.2287 144.947 65.2383 145.005C65.2767 144.919 65.2095 145.552 65.1999 145.897C65.1712 146.32 65.1999 146.598 65.1999 146.915C65.2575 148.143 65.4399 149.017 65.5935 149.851C65.9389 151.473 66.294 152.769 66.5147 154.4C66.7739 156.31 66.5244 158.23 66.7835 160.082C67.2153 163.258 68.5109 166.291 68.6165 169.439C68.7029 172.568 67.9255 175.322 67.4457 178.163C67.1866 179.698 67.1769 180.936 67.129 182.155C67.1002 183.374 66.9946 184.583 66.4764 185.754C66.4188 185.888 66.3516 186.013 66.2652 186.138C66.1692 186.243 66.0637 186.349 65.9485 186.454C65.8334 186.55 65.7182 186.656 65.603 186.762C65.4686 186.838 65.3343 186.915 65.1999 186.992C64.9504 187.174 64.6529 187.27 64.4034 187.395C64.2882 187.472 64.1539 187.529 64.0195 187.577C64.0387 187.539 64.1059 187.481 64.0867 187.491L68.319 196.09V196.099Z" fill="#EBFEB3"/>
<path d="M29.0938 94.812C32.0304 95.0711 35.447 95.0327 38.6812 95.7525C41.0804 96.2611 43.7388 96.7122 45.8789 98.0749C48.0958 99.4473 50.8982 102.307 52.7984 104.035C55.7255 106.693 58.5566 106.396 61.5605 109.112C64.6219 111.952 65.1498 112.854 67.9329 116.328C68.192 116.645 68.7678 117.221 69.2957 117.72C69.8235 118.209 70.2745 118.641 70.2841 118.651L76.6278 111.559C72.6738 108.152 70.5529 107.461 67.9041 105.397C66.3302 104.188 65.0729 102.605 63.451 101.444C60.6583 99.4473 57.3282 98.3245 54.4875 96.4435C51.6372 94.572 49.401 92.3359 46.3492 90.5797C44.7081 89.6296 43.1726 89.1593 41.6083 88.7754C40.0536 88.3916 38.4508 88.1132 36.589 87.6238C34.9287 87.1919 33.0765 85.7524 30.351 85.3877L29.1034 94.8216L29.0938 94.812Z" fill="#EBFEB3"/>
<path d="M11.5164 123.324C10.4991 120.224 8.81008 117.182 8.00394 114.063C7.38013 111.779 6.66992 109.245 7.31292 107.009C7.62002 105.867 8.35898 104.591 9.22272 103.593C10.24 102.432 11.2957 101.366 12.1402 100.608C13.4262 99.4277 14.0404 98.3048 14.8178 97.1916C15.5856 96.1071 16.4973 94.9842 18.148 94.4084C19.8563 93.8422 20.9791 93.7558 22.1115 93.7654C23.2535 93.8134 24.4148 93.9478 26.267 94.3988C26.6029 94.4756 27.3035 94.562 27.9273 94.6387C28.5512 94.7251 29.0886 94.8019 29.0982 94.8115L30.3458 85.3776C27.4475 85.0417 25.3265 85.2913 23.5223 85.6368C21.7085 85.9918 20.1922 86.4813 18.3303 87.0571C16.1422 87.7385 13.7909 88.3047 11.8235 89.6579C10.1536 90.8191 8.81006 92.3451 7.67761 93.9094C6.56436 95.5025 5.64305 97.1244 4.62577 98.6695C4.37625 99.0534 4.1363 99.4373 3.88678 99.8115C3.63726 100.186 3.37816 100.531 3.12864 100.992C2.86952 101.424 2.62002 101.856 2.37049 102.288L1.73706 103.612C1.50673 104.053 1.34356 104.504 1.18041 104.956C1.01726 105.407 0.844518 105.867 0.700563 106.338C0.470235 107.249 0.191936 108.219 0.115159 109.178C0.0575774 109.696 0.00959701 110.205 0 110.685C0 111.155 0.0287981 111.616 0.0671861 112.067C0.115171 112.969 0.307104 113.775 0.479851 114.591C0.844537 116.213 1.3436 117.758 1.75627 119.629C2.13055 121.28 1.68907 123.507 2.38965 125.944L11.5356 123.324H11.5164Z" fill="#EBFEB3"/>
<path d="M32.8858 168.163C31.024 165.275 28.404 162.703 26.2831 159.987C24.6996 157.962 22.809 155.975 21.7821 153.614C20.7264 151.177 19.8531 147.213 19.0949 144.708C17.9337 140.86 15.3233 139.679 14.0853 135.821C12.8568 131.839 12.8568 130.783 12.281 126.455C12.233 126.052 12.022 125.284 11.8588 124.603C11.6765 123.921 11.5229 123.345 11.5229 123.326L2.37695 125.946C3.97965 131.061 5.49597 132.722 6.74358 135.86C7.50175 137.693 7.79927 139.699 8.61501 141.513C10.0162 144.612 12.3003 147.242 13.7014 150.303C15.1122 153.346 15.7072 156.378 17.0795 159.44C18.5575 162.751 20.5633 164.373 22.4539 167.434C23.2984 168.806 23.4904 170.956 24.7188 173.029L32.8954 168.154L32.8858 168.163Z" fill="#EBFEB3"/>
<path d="M60.742 210.427C58.6307 207.692 55.7996 205.331 53.4195 202.807C51.6441 200.926 49.5615 199.141 48.2851 196.895C46.9703 194.583 45.6171 190.725 44.5135 188.316C42.8148 184.611 40.0509 183.795 38.1699 180.158C36.2409 176.387 36.0297 175.36 34.4462 171.127C34.3023 170.744 33.9184 169.995 33.5633 169.352C33.2082 168.709 32.8915 168.162 32.8915 168.152L24.7148 173.028C27.4116 177.394 29.1679 178.709 30.9529 181.492C32.0086 183.124 32.6132 185.024 33.6881 186.655C35.5211 189.458 38.1219 191.713 39.8685 194.554C41.6152 197.385 42.5557 200.293 44.2064 203.191C45.9914 206.31 48.1412 207.711 50.2813 210.59C51.241 211.876 51.6057 213.997 52.9973 215.955L60.7516 210.437L60.742 210.427Z" fill="#EBFEB3"/>
<path d="M88.2132 254.583C87.7238 252.99 87.0424 251.425 86.3514 249.861C86.0059 249.074 85.6604 248.297 85.3149 247.519L84.8255 246.358L84.7679 246.214L84.6911 245.955L84.5376 245.437L84.2401 244.429L84.0289 244.208C83.6546 243.825 83.2803 243.441 82.9061 243.047L82.1671 242.395C81.6776 241.963 81.1786 241.521 80.6988 241.07C79.7391 240.168 78.8369 239.208 78.1268 238.124C76.668 235.897 75.0845 232.126 73.8273 229.794C71.8887 226.195 69.0768 225.561 66.9462 222.059C64.7485 218.421 64.4702 217.414 62.5508 213.296C62.378 212.913 61.927 212.212 61.5239 211.588C61.1113 210.974 60.7561 210.446 60.7465 210.437L52.9922 215.955C56.0152 220.062 57.8483 221.243 59.8253 223.882C60.9961 225.437 61.7255 227.279 62.8963 228.834C64.9117 231.492 67.6468 233.575 69.5662 236.3C71.4856 239.007 72.5988 241.857 74.4223 244.65C74.9501 245.456 75.5068 246.147 76.073 246.761C76.3609 247.068 76.6488 247.366 76.9367 247.654C77.0423 247.702 77.0711 247.644 77.1575 247.654C77.215 247.654 77.2726 247.673 77.3302 247.702L77.3494 247.759L77.3974 247.894L77.4933 248.153C77.5509 248.326 77.6181 248.508 77.6757 248.681C77.9252 249.4 78.1556 250.139 78.3763 250.965C78.7986 252.548 78.3667 254.688 79.0001 257.059L88.194 254.592L88.2132 254.583Z" fill="#EBFEB3"/>
<path d="M106.906 300.632C105.121 297.762 102.655 295.113 100.678 292.311C99.2193 290.219 97.4439 288.136 96.5993 285.718C95.7068 283.232 95.1405 279.221 94.5743 276.668C93.7106 272.743 91.1962 271.361 90.2269 267.416C89.2672 263.328 89.3248 262.282 88.9025 257.839C88.8641 257.426 88.6913 256.629 88.5282 255.919C88.3554 255.219 88.2115 254.604 88.2115 254.595L79.0176 257.061C80.4571 262.061 81.8391 263.798 82.8948 266.965C83.5282 268.827 83.6817 270.833 84.3535 272.695C85.5148 275.881 87.5973 278.674 88.7585 281.831C89.9198 284.979 90.3325 288.05 91.5033 291.227C92.7797 294.662 94.7279 296.399 96.4937 299.586C97.2999 301.006 97.415 303.184 98.6147 305.325L106.897 300.632H106.906Z" fill="#EBFEB3"/>
<path d="M137.836 338.664C135.216 336.62 131.982 335.055 129.247 333.04C128.21 332.311 127.126 331.581 126.099 330.785C125.063 330.007 124.093 329.134 123.326 328.107C121.704 326.034 120.034 322.368 118.767 320.113C116.867 316.61 114.064 315.996 112.107 312.454C110.111 308.779 109.899 307.761 108.383 303.587C108.249 303.203 107.874 302.473 107.538 301.83C107.203 301.197 106.905 300.64 106.896 300.631L98.6133 305.314C99.9377 307.56 101.041 309.019 102.068 310.257C103.076 311.504 103.968 312.541 104.909 313.942C105.993 315.593 106.704 317.493 107.855 319.115C109.861 321.888 112.635 324.028 114.688 326.725C115.696 328.088 116.569 329.441 117.404 330.842C118.287 332.205 119.122 333.606 120.207 334.94C121.377 336.37 122.548 337.387 123.805 338.29C124.429 338.75 125.053 339.211 125.706 339.691C126.358 340.171 127.04 340.679 127.731 341.284C128.949 342.378 129.871 344.374 131.761 345.986L137.836 338.664Z" fill="#EBFEB3"/>
<path d="M181.231 359.664C179.609 359.347 177.891 359.29 176.173 359.155C174.465 359.002 172.708 358.973 171.058 358.676C168.572 358.321 165.875 358.09 163.591 356.977C162.44 356.363 161.048 355.489 159.724 354.511C158.418 353.503 157.104 352.562 156.086 351.766C154.493 350.595 153.025 350.182 151.547 349.702C150.808 349.472 150.05 349.261 149.292 348.935C148.543 348.599 147.766 348.167 146.979 347.562C143.745 344.99 143.169 344.117 140.251 340.844C139.992 340.537 139.397 339.99 138.86 339.52C138.322 339.059 137.852 338.666 137.843 338.656L131.768 345.979C133.85 347.61 135.424 348.599 136.854 349.366C138.265 350.173 139.503 350.787 140.933 351.727C142.574 352.869 144.023 354.299 145.731 355.374C148.745 357.102 152.171 357.937 155.213 359.491C155.971 359.875 156.691 360.297 157.392 360.739C158.102 361.171 158.793 361.593 159.493 362.025C160.194 362.457 160.895 362.889 161.605 363.321C162.334 363.714 163.083 364.108 163.87 364.463C165.559 365.269 167.094 365.566 168.639 365.835C170.165 366.123 171.73 366.257 173.534 366.699C175.127 367.121 176.883 368.417 179.321 368.983L181.24 359.664H181.231Z" fill="#EBFEB3"/>
<path d="M230.015 359.059C226.743 359.865 223.46 361.343 220.188 362.322C217.75 363.003 215.217 364.03 212.654 363.972C212.002 363.972 211.263 363.924 210.485 363.848C209.708 363.761 208.892 363.617 208.076 363.483C206.454 363.205 204.842 362.917 203.556 362.696C201.589 362.36 200.082 362.725 198.547 362.965C197.021 363.214 195.447 363.598 193.479 363.195C191.435 362.811 190.188 362.542 188.94 362.101C188.316 361.88 187.692 361.659 186.953 361.41C186.224 361.16 185.389 360.853 184.372 360.441C183.997 360.297 183.21 360.105 182.52 359.942C181.829 359.788 181.234 359.663 181.214 359.663L179.295 368.982C184.525 369.913 186.723 369.385 190.092 369.74C192.088 369.874 194.017 370.642 196.023 370.681C199.468 370.853 202.884 369.951 206.272 369.98C207.971 369.961 209.583 370.182 211.195 370.335C212.808 370.479 214.43 370.633 216.147 370.633C219.833 370.508 222.146 369.299 225.725 368.598C227.338 368.329 229.449 368.867 231.858 368.396L230.015 359.059Z" fill="#EBFEB3"/>
<path d="M266.761 331.8C264.976 334.66 263.652 337.981 261.962 340.927C261.329 342.012 260.696 343.144 260.024 344.248C259.342 345.351 258.536 346.34 257.615 347.204C256.665 348.087 255.254 348.941 253.911 349.814C253.21 350.198 252.5 350.591 251.838 350.956C251.185 351.33 250.561 351.666 250.005 351.945C249.16 352.386 248.517 352.904 247.932 353.413C247.337 353.893 246.828 354.43 246.319 354.968C245.82 355.543 245.264 355.985 244.64 356.465C244.323 356.705 243.997 356.925 243.632 357.146C243.258 357.338 242.855 357.482 242.404 357.626C241.943 357.77 241.53 357.895 241.147 358.01C240.763 358.125 240.398 358.144 240.072 358.211C239.39 358.307 238.843 358.384 238.219 358.432C236.885 358.471 235.523 358.509 233.296 358.567C232.884 358.586 232.077 358.72 231.367 358.816C230.657 358.931 230.043 359.037 230.033 359.037L231.876 368.375C234.438 367.876 236.156 367.204 237.653 366.647C238.402 366.369 239.093 366.1 239.803 365.851C240.139 365.745 240.542 365.582 240.955 365.428C241.367 365.275 241.79 365.131 242.231 364.987C243.277 364.67 244.323 364.344 245.379 364.027C245.897 363.854 246.444 363.73 246.934 363.509C247.423 363.298 247.912 363.058 248.392 362.799C249.208 362.357 249.995 361.858 250.686 361.263C251.396 360.687 252.097 360.112 252.769 359.507C254.045 358.24 255.36 357.05 256.675 355.918C259.41 353.749 262.126 352.127 264.688 349.747C266.032 348.442 266.905 347.146 267.73 345.831C268.508 344.488 269.266 343.134 270.331 341.628C271.243 340.275 273.229 339.238 274.602 337.204L266.78 331.781L266.761 331.8Z" fill="#EBFEB3"/>
<path d="M290.532 287.753C289.265 290.949 288.66 294.567 287.681 297.878C286.923 300.325 286.443 303.041 285.09 305.239C283.737 307.523 280.992 310.527 279.428 312.638C278.19 314.241 277.729 315.738 277.288 317.273C276.818 318.78 276.367 320.316 275.196 321.976C272.7 325.354 271.885 326.007 268.785 329.202C268.507 329.5 267.998 330.143 267.566 330.719C267.144 331.295 266.779 331.803 266.77 331.813L274.591 337.235C276.059 335.066 276.866 333.425 277.537 331.976C278.238 330.536 278.766 329.27 279.61 327.83C280.628 326.141 282.038 324.721 283.008 322.993C283.852 321.525 284.447 319.932 285.061 318.358C285.685 316.784 286.29 315.21 287.115 313.751C288.785 310.853 290.858 308.588 292.585 305.709C294.418 302.59 294.582 300.018 295.983 296.697C296.626 295.219 298.248 293.818 299.236 291.611L290.532 287.753Z" fill="#EBFEB3"/>
<path d="M308.794 240.573C307.815 243.884 307.527 247.56 306.875 250.957C306.366 253.491 306.136 256.226 305.042 258.567C303.919 260.976 301.567 264.316 300.233 266.61C298.218 270.141 299.12 272.857 297.258 276.495C295.291 280.247 294.581 281.015 292.038 284.748C291.807 285.094 291.433 285.842 291.107 286.495C290.79 287.157 290.512 287.723 290.512 287.742L299.216 291.6C301.203 286.879 301.299 284.691 302.518 281.62C303.237 279.806 304.456 278.222 305.157 276.399C306.385 273.289 306.711 269.854 308.017 266.783C309.293 263.711 311.145 261.264 312.527 258.232C314.034 254.959 313.928 252.397 315.013 248.98C315.512 247.454 317.009 245.919 317.786 243.644L308.784 240.563L308.794 240.573Z" fill="#EBFEB3"/>
<path d="M323.693 192.09C322.897 195.449 322.878 199.153 322.417 202.589C322.091 205.151 322.024 207.906 321.093 210.315C320.152 212.8 318.002 216.294 316.86 218.683C315.066 222.349 316.227 225.017 314.615 228.779C312.964 232.685 312.292 233.501 310.075 237.455C309.874 237.82 309.557 238.597 309.288 239.278C309.029 239.969 308.808 240.564 308.799 240.574L317.801 243.655C319.384 238.799 319.26 236.62 320.258 233.472C320.833 231.61 321.899 229.94 322.484 228.079C323.444 224.883 323.559 221.447 324.624 218.299C325.709 215.161 327.35 212.589 328.549 209.48C329.826 206.121 329.567 203.577 330.43 200.103C330.814 198.549 332.244 196.927 332.868 194.614L323.693 192.09Z" fill="#EBFEB3"/>
<path d="M335.747 142.801C335.152 146.208 335.334 149.893 335.075 153.348C334.902 155.93 334.97 158.674 334.192 161.141C333.367 163.674 331.467 167.283 330.43 169.74C328.876 173.511 330.142 176.093 328.78 179.96C327.33 183.953 326.745 184.817 324.758 188.895C324.576 189.27 324.307 190.066 324.087 190.767C323.876 191.477 323.693 192.081 323.684 192.091L332.858 194.615C334.135 189.673 333.895 187.504 334.691 184.308C335.171 182.427 336.131 180.69 336.592 178.799C337.398 175.565 337.263 172.12 338.175 168.914C339.048 165.709 340.584 163.06 341.582 159.883C342.676 156.467 342.244 153.933 342.935 150.411C343.233 148.837 344.547 147.129 345.056 144.787L335.747 142.801Z" fill="#EBFEB3"/>
<path d="M344.455 92.9521C344.148 96.3687 344.618 100.016 344.627 103.48C344.627 106.062 344.925 108.787 344.301 111.302C343.677 113.883 341.988 117.607 341.134 120.112C339.819 123.97 341.249 126.465 340.126 130.4C338.927 134.469 338.389 135.371 336.643 139.555C336.48 139.939 336.259 140.745 336.086 141.465C335.913 142.185 335.76 142.799 335.76 142.809L345.069 144.795C346.048 139.786 345.693 137.636 346.288 134.392C346.652 132.482 347.506 130.688 347.852 128.768C348.457 125.486 348.111 122.05 348.802 118.787C349.483 115.534 350.808 112.77 351.604 109.526C352.439 106.023 351.854 103.528 352.247 99.9484C352.439 98.3553 353.591 96.5318 353.908 94.1518L344.464 92.9617L344.455 92.9521Z" fill="#EBFEB3"/>
<path d="M343.211 44.9181C343.911 46.4153 344.679 47.922 345.562 49.3999C345.975 50.1581 346.387 50.9162 346.8 51.6648C347.002 52.0199 347.242 52.5285 347.318 52.5381C347.347 52.5765 347.366 52.6341 347.395 52.7013L347.491 52.9892L347.673 53.5746C348.057 54.7167 348.403 55.9547 348.719 57.1927C348.979 58.4499 349.199 59.7167 349.113 60.9835C348.988 63.5939 347.885 67.4807 347.386 70.0335C346.589 73.9683 348.316 76.2524 347.606 80.2639C346.858 84.4098 346.378 85.3503 345.034 89.6498C344.909 90.0433 344.756 90.859 344.641 91.5884C344.535 92.3082 344.439 92.9416 344.43 92.9512L353.873 94.1412C354.43 89.0356 353.854 86.9051 354.151 83.6037C354.295 81.6459 354.996 79.7649 355.111 77.7975C355.351 74.4289 354.574 71.022 354.785 67.6534C354.958 64.2753 355.85 61.281 355.898 57.7685C355.936 56.828 355.84 55.9547 355.716 55.1293C355.601 54.304 355.418 53.5266 355.188 52.7301C355.073 52.3366 354.967 51.9431 354.852 51.5497L354.746 51.137C354.718 50.9738 354.67 50.7915 354.593 50.6283L354.42 50.2061L354.295 49.9278C353.959 49.1888 353.624 48.4018 353.326 47.5285C353.067 46.7416 352.942 45.8202 352.817 44.7742C352.693 43.7281 352.529 42.586 352.05 41.4248L343.201 44.9277L343.211 44.9181Z" fill="#EBFEB3"/>
<path d="M312.527 11.1069C315.445 12.0378 318.785 12.6616 321.779 14.0052C323.977 15.0033 326.443 16.0301 328.18 17.8344C329.965 19.6962 331.817 23.1607 333.036 25.3392C334.908 28.6694 337.643 29.3124 339.37 32.9017C341.059 36.6253 341.194 37.6426 342.163 41.8749C342.24 42.2684 342.547 42.9977 342.768 43.6695C343.007 44.3317 343.219 44.898 343.219 44.9075L352.067 41.4046C349.994 36.4814 348.305 34.9171 346.645 31.9132C345.666 30.1377 345.052 28.1608 343.929 26.4333C341.99 23.4774 339.121 21.2701 336.904 18.5925C334.668 15.9246 333.027 13.1318 330.397 10.6462C327.527 7.99743 324.812 7.35443 321.385 5.61737C320.608 5.23349 319.84 4.62888 318.967 3.95709C318.065 3.34288 317.076 2.60391 315.819 2.18164L312.527 11.1069Z" fill="#EBFEB3"/>
<path d="M277.813 26.262C278.437 23.4117 278.773 20.2254 280.135 17.4231C281.114 15.3694 282.333 13.0853 284.358 11.7897C284.876 11.473 285.481 11.1371 286.162 10.878C286.824 10.59 287.563 10.3693 288.283 10.1678C289.013 9.96623 289.761 9.84147 290.443 9.69752C291.153 9.61115 291.786 9.47679 292.372 9.40961C294.128 9.14089 295.375 8.60346 296.7 8.02764C298.024 7.4998 299.445 6.96237 301.326 7.1831C303.264 7.38464 304.435 7.73013 305.596 8.1332C306.757 8.54588 307.909 9.07371 309.723 9.98543C310.049 10.1678 310.75 10.4365 311.364 10.6572C311.978 10.8971 312.506 11.1083 312.516 11.1179L315.807 2.19265C313.149 1.24255 311.143 0.993027 309.426 0.820281C307.688 0.685923 306.22 0.657132 304.406 0.522773C302.285 0.350027 300.136 -0.129823 297.947 0.0333258C296.076 0.234863 294.243 0.724311 292.496 1.4153C290.731 2.0583 289.061 2.86444 287.333 3.53624C286.479 3.90092 285.625 4.18883 284.8 4.55352C283.955 4.87982 283.139 5.23491 282.323 5.61879C281.489 5.97388 280.711 6.44413 279.895 6.89519C279.118 7.40383 278.312 7.90288 277.583 8.54588C276.776 9.22726 276.105 9.91825 275.558 10.6572C274.972 11.3674 274.54 12.1352 274.108 12.8933C273.667 13.6419 273.341 14.4576 272.938 15.2542C272.573 16.0795 272.189 16.9337 271.767 17.855C271.028 19.4865 269.339 21.2235 268.609 23.9011L277.822 26.2908L277.813 26.262Z" fill="#EBFEB3"/>
<path d="M290.243 70.2824C288.314 67.5665 285.655 65.148 283.63 62.4417C282.095 60.4551 280.329 58.4205 279.494 56.0213C278.649 53.5548 278.237 49.6201 277.987 47.1344C277.843 46.1843 277.671 45.3686 277.392 44.6296C277.104 43.8906 276.797 43.2092 276.5 42.5279C276.193 41.8465 275.857 41.1459 275.646 40.3781C275.425 39.6104 275.233 38.7658 275.262 37.8061C275.262 36.808 275.3 36.0019 275.396 35.3013C275.473 34.6007 275.55 33.9865 275.713 33.3819C275.991 32.1727 276.337 30.9443 277.047 29.0824C277.191 28.7465 277.316 28.0268 277.508 27.4222C277.68 26.8079 277.805 26.2705 277.805 26.2705L268.592 23.8809C268.285 25.3012 268.064 26.52 268.016 27.6045C267.91 28.689 267.939 29.6295 267.968 30.4932C267.968 31.3665 268.074 32.1631 268.131 32.9692C268.179 33.7658 268.237 34.5815 268.294 35.4837C268.362 37.5854 268.093 39.7063 268.429 41.7793C269.024 45.3494 270.818 48.5164 271.807 51.8274C272.786 55.1479 273.218 58.2862 274.427 61.5683C275.137 63.2958 275.953 64.6394 276.903 65.8774C277.364 66.5012 277.834 67.125 278.314 67.7872C278.803 68.4398 279.312 69.1212 279.801 69.8985C280.665 71.3093 280.972 73.4686 282.316 75.5512L290.243 70.2824Z" fill="#EBFEB3"/>
<path d="M323.582 109.623C323.361 107.694 322.737 105.678 321.854 103.749C320.981 101.811 319.705 99.9583 318.313 98.394C317.286 97.1944 315.991 96.2731 314.772 95.4285C313.534 94.6128 312.315 93.9026 311.25 93.0677C309.033 91.3498 306.173 88.5187 304.417 86.7624C303.035 85.4188 301.72 84.795 300.386 84.1136C299.042 83.4419 297.689 82.7029 296.47 81.1866C295.232 79.5935 294.56 78.5474 293.965 77.4053C293.342 76.2921 292.833 75.0733 291.94 73.1059C291.777 72.7316 291.365 72.031 290.981 71.4264C290.597 70.8218 290.261 70.3035 290.251 70.2939L282.324 75.5627C283.831 77.7028 285.04 79.104 286.23 80.3036C286.796 80.9082 287.343 81.4457 287.91 81.9927C288.476 82.5397 288.994 83.1347 289.589 83.7777C290.971 85.3037 292.027 87.1559 293.601 88.5571C296.288 90.9851 299.714 92.3767 302.536 94.2961C305.338 96.2347 307.526 98.4228 309.445 100.275C310.482 101.273 311.24 101.878 312.027 102.597C312.44 102.933 312.776 103.356 313.15 103.797C313.457 104.296 313.831 104.795 314.042 105.496C314.513 106.705 313.918 108.471 314.11 110.515L323.582 109.632V109.623Z" fill="#EBFEB3"/>
<path d="M316.622 161.532C316.977 159.805 317.073 157.991 317.131 156.187C317.179 154.382 317.227 152.578 317.275 150.822C317.371 148.202 317.227 145.457 317.86 142.933C318.522 140.342 320.24 136.59 321.037 133.989C322.275 129.996 320.71 127.52 321.507 123.422C321.891 121.273 322.188 119.948 322.495 118.566C322.831 117.194 323.177 115.774 323.58 113.355C323.647 112.904 323.666 111.992 323.666 111.177C323.618 110.351 323.57 109.631 323.57 109.612L314.098 110.495C314.338 112.703 314.52 114.363 314.712 115.812C314.923 117.261 315.01 118.557 314.943 120.131C314.808 122.002 314.146 123.787 313.925 125.668C313.589 128.874 314.021 132.223 313.388 135.438C312.726 138.653 311.392 141.369 310.528 144.517C309.568 147.914 310.106 150.4 309.453 153.874C309.155 155.428 307.898 157.108 307.332 159.382L316.603 161.523L316.622 161.532Z" fill="#EBFEB3"/>
<path d="M297.687 210.619C299.875 207.452 300.854 203.633 302.035 200.245C302.438 198.959 302.783 197.635 303.167 196.339C303.513 195.024 303.925 193.758 304.549 192.577C305.154 191.368 306.037 189.9 306.968 188.441C307.86 186.972 308.733 185.494 309.376 184.285C311.267 180.523 310.144 177.836 311.612 173.959C312.399 171.944 312.889 170.705 313.474 169.458C314.041 168.21 314.732 166.943 315.653 164.832C315.826 164.439 316.065 163.623 316.267 162.903C316.459 162.174 316.622 161.55 316.632 161.531L307.361 159.391C306.315 164.276 306.545 166.387 305.777 169.535C305.307 171.387 304.29 173.047 303.791 174.88C302.889 177.99 302.812 181.368 301.603 184.391C300.413 187.404 298.58 189.746 297.063 192.52C295.432 195.504 295.278 197.913 293.714 200.936C293.34 201.589 292.716 202.184 292.054 202.836C291.401 203.518 290.605 204.141 290 205.044L297.697 210.639L297.687 210.619Z" fill="#EBFEB3"/>
<path d="M248.301 207.771C250.806 210.477 254.174 212.56 257.303 214.498C259.664 215.957 262.351 217.003 264.683 218.5C265.307 218.865 265.988 219.307 266.708 219.796C267.476 220.218 268.263 220.737 269.107 221.168C270.806 222.032 272.677 222.781 274.28 223.049C276.756 223.558 278.743 222.896 280.499 222.186C281.362 221.744 282.207 221.322 283.08 220.852C283.915 220.324 284.894 219.93 285.911 219.374C286.459 219.105 286.958 218.865 287.409 218.644C287.84 218.395 288.234 218.165 288.608 217.944C288.992 217.733 289.338 217.531 289.683 217.339C290.029 217.138 290.326 216.927 290.652 216.725C291.276 216.312 291.977 215.919 292.697 215.401C293.397 214.873 294.261 214.278 295.23 213.462C295.576 213.155 296.199 212.464 296.737 211.84C297.006 211.523 297.255 211.235 297.418 211.005C297.581 210.784 297.687 210.64 297.687 210.631L289.99 205.036C288.704 206.888 287.802 208.193 287.015 209.326C286.641 209.921 286.228 210.372 285.825 210.861C285.614 211.101 285.403 211.341 285.182 211.581C284.942 211.792 284.683 212.003 284.414 212.214C283.128 213.28 281.497 213.5 280.172 214.115C278.992 214.508 277.869 215.103 276.602 215.372C276.286 215.439 275.969 215.535 275.643 215.593L274.654 215.669C273.992 215.756 273.311 215.583 272.648 215.477C271.986 215.295 271.362 215.036 270.767 214.748C270.182 214.393 269.606 214.086 269.059 213.683C267.965 212.886 266.938 212.013 265.815 211.111C263.416 209.153 261.161 208.51 258.675 206.245C258.138 205.717 257.706 204.969 257.236 204.162C256.785 203.318 256.266 202.425 255.537 201.571L248.32 207.771H248.301Z" fill="#EBFEB3"/>
<path d="M222.402 162.223C223.822 165.496 226.145 168.49 228.064 171.436C229.494 173.653 231.298 175.765 232.287 178.193C233.295 180.688 234.302 184.719 235.291 187.271C236.826 191.197 239.619 192.137 241.596 195.822C243.717 199.642 243.976 200.669 246.193 204.891C246.395 205.285 246.903 206.005 247.393 206.619C247.882 207.233 248.304 207.761 248.304 207.771L255.521 201.571C252.393 197.953 250.617 196.82 248.755 194.239C247.661 192.713 247.057 190.889 246.039 189.316C244.302 186.619 241.846 184.325 240.377 181.408C238.918 178.5 238.352 175.573 237.191 172.559C235.943 169.306 234.101 167.617 232.623 164.43C231.961 163.01 232.085 160.908 231.241 158.749L222.383 162.233L222.402 162.223Z" fill="#EBFEB3"/>
<path d="M232.27 128.018C231.934 127.624 231.598 127.221 231.272 126.828C230.744 126.194 230.197 125.551 229.631 124.918C228.517 123.68 227.404 122.519 226.32 121.655C225.245 120.791 224.228 120.263 223.345 119.995C222.443 119.726 221.684 119.64 220.84 119.649C220.523 119.668 220.187 119.707 219.803 119.831C219.419 119.956 219.055 120.215 218.796 120.494C218.268 121.06 217.99 121.722 217.759 122.432C217.299 123.843 217.126 125.503 216.915 127.173C216.799 128.027 216.694 129.045 216.588 130.187C216.492 131.338 216.396 132.548 216.3 133.757C216.099 135.628 216.061 137.413 216.118 138.843C216.377 143.21 218.805 144.918 219.65 149.006C220.59 153.258 220.562 154.323 221.348 158.92C221.425 159.342 221.684 160.168 221.924 160.888C222.039 161.252 222.164 161.578 222.251 161.828C222.347 162.068 222.404 162.231 222.404 162.231L231.262 158.747C229.391 154.17 228.028 152.557 226.972 149.534C226.349 147.749 226.301 145.82 225.773 144.035C224.89 140.993 223.22 138.095 222.913 135.052C222.865 134.668 222.846 134.304 222.855 133.949V133.421C222.865 133.239 222.874 133.037 222.894 133.018C222.932 132.893 222.98 132.768 223.038 132.663C223.095 132.596 223.153 132.548 223.22 132.509C223.479 132.365 223.776 132.538 223.911 132.711C223.988 132.797 223.978 132.807 223.93 132.691C223.882 132.586 223.834 132.336 223.825 132.144C223.796 131.722 223.93 131.425 224.16 131.626C224.266 131.713 224.304 132.135 224.237 132.413C224.208 132.567 224.141 132.663 224.112 132.768L224.093 132.835V132.864C224.093 132.864 224.141 132.97 224.17 133.008C224.324 133.248 224.477 133.488 224.659 133.728L232.279 128.018H232.27Z" fill="#EBFEB3"/>
<path d="M269.807 144.211C267.139 145.295 264.125 146.792 260.929 147.483C258.578 148.001 255.977 148.644 253.511 148.203C252.877 148.107 252.177 147.896 251.448 147.685C250.766 147.464 250.2 147.186 249.605 146.821C248.434 146.13 247.388 145.189 246.553 144.441C245.277 143.299 244.029 142.694 242.714 142.022C241.409 141.341 240.065 140.583 238.875 139.028C237.637 137.416 236.975 136.322 236.342 135.17C235.708 134.018 235.123 132.8 234.135 130.803C233.952 130.439 233.491 129.748 233.079 129.143C232.657 128.548 232.282 128.02 232.282 128.011L224.672 133.721C227.81 137.771 229.739 138.961 231.985 141.533C233.328 143.04 234.326 144.882 235.872 146.341C238.53 148.827 241.985 150.439 245.497 152.128C246.38 152.56 247.292 152.944 248.204 153.318C248.684 153.481 249.135 153.673 249.634 153.808L250.977 154.191C252.59 154.662 254.231 155.084 256.016 155.295C257.945 155.516 259.567 155.343 261.179 155.036C262.791 154.748 264.375 154.316 266.304 153.971C268.012 153.625 270.344 154.105 272.983 153.193L269.835 144.211H269.807Z" fill="#EBFEB3"/>
<path d="M275.987 107.445C277.513 110.305 279.778 113.04 281.342 116.035L281.813 116.86C281.966 117.129 282.158 117.465 282.225 117.522L282.302 117.666L282.388 117.887L282.571 118.328L282.926 119.211C283.166 119.806 283.329 120.411 283.473 121.016C283.617 121.62 283.722 122.234 283.722 122.858C283.77 124.125 283.578 125.708 283.223 127.215C283.051 127.973 282.868 128.712 282.638 129.384C282.446 130.066 282.216 130.68 282.024 131.217C281.448 132.868 281.4 134.154 281.227 135.497C281.083 136.841 280.766 138.242 279.586 139.538C278.338 140.843 277.417 141.457 276.39 141.956C275.392 142.465 274.288 142.868 272.465 143.319C271.812 143.54 269.826 144.212 269.807 144.221L272.954 153.204C275.728 152.177 277.523 150.968 278.962 149.816C280.383 148.607 281.534 147.513 282.897 146.102C284.5 144.461 286.304 142.868 287.398 140.757C288.358 138.972 288.78 136.985 289.068 135.085C289.173 134.125 289.298 133.175 289.346 132.244C289.442 131.304 289.471 130.382 289.576 129.461C289.922 125.824 290.488 122.541 290.133 118.933C290.047 117.964 289.826 117.11 289.615 116.294C289.538 116.025 289.471 115.756 289.394 115.488C289.241 115.113 289.145 114.902 289.058 114.739C288.876 114.384 288.703 114.038 288.521 113.693C288.156 113.002 287.791 112.311 287.417 111.591C287.033 110.871 286.621 110.113 286.256 109.259C285.613 107.733 285.594 105.507 284.5 103.223L275.987 107.474V107.445Z" fill="#EBFEB3"/>
<path d="M240.476 85.3481C243.47 84.7722 246.618 83.7454 249.814 83.6686C252.146 83.611 254.776 83.5342 256.964 84.6187C258.068 85.1945 259.354 86.0966 260.496 87.1427C261.091 87.6226 261.609 88.2272 262.127 88.7262C262.645 89.2157 263.096 89.7435 263.509 90.185C263.826 90.5209 264.142 90.8088 264.469 91.0583C264.776 91.3366 265.083 91.5765 265.39 91.7973C266.014 92.2291 266.676 92.565 267.29 92.9681C267.914 93.3616 268.586 93.7167 269.19 94.2349C269.795 94.7531 270.4 95.3578 270.947 96.1447C271.484 96.9988 271.897 97.6994 272.252 98.3136C272.597 98.9374 272.837 99.5325 273.096 100.118C273.624 101.27 273.999 102.556 274.699 104.552C274.814 104.926 275.131 105.646 275.429 106.27C275.736 106.893 275.995 107.431 276.004 107.44L284.517 103.189C283.874 101.999 283.279 101.01 282.732 100.156C282.137 99.3213 281.59 98.6111 281.072 97.949C280.573 97.2868 280.045 96.7013 279.536 96.1063C279.027 95.5113 278.557 94.8683 278.02 94.1677C277.377 93.352 276.849 92.4595 276.302 91.5573C275.707 90.6936 275.112 89.8203 274.402 89.0333C271.868 86.375 268.499 84.7243 265.534 82.6897C262.559 80.6647 259.929 78.4862 256.378 77.133C254.469 76.4229 252.751 76.2597 251.071 76.2117C250.236 76.2213 249.392 76.2405 248.509 76.2501C247.636 76.3077 246.724 76.3365 245.735 76.3365C244.852 76.3845 243.874 76.1541 242.77 76.0006C241.676 75.8758 240.428 75.7031 239.123 75.9334L240.495 85.3481H240.476Z" fill="#EBFEB3"/>
<path d="M201.855 110.947C203.794 108.279 205.32 105.084 207.287 102.348C208.756 100.333 210.166 98.0202 212.239 96.5615C214.36 95.0356 218.026 93.548 220.33 92.5403C222.105 91.763 223.189 90.7361 224.332 89.7284C224.888 89.2006 225.474 88.7207 226.136 88.2505C226.798 87.7706 227.556 87.3675 228.487 87.0604C229.437 86.715 230.234 86.523 230.934 86.3599C231.635 86.1871 232.249 86.0719 232.882 86.0048C234.13 85.832 235.435 85.7456 237.489 85.7073C237.873 85.7073 238.612 85.5921 239.264 85.4961C239.591 85.4577 239.898 85.4289 240.119 85.4002C240.339 85.3714 240.483 85.3522 240.493 85.3522L239.121 75.9375C236.318 76.3694 234.476 77.0987 232.911 77.7513C232.115 78.0584 231.414 78.4231 230.694 78.7494C229.965 79.0565 229.236 79.3732 228.42 79.7187C227.451 80.1026 226.452 80.3713 225.474 80.6976C224.975 80.8512 224.485 81.0047 223.996 81.1871C223.516 81.379 223.046 81.5901 222.585 81.8205C219.408 83.4616 216.932 86.0815 214.053 87.9818C211.184 89.8916 208.266 91.168 205.493 93.2985C202.508 95.621 201.452 98.0874 199.043 100.899C197.969 102.166 195.953 103.097 194.398 105.064L201.875 110.947H201.855Z" fill="#EBFEB3"/>
<path d="M183.79 154.908C183.905 151.683 183.454 148.209 183.646 144.86C183.828 142.384 183.79 139.677 184.788 137.345C185.268 136.136 186.122 134.725 186.986 133.353C187.898 132.009 188.8 130.656 189.52 129.591C191.66 126.337 190.959 123.593 193.282 120.32C195.729 116.999 196.554 116.376 199.731 113.401C200.019 113.122 200.527 112.508 200.998 111.98C201.449 111.433 201.832 110.963 201.842 110.953L194.366 105.07C191.161 109.341 190.662 111.558 188.876 114.456C188.349 115.31 187.725 116.107 187.12 116.913C186.516 117.719 185.892 118.525 185.431 119.427C183.78 122.498 183.166 126.001 181.765 129.13C180.354 132.249 178.541 134.859 177.322 138.142C176.007 141.693 176.4 144.37 175.901 148.075C175.671 149.725 174.491 151.645 174.289 154.197L183.78 154.917L183.79 154.908Z" fill="#EBFEB3"/>
<path d="M199.414 197.079C196.947 195.025 193.963 193.317 191.611 191.052C190.748 190.207 189.826 189.353 188.982 188.422C188.214 187.453 187.379 186.474 186.966 185.313C186.736 184.727 186.515 184.046 186.304 183.326C186.141 182.578 186.007 181.791 185.863 181.004C185.719 180.226 185.623 179.42 185.517 178.662C185.421 177.904 185.287 177.194 185.22 176.579C185.105 175.629 184.865 174.833 184.567 174.094C184.308 173.355 183.982 172.673 183.646 172.002C183.291 171.33 183.012 170.62 182.753 169.852C182.629 169.468 182.513 169.065 182.417 168.633C182.341 168.201 182.302 167.741 182.283 167.261C182.206 163.22 182.523 162.232 183.425 158.067C183.521 157.683 183.559 156.906 183.655 156.215C183.723 155.524 183.78 154.938 183.78 154.919L174.289 154.199C174.212 155.552 174.193 156.704 174.27 157.731C174.337 158.758 174.394 159.641 174.538 160.466C174.663 161.291 174.778 162.05 174.884 162.827C174.999 163.595 175.133 164.382 175.2 165.245C175.268 166.272 175.296 167.299 175.306 168.326C175.296 169.363 175.354 170.399 175.556 171.416C176.227 174.919 178.032 178.134 179.135 181.378C179.385 182.203 179.634 183.019 179.855 183.844C180.085 184.66 180.239 185.495 180.498 186.32C181.007 187.952 181.496 189.641 182.35 191.263C182.571 191.704 182.801 192.117 183.032 192.511C183.281 192.894 183.55 193.24 183.809 193.585C184.346 194.257 184.874 194.881 185.441 195.466C186.621 196.599 187.792 197.712 189.145 199.065C189.73 199.689 190.21 200.534 190.815 201.426C191.4 202.328 192.072 203.326 193.032 204.161L199.395 197.088L199.414 197.079Z" fill="#EBFEB3"/>
<path d="M241.059 228.096C240.425 227.242 239.754 226.397 238.986 225.716C238.612 225.361 238.228 225.015 237.834 224.679L236.615 223.777C234.993 222.597 233.285 221.675 231.692 220.773C229.302 219.439 226.654 218.489 224.542 216.934C222.383 215.312 219.465 212.376 217.412 210.687C214.273 208.086 211.442 208.566 208.275 206.061C205.051 203.441 204.456 202.577 201.682 199.285C201.433 198.978 200.838 198.451 200.348 197.971C199.849 197.5 199.417 197.088 199.408 197.078L193.045 204.151C193.554 204.593 194.043 205.005 194.494 205.37C194.964 205.715 195.406 206.032 195.818 206.32C196.653 206.896 197.402 207.366 198.122 207.769C199.542 208.595 200.78 209.238 202.191 210.188C203.851 211.301 205.224 212.808 206.913 213.854C209.801 215.639 213.151 216.541 215.924 218.336C218.688 220.121 220.713 222.347 223.18 224.305C224.523 225.361 225.723 226.023 226.951 226.685C227.546 227.021 228.17 227.338 228.775 227.721C229.35 228.115 229.993 228.528 230.579 229.055C231.068 229.545 231.539 230.226 231.865 231.013C232.047 231.397 232.23 231.8 232.46 232.184C232.642 232.587 232.834 232.99 233.112 233.364L241.059 228.124V228.096Z" fill="#EBFEB3"/>
<path d="M229.837 280.907C231.843 277.74 232.985 273.997 234.079 270.571C234.53 269.304 234.809 267.951 235.202 266.655C235.577 265.35 235.951 264.055 236.565 262.874C237.745 260.427 240.087 256.914 241.21 254.371C242.093 252.433 242.218 250.772 242.237 249.102C242.256 248.267 242.275 247.442 242.323 246.559C242.371 245.657 242.554 244.813 242.774 243.623C242.899 243.028 243.014 242.49 243.12 241.991C243.206 241.482 243.235 241.012 243.293 240.561C243.35 240.11 243.398 239.697 243.456 239.285C243.504 238.872 243.484 238.469 243.513 238.066C243.523 237.25 243.609 236.406 243.484 235.417C243.436 234.918 243.379 234.381 243.321 233.795C243.225 233.219 243.062 232.596 242.899 231.895C242.832 231.645 242.726 231.242 242.544 230.839C242.362 230.436 242.141 229.995 241.93 229.582C241.719 229.169 241.527 228.776 241.354 228.517C241.181 228.258 241.066 228.095 241.066 228.085L233.12 233.325C233.446 233.718 233.609 234.102 233.849 234.448C234.079 234.793 234.3 235.11 234.444 235.417C234.607 235.724 234.78 236.012 234.953 236.281C235.106 236.559 235.202 236.837 235.337 237.097C235.461 237.365 235.586 237.624 235.701 237.874C235.778 238.143 235.855 238.411 235.932 238.68C236.008 238.949 236.076 239.227 236.143 239.515C236.162 239.813 236.172 240.12 236.181 240.446C236.172 240.83 236.2 241.204 236.085 241.598L235.768 242.749L235.615 243.315L235.404 243.968C235.269 244.409 235.154 244.851 235.068 245.302C234.444 248.383 234.511 251.694 233.436 254.726C232.333 257.73 230.548 260.072 229.07 262.836C227.429 265.782 227.342 268.229 225.73 271.224C225.029 272.586 223.264 273.623 222.035 275.437L229.837 280.878V280.907Z" fill="#EBFEB3"/>
<path d="M180.275 299.028C181.197 299.258 182.147 299.45 183.097 299.594C183.577 299.671 184.047 299.738 184.527 299.786L186.005 299.825C186.974 299.825 187.943 299.844 188.913 299.844C189.872 299.825 190.842 299.69 191.773 299.652C192.473 299.604 193.174 299.566 193.874 299.46C194.575 299.326 195.276 299.191 195.976 299.057C196.677 298.923 197.368 298.855 198.059 298.74C198.75 298.596 199.431 298.5 200.122 298.443C201.552 298.414 203.327 298.222 205.18 298.078C206.101 298.02 206.984 297.79 207.867 297.646C208.731 297.473 209.575 297.349 210.256 297.08C211.331 296.715 212.233 296.255 213.02 295.756C213.779 295.208 214.412 294.585 215.045 293.98C215.362 293.683 215.669 293.375 215.986 293.068C216.283 292.742 216.59 292.416 216.917 292.089C217.55 291.427 218.328 290.842 219.201 290.18C220.103 289.489 220.842 288.942 221.514 288.462C222.176 287.982 222.713 287.521 223.308 287.089C223.884 286.648 224.508 286.226 225.17 285.688C225.832 285.132 226.591 284.498 227.521 283.702C227.886 283.414 228.433 282.704 228.932 282.08C229.422 281.446 229.834 280.899 229.844 280.89L222.042 275.448C219.412 279.316 218.663 281.12 216.59 283.347C215.947 283.951 215.208 284.46 214.489 284.959C213.75 285.439 212.972 285.832 212.301 286.379C211.734 286.869 211.139 287.291 210.573 287.761C209.988 288.212 209.46 288.778 208.855 289.182C208.251 289.613 207.646 290.036 207.013 290.448C206.389 290.861 205.679 291.091 204.988 291.36C203.606 291.917 202.157 291.907 200.794 292.032C200.103 292.07 199.393 291.974 198.702 291.974C198.001 291.936 197.32 292.013 196.6 291.917C195.055 291.811 193.788 292.089 192.464 292.137C191.801 292.195 191.13 292.253 190.429 292.31C189.728 292.31 188.98 292.233 188.183 292.118C187.828 292.061 187.454 291.946 187.08 291.802C186.696 291.658 186.312 291.475 185.909 291.216C185.103 290.746 184.229 290.256 183.193 289.959L180.285 299.019L180.275 299.028Z" fill="#EBFEB3"/>
<path d="M136.963 268.653C138.268 269.891 139.746 271.004 141.243 272.069C142.779 273.067 144.343 274.017 145.802 275.025C147.942 276.561 150.485 277.751 152.356 279.593C154.218 281.561 156.905 284.737 158.825 286.733C161.992 289.603 164.852 289.373 168.355 291.733C170.14 293.039 171.32 293.749 172.472 294.584C173.048 295.006 173.633 295.438 174.324 295.946C175.005 296.465 175.86 296.935 176.906 297.588C177.673 298.058 180.226 299.085 180.284 299.027L183.192 289.968C182.635 289.843 182.126 289.651 181.647 289.497C181.167 289.344 180.716 289.209 180.293 289.085C179.449 288.845 178.681 288.682 177.981 288.499C176.589 288.058 175.37 287.693 173.959 287.04C172.309 286.234 171.013 284.814 169.401 283.931C168.038 283.154 166.618 282.405 165.159 281.733C164.439 281.378 163.7 281.052 163.009 280.63C162.328 280.207 161.666 279.747 161.042 279.238C159.804 278.211 158.719 277.146 157.721 275.975C156.733 274.795 155.763 273.605 154.631 272.472C153.393 271.273 152.241 270.409 151.042 269.574C149.842 268.749 148.594 267.952 147.28 266.8C146.118 265.754 145.495 263.739 143.873 262.107L136.963 268.653Z" fill="#EBFEB3"/>
<path d="M117.627 219.374C117.665 220.266 117.761 221.159 117.886 222.061C118.03 222.963 118.232 223.875 118.433 224.777C118.635 225.679 118.836 226.572 119.067 227.464C119.316 228.357 119.556 229.249 119.777 230.122C119.94 230.775 120.113 231.428 120.305 232.09C120.525 232.742 120.746 233.405 120.957 234.057C121.37 235.372 121.686 236.687 121.946 238.011C122.176 239.384 122.234 241.149 122.531 242.915C122.656 243.808 122.781 244.7 122.896 245.545C123.078 246.38 123.28 247.157 123.472 247.858C123.788 248.913 124.134 249.844 124.662 250.583C125.17 251.341 125.727 251.994 126.283 252.647C127.349 253.981 128.625 255.094 129.662 256.985C130.18 257.983 130.66 258.741 131.072 259.422C131.475 260.104 131.821 260.718 132.157 261.351C132.502 261.975 132.809 262.647 133.232 263.357C133.664 264.077 134.153 264.892 134.758 265.919C134.988 266.294 135.535 266.985 136.024 267.589C136.264 267.896 136.514 268.155 136.687 268.347C136.869 268.539 136.984 268.664 136.984 268.664L143.894 262.119C142.186 260.382 140.967 259.221 139.796 258.261C138.654 257.292 137.781 256.39 136.783 255.18C136.495 254.825 136.236 254.441 135.986 254.057C135.775 253.654 135.573 253.251 135.372 252.839C134.969 252.023 134.575 251.217 134.067 250.478C133.251 249.182 132.358 247.954 131.389 246.725C130.593 245.43 129.719 244.125 129.23 242.666C128.299 239.719 128.404 236.908 128.164 233.875C128.04 232.224 127.637 230.919 127.32 229.527C126.974 228.155 126.533 226.783 126.437 225.055C126.312 223.51 127.147 221.629 127.157 219.307L117.637 219.383L117.627 219.374Z" fill="#EBFEB3"/>
<path d="M130.209 168.525C128.164 171.203 126.418 174.619 124.729 177.959C123.472 180.493 122.685 183.362 121.667 186.069C121.552 186.424 121.408 186.808 121.264 187.201C121.111 187.595 120.938 188.007 120.842 188.458C120.727 188.909 120.602 189.37 120.477 189.831L120.285 190.551L120.132 191.184C119.748 192.825 119.335 194.457 119.095 195.771C118.347 199.802 120.132 202.067 119.642 206.155C119.124 210.407 118.731 211.376 117.819 215.915C117.723 216.328 117.675 217.192 117.656 217.95C117.637 218.708 117.627 219.37 117.627 219.38L127.147 219.303C127.07 216.846 126.907 215.09 126.715 213.555C126.523 212.029 126.341 210.704 126.379 209.073C126.418 207.144 126.965 205.272 127.022 203.334C127.109 200.023 126.283 196.693 126.504 193.372C126.562 192.547 126.658 191.741 126.783 190.954C126.946 190.311 127.147 189.764 127.32 189.197C127.579 188.641 127.877 188.113 128.116 187.575C128.452 187.048 128.779 186.51 129.067 185.944C130.554 183.554 131.024 181.299 133.097 178.554C134.047 177.326 135.967 176.491 137.541 174.6L130.209 168.535V168.525Z" fill="#EBFEB3"/>
<path d="M137.299 123.316C137.76 126.627 138.931 130.043 139.535 133.412C139.996 135.917 140.716 138.546 140.476 141.099C140.245 143.729 139.046 147.606 138.499 150.159C138.057 152.126 138.278 153.681 138.489 155.255C138.547 155.648 138.595 156.041 138.652 156.445C138.671 156.704 138.719 156.684 138.729 156.8C138.729 156.934 138.729 157.088 138.71 157.28C138.643 157.99 138.556 158.767 138.105 159.554C137.894 159.967 137.712 160.331 137.529 160.667C137.309 160.994 137.098 161.281 136.906 161.56C136.704 161.828 136.522 162.078 136.339 162.328C136.147 162.567 135.927 162.788 135.716 163.009C134.9 163.901 133.969 164.756 132.366 166.147C132.059 166.406 131.56 166.992 131.08 167.52C130.61 168.057 130.207 168.527 130.197 168.537L137.529 174.602C137.942 174.093 138.307 173.604 138.652 173.153C138.988 172.673 139.295 172.222 139.574 171.8C140.14 170.965 140.572 170.14 140.975 169.391C141.387 168.652 141.723 167.903 142.078 167.164C142.261 166.8 142.453 166.435 142.645 166.051C142.827 165.658 143.019 165.255 143.22 164.823C143.46 164.324 143.748 163.853 144.017 163.354L144.785 161.819C145.351 160.821 145.677 159.669 145.975 158.518L146.071 158.086C146.119 157.942 146.128 157.702 146.138 157.529L146.157 157.107V156.79C146.167 156.368 146.157 155.946 146.157 155.523C146.138 154.679 146.09 153.834 146.032 152.98C145.927 151.291 145.821 149.602 145.956 147.922C146.215 144.573 147.165 141.617 147.424 138.229C147.693 134.573 146.685 132.164 146.378 128.527C146.243 126.895 147.03 124.851 146.79 122.385L137.318 123.316H137.299Z" fill="#EBFEB3"/>
<path d="M118.089 86.7209C119.299 86.7209 120.537 86.7017 121.871 86.9033C123.195 87.0952 124.596 87.5271 125.882 88.2565C126.852 88.7747 127.84 89.4273 128.781 90.1759C129.683 90.9628 130.537 91.8553 131.103 92.9398C131.717 94.0243 132.188 95.5502 132.591 97.0665C132.955 98.6116 133.243 100.147 133.483 101.376C133.877 103.247 134.606 104.543 135.364 105.877C136.113 107.211 136.861 108.593 137.12 110.56C137.591 114.658 137.389 115.675 137.13 120.051C137.101 120.454 137.13 121.27 137.188 121.98C137.245 122.691 137.284 123.305 137.293 123.324L146.765 122.393C146.151 117.163 145.009 115.195 144.347 111.865C143.944 109.898 144.001 107.834 143.464 105.857C142.533 102.46 140.556 99.4466 139.241 96.174C138.56 94.5425 138.051 92.9206 137.399 91.3083C136.775 89.6864 136.026 88.0549 134.932 86.4618C133.761 84.744 132.36 83.5635 130.844 82.575C129.318 81.5865 127.686 80.7516 125.652 79.8687C125.191 79.6767 124.721 79.4368 124.241 79.1585C123.733 78.8994 123.205 78.6211 122.639 78.3236C121.487 77.8053 120.114 77.2967 118.56 77.2295L118.07 86.7305L118.089 86.7209Z" fill="#EBFEB3"/>
<path d="M85.3098 116.378C86.9317 113.422 87.997 109.977 89.4941 106.925C90.6073 104.66 91.615 102.146 93.3521 100.293C95.1563 98.3932 98.4769 96.2146 100.54 94.8135C102.124 93.7098 102.988 92.539 103.909 91.3586C104.821 90.1877 105.799 88.9977 107.488 88.1627C109.254 87.347 110.387 87.0111 111.538 86.8096C112.681 86.6368 113.89 86.4929 115.627 86.656C115.943 86.7136 116.567 86.656 117.095 86.6848C117.364 86.6848 117.604 86.6848 117.786 86.704C117.968 86.7136 118.084 86.7232 118.084 86.7232L118.573 77.2222C115.262 77.1166 113.093 77.846 111.375 78.5369C109.638 79.2567 108.285 80.0053 106.634 80.8594C104.696 81.8575 102.594 82.5485 100.886 83.8345C97.9107 86.0226 95.9817 89.1129 93.5152 91.5313C91.0584 93.9593 88.448 95.754 86.1255 98.326C83.6399 101.119 83.0449 103.691 81.1159 106.8C80.2618 108.192 78.4191 109.382 77.1523 111.483L85.3098 116.378Z" fill="#EBFEB3"/>
<path d="M85.3104 116.376L81.2316 113.929L79.1875 112.7L78.1702 112.086L77.6615 111.779L77.4024 111.625L77.2777 111.549L77.2105 111.51L77.1817 111.491H77.1625V111.481C77.0377 111.481 77.0377 111.481 76.9706 111.481C76.7402 111.52 76.7498 111.52 76.6251 111.539L76.6155 111.558L76.5867 111.587L76.5387 111.645L76.4427 111.76L76.2412 111.98L75.8477 112.422L75.0512 113.305L73.4676 115.08L70.291 118.622L70.7709 119.034L71.2603 119.428L71.7594 119.802L72.2584 120.148L72.7671 120.474L73.2757 120.781L73.7939 121.059L74.3122 121.318L74.8304 121.558L75.3487 121.769L75.8573 121.961L76.3948 122.153L76.9322 122.316L77.4696 122.46L78.0071 122.576L78.5445 122.662L79.0339 122.432L79.5138 122.173L79.9936 121.894L80.4639 121.587L80.9341 121.261L81.3948 120.915L81.8459 120.551L82.2873 120.167L82.7096 119.764L83.1222 119.341L83.5253 118.89L83.9188 118.43L84.3027 117.95L84.6674 117.451L85.0129 116.933L85.3487 116.395L85.3104 116.376Z" fill="#EBFEB3"/>
</svg>
