<svg width="382" height="442" viewBox="0 0 382 442" fill="none" xmlns="http://www.w3.org/2000/svg">
<path d="M373.377 308.223C361.525 285.92 326.822 316.88 308.376 304.835C162.108 232.714 371.198 174.489 229.115 103.106C229.115 103.106 250.765 51.7812 244.767 38.403C238.769 25.0343 218.26 4.41992 202.886 4.41992C187.511 4.41992 167.684 53.192 168.999 69.862C170.314 86.532 187.166 98.893 187.166 98.893C187.166 98.893 146.628 146.456 140.582 157.809C123.394 190.036 167.079 234.441 200.314 228.645C208.951 227.138 227.406 165.813 223.328 154.786C213.462 128.077 177.08 146.158 184.344 164.373C189.719 177.848 209.306 170.199 213.654 163.529C217.992 156.859 204.959 206.859 186.648 204.623C166.302 202.147 157.828 179.009 156.292 170.16C154.45 159.498 185.832 123.73 194.959 122.291C219.585 118.413 236.936 136.283 242.838 150.851C248.74 165.419 241.197 289.624 181.024 279.518C95.217 265.104 76.9155 298.376 73.9596 319.327C71.0038 340.277 96.8005 395.834 86.9252 395.278C77.0499 394.721 55.5717 359.5 13.2009 395.278C-29.1699 431.055 87.002 443.234 103.806 434.395C120.611 425.556 107.252 420.633 107.693 406.948C108.135 393.262 112.194 400.873 169.018 353.195C260.545 276.39 179.152 413.579 240.017 415.508C300.881 417.437 309.499 360.085 321.102 350.824C332.695 341.563 310.766 394.404 348.991 397.802C369.509 399.625 385.248 330.526 373.396 308.213L373.377 308.223ZM211.178 93.0867C204.421 100.908 178.97 81.7335 178.97 63.0193C178.97 44.3052 183.874 20.0727 206.552 20.0727C216.974 20.0727 224.777 77.338 211.178 93.0867Z" fill="#EBFEB3"/>
<path d="M174.637 67.6996C175.03 69.5518 175.817 71.2984 176.738 72.9011C177.689 74.4846 178.744 75.953 179.79 77.3062C181.345 79.36 183.351 81.0682 184.723 83.1123C186.105 85.2333 188.015 88.7171 189.762 90.7228C191.096 92.2584 192.535 92.9877 194.023 93.5635C195.51 94.1585 197.007 94.648 198.773 95.7132C200.645 96.7977 201.883 97.4503 203.303 98.0261C203.648 98.1893 204.023 98.3236 204.426 98.4484C204.829 98.5827 205.232 98.7363 205.75 98.8323C206.259 98.9378 206.768 99.0818 207.449 99.1106C207.775 99.1298 208.121 99.1585 208.495 99.1681C208.888 99.1489 209.301 99.1106 209.743 99.0626C210.059 99.0434 210.568 98.8994 211.134 98.6883C211.7 98.5155 212.324 98.1701 212.881 97.815C213.457 97.4887 213.898 97.0473 214.234 96.7402C214.57 96.4235 214.771 96.2027 214.771 96.2027L207.574 89.9838C207.574 89.9838 207.602 90.051 207.439 90.2142C207.324 90.2621 207.257 90.3773 207.065 90.4061C206.911 90.4732 206.748 90.5501 206.537 90.5692C205.741 90.7324 204.781 90.7708 203.648 90.3774C202.295 89.9167 201.172 88.7938 199.867 88.026C197.631 86.7112 194.867 85.7323 192.919 83.6978C190.99 81.6728 190.021 79.264 188.725 76.9319C188.034 75.6651 187.257 74.763 186.508 73.8225C186.115 73.3618 185.74 72.882 185.395 72.3637C185.021 71.8455 184.714 71.2792 184.416 70.6266C183.927 69.4366 184.301 67.7379 184.023 66.0488L174.646 67.6996H174.637Z" fill="#EBFEB3"/>
<path d="M189.732 20.4072C188.197 21.5877 186.949 23.1135 185.913 24.6875C184.915 26.2998 184.118 27.9601 183.417 29.5628C182.362 31.9621 181.901 34.5724 180.836 36.7893C179.694 39.0638 177.707 42.4612 176.815 44.8892C175.433 48.6417 177.026 50.9833 176.335 54.7454C175.98 56.7224 175.749 57.9412 175.452 59.1888C175.308 59.8126 175.154 60.446 174.982 61.1849C174.895 61.5592 174.809 61.9527 174.713 62.3942C174.665 62.6149 174.617 62.8356 174.569 63.0947C174.531 63.373 174.492 63.6706 174.444 63.9777C174.377 64.4384 174.367 65.3692 174.463 66.1753C174.502 66.5784 174.54 66.9624 174.569 67.2407C174.617 67.5094 174.646 67.6821 174.646 67.6917L184.022 66.0411C183.686 64.1984 183.485 63.1043 183.283 61.6167C183.091 60.2636 182.918 59.0927 182.976 57.6628C183.043 55.9737 183.686 54.3615 183.849 52.7012C184.137 49.8797 183.696 46.9142 184.492 44.1694C185.279 41.4343 186.892 39.3806 188.216 37.1157C188.926 35.8776 189.348 34.8123 189.761 33.7087C190.203 32.6434 190.625 31.5013 191.508 30.4457C192.304 29.4764 193.945 29.0925 195.299 28.1424L189.751 20.4072H189.732Z" fill="#EBFEB3"/>
<path d="M222.328 47.5884C221.82 44.335 220.351 41.1393 219.2 38.0874C218.336 35.7937 217.069 33.5575 216.57 31.1775C216.071 28.7302 215.745 24.8051 214.612 22.0891C214.18 21.0527 213.585 20.1793 212.837 19.4115C212.635 19.2196 212.434 19.0373 212.232 18.8646C212.021 18.6822 211.714 18.4615 211.464 18.2792C210.927 17.9145 210.361 17.6169 209.785 17.4058C209.209 17.1851 208.605 17.0412 208 16.9836C207.395 16.9452 206.752 16.9451 206.157 17.0315C205.917 17.0603 205.668 17.0986 205.409 17.1274C205.188 17.1562 204.967 17.1755 204.737 17.1947C204.276 17.2139 203.796 17.2714 203.278 17.2714C201.129 17.2906 199.766 17.4442 198.355 17.569C196.944 17.7225 195.447 17.8761 193.057 18.615C192.626 18.7686 191.762 19.1333 191.071 19.5747C190.716 19.7859 190.389 19.9874 190.15 20.1313C189.91 20.2753 189.766 20.4001 189.766 20.4001L195.313 28.1353C196.752 27.0604 197.818 26.379 198.777 25.7264C199.286 25.4577 199.737 25.1505 200.246 24.9298C200.764 24.7283 201.272 24.4788 201.906 24.3732C202.271 24.3061 202.645 24.2581 203.009 24.2389C203.384 24.2389 203.768 24.2581 204.142 24.2773C204.516 24.2965 204.89 24.3156 205.274 24.354C205.466 24.3732 205.649 24.3828 205.841 24.3828H205.985H206.023C206.042 24.3828 206.071 24.3828 206.081 24.3828C206.148 24.3732 206.234 24.3253 206.368 24.2965C206.436 24.2869 206.503 24.2773 206.589 24.2773C206.714 24.3445 206.935 24.4692 207.127 24.642C207.923 25.2658 208.758 26.3598 209.257 27.5786C210.265 30.0834 210.188 32.7514 210.639 35.5154C211.109 38.5192 212.453 40.333 213.067 43.4137C213.336 44.7956 212.664 46.5999 212.904 48.6632L222.357 47.5693L222.328 47.5884Z" fill="#EBFEB3"/>
<path d="M214.772 96.1921C216.077 94.5702 216.883 92.718 217.43 90.9233C217.977 89.1191 218.265 87.334 218.534 85.645C218.947 83.1209 218.803 80.5201 219.436 78.1688C220.089 75.76 221.519 72.1515 222.066 69.6755C222.91 65.8559 221.068 63.7446 221.375 59.9537C221.634 55.9902 221.96 55.0593 222.459 50.7887C222.507 50.3952 222.478 49.5985 222.43 48.9076C222.402 48.5621 222.382 48.2358 222.363 47.9959C222.344 47.756 222.325 47.6024 222.325 47.5928L212.872 48.6868C213.428 53.0823 214.302 54.8098 214.484 57.6985C214.58 59.4067 214.11 61.0958 214.129 62.7849C214.148 65.6736 214.974 68.6103 214.59 71.4894C214.206 74.3589 212.997 76.739 212.162 79.359C211.701 80.7697 211.547 81.9694 211.394 83.1786C211.24 84.3878 211.077 85.597 210.53 86.883C210.041 88.0538 208.515 88.8504 207.574 89.9636L214.772 96.1825V96.1921Z" fill="#EBFEB3"/>
<path d="M241.035 44.7068C241.179 47.9602 241.563 51.8854 241.362 55.6091C241.198 58.3826 241.218 61.3864 240.296 64.0736C239.346 66.8375 237.139 70.7244 235.882 73.3444C233.953 77.3751 234.96 80.2638 233.118 84.3905C231.189 88.6516 230.459 89.5537 227.907 93.834C227.667 94.2274 227.292 95.0719 226.966 95.8109C226.649 96.5594 226.371 97.2025 226.371 97.2121L235.21 100.734C237.235 95.4078 237.283 93.0086 238.511 89.5441C239.221 87.5 240.421 85.6476 241.112 83.5843C242.293 80.043 242.552 76.2426 243.742 72.7109C244.922 69.1888 246.64 66.2425 247.801 62.6341C249.03 58.7281 248.675 55.8682 249.154 51.7319C249.346 49.8796 250.556 47.7011 250.565 44.6396L241.045 44.6972L241.035 44.7068Z" fill="#EBFEB3"/>
<path d="M207.357 9.84911C210.428 10.5881 214.123 11.3174 217.444 12.8434C219.91 13.947 222.645 15.0987 224.651 17.0565C226.734 19.0527 229.114 22.7379 230.688 25.0604C231.926 26.8454 233.231 27.8819 234.536 28.9568C235.851 30.0317 237.185 31.1353 238.25 33.0355C239.354 34.9933 239.872 36.2697 240.323 37.5749C240.525 38.2275 240.736 38.8992 240.908 39.667C241.043 40.0988 240.995 40.3484 241.014 40.6459C241.052 40.8954 240.995 41.3561 240.985 41.7688C240.985 41.8456 240.985 41.9415 240.985 42.0566C240.985 42.1814 240.985 42.3254 240.985 42.479C240.985 42.7861 241.004 43.1123 241.024 43.4291C241.024 43.7649 241.024 44.0913 241.014 44.3216C241.014 44.552 241.014 44.7054 241.014 44.715L250.534 44.6575C250.467 41.4233 249.834 38.8129 248.605 36.5576C247.607 34.8685 246.647 33.5825 245.621 31.9126C244.402 29.9644 243.528 27.8243 242.146 26.0201C239.757 22.9202 236.523 20.6842 233.922 17.901C231.302 15.1467 229.344 12.2292 226.407 9.638C224.824 8.23684 223.269 7.36347 221.666 6.59571C220.064 5.81835 218.394 5.15618 216.455 4.22527C214.728 3.40953 212.924 1.55726 209.91 0.703125L207.348 9.86832L207.357 9.84911Z" fill="#EBFEB3"/>
<path d="M178.77 45.6087C179.883 42.0578 180.421 38.123 181.467 34.5049C182.244 31.8081 182.887 28.8907 184.375 26.4914C185.901 24.0154 188.962 20.8388 190.872 18.8138C191.592 18.0172 192.148 17.2783 192.59 16.5201C193.06 15.8003 193.415 15.0422 193.809 14.3225C194.212 13.6219 194.576 12.8445 195.104 12.1823C195.363 11.8368 195.642 11.4913 195.958 11.1458C196.285 10.8387 196.649 10.522 197.062 10.2245C197.475 9.88862 197.887 9.70625 198.242 9.47592C198.425 9.37035 198.598 9.27444 198.761 9.17847C198.933 9.11129 199.087 9.04403 199.25 8.97685C199.567 8.85209 199.855 8.71775 200.133 8.63138C200.402 8.57379 200.67 8.52577 200.93 8.46818C201.189 8.39141 201.438 8.42028 201.678 8.42988C201.918 8.43947 202.177 8.40104 202.388 8.50661C202.494 8.5354 202.609 8.56416 202.724 8.59295L202.897 8.63138C202.993 8.66017 203.089 8.68893 203.185 8.71772C203.578 8.83288 203.991 8.91928 204.461 9.10162C204.634 9.1688 204.893 9.21685 205.191 9.29363C205.498 9.38 205.834 9.46639 206.15 9.54316C206.793 9.72551 207.35 9.87904 207.36 9.88864L209.922 0.723446C208.31 0.310775 206.899 0.0804743 205.584 0.0324893C204.941 -0.0154958 204.327 -0.00589877 203.732 0.0324893C203.444 0.0516833 203.156 0.06121 202.878 0.0804041C202.532 0.137986 202.196 0.186004 201.86 0.233989C199.212 0.704243 197.427 1.73117 195.546 2.9212C193.338 4.34156 191.169 5.60838 189.538 7.37423C186.726 10.4069 185.286 14.1209 183.156 17.2783C181.045 20.4453 178.684 22.9789 176.745 26.2611C174.672 29.812 174.461 32.6815 173.021 36.4723C172.378 38.171 170.718 39.8889 169.797 42.4705L178.77 45.6471V45.6087Z" fill="#EBFEB3"/>
<path d="M186.521 92.0962C183.862 89.7641 180.686 87.6432 178.2 85.004C176.396 83.0462 174.304 80.9733 173.459 78.3917C173.19 77.7487 173.085 76.9713 172.922 76.1748C172.855 75.7717 172.759 75.3686 172.73 74.9463C172.711 74.5241 172.691 74.1018 172.663 73.6796C172.643 73.2669 172.624 72.8446 172.605 72.4319C172.605 72.0192 172.653 71.6162 172.672 71.2323C172.749 70.4645 172.711 69.7256 172.816 69.1306C173.037 67.3072 172.864 65.714 172.72 64.0633C172.567 62.4223 172.499 60.6948 173.123 58.5931C173.795 56.4146 174.342 55.0998 174.947 53.785C175.57 52.4702 176.261 51.1458 177.404 48.9865C177.605 48.593 177.951 47.758 178.229 47.0094C178.507 46.2705 178.747 45.6275 178.757 45.6083L169.783 42.4316C167.941 47.9595 168.075 50.426 167.173 54.0824C166.674 56.2514 165.686 58.3051 165.33 60.5796C165.014 62.5086 165.014 64.5336 165.129 66.5778L165.244 68.1325L165.436 69.7352C165.58 70.7909 165.801 71.7793 165.906 72.8158C166.511 76.8562 166.991 80.5894 168.651 84.3515C169.553 86.3764 170.695 87.816 171.876 89.1692C172.49 89.8218 173.104 90.4839 173.747 91.1653C174.409 91.8275 175.071 92.5377 175.772 93.3342C177.039 94.7162 177.903 97.0579 179.985 99.0253L186.501 92.0866L186.521 92.0962Z" fill="#EBFEB3"/>
<path d="M154.828 145.86C156.863 143.009 158.341 139.583 160.107 136.531C161.422 134.266 162.564 131.714 164.368 129.804C166.23 127.846 169.569 125.37 171.575 123.556C174.656 120.763 174.637 117.855 177.573 114.9C180.616 111.828 181.546 111.301 185.117 108.374C185.443 108.105 186.028 107.481 186.537 106.934C187.036 106.377 187.468 105.888 187.477 105.878L180.203 99.7363C176.93 103.738 176.211 105.821 174.099 108.412C172.861 109.947 171.22 111.118 169.982 112.644C167.852 115.264 166.441 118.45 164.214 120.994C161.997 123.537 159.454 125.293 157.132 127.76C154.627 130.408 153.878 132.894 151.7 135.821C150.721 137.126 148.782 138.124 147.285 140.053L154.819 145.869L154.828 145.86Z" fill="#EBFEB3"/>
<path d="M144.75 188.423C143.396 185.534 141.477 182.674 140.373 179.565C140.037 178.413 139.538 177.223 139.27 175.995C139.02 174.776 138.78 173.509 138.982 172.281C139.078 171.657 139.164 170.947 139.385 170.227C139.615 169.507 139.884 168.768 140.153 168.029C140.421 167.3 140.824 166.609 141.122 165.957C141.275 165.63 141.429 165.314 141.573 165.006C141.746 164.719 141.899 164.44 142.053 164.172C143.771 160.985 143.041 158.5 145.623 155.313C146.928 153.691 147.888 152.741 148.867 151.811C149.836 150.87 150.901 149.958 152.609 148.423C152.917 148.144 153.473 147.501 153.943 146.926C154.414 146.35 154.826 145.851 154.836 145.841L147.302 140.025C144.183 144.2 143.569 146.359 141.621 149.143C141.036 149.939 140.383 150.745 139.702 151.513C139.03 152.281 138.348 153.049 137.792 154.037C136.765 155.63 136.237 157.501 135.652 159.277C135.21 161.1 134.759 162.914 134.318 164.728C133.761 166.504 133.377 168.212 132.859 169.939C132.533 171.676 132.091 173.461 132.11 175.342C132.005 177.396 132.494 179.047 132.907 180.669C133.454 182.233 133.991 183.807 134.644 185.688C135.153 187.358 134.98 189.68 136.007 192.137L144.759 188.404L144.75 188.423Z" fill="#EBFEB3"/>
<path d="M178.542 221.073C175.49 220.027 172.054 219.278 168.926 217.983C167.774 217.484 166.536 217.052 165.384 216.457C164.799 216.169 164.223 215.862 163.676 215.526C163.139 215.171 162.63 214.777 162.16 214.346C161.171 213.482 160.144 212.167 159.146 210.862C158.167 209.537 157.275 208.165 156.517 207.129C155.96 206.313 155.365 205.689 154.751 205.161C154.127 204.633 153.542 204.144 152.908 203.693C151.632 202.791 150.432 201.773 149.367 200.094C148.369 198.28 147.774 197.157 147.351 195.919C147.131 195.305 146.92 194.691 146.661 193.971C146.449 193.242 146.209 192.407 145.912 191.37C145.787 190.996 145.509 190.267 145.259 189.624C145 188.99 144.77 188.443 144.76 188.434L136.008 192.167C138.34 197.292 140.269 198.722 142.188 201.687C142.793 202.541 143.263 203.463 143.772 204.384C144.3 205.276 144.837 206.179 145.49 207.004C147.793 209.768 150.816 211.774 153.321 214.23C154.53 215.516 155.672 216.726 156.757 218.031C157.323 218.655 157.899 219.269 158.494 219.893C159.089 220.516 159.712 221.131 160.413 221.687C161.162 222.301 161.881 222.801 162.601 223.242C163.34 223.655 164.069 224 164.808 224.336C166.258 225.037 167.822 225.526 169.511 226.428C171.075 227.138 172.534 228.943 174.981 229.912L178.551 221.092L178.542 221.073Z" fill="#EBFEB3"/>
<path d="M208.958 203.175C207.931 206.467 207.566 210.124 206.702 213.463C206.059 215.939 205.589 218.655 204.197 220.776C203.487 221.851 202.403 223.108 201.27 224.049C200.992 224.289 200.714 224.49 200.445 224.673C200.205 224.826 199.869 225.037 199.792 224.999C199.533 225.018 199.322 224.961 199.178 224.874C199.073 224.807 198.487 224.845 198.113 224.874C197.71 224.922 197.316 224.989 196.952 225.085C196.203 225.22 195.493 225.392 194.773 225.594C194.063 225.824 193.324 225.949 192.528 226.026C191.731 226.103 190.867 226.131 189.927 225.891C187.95 225.498 186.788 225.008 185.608 224.529C185.013 224.308 184.447 223.962 183.775 223.626C183.113 223.262 182.345 222.907 181.433 222.341C181.097 222.139 180.378 221.832 179.735 221.582C179.408 221.467 179.12 221.314 178.909 221.227C178.689 221.131 178.554 221.074 178.545 221.064L174.975 229.884C176.251 230.431 177.431 230.709 178.439 230.987C179.447 231.275 180.368 231.41 181.222 231.534C182.076 231.65 182.854 231.794 183.66 231.88C184.466 231.966 185.282 232.072 186.165 232.235C188.266 232.561 190.32 233.348 192.518 233.387C192.988 233.406 193.449 233.406 193.919 233.396C194.389 233.358 194.86 233.3 195.32 233.233C196.251 233.089 197.172 233.003 198.094 232.753L199.457 232.417L200.148 232.254C200.474 232.177 200.771 232.149 201.136 232.033C202.528 231.669 203.775 230.728 204.754 229.807C206.386 228.233 207.499 226.899 208.65 225.527C209.773 224.164 210.81 222.792 211.712 221.256C213.631 217.926 213.699 215.258 214.965 211.774C215.522 210.21 217.096 208.655 217.931 206.323L208.958 203.146V203.175Z" fill="#EBFEB3"/>
<path d="M218.702 156.081L218.894 156.474C218.894 156.474 218.961 156.57 219 156.685C219.048 156.772 219.096 156.877 219.134 157.021C219.182 157.146 219.23 157.28 219.278 157.444C219.47 158.048 219.643 158.797 219.796 159.574C220.113 161.138 220.334 162.856 220.401 164.545C220.506 167.069 220.765 169.814 220.084 172.319C219.393 174.901 217.522 178.557 216.504 181.014C215.775 182.789 215.65 184.296 215.583 185.793C215.497 187.501 215.487 189.21 214.69 191.254C213.117 195.227 212.474 196.072 210.257 200.045C210.046 200.409 209.738 201.187 209.46 201.868C209.201 202.559 208.971 203.154 208.971 203.164L217.944 206.34C219.614 201.34 219.479 199.104 220.43 195.851C220.986 193.931 222.023 192.175 222.541 190.246C222.752 189.44 222.915 188.624 223.05 187.789C223.453 185.217 223.587 182.597 224.249 180.092C225.122 176.791 226.581 173.998 227.426 170.601C227.877 168.768 227.934 167.184 227.906 165.572C227.877 163.96 227.762 162.348 227.771 160.351C227.771 159.449 228.002 158.461 228.136 157.223C228.203 156.608 228.241 155.918 228.184 155.131C228.136 154.708 228.098 154.315 227.973 153.825C227.915 153.586 227.838 153.326 227.771 153.106C227.704 152.943 227.647 152.779 227.579 152.616L218.712 156.062L218.702 156.081Z" fill="#EBFEB3"/>
<path d="M188.392 157.557C188.613 156.425 188.833 155.148 189.323 153.814C189.822 152.49 190.503 151.108 191.453 149.899C192.826 148.104 194.601 146.146 196.904 145.369C197.499 145.196 198.162 144.985 198.891 144.918C199.256 144.87 199.62 144.822 199.995 144.783C200.369 144.783 200.753 144.764 201.127 144.754C201.876 144.716 202.624 144.841 203.306 144.87C203.987 144.994 204.63 145.033 205.167 145.158C206.847 145.407 208.056 145.378 209.409 145.302C209.745 145.321 210.071 145.34 210.407 145.359C210.58 145.369 210.753 145.388 210.926 145.398C211.089 145.436 211.262 145.474 211.434 145.522C211.78 145.618 212.135 145.714 212.49 145.868C212.826 146.05 213.171 146.271 213.526 146.52C214.908 147.662 215.571 148.564 216.137 149.543C216.674 150.541 217.164 151.588 217.672 153.43C217.749 153.776 218.085 154.371 218.267 154.985C218.478 155.57 218.69 156.079 218.69 156.079L227.557 152.634C227.26 151.943 226.972 151.309 226.684 150.724C226.406 150.138 226.041 149.62 225.743 149.131C225.427 148.651 225.158 148.19 224.822 147.787C224.486 147.384 224.169 147.01 223.862 146.645C223.277 145.906 222.596 145.311 221.953 144.687C221.338 144.035 220.599 143.478 219.86 142.797C218.056 141.29 216.281 139.495 213.949 138.612C211.981 137.864 209.88 137.566 207.864 137.614C205.839 137.605 203.901 137.893 201.972 138.085C201.012 138.2 200.071 138.276 199.16 138.42C198.229 138.516 197.336 138.699 196.415 138.862C195.503 139.035 194.611 139.284 193.699 139.543C192.816 139.86 191.885 140.158 191.012 140.628C189.073 141.559 187.739 142.845 186.52 144.159C185.359 145.57 184.265 146.981 183.075 148.833C182.787 149.227 182.48 149.649 182.125 150.081C181.779 150.522 181.367 150.954 181.012 151.492C180.254 152.518 179.505 153.795 179.121 155.378L188.382 157.576L188.392 157.557Z" fill="#EBFEB3"/>
<path d="M218.748 167.254C219.026 165.748 219.122 164.366 218.94 163.348C218.748 162.331 218.306 161.707 217.874 161.199C217.654 160.949 217.414 160.748 217.164 160.537C216.896 160.345 216.723 160.105 216.205 159.894C216.022 159.874 215.955 159.951 215.897 160.018L215.696 160.249C215.638 160.335 215.542 160.402 215.437 160.479C215.331 160.546 215.254 160.633 215.12 160.69L214.707 160.92C214.535 160.997 214.352 161.093 214.17 161.18C213.709 161.42 213.239 161.659 212.778 161.909L211.953 162.341C211.656 162.514 211.3 162.744 210.984 162.936L210.504 163.233C210.341 163.329 210.13 163.588 209.938 163.752L208.815 164.817C208.239 165.402 207.711 165.776 207.174 166.228C206.665 166.544 206.156 166.813 205.648 167.072C205.187 167.254 204.698 167.446 204.17 167.638C203.748 167.763 203.45 167.811 203.066 167.898C202.337 168.022 201.569 168.109 200.801 168.147C199.275 168.214 197.807 168.08 196.732 167.936C195.082 167.705 193.949 167.878 192.73 167.907C191.55 167.936 190.245 167.734 189.247 166.573C188.258 165.373 187.98 164.366 187.788 163.339C187.673 162.83 187.721 162.293 187.663 161.727C187.74 161.141 187.74 160.508 187.961 159.769C187.98 159.5 188.114 158.953 188.172 158.483C188.191 158.243 188.296 158.022 188.325 157.859C188.364 157.696 188.392 157.59 188.392 157.59L179.131 155.393C178.959 156.247 178.795 157.034 178.786 157.792C178.757 158.55 178.709 159.251 178.805 159.913C178.882 160.565 178.939 161.189 179.074 161.746C179.218 162.312 179.371 162.84 179.525 163.339C180.254 165.316 180.993 166.832 182.193 168.675C182.922 169.75 183.632 170.872 184.573 171.861C185.475 172.878 186.588 173.742 187.807 174.366C189.928 175.393 192.212 175.661 194.285 175.594C196.387 175.527 198.316 175.153 200.216 174.855C201.991 174.577 203.661 174.308 205.331 173.953L205.945 173.809L206.252 173.742L206.406 173.704C206.464 173.684 206.512 173.675 206.502 173.684C206.569 173.723 206.627 173.761 206.665 173.809C206.752 173.896 206.78 174.001 206.78 174.088V174.155C206.732 174.337 206.78 174.126 207.145 173.617C207.337 173.32 207.538 173.032 207.74 172.725C207.798 172.648 207.846 172.562 207.922 172.504C207.99 172.466 208.018 172.466 208.047 172.456C208.105 172.447 208.143 172.466 208.153 172.523C208.172 172.629 207.788 173.205 207.433 173.617C207.251 173.828 207.078 174.001 206.953 174.116C206.828 174.232 206.752 174.279 206.752 174.279L218.738 167.264L218.748 167.254Z" fill="#EBFEB3"/>
<path d="M179.097 207.703C181.074 208.327 183.186 208.605 185.259 208.557H186.036C186.295 208.557 186.65 208.529 186.948 208.509C187.571 208.481 188.186 208.375 188.781 208.25C189.98 208.01 191.084 207.588 192.092 207.127C193.608 206.417 194.884 205.419 196.017 204.402C197.159 203.385 198.167 202.338 199.251 201.408C201.497 199.546 204.875 196.676 206.708 194.44C208.128 192.732 208.675 191.091 209.136 189.459C209.597 187.818 209.981 186.177 211.027 184.306C212.101 182.348 212.792 181.148 213.531 179.939C213.906 179.325 214.28 178.711 214.721 177.991C214.827 177.808 214.942 177.617 215.057 177.425L215.144 177.271L215.278 176.983C215.374 176.791 215.47 176.59 215.566 176.379C215.94 175.553 216.363 174.632 216.804 173.576C217.13 172.799 217.677 171.196 218.071 169.805C218.272 169.104 218.445 168.471 218.551 168.01C218.656 167.549 218.733 167.252 218.733 167.242L206.746 174.258C206.746 174.258 206.842 174.219 206.929 174.238C206.967 174.248 207.015 174.277 207.053 174.306L207.111 174.363L207.13 174.382L207.101 174.526L207.044 174.805C206.727 176.292 206.449 177.578 205.854 179.075C205.144 180.832 203.934 182.329 203.128 184.018C201.756 186.887 201.017 190.131 199.126 192.674C197.245 195.179 194.808 196.695 192.619 198.068C191.429 198.778 190.643 199.411 189.817 199.92C188.992 200.438 188.176 200.841 186.996 200.765C185.575 200.611 184.126 199.402 182.274 198.74L179.078 207.703H179.097Z" fill="#EBFEB3"/>
<path d="M154.264 159.495C153.468 161.299 152.892 163.286 152.623 165.522C152.575 166.117 152.537 166.702 152.508 167.278C152.527 167.931 152.537 168.545 152.613 169.207C152.671 169.562 152.738 169.917 152.805 170.273C152.844 170.445 152.882 170.637 152.92 170.772L153.045 171.127C153.208 171.587 153.381 172.038 153.544 172.499C154.552 175.157 156.078 177.595 156.894 180.196C157.69 182.873 158.631 187.134 159.83 189.812C160.732 191.866 161.99 193.133 163.324 194.275C164.667 195.417 166.03 196.482 167.498 198.19C169.043 199.956 170.07 201.012 171.126 202.115C172.211 203.19 173.314 204.361 175.473 205.935C175.857 206.252 176.759 206.684 177.556 207.067C177.949 207.259 178.343 207.394 178.621 207.509C178.9 207.614 179.082 207.691 179.092 207.691L182.287 198.728C180.282 198.027 178.842 197.518 177.594 196.981C176.337 196.453 175.253 195.935 174.111 194.994C172.758 193.881 171.884 192.307 170.733 190.992C169.744 189.86 168.64 188.795 167.575 187.653C166.529 186.491 165.541 185.253 164.84 183.843C163.448 181.002 163.122 178.094 162.393 175.109C161.999 173.497 161.471 172.23 160.953 170.973C160.828 170.666 160.704 170.349 160.579 170.033L160.406 169.562L160.349 169.409L160.31 169.332C160.281 169.274 160.253 169.217 160.214 169.159C160.214 169.054 160.195 168.939 160.195 168.823C160.195 168.708 160.176 168.593 160.176 168.459C160.195 168.305 160.224 168.152 160.253 167.998C160.454 166.827 161.874 165.589 162.815 163.689L154.274 159.495H154.264Z" fill="#EBFEB3"/>
<path d="M190.448 118.911C188.423 120.034 186.955 121.416 185.631 122.855C184.306 124.295 183.126 125.783 181.974 127.203C180.237 129.305 178.778 131.733 176.782 133.518C174.728 135.341 171.216 137.712 169.143 139.564C165.947 142.424 165.995 145.389 163.183 148.576C161.734 150.255 160.813 151.282 159.824 152.318C158.845 153.364 157.799 154.41 156.206 156.291C155.918 156.647 155.419 157.424 155.007 158.134C154.613 158.863 154.268 159.497 154.268 159.506L162.809 163.7C163.788 161.618 164.517 160.063 165.093 158.681C165.707 157.309 166.245 156.109 167.137 154.775C168.212 153.201 169.709 151.973 170.861 150.457C172.809 147.846 174.172 144.727 176.427 142.309C178.682 139.909 181.283 138.374 183.75 136.282C186.418 134.055 187.444 131.781 190.026 129.554C191.168 128.604 193.231 128.191 194.729 127.414L190.439 118.921L190.448 118.911Z" fill="#EBFEB3"/>
<path d="M241.451 138.701C240.847 137.943 240.252 137.185 239.532 136.513C238.822 135.841 238.083 135.189 237.344 134.555C236.595 133.931 235.779 133.375 235.012 132.799C234.628 132.511 234.244 132.233 233.86 131.954C233.466 131.695 233.063 131.427 232.67 131.168C232.094 130.774 231.489 130.4 230.894 130.016C230.299 129.642 229.647 129.325 229.033 128.97C228.418 128.624 227.814 128.26 227.238 127.876C226.633 127.521 226.048 127.156 225.501 126.734C224.925 126.311 224.34 125.755 223.658 125.237C222.977 124.709 222.267 124.152 221.547 123.586C220.846 122.991 220.079 122.492 219.34 122.012C218.61 121.532 217.9 121.081 217.257 120.707C216.249 120.189 215.27 119.91 214.359 119.699C213.898 119.603 213.447 119.526 213.006 119.469C212.555 119.43 212.113 119.44 211.662 119.43C210.779 119.43 209.896 119.43 208.975 119.354C208.054 119.267 207.065 119.286 205.961 119.056C203.677 118.557 202.247 118.509 200.769 118.231C199.282 117.924 197.775 117.847 195.222 117.684C194.992 117.674 194.637 117.684 194.234 117.693C193.668 117.78 192.823 117.952 192.286 118.144C191.767 118.336 191.268 118.519 190.923 118.672C190.625 118.826 190.433 118.922 190.424 118.922L194.714 127.415C194.81 127.357 194.906 127.309 195.002 127.252L195.213 127.156L195.414 127.05L195.51 127.002H195.539C195.539 127.002 195.577 126.974 195.597 126.954L195.625 126.926C195.625 126.926 195.645 126.906 195.712 126.897C195.942 126.849 196.163 126.81 196.374 126.772C197.228 126.599 197.967 126.417 198.668 126.235C199.023 126.148 199.359 126.052 199.685 125.966C200.021 125.918 200.347 125.88 200.683 125.832C201.355 125.755 202.036 125.697 202.794 125.678C203.697 125.611 204.56 125.908 205.424 126.091C206.278 126.331 207.151 126.436 207.996 126.657C209.464 126.964 211.009 126.954 212.507 127.261C213.265 127.396 214.042 127.482 214.781 127.693C215.51 127.924 216.24 128.192 216.94 128.519C217.651 128.816 218.284 129.238 218.879 129.68C219.484 130.112 220.059 130.563 220.626 131.014C221.163 131.513 221.691 132.012 222.238 132.521C222.785 133.01 223.342 133.49 223.889 134.027C224.493 134.584 225.079 135.035 225.683 135.429C226.259 135.851 226.816 136.244 227.401 136.619C228.601 137.338 229.704 138.192 230.914 139.363C231.931 140.486 232.42 142.415 233.658 144.21L241.413 138.701H241.451Z" fill="#EBFEB3"/>
<path d="M247.674 192.243C247.962 188.654 247.358 184.863 247.089 181.302C246.887 178.635 246.331 175.871 246.619 173.231C246.935 170.515 247.991 166.427 248.308 163.644C248.557 161.504 248.154 159.863 247.674 158.222C247.185 156.571 246.676 154.987 246.408 152.694C246.369 152.387 246.331 152.099 246.293 151.82C246.245 151.533 246.187 151.254 246.139 150.985C246.053 150.477 245.861 149.815 245.755 149.431C245.506 148.634 245.314 147.924 245.122 147.204C244.949 146.465 244.699 145.765 244.431 144.92C244.152 144.076 243.874 143.097 243.365 141.945C243.193 141.513 242.732 140.697 242.319 139.987C242.108 139.632 241.878 139.325 241.724 139.095C241.561 138.865 241.456 138.711 241.456 138.711L233.701 144.22C234.431 145.141 234.968 145.966 235.515 146.657C235.793 147.003 236.043 147.329 236.292 147.646C236.523 147.962 236.743 148.26 236.955 148.557C237.367 149.143 237.828 149.661 238.164 150.247C238.509 150.822 238.845 151.427 239.162 152.108C239.661 153.222 239.459 155.083 239.68 156.859C240.054 159.93 241.11 163.164 241.033 166.456C240.947 169.738 240.006 172.636 239.594 175.88C239.133 179.393 239.92 181.802 239.709 185.372C239.613 186.974 238.49 188.798 238.221 191.149L247.674 192.253V192.243Z" fill="#EBFEB3"/>
<path d="M235.234 243.74C236.501 240.295 236.865 236.437 237.46 232.886C237.921 230.237 237.998 227.406 238.91 224.911C239.831 222.339 241.808 218.606 242.787 216.024C244.293 212.041 242.873 209.44 243.967 205.371C245.061 201.12 245.589 200.179 247.057 195.707C247.192 195.295 247.345 194.44 247.47 193.682C247.528 193.298 247.585 192.953 247.624 192.694C247.662 192.435 247.681 192.262 247.681 192.262L238.228 191.158C237.7 196.177 238.161 198.289 237.691 201.542C237.412 203.462 236.587 205.256 236.251 207.156C235.675 210.41 235.925 213.826 235.052 217.032C234.178 220.218 232.623 222.828 231.462 225.88C230.195 229.162 230.397 231.677 229.322 235.045C228.833 236.552 227.297 238.011 226.424 240.16L235.234 243.759V243.74Z" fill="#EBFEB3"/>
<path d="M198.306 283.47C202.183 282.28 205.571 279.67 208.44 277.222C210.619 275.37 212.433 273.086 214.554 271.359C216.77 269.622 220.36 267.117 222.385 265.063C223.181 264.295 223.747 263.508 224.179 262.712C224.63 261.925 224.966 261.138 225.264 260.341C225.888 258.758 226.415 257.155 227.634 255.38C230.11 251.656 230.897 250.898 233.623 246.944C233.882 246.579 234.275 245.783 234.602 245.072C234.918 244.362 235.197 243.748 235.206 243.729L226.396 240.13C224.554 244.717 224.4 246.829 222.961 249.708C222.106 251.397 220.753 252.76 219.803 254.362C218.172 257.078 217.116 260.226 214.985 262.616C212.864 264.977 210.312 266.349 207.845 268.038C207.173 268.489 206.607 268.969 206.06 269.401C205.523 269.842 205.043 270.332 204.525 270.754C203.517 271.656 202.48 272.558 201.041 273.297C200.388 273.614 199.582 273.767 198.68 273.835C198.229 273.873 197.768 273.95 197.289 274.007C196.809 274.055 196.31 274.142 195.811 274.286L198.306 283.47Z" fill="#EBFEB3"/>
<path d="M145.5 280.784C147.218 280.784 148.974 280.554 150.73 280.294C152.486 280.026 154.262 279.815 155.999 279.651C158.59 279.392 161.316 279.008 163.888 279.44C166.536 279.901 170.366 281.465 172.928 282.185C174.896 282.799 176.489 282.722 178.101 282.627C178.907 282.579 179.713 282.521 180.577 282.531C181.508 282.531 182.477 282.626 183.571 282.857C184.713 283.03 185.644 283.193 186.479 283.337C187.314 283.442 188.043 283.548 188.792 283.673C190.289 283.855 191.844 284.104 194.454 284.114C194.944 284.143 195.894 283.97 196.738 283.817C197.161 283.74 197.554 283.673 197.842 283.596C198.13 283.519 198.312 283.471 198.312 283.461L195.817 274.277C193.686 274.872 192.17 275.304 190.807 275.649C190.126 275.793 189.483 275.966 188.83 276.072C188.168 276.149 187.487 276.206 186.738 276.225C185.855 276.187 184.972 276.005 184.109 275.822C183.235 275.582 182.41 275.352 181.489 275.227C179.8 274.987 178.072 274.958 176.364 274.93C174.656 274.882 172.938 274.843 171.258 274.594C169.579 274.325 168.014 273.884 166.45 273.423C164.886 272.991 163.302 272.569 161.613 272.271C160.701 272.108 159.857 272.041 159.051 272.012C158.245 272.012 157.467 272.06 156.69 272.108C155.145 272.233 153.6 272.377 151.748 272.339C150.097 272.339 148.12 271.34 145.634 271.264L145.49 280.784H145.5Z" fill="#EBFEB3"/>
<path d="M98.0014 290.777C100.679 289.031 103.27 286.622 106.226 284.971C107.291 284.3 108.433 283.666 109.585 283.071C110.727 282.447 111.955 282.006 113.222 281.756C114.508 281.478 116.188 281.43 117.848 281.411C119.499 281.344 121.169 281.478 122.474 281.44C124.47 281.372 125.957 280.941 127.445 280.384C128.933 279.818 130.468 279.357 132.503 279.367C134.614 279.347 135.929 279.559 137.263 279.731C137.925 279.837 138.597 279.942 139.384 280.067C140.171 280.221 141.063 280.394 142.176 280.605C142.589 280.681 143.414 280.729 144.144 280.758C144.873 280.777 145.507 280.797 145.516 280.797L145.66 271.276C143.011 271.315 141.159 271.545 139.547 271.756C137.935 272.025 136.553 272.294 134.844 272.39C132.829 272.486 130.794 272.217 128.769 272.38C127.032 272.553 125.334 273.052 123.645 273.484C121.956 273.935 120.286 274.482 118.558 274.702C116.84 274.981 115.19 275.134 113.52 275.23C111.859 275.413 110.17 275.566 108.433 275.95C106.572 276.449 105.084 277.035 103.683 277.87C102.982 278.263 102.272 278.666 101.543 279.079C100.804 279.491 100.046 279.962 99.1818 280.384C98.4045 280.768 97.4447 280.969 96.4083 281.296C95.3718 281.622 94.1818 281.929 93.0781 282.658L98.0302 290.787L98.0014 290.777Z" fill="#EBFEB3"/>
<path d="M79.0255 329.979C78.44 326.725 77.1828 323.443 76.9813 320.362C76.8757 318.011 76.7318 315.238 77.6435 312.906C77.8738 312.301 78.1809 311.639 78.5744 310.977C78.9487 310.305 79.3614 309.614 79.8316 308.961C80.062 308.635 80.2826 308.309 80.513 307.982C80.7529 307.675 80.9929 307.368 81.2232 307.071C81.6743 306.476 82.1061 305.919 82.4996 305.439C82.7971 305.065 83.037 304.7 83.2482 304.335C83.4785 303.98 83.68 303.635 83.8432 303.28C84.0159 302.934 84.1599 302.579 84.3038 302.224C84.4574 301.879 84.6013 301.533 84.7453 301.188C85.0332 300.497 85.3115 299.777 85.7434 299.105C86.1656 298.424 86.6455 297.704 87.4037 297.071C90.4555 294.441 91.4248 294.076 95.2732 292.31C95.6283 292.147 96.2713 291.735 96.8855 291.408C97.4805 291.063 97.9892 290.765 97.9988 290.756L93.0467 282.627C90.657 284.105 89.2079 285.487 87.9699 286.686C87.3749 287.31 86.8183 287.886 86.252 288.472C85.6858 289.047 85.1483 289.671 84.4862 290.295C82.9602 291.773 81.1656 293.011 79.822 294.719C77.5187 297.665 76.3959 301.274 74.7644 304.489C73.1425 307.704 71.2903 310.497 70.177 314.028C69.8987 314.978 69.7163 315.871 69.6108 316.735C69.5628 317.167 69.534 317.589 69.5148 318.002C69.486 318.405 69.4764 318.836 69.486 319.307C69.4956 321.13 69.726 322.819 69.8603 324.796C69.9755 326.543 69.2365 328.741 69.6012 331.284L79.0255 329.95V329.979Z" fill="#EBFEB3"/>
<path d="M91.955 379.624C90.9377 376.121 89.0087 372.848 87.5307 369.624C86.4271 367.215 84.9779 364.825 84.4309 362.253C83.8647 359.604 83.7207 355.458 83.3848 352.79C82.8762 348.693 80.477 347.051 79.834 342.973C79.2102 338.76 79.3253 337.694 79.3541 333.232C79.3637 332.819 79.2677 332.013 79.1909 331.303C79.1046 330.593 79.0278 329.988 79.0278 329.969L69.6035 331.303C70.0258 334 70.6016 335.794 71.1199 337.349C71.6477 338.904 72.1467 340.209 72.5498 341.859C73.0297 343.808 73.0201 345.852 73.5383 347.781C74.4308 351.092 76.2543 354.086 77.0796 357.368C77.905 360.641 77.9337 363.741 78.6247 367.023C79.3733 370.564 80.9664 372.58 82.0413 376.006C82.5211 377.541 82.1372 379.652 82.7131 381.917L91.9454 379.614L91.955 379.624Z" fill="#EBFEB3"/>
<path d="M54.1543 384.422C57.187 384.758 60.5747 384.825 63.7801 385.708C66.1505 386.332 68.7993 386.975 70.8627 388.51C73.0028 390.065 75.6132 393.184 77.6861 395.075C78.8474 396.255 82.1391 398.002 84.4616 398.271L85.3542 398.395C85.6421 398.405 85.9396 398.415 86.2275 398.434C86.7841 398.434 87.312 398.29 87.8686 398.194C88.9627 398.04 90.2199 397.234 90.978 396.111C91.8034 394.95 92.1489 393.76 92.3504 392.58C92.5327 391.409 92.6095 390.286 92.5999 389.115C92.5999 388.568 92.5807 387.791 92.5999 387.503C92.5999 387.109 92.6191 386.697 92.6287 386.255C92.6383 385.372 92.6287 384.384 92.5807 383.165C92.5615 382.714 92.4176 381.831 92.264 381.063C92.1872 380.679 92.1105 380.324 92.0529 380.065C91.9953 379.806 91.957 379.633 91.957 379.633L82.7246 381.936C83.358 384.345 83.9242 385.967 84.3945 387.359C84.5097 387.704 84.6152 388.04 84.7208 388.367L84.8647 388.846C84.9127 388.99 84.9223 388.952 84.9511 389C85.0471 389.115 85.1238 389.269 85.1334 389.432C85.1526 389.633 85.0087 389.748 84.8455 389.748C84.6728 389.758 84.4713 389.624 84.3945 389.614C84.3177 389.614 84.2697 389.662 84.1641 389.72C84.0682 389.777 83.9434 389.844 83.5979 389.768L83.4828 389.748C83.4828 389.748 83.4252 389.749 83.31 389.691L82.7726 389.432C82.4175 389.249 82.0624 389.077 81.6977 388.875C80.9876 388.472 80.2774 388.04 79.596 387.532C76.8992 385.526 74.8071 383.059 71.8032 381.054C68.521 378.904 65.6995 378.635 61.9375 377.483C60.258 376.965 58.377 375.516 55.661 375.046L54.1543 384.441V384.422Z" fill="#EBFEB3"/>
<path d="M12.5141 402.523C13.4546 401.352 14.4431 400.056 15.47 398.732C16.5352 397.407 17.6869 396.035 18.8385 394.768C20.614 392.964 22.3414 390.814 24.6255 389.634C25.7676 388.972 27.3607 388.482 28.9154 387.964C30.4797 387.474 32.0728 387.148 33.2724 386.783C35.163 386.342 36.3818 385.469 37.687 384.72C38.9634 383.895 40.3358 383.175 42.2648 382.935C43.2725 382.868 44.0691 382.801 44.7888 382.801C45.5086 382.839 46.1228 382.887 46.7466 382.945C47.3704 382.983 47.9943 383.156 48.7044 383.29C49.0595 383.367 49.4434 383.444 49.856 383.53C50.2687 383.645 50.7102 383.77 51.2093 383.904C51.5739 383.991 52.3129 384.087 52.9559 384.221C53.2822 384.279 53.5797 384.327 53.8005 384.365C54.0212 384.394 54.1651 384.423 54.1747 384.423L55.6814 375.027C54.2323 374.864 53.0039 374.72 51.9002 374.778C50.8061 374.806 49.8561 374.835 48.9731 374.989C48.0998 375.123 47.2841 375.209 46.4683 375.363C45.6526 375.517 44.8368 375.661 43.9251 375.756C42.8598 375.92 41.7946 376.006 40.7005 376.064C39.6256 376.16 38.5604 376.332 37.5143 376.601C36.6122 376.812 35.7772 377.225 34.9327 377.58C34.0882 377.945 33.2724 378.348 32.4855 378.808C31.6889 379.25 30.902 379.691 30.1054 380.104C29.3377 380.565 28.5507 380.987 27.7445 381.352C27.3415 381.534 26.9384 381.707 26.5257 381.87C26.1322 382.043 25.7388 382.215 25.3549 382.388C24.5679 382.714 23.781 383.021 22.9844 383.329C21.4105 383.952 19.8846 384.663 18.3203 385.507C16.6888 386.505 15.5083 387.57 14.3663 388.674C13.2722 389.826 12.2262 391.016 10.7962 392.244C10.1532 392.82 9.2895 393.309 8.3298 393.866C7.39889 394.49 6.33359 395.133 5.42188 396.198L12.5141 402.542V402.523Z" fill="#EBFEB3"/>
<path d="M36.0525 426.602C32.7223 425.872 29.0851 425.805 25.7357 425.143C23.2405 424.663 20.5341 424.308 18.346 423.013C17.2231 422.35 15.9467 421.314 14.8047 420.22C13.6435 419.126 12.6742 417.936 11.9256 417.062C10.8123 415.7 9.81423 415.009 8.84493 414.202C7.90442 413.416 6.99271 412.408 6.99271 410.901C7.00231 410.517 6.99272 410.172 7.08869 409.855C7.14627 409.538 7.18466 409.26 7.29982 408.991C7.40539 408.723 7.47256 408.483 7.58772 408.252C7.71248 408.022 7.83726 407.801 7.96202 407.581C8.53784 406.717 9.17122 405.872 10.582 404.615C10.7931 404.375 11.321 403.866 11.7048 403.387C11.8968 403.147 12.1271 402.936 12.2711 402.773C12.4246 402.609 12.5206 402.504 12.5206 402.504L5.42839 396.16C3.4898 398.396 2.42453 400.335 1.71435 402.187C1.01377 404.03 0.553126 405.728 0.255618 407.955C0.063678 409.26 -0.0418891 410.613 0.0156929 411.995C0.034887 412.686 0.169235 413.358 0.274802 414.039C0.437951 414.702 0.649089 415.354 0.908208 415.978C1.85831 418.109 3.39384 419.702 4.92936 420.997C6.48408 422.293 8.06757 423.348 9.5647 424.443C12.5302 426.65 14.9966 428.819 18.1732 430.527C21.6186 432.312 24.3345 432.245 27.9334 433.272C29.5457 433.713 31.2444 435.182 33.6724 435.805L36.062 426.592L36.0525 426.602Z" fill="#EBFEB3"/>
<path d="M86.0945 432.371C82.7068 432.591 79.1367 433.493 75.6818 433.877C73.1098 434.165 70.3842 434.703 67.8122 434.29C65.1538 433.877 61.2958 432.447 58.743 431.727C54.8178 430.605 52.3706 432.15 48.3783 431.094C44.2707 429.962 43.359 429.415 39.2419 427.601C38.8676 427.428 38.0711 427.188 37.3705 426.987C36.6699 426.785 36.0653 426.612 36.0557 426.612L33.666 435.825C38.8484 437.063 41.0749 436.689 44.4243 437.303C46.4013 437.658 48.2631 438.484 50.2593 438.791C53.6662 439.3 57.1691 438.82 60.5569 439.309C63.935 439.789 66.8621 440.912 70.269 441.411C73.9447 441.929 76.4495 441.085 80.1443 441.046C81.8046 441.027 83.8104 441.958 86.3248 441.9L86.0945 432.39V432.371Z" fill="#EBFEB3"/>
<path d="M103.025 404.778C102.938 406.688 103.178 408.982 103.802 411.045C104.416 413.118 105.347 414.999 106.23 416.688C107.535 419.203 109.474 421.381 109.819 423.569C109.896 424.116 109.906 424.711 109.743 425.201C109.599 425.7 109.34 426.093 109.013 426.439C108.332 427.12 107.276 427.725 106.326 428.233C104.867 429.001 103.821 429.99 102.689 430.997C102.439 431.218 102.19 431.448 101.94 431.669C101.748 431.871 101.441 432.043 101.144 432.216C100.52 432.552 99.7425 432.821 98.802 432.936C96.8346 433.157 95.539 433.118 94.2434 433.022C92.9382 432.917 91.5946 432.734 89.3969 432.437C88.9938 432.379 88.1685 432.36 87.4488 432.36C86.7194 432.36 86.0955 432.36 86.0859 432.36L86.3163 441.871C88.9843 441.775 90.8557 441.439 92.4872 441.093C94.1187 440.757 95.5102 440.383 97.2761 440.124C99.3586 439.779 101.537 439.894 103.927 439.011C104.416 438.838 104.963 438.579 105.491 438.291C105.779 438.138 105.942 438.022 106.144 437.898L106.72 437.514C107.478 437.005 108.226 436.4 108.956 435.796C110.424 434.558 111.873 433.224 113.361 431.496C114.1 430.642 114.81 429.635 115.328 428.464C115.856 427.312 116.192 425.978 116.259 424.759C116.345 423.531 116.249 422.37 116.067 421.333C115.885 420.316 115.645 419.366 115.366 418.492C114.752 416.621 114.042 415.431 113.37 414.251C112.718 413.08 112.084 411.938 111.777 410.479C111.633 409.826 111.777 409.068 111.969 408.272C112.065 407.869 112.19 407.475 112.276 407.034C112.382 406.544 112.459 406.007 112.507 405.517L103.015 404.778H103.025Z" fill="#EBFEB3"/>
<path d="M143.037 368.098C140.35 370.343 138.066 373.309 135.6 375.804C133.757 377.666 132.01 379.835 129.774 381.207C127.481 382.627 123.613 384.115 121.194 385.315C117.48 387.176 116.713 389.94 113.056 392.157C111.146 393.338 109.908 394.096 108.574 395.046C108.239 395.286 107.903 395.526 107.538 395.843C107.356 395.996 107.173 396.15 106.981 396.303C106.799 396.486 106.607 396.678 106.406 396.879C105.628 397.676 104.707 398.827 104.006 400.382C103.881 400.66 103.738 401.092 103.574 401.591C103.45 402.061 103.325 402.599 103.248 403.069C103.181 403.53 103.104 403.971 103.075 404.278C103.047 404.576 103.027 404.768 103.027 404.777L112.519 405.516C112.586 404.442 112.653 403.703 112.72 403.194C112.797 402.695 112.874 402.33 113.008 401.908C113.325 401.083 113.968 400.152 115.091 399.201C116.444 398.069 118.277 397.368 119.841 396.236C122.538 394.297 124.784 391.61 127.605 389.748C130.427 387.887 133.354 386.841 136.243 385.046C139.362 383.117 140.715 380.89 143.556 378.597C144.832 377.579 146.953 377.1 148.891 375.612L143.057 368.098H143.037Z" fill="#EBFEB3"/>
<path d="M183.803 335.689C180.876 337.878 178.496 340.891 176.02 343.463C174.187 345.402 172.498 347.647 170.339 349.173C168.103 350.747 164.35 352.542 162.047 353.943C158.486 356.083 157.968 358.953 154.513 361.275C150.934 363.684 149.916 364.01 145.847 366.15C145.473 366.342 144.772 366.832 144.168 367.264C143.563 367.705 143.045 368.089 143.035 368.099L148.87 375.613C152.92 372.36 154.043 370.45 156.634 368.329C158.16 367.072 159.993 366.227 161.519 364.97C164.12 362.791 166.126 359.941 168.784 357.849C171.462 355.766 174.245 354.548 176.98 352.667C179.926 350.651 181.183 348.444 183.976 346.217C185.224 345.229 187.316 344.826 189.235 343.501L183.803 335.689Z" fill="#EBFEB3"/>
<path d="M220.803 354.047C220.832 350.439 220.006 346.638 219.267 342.982C219.133 342.3 218.97 341.609 218.778 340.918C218.605 340.227 218.385 339.537 218.173 338.836C217.761 337.444 217.31 336.053 216.887 334.594C216.484 333.126 215.841 331.043 214.181 329.162C213.759 328.721 213.279 328.298 212.789 327.895C212.271 327.559 211.734 327.214 211.187 326.936C210.649 326.705 210.102 326.504 209.565 326.321C209.047 326.187 208.557 326.101 208.077 326.014C206.647 325.813 205.429 325.947 204.421 326.235C203.365 326.475 202.549 326.936 201.705 327.348C200.88 327.78 200.141 328.289 199.296 328.711C198.5 329.201 197.607 329.623 196.58 330.026C194.45 330.87 193.164 331.408 191.81 331.897C191.119 332.137 190.467 332.416 189.661 332.713C188.864 333.02 187.952 333.366 186.858 333.845C186.455 334.018 185.688 334.469 185.016 334.882C184.68 335.084 184.382 335.285 184.162 335.439C183.941 335.592 183.797 335.688 183.797 335.688L189.229 343.5C190.237 342.752 191.081 342.147 191.81 341.552C192.53 340.957 193.164 340.439 193.749 339.949C194.334 339.469 194.872 338.999 195.438 338.567C196.004 338.155 196.599 337.751 197.281 337.348C198.087 336.878 198.951 336.6 199.814 336.283C200.668 336.024 201.523 335.765 202.319 335.429C202.991 335.199 203.663 334.805 204.287 334.575L205.237 334.143L206.148 333.807C207.338 333.394 208.5 333.241 209.219 333.606C210.592 334.306 210.707 336.389 210.966 339.114C211.1 340.592 211.408 341.888 211.705 343.26C212.022 344.613 212.3 346.043 212.348 347.79C212.377 349.364 211.408 351.226 211.292 353.596L220.803 354.047Z" fill="#EBFEB3"/>
<path d="M224.04 402.399C222.456 400.087 220.547 397.303 219.328 394.213C218.445 391.929 217.389 389.405 217.389 386.843C217.37 384.203 218.301 380.249 218.742 377.649C219.404 373.656 217.639 371.382 218.224 367.274C218.848 363.013 219.299 362.044 220.422 357.524C220.527 357.102 220.623 356.247 220.69 355.489C220.719 355.105 220.748 354.75 220.777 354.491C220.796 354.232 220.806 354.059 220.806 354.05L211.305 353.599C211.122 358.656 211.736 360.777 211.583 364.117C211.487 366.094 210.873 368.023 210.796 370.019C210.671 373.445 211.506 376.891 211.429 380.346C211.362 383.791 210.652 386.929 210.815 390.528C210.911 392.467 211.343 394.069 211.9 395.624C212.466 397.188 213.099 398.724 213.809 400.614C214.395 402.284 214.404 404.731 215.854 407.255L224.04 402.409V402.399Z" fill="#EBFEB3"/>
<path d="M265.983 407.09C265.224 407.387 264.466 407.733 263.718 408.116C262.96 408.462 262.182 408.807 261.414 409.182C259.888 409.978 258.295 410.631 256.712 411.207C255.531 411.677 254.303 412.09 253.046 412.445C251.798 412.8 250.522 413.126 249.236 413.059C247.911 413.011 246.27 412.877 244.639 412.541C243.007 412.205 241.395 411.85 240.119 411.648C239.207 411.427 238.401 411.379 237.633 411.408C236.884 411.379 236.174 411.437 235.435 411.514C234.725 411.533 234.005 411.543 233.228 411.475C232.499 411.331 231.683 411.168 230.896 410.727C230.493 410.487 230.138 410.276 229.802 410.074C229.466 409.882 229.216 409.633 228.957 409.431C228.708 409.22 228.477 409.028 228.247 408.836C228.046 408.615 227.863 408.404 227.671 408.193C227.489 407.982 227.307 407.771 227.105 407.541C226.942 407.291 226.769 407.042 226.587 406.763C226.193 406.245 225.867 405.544 225.426 404.767C225.291 404.45 224.936 403.875 224.6 403.395C224.312 402.857 224.044 402.406 224.044 402.406L215.857 407.253C216.644 408.577 217.508 409.604 218.285 410.487C218.698 410.909 219.111 411.283 219.504 411.639C219.888 411.994 220.262 412.32 220.666 412.598C221.452 413.164 222.153 413.702 222.94 414.143C223.324 414.383 223.698 414.614 224.101 414.863C224.495 415.103 224.927 415.314 225.349 415.564C226.347 416.178 227.355 416.725 228.372 417.32C228.881 417.617 229.408 417.819 229.936 418.059C230.474 418.27 231.011 418.529 231.568 418.635C235.387 419.633 239.322 418.942 242.691 418.971C243.564 418.999 244.409 419.076 245.243 419.172C246.078 419.268 246.913 419.316 247.748 419.403C249.418 419.546 251.107 419.796 252.883 419.662C254.802 419.546 256.376 419.249 257.902 418.683C258.66 418.424 259.428 418.165 260.224 417.896C260.627 417.771 261.04 417.646 261.462 417.512C261.885 417.358 262.326 417.214 262.787 417.08C263.612 416.84 264.581 416.802 265.675 416.744C266.76 416.687 267.94 416.475 269.169 416.072L265.992 407.099L265.983 407.09Z" fill="#EBFEB3"/>
<path d="M301.198 375.307C299.576 378.301 298.54 381.785 296.966 384.827C296.409 385.978 295.814 387.13 295.19 388.291C294.547 389.433 293.789 390.489 292.906 391.41C290.996 393.243 287.59 395.345 285.401 396.65C283.77 397.735 282.772 398.838 281.803 400.057C281.332 400.681 280.776 401.209 280.181 401.785C279.566 402.322 278.904 402.917 277.993 403.32C276.131 404.203 274.969 404.712 273.703 405.038C273.079 405.211 272.445 405.384 271.706 405.585C270.977 405.787 270.094 405.912 269.048 406.132C268.655 406.209 267.916 406.487 267.263 406.708C266.601 406.91 266.025 407.092 266.006 407.092L269.182 416.065C269.835 415.825 270.44 415.614 270.987 415.365C271.524 415.105 272.023 414.856 272.493 414.616C273.424 414.127 274.211 413.685 274.941 413.253C276.351 412.284 277.561 411.506 279.096 410.614C279.989 410.067 280.939 409.645 281.899 409.213C282.858 408.791 283.76 408.253 284.634 407.668C286.14 406.67 287.359 405.316 288.636 404.059C289.259 403.416 289.835 402.725 290.459 402.101C291.073 401.458 291.726 400.863 292.359 400.249C293.655 399.059 295.018 398.071 296.313 396.996C297.657 395.969 298.914 394.856 300.162 393.579C302.762 390.758 303.482 388.157 305.44 384.961C306.332 383.541 308.185 382.303 309.461 380.134L301.256 375.316L301.198 375.307Z" fill="#EBFEB3"/>
<path d="M329.682 366.956C329.566 365.286 329.298 363.569 328.991 361.803C328.664 360.488 328.453 356.592 328.069 354.173C327.935 353.204 327.695 352.378 327.426 351.649C327.138 350.949 326.822 350.373 326.495 349.845C326.15 349.327 325.833 348.837 325.353 348.367C324.921 347.877 324.029 347.494 323.328 347.57C322.609 347.59 321.879 347.724 321.102 347.993C320.718 348.146 320.315 348.29 319.893 348.444C319.48 348.684 319.058 348.923 318.635 349.163C318.194 349.355 317.772 349.787 317.33 350.123C317.109 350.305 316.889 350.488 316.668 350.661C316.447 350.833 316.217 351.016 316.015 351.265C315.584 351.745 315.171 352.215 314.768 352.666C314.355 353.137 313.952 353.597 313.683 353.991C313.223 354.624 312.81 355.258 312.436 355.872C312.34 356.025 312.253 356.179 312.167 356.332L312.013 356.639C311.917 356.851 311.822 357.052 311.735 357.254C311.39 358.069 311.15 358.876 310.929 359.672C310.488 361.265 310.104 362.868 308.99 364.634C306.697 368.281 305.929 369.01 303.04 372.494C302.771 372.81 302.33 373.521 301.937 374.125C301.553 374.739 301.217 375.277 301.217 375.287L309.422 380.104C312.023 375.459 312.282 373.223 313.798 370.21C314.691 368.434 316.015 366.918 316.889 365.181C317.637 363.684 318.175 362.119 318.76 360.584C318.827 360.411 318.923 360.162 318.962 360.046L319.048 359.739C319.106 359.538 319.173 359.327 319.25 359.116L319.336 358.885C319.355 358.828 319.384 358.77 319.403 358.712C319.461 358.597 319.518 358.492 319.585 358.415C319.873 358.079 320.209 358.117 320.353 358.473C320.43 358.645 320.459 358.876 320.44 359.125C320.44 359.384 320.344 359.653 320.286 359.778C320.152 360.046 320.315 359.72 320.536 359.682C320.641 359.653 320.766 359.663 320.862 359.749C320.91 359.806 320.958 359.816 320.987 359.941C320.996 360.094 321.015 360.258 321.025 360.411V360.661L321.044 361.006C321.063 362.647 320.113 364.663 320.181 367.215L329.691 366.937L329.682 366.956Z" fill="#EBFEB3"/>
<path d="M353.625 391.515C352.646 392.34 351.782 393.07 350.842 393.626C350.372 393.885 349.882 394.097 349.335 394.231C348.587 394.317 347.713 394.404 346.926 394.394C344.546 394.423 341.898 394.432 339.805 393.223C338.74 392.609 337.579 391.592 336.648 390.45C335.698 389.308 334.988 388.07 334.441 387.1C333.625 385.603 332.704 384.672 331.773 383.588C330.851 382.513 329.949 381.294 329.575 379.413C329.22 377.465 329.182 376.208 329.21 374.941C329.258 373.665 329.373 372.35 329.642 370.2C329.69 369.807 329.69 369.01 329.69 368.3C329.69 367.59 329.681 366.975 329.681 366.966L320.17 367.244C320.295 369.96 320.669 371.879 321.062 373.54C321.475 375.2 321.897 376.611 322.291 378.386C322.751 380.469 322.886 382.705 323.75 384.807C324.489 386.601 325.602 388.252 326.869 389.768C328.135 391.285 329.546 392.657 330.947 394.039C333.711 396.774 336.466 399.26 340.132 400.776C342.109 401.582 343.865 401.784 345.564 401.841C346.418 401.88 347.262 401.851 348.145 401.841C348.529 401.841 349.182 401.822 349.767 401.803C350.372 401.765 350.995 401.697 351.619 401.592C352.752 401.409 353.999 401.275 355.362 400.958C356.696 400.613 358.097 400.066 359.345 399.135L353.615 391.534L353.625 391.515Z" fill="#EBFEB3"/>
<path d="M371.343 347.636C370.969 351.023 371.266 354.67 371.017 358.116C370.834 360.678 370.854 363.442 369.942 365.87C369.011 368.375 366.804 371.791 365.489 374.027C364.491 375.764 364.203 377.271 363.877 378.797C363.56 380.323 363.234 381.887 362.12 383.528C360.959 385.227 360.124 386.158 359.222 387.051C358.32 387.924 357.322 388.768 355.729 389.862C355.431 390.045 354.913 390.515 354.462 390.861C354.241 391.053 354.03 391.196 353.876 391.312C353.723 391.427 353.627 391.504 353.627 391.504L359.347 399.104C361.919 397.06 363.08 395.285 364.04 393.778C364.971 392.252 365.633 390.918 366.583 389.383C367.677 387.569 369.107 385.985 370.019 384.104C371.564 380.86 372.005 377.281 373.272 374.047C374.52 370.822 376.238 368.135 377.389 364.843C378.608 361.283 378.234 358.653 378.838 354.977C379.107 353.336 380.374 351.503 380.748 349.027L371.333 347.626L371.343 347.636Z" fill="#EBFEB3"/>
<path d="M363.734 305.43C364.329 305.565 364.848 305.805 365.443 305.968C365.731 306.064 365.99 306.217 366.287 306.323L366.729 306.496C366.873 306.563 367.007 306.659 367.151 306.735L368.024 307.225L368.85 307.868C369.445 308.261 369.896 308.876 370.414 309.413C371.844 311.102 373.341 313.338 373.725 315.814C374.147 318.367 373.639 322.321 373.389 324.874C373.015 328.789 374.896 330.93 374.387 334.989C373.792 339.164 373.331 340.114 371.997 344.385C371.863 344.778 371.71 345.584 371.585 346.304C371.46 347.024 371.354 347.638 371.354 347.648L380.769 349.049C381.46 343.751 380.836 341.553 381.047 338.127C381.153 336.102 381.748 334.116 381.758 332.062C381.758 328.53 380.712 325.075 380.443 321.563C380.155 318.05 380.472 314.759 379.56 311.016C379.051 309.01 378.207 307.398 377.122 305.901C376.537 305.162 375.999 304.423 375.347 303.693C375.011 303.329 374.656 302.964 374.301 302.58C374.128 302.388 373.946 302.196 373.763 301.995C373.562 301.803 373.351 301.62 373.139 301.419C372.756 301.073 372.4 300.661 372.026 300.21C371.604 299.787 371.172 299.346 370.702 298.876C370.241 298.377 369.665 297.983 369.061 297.561C368.754 297.359 368.437 297.129 368.091 296.966C367.746 296.803 367.381 296.659 367.007 296.515L363.734 305.45V305.43Z" fill="#EBFEB3"/>
<path d="M313.648 311.945C314.186 312.022 314.723 312.089 315.26 312.137C315.798 312.166 316.326 312.137 316.853 312.137C317.928 312.137 318.936 311.955 319.953 311.801C320.961 311.619 321.93 311.37 322.88 311.13C323.811 310.842 324.752 310.611 325.635 310.323C328.322 309.527 330.846 308.212 333.476 307.742C336.191 307.272 340.376 307.118 343.034 306.782C345.088 306.523 346.489 305.813 347.909 305.103C349.32 304.383 350.75 303.673 352.727 303.49C354.771 303.327 356 303.394 357.228 303.548C358.428 303.749 359.695 303.97 361.364 304.652C361.518 304.719 361.768 304.757 362.017 304.844C362.267 304.93 362.535 305.026 362.794 305.093C362.929 305.131 363.054 305.16 363.169 305.199C363.274 305.247 363.37 305.285 363.447 305.323C363.61 305.391 363.716 305.429 363.716 305.429L366.988 296.494C366.585 296.35 366.201 296.216 365.817 296.11C365.443 296.033 365.078 295.957 364.733 295.88C364.032 295.736 363.38 295.621 362.785 295.611C362.19 295.573 361.624 295.544 361.105 295.544C360.597 295.582 360.107 295.611 359.637 295.64C357.785 295.794 356.297 296.12 354.483 296.341C352.372 296.638 350.222 296.513 348.207 297.003C344.752 297.818 341.739 299.671 338.466 300.486C335.213 301.302 332.17 301.273 329.013 301.734C327.305 301.984 325.98 302.406 324.646 302.838C323.322 303.27 321.988 303.692 320.376 303.826C319.656 303.884 318.878 303.644 318.044 303.404C317.64 303.25 317.218 303.106 316.786 302.982C316.345 302.866 315.942 302.694 315.472 302.627L313.629 311.965L313.648 311.945Z" fill="#EBFEB3"/>
<path d="M267.463 283.682C268.835 284.959 270.457 285.957 272.089 286.916C273.691 287.914 275.409 288.701 276.974 289.604C277.569 289.93 278.164 290.266 278.778 290.563C279.392 290.861 280.016 291.158 280.63 291.456C281.858 292.07 283.02 292.761 284.075 293.586C285.169 294.412 286.436 295.602 287.703 296.811C288.96 298.03 290.275 299.162 291.34 300.045C292.166 300.717 292.972 301.187 293.768 301.561C294.574 301.907 295.361 302.156 296.158 302.387C297.751 302.857 299.335 303.327 301.11 304.46C302.962 305.621 304.075 306.398 305.198 307.243C305.477 307.454 305.755 307.675 306.052 307.895C306.196 308.011 306.35 308.126 306.504 308.241L306.619 308.327H306.638V308.346C307.003 308.558 306.139 308.068 306.235 308.116L306.273 308.145L306.34 308.203C306.436 308.279 306.532 308.356 306.628 308.433C307.415 309.066 308.317 309.834 309.594 310.535C309.824 310.669 310.189 310.861 310.611 311.034C311.033 311.187 311.513 311.35 311.964 311.485C312.415 311.619 312.838 311.773 313.145 311.821C313.452 311.878 313.653 311.917 313.663 311.926L315.506 302.588C314.997 302.54 314.584 302.396 314.172 302.32C313.97 302.281 313.768 302.243 313.577 302.204C313.394 302.147 313.221 302.099 313.049 302.051C312.713 301.955 312.377 301.878 312.06 301.801C311.772 301.686 311.484 301.581 311.206 301.485C311.062 301.437 310.928 301.389 310.793 301.341L310.688 301.302H310.678L310.237 301.053L310.208 301.043L310.141 301.024L309.882 300.928C309.536 300.803 309.191 300.678 308.845 300.554C308.154 300.295 307.473 300.007 306.734 299.642C304.997 298.788 303.519 297.483 301.83 296.552C300.381 295.765 298.807 295.199 297.262 294.584C295.736 293.941 294.21 293.279 292.818 292.387C291.417 291.513 290.285 290.419 289.114 289.383C288.538 288.855 287.962 288.337 287.377 287.809C286.81 287.262 286.225 286.724 285.601 286.206C284.258 285.083 282.952 284.411 281.695 283.672C280.438 282.943 279.066 282.319 277.722 281.216C276.522 280.218 275.63 278.365 274.018 276.763L267.472 283.672L267.463 283.682Z" fill="#EBFEB3"/>
<path d="M250.316 232.597C249.587 236.34 249.99 240.418 250.422 244.152C250.614 245.553 250.863 246.963 251.199 248.355C251.362 249.046 251.458 249.747 251.602 250.437C251.746 251.128 251.862 251.81 251.909 252.51C251.938 253.23 252.034 254.027 252.101 254.881C252.188 255.735 252.169 256.666 252.322 257.568C252.437 258.48 252.562 259.401 252.668 260.265C252.821 261.129 253.023 261.925 253.205 262.645C253.349 263.192 253.512 263.71 253.714 264.171C253.934 264.622 254.174 265.044 254.414 265.438C254.923 266.225 255.432 266.935 256.017 267.578C257.226 268.854 258.339 270.14 259.51 271.992C260.643 273.979 261.43 275.14 262.149 276.407C262.85 277.703 263.647 278.941 264.99 281.004C265.23 281.398 265.835 282.069 266.391 282.626C266.948 283.192 267.437 283.672 267.447 283.682L273.992 276.772C272.169 275.15 270.902 274.046 269.731 273.106C269.434 272.866 269.155 272.645 268.877 272.424C268.618 272.184 268.368 271.944 268.109 271.705C267.61 271.215 267.111 270.706 266.603 270.111C265.979 269.42 265.604 268.576 265.163 267.779C264.722 266.973 264.299 266.177 263.848 265.399C263.445 264.747 262.984 264.123 262.505 263.509C262.082 262.866 261.631 262.242 261.18 261.608C260.7 260.985 260.326 260.313 259.961 259.622C259.626 258.931 259.222 258.25 259.04 257.501C258.829 256.762 258.675 256.023 258.541 255.303C258.435 254.574 258.426 253.835 258.378 253.125C258.368 252.76 258.33 252.405 258.33 252.05C258.339 251.685 258.349 251.33 258.359 250.965C258.387 250.236 258.32 249.526 258.359 248.768C258.378 247.961 258.311 247.232 258.205 246.532C258.157 245.831 258.061 245.159 257.956 244.478C257.821 243.796 257.773 243.115 257.725 242.386C257.677 241.656 257.62 240.889 257.725 240.054C257.85 238.547 259.059 236.915 259.558 234.746L250.288 232.597H250.316Z" fill="#EBFEB3"/>
<path d="M271.052 184.335C269.881 187.521 269.238 191.149 268.211 194.498C267.443 196.994 266.868 199.719 265.514 201.984C264.123 204.306 261.397 207.473 259.871 209.767C257.52 213.299 258.259 216.14 256.33 219.921C255.322 221.898 254.679 223.126 253.969 224.364C253.288 225.621 252.501 226.879 251.436 229.086C251.224 229.489 250.937 230.353 250.725 231.13C250.514 231.907 250.332 232.579 250.322 232.598L259.593 234.748C260.649 230.103 260.61 228.001 261.676 224.969C262.309 223.184 263.499 221.639 264.238 219.873C265.486 216.859 266.071 213.481 267.626 210.525C269.18 207.579 271.282 205.314 273.019 202.425C274.891 199.287 275.102 196.677 276.561 193.289C277.194 191.763 278.883 190.314 279.843 187.991L271.052 184.335Z" fill="#EBFEB3"/>
<path d="M269.545 139.556C271.532 142.08 273.883 144.547 275.601 147.359C275.908 147.886 276.234 148.414 276.56 148.952C276.887 149.489 277.136 150.065 277.414 150.631C277.674 151.207 277.971 151.773 278.125 152.387C278.288 152.992 278.422 153.606 278.489 154.221C278.748 156.793 278.019 160.612 277.424 163.011C277.271 163.942 277.127 164.777 277.155 165.564C277.184 166.351 277.223 167.109 277.28 167.867C277.424 169.393 277.462 170.967 276.839 172.848C276.484 173.818 276.176 174.605 275.889 175.286C275.572 175.967 275.274 176.543 274.967 177.129C274.363 178.29 273.604 179.451 272.462 181.332C272.242 181.678 271.896 182.426 271.608 183.079C271.311 183.741 271.061 184.317 271.052 184.326L279.842 187.983C281.81 182.992 281.724 180.66 282.712 177.321C282.971 176.313 283.355 175.353 283.729 174.374C284.094 173.395 284.411 172.388 284.631 171.351C285.284 167.762 284.718 164.067 284.795 160.459C284.852 156.85 285.226 153.491 284.593 149.768C284.382 148.779 284.123 147.886 283.825 147.061C283.499 146.245 283.086 145.497 282.702 144.758C282.501 144.393 282.299 144.019 282.098 143.654C281.887 143.29 281.637 142.934 281.416 142.56C280.956 141.821 280.505 141.034 280.044 140.161C279.132 138.683 278.921 136.303 277.386 134.144L269.555 139.547L269.545 139.556Z" fill="#EBFEB3"/>
<path d="M230.84 109.372C231.627 109.747 232.433 110.073 233.268 110.371C234.084 110.687 234.918 110.994 235.763 111.282C237.433 111.877 239.18 112.357 240.773 113.039C243.153 114.037 245.84 114.785 247.865 116.417C250.005 118.019 252.615 121.177 254.429 123.048C255.782 124.536 257.203 125.207 258.594 125.946C259.947 126.714 261.425 127.405 262.721 128.941C264.055 130.543 264.871 131.532 265.523 132.684C266.185 133.816 266.905 134.948 267.827 136.897C267.999 137.252 268.45 137.895 268.853 138.461C269.218 139.037 269.535 139.545 269.544 139.555L277.376 134.152C274.065 129.622 271.925 128.586 269.496 126.062C268.009 124.641 266.934 122.799 265.341 121.484C264.679 120.908 263.969 120.371 263.249 119.862C262.519 119.363 261.752 118.931 261.013 118.47C259.516 117.559 258.038 116.637 256.656 115.61C253.959 113.461 251.867 111.11 249.122 108.989C246.089 106.82 243.517 106.321 240.226 104.641C238.767 103.873 237.462 102.069 235.264 100.946L230.83 109.372H230.84Z" fill="#EBFEB3"/>
<path d="M186.521 92.0953L183.267 95.5598L181.636 97.2969L180.82 98.1606L180.417 98.5925L180.215 98.8132L180.11 98.9187L180.062 98.9764L180.033 99.0052H180.023V99.0244C180.158 99.4659 180.148 99.4562 180.225 99.6865C180.225 99.7057 180.225 99.7058 180.225 99.7154L180.235 99.7346L180.263 99.7633L180.321 99.8113L180.436 99.9073L180.666 100.099L181.118 100.483L182.029 101.251L183.843 102.786L187.48 105.857L187.807 105.445L188.114 105.023L188.402 104.591L188.661 104.149L188.901 103.708L189.112 103.257L189.304 102.796L189.477 102.335L189.62 101.865L189.745 101.395L189.851 100.925L189.928 100.445L189.985 99.9649L190.024 99.485V99.0052V98.5253L189.928 98.0647L189.803 97.6039L189.659 97.1433L189.496 96.6923L189.304 96.2508L189.256 96.1453L189.227 96.0877V96.0588L189.208 96.0396L189.15 95.8573L188.977 95.4542L188.776 95.0512L188.555 94.6481L188.315 94.2546L188.056 93.8612L187.778 93.4869L187.49 93.1222L187.183 92.7575L186.857 92.412L186.511 92.0762L186.521 92.0953Z" fill="#EBFEB3"/>
<path d="M230.841 109.373L233.058 105.16L234.161 103.058L234.718 102.002L234.996 101.475L235.131 101.215L235.198 101.081L235.236 101.014L235.255 100.985V100.966H235.265C235.246 100.889 235.246 100.899 235.236 100.86C235.207 100.793 235.207 100.793 235.198 100.764L235.178 100.755H235.14L235.073 100.716L234.939 100.659L234.66 100.553L234.104 100.333L233 99.891L230.793 99.0081L226.368 97.2422L226.215 97.6645L226.081 98.0963L225.975 98.5283L225.889 98.9601L225.831 99.392L225.793 99.8238L225.773 100.256V100.688L225.812 101.119L225.86 101.542L225.927 101.964L226.013 102.396L226.119 102.818L226.253 103.24L226.407 103.653L226.58 104.056L226.714 104.478L226.867 104.891L227.04 105.294L227.232 105.688L227.443 106.072L227.674 106.446L227.914 106.81L228.173 107.156L228.451 107.492L228.739 107.809L229.046 108.116L229.372 108.404L229.718 108.672L230.073 108.931L230.447 109.171L230.841 109.392V109.373Z" fill="#EBFEB3"/>
</svg>
