<svg width="383" height="403" viewBox="0 0 383 403" fill="none" xmlns="http://www.w3.org/2000/svg">
<path d="M380.051 333.711C359.705 286.139 312.027 319.057 303.745 323.471C301.951 324.431 292.239 318.068 292.91 316.149C379.12 114.132 123.811 81.7227 123.936 206.58C126.037 247.185 150.519 244.651 156.374 240.745C162.228 236.839 179.723 234.306 161.748 198.048C144.54 163.336 138.59 191.513 139.3 186.973C142.592 166.032 158.466 157.587 174.406 163.902C190.347 170.217 216.566 192.597 197.919 231.11C97.9661 400.286 -70.4135 243.5 146.575 109.41C149.828 107.424 159.291 98.4407 159.694 94.6499C138.878 -43.9022 62.6875 -19.5066 90.9027 97.7881C-63.6956 -9.15144 4.73113 356.111 105.471 335.9C209.435 308.404 209.253 393.424 226.864 399.643C255.731 409.835 306.221 396.543 253.822 324.172C237.948 302.252 221.595 332.147 217.9 323.395C211.892 309.191 240.626 221.753 255.136 279.853C261.883 306.878 276.375 338.308 282.987 355.055C289.954 372.685 327.671 376.524 351.116 378.865C374.562 381.207 388.209 352.81 380.051 333.721V333.711ZM115.5 18.1329C138.609 39.3903 151.21 83.0087 134.156 101.281C128.926 106.886 104.559 102.433 100.548 90.2832C90.5669 60.091 106.344 9.70672 115.5 18.1329Z" fill="#EBFEB3"/>
</svg>
