<svg width="239" height="417" viewBox="0 0 239 417" fill="none" xmlns="http://www.w3.org/2000/svg">
<path d="M161.894 377.166C147.47 391.091 172 341.599 178.929 327.021C185.858 312.443 306.656 232.874 182.49 205.168C153.948 200.552 111.443 207.154 94.4754 185.763C84.6769 173.402 97.6521 130.378 118.103 120.733C227.96 68.9095 182.816 179.582 175.647 170.177C168.478 160.763 149.274 128.142 138.507 135.59C127.739 143.027 116.328 161.866 133.305 179.707C187.231 224.237 214.39 138.853 211.319 116.156C194.947 84.4087 162.71 79.3415 162.71 79.3415C162.71 79.3415 178.939 43.5542 167.585 12.1912C156.232 -19.1815 109.543 17.5175 104.351 38.0935C100.522 53.2568 92.7096 75.9058 92.7096 75.9058C92.7096 75.9058 -14.9497 101.002 43.7552 198.949C63.0164 231.089 83.7652 205.686 76.126 212.558C67.0184 220.754 10.3288 214.467 16.2694 260.927C21.0679 298.412 59.312 352.079 74.5137 371.446C56.8264 354.603 12.5745 332.136 0.146368 394.354C-4.95924 419.891 125.32 418.25 107.067 390.381C65.2813 326.57 53.4194 249.938 106.74 282.683C178.939 327.021 131.933 367.693 134.092 392.761C136.865 424.92 236.386 421.139 232.586 397.607C225.916 356.378 190.494 349.574 161.914 377.166H161.894ZM114.936 58.1705C143.353 -7.20436 169.102 27.8823 157.096 76.7215C152.518 83.2379 147.173 85.8194 133.084 83.6313C118.996 81.4528 113.074 66.9806 114.946 58.1705H114.936Z" fill="#EBFEB3"/>
</svg>
