<svg width="84" height="56" viewBox="0 0 84 56" fill="none" xmlns="http://www.w3.org/2000/svg">
<g filter="url(#filter0_d_847_4666)">
<rect x="2" y="1" width="78" height="50" rx="25" fill="#D9FFF0" fill-opacity="0.3" shape-rendering="crispEdges"/>
<rect x="2.5" y="1.5" width="77" height="49" rx="24.5" stroke="#D9FFF0" stroke-dasharray="12 12" shape-rendering="crispEdges"/>
</g>
<path d="M38.16 16.72V34.62L37.26 35.02L36.86 34.72V18.32L36.26 17.32L37.06 16.72H38.16ZM33.14 28.02C33.14 28.86 33.04 29.62 32.84 30.3C32.6533 30.9667 32.3533 31.54 31.94 32.02C31.54 32.5 31.0267 32.8667 30.4 33.12C29.7733 33.3733 29.0267 33.5 28.16 33.5C27.2933 33.5 26.5467 33.3733 25.92 33.12C25.2933 32.8667 24.7733 32.5 24.36 32.02C23.9467 31.54 23.64 30.9667 23.44 30.3C23.2533 29.62 23.16 28.86 23.16 28.02V22.72C23.16 21.88 23.2533 21.1267 23.44 20.46C23.64 19.7933 23.9467 19.2267 24.36 18.76C24.7733 18.28 25.2933 17.9133 25.92 17.66C26.5467 17.4067 27.2933 17.28 28.16 17.28C29.0267 17.28 29.7733 17.4067 30.4 17.66C31.0267 17.9133 31.54 18.28 31.94 18.76C32.3533 19.2267 32.6533 19.7933 32.84 20.46C33.04 21.1267 33.14 21.88 33.14 22.72V28.02ZM31.88 22.76C31.88 22.0933 31.8067 21.4933 31.66 20.96C31.5267 20.4267 31.3067 19.9733 31 19.6C30.7067 19.2133 30.3267 18.92 29.86 18.72C29.3933 18.5067 28.8267 18.4 28.16 18.4C27.5067 18.4 26.94 18.5067 26.46 18.72C25.9933 18.92 25.6067 19.2133 25.3 19.6C25.0067 19.9733 24.7867 20.4267 24.64 20.96C24.5067 21.4933 24.44 22.0933 24.44 22.76V28C24.44 28.6667 24.5067 29.2733 24.64 29.82C24.7867 30.3533 25.0067 30.8133 25.3 31.2C25.6067 31.5733 25.9933 31.86 26.46 32.06C26.94 32.26 27.5067 32.36 28.16 32.36C28.8267 32.36 29.3933 32.26 29.86 32.06C30.3267 31.86 30.7067 31.5733 31 31.2C31.3067 30.8133 31.5267 30.3533 31.66 29.82C31.8067 29.2733 31.88 28.6667 31.88 28V22.76ZM56.6894 22.32H54.0494L53.0894 22.68L52.5494 22.12L52.7494 21.18H56.6894V18.32L56.0894 17.32L56.8894 16.72H57.9494V29.46L57.0894 29.86L56.6894 29.56V22.32ZM53.5894 17.7L53.3894 18.62H48.7494V21.8L52.6294 25.26L53.6494 25.42L53.7494 26.24L52.8494 27.12L48.0894 22.9L43.8894 26.66L43.5494 27.52L42.5494 27.32L42.1294 26.54L47.4094 21.84V18.62H44.2694L43.0694 19.22L42.4694 18.42L42.6694 17.5H51.7894L52.9894 16.9L53.5894 17.7ZM45.7494 28.78V33.34H56.5694L57.7694 32.74L58.3694 33.54L58.1694 34.48H46.0294L44.8294 34.68L44.0294 33.88L44.4294 32.68V30.58L44.0294 29.38L44.6294 28.78H45.7494Z" fill="#EBFEB3"/>
<defs>
<filter id="filter0_d_847_4666" x="0" y="0" width="84" height="56" filterUnits="userSpaceOnUse" color-interpolation-filters="sRGB">
<feFlood flood-opacity="0" result="BackgroundImageFix"/>
<feColorMatrix in="SourceAlpha" type="matrix" values="0 0 0 0 0 0 0 0 0 0 0 0 0 0 0 0 0 0 127 0" result="hardAlpha"/>
<feOffset dx="1" dy="2"/>
<feGaussianBlur stdDeviation="1.5"/>
<feComposite in2="hardAlpha" operator="out"/>
<feColorMatrix type="matrix" values="0 0 0 0 0.290196 0 0 0 0 0.411765 0 0 0 0 0.423529 0 0 0 1 0"/>
<feBlend mode="normal" in2="BackgroundImageFix" result="effect1_dropShadow_847_4666"/>
<feBlend mode="normal" in="SourceGraphic" in2="effect1_dropShadow_847_4666" result="shape"/>
</filter>
</defs>
</svg>
