<svg width="84" height="56" viewBox="0 0 84 56" fill="none" xmlns="http://www.w3.org/2000/svg">
<g filter="url(#filter0_d_847_4667)">
<rect x="2" y="1" width="78" height="50" rx="25" fill="#336E74"/>
<rect x="2.5" y="1.5" width="77" height="49" rx="24.5" stroke="#EBFEB3" stroke-dasharray="12 12"/>
</g>
<path d="M37.58 16.72V22.3H38.84L39.84 21.8L40.44 22.5L40.24 23.46H37.58V29.8L36.72 30.2L36.32 29.9V18.32L35.72 17.32L36.52 16.72H37.58ZM29 24.26V26.64H33.18L34.38 26.04L34.98 26.84L34.78 27.78H23.78L22.58 28.38L21.98 27.58L22.18 26.64H27.68V24.26H26.84C26.1067 24.26 25.4733 24.1733 24.94 24C24.42 23.8133 23.9867 23.56 23.64 23.24C23.3067 22.9067 23.06 22.5133 22.9 22.06C22.74 21.6067 22.66 21.1067 22.66 20.56C22.66 20.0133 22.7467 19.5133 22.92 19.06C23.0933 18.5933 23.3533 18.2 23.7 17.88C24.0467 17.5467 24.48 17.2933 25 17.12C25.5333 16.9333 26.1467 16.84 26.84 16.84H29.64C30.3733 16.84 31 16.9333 31.52 17.12C32.0533 17.2933 32.4867 17.5467 32.82 17.88C33.1667 18.2 33.42 18.5933 33.58 19.06C33.7533 19.5133 33.84 20.0133 33.84 20.56C33.84 21.1067 33.7533 21.6067 33.58 22.06C33.42 22.5133 33.1667 22.9067 32.82 23.24C32.4867 23.56 32.0533 23.8133 31.52 24C31 24.1733 30.3733 24.26 29.64 24.26H29ZM29.44 23.16C30.6 23.16 31.4067 22.9267 31.86 22.46C32.3133 21.9933 32.54 21.36 32.54 20.56C32.54 19.76 32.3133 19.1333 31.86 18.68C31.4067 18.2133 30.6 17.98 29.44 17.98H27.06C25.9533 17.98 25.1533 18.2133 24.66 18.68C24.1667 19.1333 23.92 19.76 23.92 20.56C23.92 21.36 24.1533 21.9933 24.62 22.46C25.0867 22.9267 25.9 23.16 27.06 23.16H29.44ZM25.56 29.3V33.34H36.36L37.56 32.74L38.16 33.54L37.96 34.48H25.86L24.66 34.68L23.96 33.88L24.26 32.88V30.9L23.86 29.9L24.46 29.3H25.56ZM57.8094 17.82L57.6094 18.74V23.08L57.0094 23.56L55.8094 23.32H44.4094V27.08H56.3894L57.5894 26.48L58.1894 27.28L57.9894 28.2H44.7294L43.5294 28.3L42.8294 27.6L43.1294 26.4V24L42.8294 22.8L43.3294 22.2H56.3294V18.54H44.9294L43.7294 19.16L43.1294 18.36L43.3294 17.44H55.9094L57.1094 17.12L57.8094 17.82ZM59.5494 32.8L59.3494 33.74H43.0494L41.8494 34.34L41.2494 33.54L41.4494 32.6H46.1294V30.82L45.6294 29.82L46.3294 29.22H47.4094V32.6H53.5894V30.82L53.0894 29.82L53.7894 29.22H54.8694V32.6H57.7494L58.9494 32L59.5494 32.8Z" fill="#EBFEB3"/>
<defs>
<filter id="filter0_d_847_4667" x="0" y="0" width="84" height="56" filterUnits="userSpaceOnUse" color-interpolation-filters="sRGB">
<feFlood flood-opacity="0" result="BackgroundImageFix"/>
<feColorMatrix in="SourceAlpha" type="matrix" values="0 0 0 0 0 0 0 0 0 0 0 0 0 0 0 0 0 0 127 0" result="hardAlpha"/>
<feOffset dx="1" dy="2"/>
<feGaussianBlur stdDeviation="1.5"/>
<feComposite in2="hardAlpha" operator="out"/>
<feColorMatrix type="matrix" values="0 0 0 0 0.290196 0 0 0 0 0.411765 0 0 0 0 0.423529 0 0 0 1 0"/>
<feBlend mode="normal" in2="BackgroundImageFix" result="effect1_dropShadow_847_4667"/>
<feBlend mode="normal" in="SourceGraphic" in2="effect1_dropShadow_847_4667" result="shape"/>
</filter>
</defs>
</svg>
