<svg width="175" height="56" viewBox="0 0 175 56" fill="none" xmlns="http://www.w3.org/2000/svg">
<g filter="url(#filter0_d_1032_23229)">
<rect x="2" y="1" width="169" height="50" rx="25" fill="#336E74"/>
<rect x="2.5" y="1.5" width="168" height="49" rx="24.5" stroke="#EBFEB3" stroke-dasharray="12 12"/>
</g>
<path d="M42.16 16.72V34.62L41.26 35.02L40.86 34.72V18.32L40.26 17.32L41.06 16.72H42.16ZM34.94 24.7L36.14 24.1L36.74 24.9L36.54 25.82H28.44V32.04H37.56L38.76 31.44L39.36 32.24L39.16 33.16H28.56L27.36 33.36L26.56 32.56L27.16 31.56V19.08L26.56 18.08L27.36 17.48H36.78L36.98 18.4L36.38 19.2L35.18 18.6H28.44V24.7H34.94ZM58.2494 26.88L57.3894 27.28L56.9894 26.98V23.02H55.5294L54.7494 23.32L54.2494 22.82L54.4494 21.8H56.9894V18.32L56.3894 17.32L57.1894 16.72H58.2494V26.88ZM60.9894 18.32L60.3894 17.32L61.1894 16.72H62.2694V28.46L61.3894 28.86L60.9894 28.56V18.32ZM53.4694 17.1L54.1694 17.8L53.9694 18.72L53.6494 22.3L53.2694 23.36L52.3494 23.7L47.3694 26.84L46.9894 27.6L45.9894 27.3L45.6294 26.44L52.2094 22.38H48.2694L47.0694 23L46.4694 22.2L46.6694 21.28H52.4494L52.7094 18.52H48.4694L47.2694 19.14L46.6694 18.34L46.8694 17.4H52.2694L53.4694 17.1ZM56.0294 27.82V29.94L61.5694 33.36L62.5694 33.42L62.7894 34.2L62.0294 35.06L55.3294 30.94L49.7494 34.24L49.4494 35.06L48.4494 34.8L48.0094 33.86L54.6694 29.94V29.34L54.1294 28.46L54.8694 27.82H56.0294ZM85.9745 16.72V20.48H87.2545L88.2545 19.98L88.8545 20.68L88.6545 21.66H85.9745V25.74L85.1145 26.14L84.7145 25.84V18.32L84.1145 17.32L84.9145 16.72H85.9745ZM81.5745 24.26L81.1745 25.2H72.5745L71.3745 25.4L70.5745 24.6L71.1745 23.6V18.6L70.5745 17.6L71.3745 17H72.4545V19.92H79.8945V18.6L79.2945 17.6L80.0945 17H81.1545V23.72L81.5745 24.26ZM79.8945 24.1V21.04H72.4545V24.1H79.8945ZM86.1745 27.28L85.9745 28.22V31.06L85.3745 31.56L84.1745 31.3H74.0545V33.64H84.7545L85.9545 33.04L86.5545 33.84L86.3545 34.74H74.3345L73.1345 34.84L72.4345 34.14L72.7345 32.94V32.02L72.4345 30.82L72.9345 30.22H84.6945V28H74.4145L73.1945 28.62L72.6145 27.82L72.8145 26.9H84.2745L85.4745 26.7L86.1745 27.28ZM104.804 18.18H92.9039L91.7039 18.78L91.1039 17.98L91.3039 17.04H104.384L105.584 16.74L106.284 17.42L106.104 18.34V22.78L105.224 23.18L104.804 22.88V18.18ZM107.924 24.48L107.724 25.4H91.4639L90.2639 26L89.6639 25.2L89.8639 24.28H106.124L107.324 23.68L107.924 24.48ZM104.304 27.5L105.104 26.9H106.204V33.04L106.804 33.76L106.224 34.62H92.7839L91.5839 34.82L90.7839 34.02L91.3839 33.02V28.5L90.7839 27.5L91.5839 26.9H92.6839V29.44H104.904V28.5L104.304 27.5ZM104.904 33.5V30.56H92.6839V33.5H104.904ZM125.193 16.72V21.1H126.473L127.473 20.6L128.073 21.3L127.873 22.26H125.193V26.86L124.333 27.26L123.933 26.96V18.32L123.333 17.32L124.133 16.72H125.193ZM120.793 25.3L120.393 26.24H111.793L110.593 26.44L109.793 25.64L110.393 24.64V18.8L109.793 17.8L110.593 17.2H111.673V20.48H119.113V18.8L118.513 17.8L119.313 17.2H120.373V24.76L120.793 25.3ZM119.113 25.12V21.6H111.673V25.12H119.113ZM125.113 28.14L125.313 29.08L124.713 29.88L123.513 29.28H113.253V33.48H123.713L124.913 32.88L125.513 33.68L125.313 34.62H113.353L112.153 34.82L111.353 34.02L111.953 33.02V29.74L111.353 28.74L112.153 28.14H125.113ZM145.383 16.72V34.62L144.483 35.02L144.083 34.72V18.32L143.483 17.32L144.283 16.72H145.383ZM139.743 17.36L140.443 18.06L140.243 18.98L139.343 25.02L139.063 26.06L138.143 26.68L131.943 32.76L131.563 33.56L130.563 33.34L130.183 32.58L138.043 24.94L138.963 18.8H132.243L131.043 19.42L130.443 18.62L130.643 17.66H138.543L139.743 17.36Z" fill="#EBFEB3"/>
<defs>
<filter id="filter0_d_1032_23229" x="0" y="0" width="175" height="56" filterUnits="userSpaceOnUse" color-interpolation-filters="sRGB">
<feFlood flood-opacity="0" result="BackgroundImageFix"/>
<feColorMatrix in="SourceAlpha" type="matrix" values="0 0 0 0 0 0 0 0 0 0 0 0 0 0 0 0 0 0 127 0" result="hardAlpha"/>
<feOffset dx="1" dy="2"/>
<feGaussianBlur stdDeviation="1.5"/>
<feComposite in2="hardAlpha" operator="out"/>
<feColorMatrix type="matrix" values="0 0 0 0 0.290196 0 0 0 0 0.411765 0 0 0 0 0.423529 0 0 0 1 0"/>
<feBlend mode="normal" in2="BackgroundImageFix" result="effect1_dropShadow_1032_23229"/>
<feBlend mode="normal" in="SourceGraphic" in2="effect1_dropShadow_1032_23229" result="shape"/>
</filter>
</defs>
</svg>
