<svg width="1920" height="674" viewBox="0 0 1920 674" fill="none" xmlns="http://www.w3.org/2000/svg">
<rect x="1296" y="332" width="624" height="10" fill="url(#paint0_linear_745_11737)"/>
<rect y="332" width="624" height="10" fill="url(#paint1_linear_745_11737)"/>
<circle cx="960" cy="337" r="336" fill="#336E74" stroke="white" stroke-dasharray="6 6"/>
<g style="mix-blend-mode:luminosity">
<circle cx="960" cy="337" r="292" fill="#06AABA"/>
</g>
<rect x="950" y="13" width="19" height="19" fill="#EBFEB3"/>
<rect x="950" y="642" width="19" height="19" fill="#EBFEB3"/>
<rect x="1265" y="328" width="19" height="19" fill="#EBFEB3"/>
<rect x="636" y="328" width="19" height="19" fill="#EBFEB3"/>
<path d="M736 337H862.5" stroke="#EBFEB3" stroke-width="2" stroke-dasharray="6 6"/>
<path d="M1057 337H1183.5" stroke="#EBFEB3" stroke-width="2" stroke-dasharray="6 6"/>
<path d="M960 113V239.5" stroke="#EBFEB3" stroke-width="2" stroke-dasharray="6 6"/>
<path d="M960 434V560.5" stroke="#EBFEB3" stroke-width="2" stroke-dasharray="6 6"/>
<g filter="url(#filter0_f_745_11737)">
<path d="M935 334.75C935 336.25 935 337.75 935 339.25C935.833 339.5 936.667 339.738 937.5 339.963C945 341.988 952.5 343 960 343C967.5 343 975 341.988 982.5 339.963C983.333 339.738 984.167 339.5 985 339.25C985 337.75 985 336.25 985 334.75C984.167 334.5 983.333 334.262 982.5 334.037C975 332.012 967.5 331 960 331C952.5 331 945 332.012 937.5 334.037C936.667 334.262 935.833 334.5 935 334.75Z" fill="#EBFEB3"/>
</g>
<g filter="url(#filter1_f_745_11737)">
<path d="M962.25 312C960.75 312 959.25 312 957.75 312C957.5 312.833 957.262 313.667 957.037 314.5C955.012 322 954 329.5 954 337C954 344.5 955.012 352 957.037 359.5C957.262 360.333 957.5 361.167 957.75 362C959.25 362 960.75 362 962.25 362C962.5 361.167 962.738 360.333 962.963 359.5C964.988 352 966 344.5 966 337C966 329.5 964.988 322 962.963 314.5C962.738 313.667 962.5 312.833 962.25 312Z" fill="#EBFEB3"/>
</g>
<g filter="url(#filter2_f_745_11737)">
<circle cx="960.5" cy="336.5" r="16.5" fill="#336E74"/>
<circle cx="960.5" cy="336.5" r="16.5" stroke="#EBFEB3" stroke-width="3"/>
</g>
<defs>
<filter id="filter0_f_745_11737" x="934" y="330" width="52" height="14" filterUnits="userSpaceOnUse" color-interpolation-filters="sRGB">
<feFlood flood-opacity="0" result="BackgroundImageFix"/>
<feBlend mode="normal" in="SourceGraphic" in2="BackgroundImageFix" result="shape"/>
<feGaussianBlur stdDeviation="0.5" result="effect1_foregroundBlur_745_11737"/>
</filter>
<filter id="filter1_f_745_11737" x="953" y="311" width="14" height="52" filterUnits="userSpaceOnUse" color-interpolation-filters="sRGB">
<feFlood flood-opacity="0" result="BackgroundImageFix"/>
<feBlend mode="normal" in="SourceGraphic" in2="BackgroundImageFix" result="shape"/>
<feGaussianBlur stdDeviation="0.5" result="effect1_foregroundBlur_745_11737"/>
</filter>
<filter id="filter2_f_745_11737" x="941.5" y="317.5" width="38" height="38" filterUnits="userSpaceOnUse" color-interpolation-filters="sRGB">
<feFlood flood-opacity="0" result="BackgroundImageFix"/>
<feBlend mode="normal" in="SourceGraphic" in2="BackgroundImageFix" result="shape"/>
<feGaussianBlur stdDeviation="0.5" result="effect1_foregroundBlur_745_11737"/>
</filter>
<linearGradient id="paint0_linear_745_11737" x1="1296" y1="337" x2="1920" y2="337" gradientUnits="userSpaceOnUse">
<stop stop-color="#EBFEB3"/>
<stop offset="1" stop-color="#336E74" stop-opacity="0"/>
</linearGradient>
<linearGradient id="paint1_linear_745_11737" x1="0" y1="337" x2="624" y2="337" gradientUnits="userSpaceOnUse">
<stop stop-color="#336E74" stop-opacity="0"/>
<stop offset="1" stop-color="#EBFEB3"/>
</linearGradient>
</defs>
</svg>
