<svg width="175" height="56" viewBox="0 0 175 56" fill="none" xmlns="http://www.w3.org/2000/svg">
<g filter="url(#filter0_d_847_4665)">
<rect x="2" y="1" width="169" height="50" rx="25" fill="#D9FFF0" fill-opacity="0.3" shape-rendering="crispEdges"/>
<rect x="2.5" y="1.5" width="168" height="49" rx="24.5" stroke="#D9FFF0" stroke-dasharray="12 12" shape-rendering="crispEdges"/>
</g>
<path d="M41.38 16.72V24.2H42.64L43.64 23.7L44.24 24.4L44.04 25.34H41.38V34.62L40.5 35.02L40.1 34.72V18.32L39.5 17.32L40.3 16.72H41.38ZM36.36 17.68L36.56 18.6L35.96 19.4L34.76 18.8H28.14V31.98H36.84L38.04 31.38L38.64 32.18L38.44 33.1H28.26L27.06 33.3L26.26 32.5L26.86 31.5V19.28L26.26 18.28L27.06 17.68H36.36ZM61.7694 16.72V34.62L60.8694 35.02L60.4694 34.72V18.32L59.8694 17.32L60.6694 16.72H61.7694ZM52.3694 17.4V25.82L56.6494 31.42L57.6094 31.7L57.7094 32.5L56.5094 33.32L51.7294 27.12L47.5494 32.72L47.4694 33.64L46.4094 33.66L45.8294 32.86L51.0294 25.86V19.1L50.4294 18.1L51.2294 17.4H52.3694ZM85.4745 21.9H82.4345L81.4745 22.26L80.9345 21.7L81.1345 20.76H85.4745V18.32L84.8745 17.32L85.6745 16.72H86.7345V29.52L85.8745 29.92L85.4745 29.62V21.9ZM77.3545 17.2V21.72L81.2345 25.18L82.2545 25.36L82.3545 26.18L81.4745 27.06L76.6945 22.8L72.4745 26.58L72.1545 27.46L71.1545 27.26L70.7345 26.46L76.0145 21.76V18.9L75.4145 17.9L76.2145 17.2H77.3545ZM74.5345 28.78V33.34H85.3545L86.5545 32.74L87.1545 33.54L86.9545 34.48H74.8145L73.6145 34.68L72.8145 33.88L73.2145 32.68V30.58L72.8145 29.38L73.4145 28.78H74.5345ZM100.944 18.32L100.344 17.32L101.144 16.72H102.224V21.32H105.384V18.32L104.784 17.32L105.584 16.72H106.664V27.48L105.784 27.88L105.384 27.58V22.5H102.224V27.46L101.344 27.86L100.944 27.56V18.32ZM96.6039 21.66L97.8039 21.14L98.4039 21.86L98.2039 22.76H92.0439V25.7H97.8439L99.0439 25.1L99.6439 25.9L99.4439 26.82H92.1839L90.9839 27.02L90.1839 26.22L90.7839 25.22V18.92L90.1839 17.92L90.9839 17.32H98.4239L98.6239 18.22L98.0239 18.94L96.8239 18.42H92.0439V21.66H96.6039ZM106.884 29.22L106.664 30.14V34.62L105.764 35.02L105.364 34.72V29.94H93.8639L92.6239 30.54L92.0239 29.74L92.2239 28.82H104.964L106.184 28.52L106.884 29.22ZM121.653 19.58L121.453 20.52H111.673L110.473 21.12L109.873 20.32L110.073 19.38H115.093V18.12L114.593 17.22L115.293 16.62H116.373V19.38H119.853L121.053 18.78L121.653 19.58ZM124.993 16.72V24.82H126.253L127.253 24.32L127.853 25.02L127.653 25.98H124.993V34.62L124.113 35.02L123.713 34.72V18.32L123.113 17.32L123.913 16.72H124.993ZM120.733 28.68C120.733 29.3733 120.633 30.0133 120.433 30.6C120.233 31.1733 119.927 31.6667 119.513 32.08C119.1 32.5067 118.58 32.8333 117.953 33.06C117.327 33.2867 116.587 33.4 115.733 33.4C114.88 33.4 114.14 33.2867 113.513 33.06C112.887 32.8333 112.367 32.5067 111.953 32.08C111.54 31.6667 111.227 31.1733 111.013 30.6C110.813 30.0133 110.713 29.3733 110.713 28.68V26.74C110.713 26.0333 110.813 25.3933 111.013 24.82C111.227 24.2467 111.54 23.7533 111.953 23.34C112.367 22.9133 112.887 22.5867 113.513 22.36C114.14 22.1333 114.88 22.02 115.733 22.02C116.587 22.02 117.327 22.1333 117.953 22.36C118.58 22.5867 119.1 22.9133 119.513 23.34C119.927 23.7533 120.233 24.2467 120.433 24.82C120.633 25.3933 120.733 26.0333 120.733 26.74V28.68ZM119.473 26.78C119.473 26.2333 119.407 25.74 119.273 25.3C119.14 24.86 118.927 24.48 118.633 24.16C118.34 23.84 117.953 23.5933 117.473 23.42C116.993 23.2467 116.413 23.16 115.733 23.16C115.04 23.16 114.453 23.2467 113.973 23.42C113.507 23.5933 113.127 23.84 112.833 24.16C112.54 24.48 112.327 24.86 112.193 25.3C112.06 25.74 111.993 26.2333 111.993 26.78V28.64C111.993 29.1867 112.06 29.6867 112.193 30.14C112.327 30.58 112.54 30.96 112.833 31.28C113.127 31.6 113.507 31.8467 113.973 32.02C114.453 32.1933 115.04 32.28 115.733 32.28C116.413 32.28 116.993 32.1933 117.473 32.02C117.953 31.8467 118.34 31.6 118.633 31.28C118.927 30.96 119.14 30.58 119.273 30.14C119.407 29.6867 119.473 29.1867 119.473 28.64V26.78ZM145.383 16.72V34.62L144.483 35.02L144.083 34.72V18.32L143.483 17.32L144.283 16.72H145.383ZM139.743 17.36L140.443 18.06L140.243 18.98L139.343 25.02L139.063 26.06L138.143 26.68L131.943 32.76L131.563 33.56L130.563 33.34L130.183 32.58L138.043 24.94L138.963 18.8H132.243L131.043 19.42L130.443 18.62L130.643 17.66H138.543L139.743 17.36Z" fill="#EBFEB3"/>
<defs>
<filter id="filter0_d_847_4665" x="0" y="0" width="175" height="56" filterUnits="userSpaceOnUse" color-interpolation-filters="sRGB">
<feFlood flood-opacity="0" result="BackgroundImageFix"/>
<feColorMatrix in="SourceAlpha" type="matrix" values="0 0 0 0 0 0 0 0 0 0 0 0 0 0 0 0 0 0 127 0" result="hardAlpha"/>
<feOffset dx="1" dy="2"/>
<feGaussianBlur stdDeviation="1.5"/>
<feComposite in2="hardAlpha" operator="out"/>
<feColorMatrix type="matrix" values="0 0 0 0 0.290196 0 0 0 0 0.411765 0 0 0 0 0.423529 0 0 0 1 0"/>
<feBlend mode="normal" in2="BackgroundImageFix" result="effect1_dropShadow_847_4665"/>
<feBlend mode="normal" in="SourceGraphic" in2="effect1_dropShadow_847_4665" result="shape"/>
</filter>
</defs>
</svg>
