<svg width="223" height="233" viewBox="0 0 223 233" fill="none" xmlns="http://www.w3.org/2000/svg">
<path d="M137.159 196.229C129.995 190.626 110.201 189.457 103.453 204.788C90.1995 241.147 156.917 231.294 158.81 210.325C161.523 197.577 163.41 186.81 166.894 173.058C170.378 159.307 188.694 159.651 198.873 145.246C209.051 130.841 228.477 95.4143 211.236 68.6051C194 41.7959 143.652 61.2751 143.652 61.2751C136.767 67.1688 105.043 94.4172 130.292 107.035C123.015 149.899 101.969 120.538 110.866 92.7435L119.223 68.2074C119.223 68.2074 123.846 16.8622 100.544 9.72214C-23.3702 -28.2333 -11.7195 127.5 37.7799 188.775C79.9494 233.122 107.779 180.513 110.925 169.272C115.175 154.089 95.0901 150.321 93.3392 152.618C89.6297 157.478 87.7423 170.91 77.7949 153.621C61.4435 125.221 68.6904 113.944 78.8633 107.795C89.0362 101.646 107.34 152.641 136.369 147.139C183.269 137.002 144.506 191.012 137.159 196.235V196.229Z" fill="#EBFEB3"/>
<path d="M111.246 127.043C112.018 128.016 113.039 128.895 114.273 129.565C115.484 130.242 116.991 130.657 118.469 130.616C119.579 130.586 120.641 130.182 121.49 129.66C122.351 129.138 123.039 128.521 123.716 127.963C124.416 127.387 125.271 126.657 126.054 125.862C126.82 125.066 127.538 124.224 128.019 123.511C128.773 122.413 128.969 121.404 129.117 120.413C129.259 119.416 129.36 118.431 129.829 117.268C130.785 114.834 131.153 114.312 132.263 111.748C132.369 111.51 132.494 111.012 132.607 110.573C132.708 110.133 132.797 109.748 132.797 109.742L127.016 108.632C126.5 111.499 126.689 112.727 126.226 114.549C125.953 115.623 125.33 116.561 124.998 117.588C124.422 119.333 124.238 121.25 123.295 122.769C122.363 124.253 120.938 125.12 119.953 125.5C119.425 125.701 119.211 125.814 118.867 125.957C118.534 126.087 118.03 126.105 117.419 125.755C117.282 125.684 117.163 125.535 117.051 125.399C116.944 125.227 116.837 125.066 116.73 124.859C116.522 124.467 116.315 123.998 115.982 123.559L111.246 127.055V127.043Z" fill="#EBFEB3"/>
<path d="M107.086 95.3721C106.653 97.5325 106.872 99.8591 106.997 101.996C107.08 103.604 107.442 105.236 107.324 106.815C107.187 108.43 106.718 110.916 106.694 112.596C106.671 113.884 107.033 114.834 107.448 115.748C107.852 116.668 108.315 117.558 108.57 118.816C108.855 120.14 109.027 120.953 109.211 121.796C109.401 122.65 109.573 123.535 110.083 124.989C110.172 125.256 110.451 125.766 110.713 126.211C110.855 126.431 110.986 126.633 111.086 126.787C111.187 126.935 111.259 127.036 111.259 127.036L115.995 123.541C115.271 122.579 114.731 121.819 114.262 121.155C113.793 120.478 113.407 119.855 113.081 119.024C112.707 118.033 112.713 116.935 112.452 115.908C112 114.157 111.134 112.418 111.027 110.537C110.92 108.667 111.413 107.005 111.633 105.183C111.888 103.224 111.419 101.865 111.65 99.8591C111.763 98.9629 112.517 98.0014 112.82 96.7254L107.092 95.3662L107.086 95.3721Z" fill="#EBFEB3"/>
<path d="M116.647 58.8418C116.719 60.9666 117.253 63.1745 117.467 65.3052C117.544 66.0946 117.668 66.9077 117.728 67.7149L117.746 68.0117C117.751 68.1126 117.746 68.1244 117.74 68.1897C117.74 68.2372 117.716 68.3025 117.692 68.3618L117.656 68.4568L117.615 68.6111C117.502 69.0266 117.372 69.4361 117.205 69.8338C116.861 70.6528 116.327 71.6618 115.781 72.7361C115.235 73.7985 114.677 74.9321 114.303 75.8698C113.727 77.318 113.662 78.4338 113.609 79.4547C113.567 80.4874 113.52 81.4311 113.14 82.8733C112.398 85.8647 112.137 86.7015 111.454 90.0549C111.359 90.6069 111.068 92.2865 111.062 92.2984L112.879 86.7015C113.621 85.3068 114.125 84.4758 114.529 83.7696C114.938 83.0455 115.288 82.4282 115.722 81.6626C116.268 80.6951 117.075 79.6031 117.597 78.7365C118.036 77.9887 118.303 77.3002 118.541 76.5405C118.778 75.7867 118.986 74.9736 119.354 74.1308C119.716 73.294 120.161 72.5046 120.612 71.733C120.832 71.3472 121.051 70.9614 121.277 70.5697C121.384 70.3739 121.485 70.1721 121.592 69.9762L121.669 69.8219C121.698 69.7566 121.704 69.7566 121.758 69.626C121.835 69.4064 121.942 69.2284 121.995 68.9672C122.167 68.3322 122.149 68.1838 122.179 67.887C122.197 67.6199 122.209 67.3647 122.209 67.1095C122.209 66.6109 122.179 66.1302 122.137 65.6554C122.054 64.7058 121.93 63.7561 121.93 62.6225C121.93 61.6076 122.535 60.3968 122.541 58.8774L116.653 58.8418H116.647Z" fill="#EBFEB3"/>
<path d="M112.742 28.3468C113.466 30.2579 114.594 32.175 115.366 34.1514C115.935 35.6174 116.671 37.1487 116.802 38.7393C116.938 40.3774 116.63 42.8761 116.541 44.4964C116.404 46.9952 117.668 48.2475 117.579 50.7818C117.467 53.3992 117.259 54.0165 116.766 56.7704C116.719 57.0256 116.689 57.536 116.671 57.993C116.659 58.4441 116.648 58.8358 116.648 58.8477L122.535 58.8833C122.5 55.6546 121.971 54.3785 121.87 52.3012C121.811 51.0786 122.055 49.844 121.96 48.6155C121.799 46.5025 121.034 44.4668 120.85 42.3716C120.666 40.2765 120.915 38.3535 120.701 36.2287C120.458 33.9318 119.55 32.5608 118.903 30.3529C118.612 29.3677 118.814 27.9966 118.327 26.501L112.742 28.3587V28.3468Z" fill="#EBFEB3"/>
<path d="M92.3906 10.5056C92.9129 10.6125 93.4412 10.6896 93.9872 10.749C94.5273 10.8202 95.0674 10.8855 95.6135 10.933C96.7055 11.0398 97.8095 11.1169 98.8719 11.2535C99.2695 11.295 99.6731 11.3425 100.077 11.39C100.445 11.4434 100.819 11.479 101.193 11.5561C101.929 11.7164 102.659 11.9597 103.27 12.3871C103.911 12.8025 104.599 13.5029 105.211 14.2329C105.804 14.9867 106.338 15.7583 106.742 16.3874C107.377 17.3311 108.065 17.883 108.772 18.4884C109.478 19.082 110.172 19.7467 110.683 20.8447C111.199 21.9902 111.425 22.738 111.621 23.5155C111.816 24.293 111.965 25.1062 112.19 26.4297C112.226 26.6731 112.374 27.1479 112.499 27.5633C112.63 27.9788 112.742 28.3408 112.742 28.3468L118.327 26.4891C117.194 23.3375 116.179 22.2929 115.2 20.358C114.612 19.2185 114.244 17.9483 113.508 16.8444C112.25 14.9451 110.35 13.5682 108.718 11.9953C107.881 11.2238 107.134 10.4225 106.279 9.69843C105.869 9.31858 105.412 8.98621 104.961 8.63604C104.487 8.32147 104.006 7.98317 103.46 7.72202C103.169 7.57957 102.884 7.449 102.605 7.33623C102.32 7.23533 102.047 7.15224 101.774 7.07508C101.638 7.03947 101.501 7.00386 101.371 6.96825L101.014 6.90296C100.777 6.86735 100.54 6.83174 100.308 6.79613C99.3645 6.66556 98.4208 6.56466 97.3228 6.2857C96.8302 6.16107 96.3316 5.87618 95.7678 5.56755C95.2039 5.26485 94.5689 4.97403 93.8388 4.79004L92.3906 10.4937V10.5056Z" fill="#EBFEB3"/>
<path d="M61.7535 6.89089C62.7921 6.81967 63.8486 6.58819 64.911 6.37453C65.9734 6.19054 67.0477 5.98281 68.0982 5.83443C68.8817 5.70979 69.6888 5.59108 70.5019 5.53173C71.3091 5.46051 72.1223 5.43677 72.9116 5.55547C73.7248 5.65637 74.7159 5.97687 75.7071 6.29737C76.6923 6.61787 77.6657 6.95024 78.4491 7.16391C79.648 7.53782 80.6155 7.50221 81.6007 7.44286C82.5801 7.38944 83.5831 7.28261 84.7939 7.66246C86.0521 8.04231 86.8177 8.31533 87.5893 8.62396C87.9751 8.78421 88.3609 8.9504 88.812 9.14032C89.2571 9.34805 89.7735 9.5914 90.4085 9.88815C90.64 9.99499 91.1326 10.1493 91.5718 10.2739C92.011 10.3926 92.3849 10.4995 92.3909 10.4995L93.8391 4.79577C92.2663 4.43372 91.1385 4.29128 90.1533 4.18445C89.1621 4.09542 88.3075 4.06574 87.2807 3.86395C86.0699 3.64434 84.9482 3.05083 83.7255 2.87871C82.6809 2.71846 81.6126 2.70065 80.5561 2.67097L78.9714 2.61162C78.4432 2.59382 77.9149 2.55821 77.3927 2.48105C76.354 2.32673 75.3807 2.06559 74.4133 1.79257C73.4399 1.54329 72.4546 1.31775 71.4041 1.16344C69.1309 0.795457 67.5818 1.42459 65.3027 1.44239C64.7923 1.44239 64.2226 1.31775 63.5875 1.21092C62.9524 1.09222 62.252 0.979448 61.4805 1.00319L61.7594 6.87902L61.7535 6.89089Z" fill="#EBFEB3"/>
<path d="M33.1274 15.5202C33.9761 14.9564 34.7774 14.2738 35.5667 13.5557C36.3799 12.8791 37.2168 12.2084 38.0596 11.5852C38.6827 11.1104 39.3593 10.6831 40.03 10.2379C40.7125 9.81652 41.401 9.38325 42.1726 9.2052C42.956 8.99153 43.9709 8.83128 44.974 8.68884C45.9948 8.59981 47.0157 8.54639 47.8051 8.4455C49.0099 8.2615 49.8943 7.941 50.7667 7.50774C51.2059 7.30001 51.6452 7.09227 52.1318 6.91422C52.6185 6.73616 53.1646 6.64713 53.7818 6.59965C55.0757 6.52843 55.8651 6.48689 56.6901 6.56404C57.5092 6.65307 58.346 6.7421 59.7111 6.88454C59.9604 6.90828 60.4649 6.88454 60.91 6.89641C61.3551 6.89641 61.7409 6.89048 61.7468 6.89048L61.4679 1.01465C59.8298 1.06807 58.6902 1.36482 57.705 1.57256C56.7197 1.80996 55.8828 1.97021 54.8383 2.17201C53.6097 2.38568 52.3277 2.23136 51.0932 2.49251C50.0427 2.72992 49.0218 3.10977 48.0069 3.47181C46.9979 3.84573 46.0127 4.30274 44.9681 4.55202C43.9235 4.78942 42.9323 5.00309 41.9234 5.19302C40.9144 5.38888 39.8876 5.54319 38.8667 5.92898C37.7628 6.32664 36.8962 6.77771 36.089 7.33562C35.2819 7.90539 34.4984 8.49891 33.4835 9.06275C32.5991 9.60285 31.2281 9.78685 29.8809 10.6059L33.1096 15.5262L33.1274 15.5202Z" fill="#EBFEB3"/>
<path d="M14.0331 38.4179C14.8521 36.5127 15.2973 34.3226 16.0867 32.3699C16.2232 32.0019 16.3597 31.6221 16.5021 31.2482C16.6564 30.8802 16.8108 30.5063 16.977 30.1383C17.3153 29.4083 17.6655 28.6782 18.1759 28.0729C18.7101 27.4556 19.4638 26.7552 20.2116 26.0727C20.9891 25.4139 21.8082 24.8026 22.4017 24.2743C22.6332 24.0725 22.829 23.8648 23.013 23.663C23.2029 23.4672 23.3692 23.2713 23.5235 23.0695C23.8321 22.6718 24.0754 22.2623 24.3188 21.8469C24.7877 20.9922 25.3456 20.1969 26.3189 19.4372C27.316 18.63 28.0223 18.2561 28.7345 17.8643C29.4527 17.4786 30.1768 17.0868 31.4291 16.5645C31.6547 16.4636 32.076 16.2025 32.444 15.9651C32.8061 15.7217 33.1206 15.514 33.1266 15.514L29.8979 10.5938C28.5446 11.579 27.6544 12.3506 26.9184 13.0628C26.2062 13.8047 25.6185 14.4516 24.7936 15.1401C23.838 15.9651 22.74 16.618 21.8142 17.4845C21.0485 18.2561 20.4312 19.1642 19.7902 20.0366C19.4638 20.4699 19.1729 20.9269 18.8643 21.3661C18.5557 21.8053 18.2293 22.2326 17.8732 22.6362C17.1432 23.4197 16.4606 24.1675 15.7187 24.8797C15.3567 25.2418 14.9887 25.6038 14.6207 25.9718C14.2765 26.3576 13.9441 26.7612 13.6117 27.1945C12.1635 29.0403 11.9439 30.6962 10.8815 32.7379C10.4542 33.6697 9.34428 34.5185 8.69141 35.9251L14.0272 38.4119L14.0331 38.4179Z" fill="#EBFEB3"/>
<path d="M6.33063 68.1536C6.38998 67.0971 6.33063 66.005 6.29502 64.9189C6.25348 63.8328 6.13475 62.7288 6.16443 61.6664C6.1941 60.0817 6.0101 58.3783 6.48492 56.8471C6.72232 56.0636 7.08438 55.0962 7.53545 54.1584C7.98059 53.2207 8.43762 52.2948 8.74625 51.5529C9.78491 49.2916 9.01331 47.6594 10.0579 45.3625C10.5683 44.1636 10.9779 43.4692 11.4111 42.7688C11.8622 42.0744 12.2836 41.3503 13.0908 40.2345C13.2332 40.0268 13.4706 39.5816 13.6665 39.184C13.8564 38.7863 14.0226 38.4361 14.0286 38.4302L8.69279 35.9434C8.05772 37.4628 7.67788 38.5548 7.44047 39.5341C7.19713 40.5134 7.00722 41.3562 6.63924 42.3415C6.22971 43.5107 5.55904 44.579 5.16732 45.7661C4.56193 47.8137 4.50851 49.9919 3.9684 52.0277C3.36895 54.0516 2.51428 55.7728 1.9267 57.8145C1.37473 60.0343 1.67744 61.613 1.46378 63.8743C1.41036 64.3788 1.20262 64.9189 0.977087 65.5243C0.76342 66.1297 0.561608 66.8004 0.478516 67.5541L6.33063 68.1595V68.1536Z" fill="#EBFEB3"/>
<path d="M6.55545 99.3129C6.2765 97.2 5.45148 95.0633 5.01228 92.9682C4.84016 92.1848 4.60871 91.3954 4.44253 90.5942C4.28228 89.7929 4.16949 88.9857 4.19916 88.1845C4.22884 86.5345 4.86389 84.0714 5.07756 82.4511C5.49302 79.9702 4.30601 78.5932 4.65618 76.0767C4.97668 73.4771 5.30309 72.8836 6.00345 70.1949C6.07467 69.9516 6.15779 69.4412 6.22308 68.996C6.28243 68.5509 6.32988 68.1592 6.33581 68.1532L0.483735 67.5479C0.412513 68.355 0.382836 69.0435 0.370965 69.6548C0.370965 70.2662 0.406604 70.8003 0.43628 71.2989C0.501567 72.2901 0.560885 73.1388 0.513404 74.1834C0.477793 75.412 0.121693 76.6109 0.0801471 77.8454C0.0564064 78.9019 0.210717 79.9524 0.335356 81.0029C0.454059 82.0534 0.590589 83.098 0.578718 84.1426C0.566848 85.1872 0.418444 86.1784 0.293805 87.1696C0.175101 88.1607 0.0445389 89.1519 0.00892785 90.2024C-0.0444888 91.3361 0.151371 92.2679 0.341297 93.1938C0.549028 94.1197 0.750825 95.0455 0.899205 96.1673C1.02384 97.1703 0.560895 98.4405 0.709275 99.948L6.56135 99.3248L6.55545 99.3129Z" fill="#EBFEB3"/>
<path d="M12.4668 130.07C12.1285 129.055 11.6952 128.046 11.2323 127.049C10.7752 126.045 10.2589 125.06 9.86721 124.063C9.27963 122.579 8.4427 121.078 8.24684 119.475C8.14001 118.656 8.11033 117.612 8.09846 116.573C8.09846 115.528 8.13408 114.484 8.09846 113.665C8.04505 112.4 7.68898 111.486 7.32693 110.567C6.95895 109.647 6.55536 108.727 6.47821 107.462C6.35357 104.833 6.44854 104.198 6.66814 101.403C6.68594 101.147 6.65626 100.631 6.62065 100.174C6.5791 99.7229 6.54349 99.3312 6.54349 99.3193L0.691406 99.9425C1.10687 103.136 1.736 104.346 2.06837 106.394C2.25236 107.605 2.11583 108.845 2.33543 110.05C2.51942 111.083 2.82804 112.092 3.14854 113.095C3.48091 114.098 3.80141 115.095 3.96166 116.128C4.2881 118.187 4.1694 120.098 4.45429 122.176C4.80447 124.407 5.70067 125.731 6.34167 127.891C6.62656 128.859 6.35947 130.194 6.78087 131.642L12.4549 130.07H12.4668Z" fill="#EBFEB3"/>
<path d="M23.2749 159.444C22.7941 158.494 22.1709 157.586 21.5537 156.678C20.9424 155.77 20.2954 154.867 19.7257 153.959C18.8829 152.6 17.8679 151.229 17.3812 149.704C16.9242 148.113 16.6038 145.609 16.3189 143.988C15.8263 141.513 14.3069 140.599 13.7252 138.124C13.4225 136.842 13.3157 136.029 13.2148 135.198C13.1258 134.361 13.0308 133.513 12.918 132.106C12.8943 131.851 12.7874 131.34 12.6806 130.901C12.5678 130.462 12.4729 130.076 12.4729 130.07L6.79883 131.643C7.70098 134.729 8.55566 135.81 9.19072 137.78C9.55277 138.949 9.65957 140.184 10.0513 141.347C10.7101 143.341 11.9921 145.098 12.6213 147.092C13.3098 149.057 13.4403 150.992 14.0991 152.98C14.7757 155.146 15.9212 156.28 16.8886 158.322C17.3041 159.242 17.3219 160.577 17.9511 161.954L23.2808 159.455L23.2749 159.444Z" fill="#EBFEB3"/>
<path d="M39.3833 186.039C38.0063 184.448 36.2435 183.036 34.7479 181.504C33.6795 180.335 32.3501 179.249 31.6141 177.819C31.2283 177.089 30.8366 176.127 30.4686 175.16C30.1184 174.174 29.786 173.195 29.4774 172.435C28.9907 171.278 28.3794 170.524 27.7087 169.794C27.0499 169.058 26.3615 168.328 25.8807 167.153C24.8539 164.737 24.7945 164.079 24.0526 161.384C23.9874 161.135 23.7796 160.666 23.6075 160.239C23.4295 159.823 23.2752 159.461 23.2692 159.455L17.9395 161.954C18.6279 163.408 19.269 164.352 19.815 165.177C20.3729 165.996 20.8418 166.696 21.3522 167.61C21.9398 168.684 22.2187 169.913 22.8241 170.981C23.3464 171.895 23.9933 172.738 24.6284 173.581C25.2635 174.424 25.9282 175.249 26.4327 176.169C26.9312 177.089 27.3289 178.003 27.7325 178.922C28.1361 179.836 28.4981 180.78 29.0263 181.694C29.5902 182.685 30.2134 183.404 30.8544 184.11C31.5073 184.804 32.2076 185.469 32.8961 186.371C33.5015 187.184 33.816 188.496 34.7538 189.701L39.3714 186.051L39.3833 186.039Z" fill="#EBFEB3"/>
<path d="M63.8242 202.496C61.9012 202.111 59.7468 201.974 57.7407 201.422C56.9869 201.238 56.2272 201.013 55.4557 200.781C54.7078 200.508 53.9659 200.205 53.319 199.754C51.9836 198.828 50.3395 196.971 49.2297 195.825C47.5263 194.068 45.7576 194.128 44.0364 192.294C43.1461 191.35 42.6535 190.715 42.1727 190.038C41.686 189.374 41.229 188.65 40.4753 187.492C40.3625 187.296 39.9114 186.827 39.8817 186.721C39.6147 186.359 39.3832 186.044 39.3832 186.038L34.7656 189.688C35.0386 190.021 35.2939 190.329 35.5313 190.614C35.6381 190.751 35.7746 190.857 35.834 190.917C35.8993 190.976 35.9586 191.03 36.0179 191.083C36.1426 191.19 36.2613 191.297 36.374 191.398C36.8429 191.801 37.2584 192.134 37.6561 192.442C38.4514 193.053 39.1636 193.54 39.9292 194.264C40.861 195.083 41.5495 196.164 42.5229 196.953C42.9383 197.297 43.3716 197.606 43.8168 197.908C44.2678 198.199 44.7426 198.472 45.1996 198.745C46.1137 199.309 47.0752 199.808 47.918 200.467C49.6511 201.719 50.9568 203.215 52.8264 204.384C53.319 204.716 53.8116 204.942 54.2924 205.143C54.7731 205.339 55.2302 205.517 55.7168 205.648C56.1917 205.784 56.6724 205.921 57.1769 206.063C57.6814 206.194 58.2096 206.342 58.7675 206.538C59.7706 206.871 60.827 207.82 62.4057 208.218L63.8183 202.502L63.8242 202.496Z" fill="#EBFEB3"/>
<path d="M90.5686 194.853C89.0967 196.253 87.785 197.992 86.2359 199.369C85.0904 200.39 83.9034 201.571 82.4374 202.105C80.9358 202.681 78.5084 202.895 76.9949 203.008C75.8257 203.114 74.9947 203.459 74.1282 203.815C73.6949 203.987 73.2557 204.135 72.775 204.266C72.2942 204.379 71.76 204.432 71.1665 204.408C70.5433 204.349 70.0447 204.307 69.6055 204.224C69.1663 204.141 68.7866 204.052 68.4067 203.957C67.6529 203.732 66.8872 203.482 65.6765 203.002C65.4509 202.93 64.9939 202.782 64.5903 202.681C64.3886 202.628 64.1986 202.58 64.0562 202.551C63.9137 202.515 63.8247 202.485 63.8247 202.485L62.4121 208.201C63.2549 208.385 63.979 208.504 64.6319 208.569C65.2847 208.616 65.8486 208.652 66.3828 208.652C66.911 208.646 67.4036 208.634 67.9022 208.628C68.4007 208.61 68.8993 208.593 69.4572 208.616C70.11 208.628 70.7629 208.688 71.4158 208.759C72.0687 208.788 72.7334 208.848 73.3863 208.771C75.6535 208.527 77.719 207.495 79.8319 206.895C81.9389 206.284 83.9568 205.999 86.0045 205.097C88.2064 204.106 89.2273 202.74 91.0731 201.304C91.8981 200.663 93.2514 200.313 94.4503 199.28L90.5805 194.847L90.5686 194.853Z" fill="#EBFEB3"/>
<path d="M107.579 170.037C106.973 171.93 106.611 174.138 105.958 176.144C105.466 177.64 105.056 179.284 104.136 180.584C103.198 181.925 101.347 183.617 100.225 184.768C98.5037 186.531 98.6164 188.294 96.8359 190.056C95.91 190.959 95.2927 191.457 94.628 191.938C93.9633 192.413 93.2629 192.876 92.1234 193.6C91.9097 193.73 91.5358 194.057 91.1975 194.33C90.8651 194.609 90.5743 194.852 90.5684 194.858L94.4381 199.292C96.9071 197.018 97.4532 195.701 98.8717 194.122C99.7026 193.184 100.735 192.436 101.525 191.451C102.86 189.754 103.644 187.694 104.884 185.973C106.119 184.252 107.555 182.928 108.748 181.142C110.03 179.207 110.202 177.575 111.11 175.45C111.508 174.494 112.546 173.574 113.104 172.055L107.573 170.037H107.579Z" fill="#EBFEB3"/>
<path d="M95.2991 154.956H95.2872C95.2634 154.926 95.2338 154.867 95.2457 154.789C95.2457 154.772 95.2516 154.748 95.2576 154.73L95.2753 154.7C95.2753 154.7 95.3465 154.671 95.3762 154.659C95.5424 154.599 95.7501 154.564 95.946 154.51C96.7769 154.344 97.7444 154.261 98.6822 154.315C100.13 154.404 101.786 154.493 103.086 155.282C103.757 155.674 104.487 156.327 105.122 157.015C105.757 157.715 106.249 158.469 106.629 159.033C107.193 159.917 107.745 160.416 108.327 161.009C108.867 161.603 109.401 162.309 109.508 163.384C109.532 163.941 109.544 164.387 109.478 164.79C109.454 164.992 109.443 165.17 109.401 165.354C109.354 165.532 109.312 165.704 109.265 165.876C109.217 166.048 109.176 166.221 109.11 166.393C109.039 166.571 108.968 166.755 108.885 166.951C108.748 167.342 108.511 167.782 108.25 168.316C108.167 168.517 108 168.921 107.852 169.313C107.704 169.704 107.573 170.037 107.573 170.043L113.105 172.061C113.68 170.446 113.864 169.087 113.924 167.965C113.936 167.39 113.977 166.873 113.936 166.321C113.918 165.775 113.918 165.235 113.864 164.618C113.847 163.9 113.799 163.17 113.757 162.434C113.71 162.066 113.657 161.698 113.585 161.33C113.52 160.962 113.39 160.606 113.265 160.25C112.79 159.051 112.042 157.977 111.176 157.086C110.321 156.184 109.407 155.401 108.517 154.629C107.632 153.858 106.813 153.104 105.929 152.427C105.051 151.745 104.125 151.104 103.062 150.617C101.911 150.089 100.866 149.875 99.8157 149.774C98.7533 149.679 97.7087 149.65 96.3852 149.614C96.1122 149.602 95.8095 149.572 95.4831 149.537C95.3228 149.513 95.1567 149.495 94.9667 149.483C94.8896 149.477 94.759 149.471 94.6284 149.466C94.4978 149.46 94.3673 149.466 94.2308 149.466C93.9637 149.477 93.6847 149.507 93.3998 149.543C93.1209 149.596 92.836 149.673 92.5451 149.762C92.4086 149.822 92.2662 149.881 92.1297 149.946C92.0585 149.982 91.9873 150.012 91.922 150.053L91.738 150.201L91.554 150.356L91.5065 150.397L91.4946 150.409C91.4827 150.397 91.5184 150.439 91.4709 150.38L91.4471 150.403L91.3581 150.486C91.2453 150.599 91.1266 150.718 91.0079 150.831C90.913 150.961 90.8002 151.11 90.6934 151.264L95.305 154.956H95.2991Z" fill="#EBFEB3"/>
<path d="M71.5275 148.113C72.0557 149.098 72.7145 150.036 73.4208 150.926C74.1152 151.828 74.8571 152.695 75.5338 153.562C76.5249 154.867 77.7891 156.102 78.5963 157.55C79.445 159.04 80.4659 161.521 82.0446 163.04C82.193 163.182 82.3473 163.319 82.5017 163.444C82.6738 163.568 82.8518 163.681 83.0298 163.788C83.3563 164.002 83.8074 164.168 84.211 164.298C85.1131 164.53 86.0449 164.548 86.8521 164.263C87.0598 164.215 87.2498 164.114 87.4456 164.025C87.6356 163.936 87.8254 163.847 88.0035 163.723C88.1816 163.604 88.3596 163.485 88.5258 163.361C88.6742 163.23 88.8226 163.099 88.9709 162.969C89.517 162.435 89.9799 161.889 90.4666 161.319C91.4637 160.126 91.9326 159.408 92.4846 158.707C93.0247 158.013 93.5767 157.289 94.4135 156.25C94.5678 156.06 94.8231 155.651 95.0367 155.33C95.1317 155.176 95.2622 154.992 95.2919 154.956L90.6803 151.265C90.5616 151.425 90.4607 151.591 90.3598 151.751C90.2945 151.858 90.2352 151.959 90.1758 152.06C90.0749 152.244 89.9799 152.428 89.885 152.6C89.7069 152.944 89.5645 153.259 89.4339 153.556C89.1846 154.143 89.0006 154.654 88.8404 155.111C88.5199 156.031 88.2825 156.802 87.8374 157.615C87.5762 158.09 87.2379 158.482 86.9114 158.79C86.5909 159.105 86.2586 159.325 86.134 159.414C86.0687 159.479 86.0806 159.473 86.0509 159.509C86.0331 159.544 86.0093 159.556 85.9797 159.592C85.95 159.639 85.9143 159.657 85.8669 159.687L85.7897 159.722C85.7541 159.722 85.6947 159.71 85.6473 159.71C85.1843 159.681 84.389 159.218 83.8252 158.559C82.6441 157.206 82.098 155.467 81.2196 153.74C80.7508 152.79 80.2106 152.09 79.6527 151.36C79.0948 150.636 78.4954 149.929 77.9612 148.98C77.4745 148.131 77.4329 146.825 76.8038 145.531L71.5156 148.119L71.5275 148.113Z" fill="#EBFEB3"/>
<path d="M67.6888 114.988C66.5908 117.291 66.4068 119.968 66.4365 122.307C66.4246 124.081 66.852 125.832 66.8282 127.518C66.7867 129.251 66.5611 131.927 66.7392 133.684C66.8698 135.026 67.3208 135.981 67.8312 136.883C68.3179 137.803 68.8818 138.676 69.2082 139.952C69.9679 142.575 69.9858 143.252 70.7039 146.089C70.7692 146.35 70.971 146.854 71.155 147.3C71.3568 147.733 71.5289 148.107 71.5289 148.113L76.8171 145.525C75.4401 142.789 74.5261 141.857 73.7605 140.023C73.5468 139.483 73.3985 138.919 73.2679 138.349C73.1492 137.78 73.0305 137.216 72.8346 136.67C72.2114 134.812 71.1253 133.073 70.8166 131.126C70.5199 129.191 70.876 127.44 71.0362 125.624C71.1253 124.639 71.0837 123.838 71.0541 123.019C71.0185 122.2 71.0244 121.375 71.238 120.419C71.4695 119.564 72.3361 118.787 72.8999 117.701L67.6829 114.977L67.6888 114.988Z" fill="#EBFEB3"/>
<path d="M95.9214 116.846C94.491 115.196 92.5917 113.813 90.9061 112.371C89.636 111.297 88.1581 110.353 87.0008 109.119C86.3954 108.483 85.6772 107.623 84.7751 106.804C84.324 106.394 83.8136 106.003 83.2498 105.658C82.6681 105.332 82.0567 105.053 81.3979 104.928C80.4127 104.715 79.3622 104.845 78.561 105.237C78.3473 105.314 78.1751 105.439 77.9971 105.546C77.8309 105.652 77.6172 105.789 77.546 105.866C77.3442 106.044 77.1483 106.228 76.9584 106.412C76.1987 107.166 75.4747 107.926 74.347 108.703C73.1718 109.516 72.4536 110.05 71.7058 110.62C70.958 111.184 70.1864 111.783 69.0468 112.947C68.851 113.172 68.477 113.653 68.1921 114.11C67.9191 114.573 67.6817 114.977 67.6758 114.982L72.8928 117.707C73.4804 116.526 73.9433 115.707 74.3588 114.971C74.7802 114.241 75.1897 113.617 75.8485 112.976C76.632 112.223 77.6707 111.795 78.555 111.154C78.9467 110.887 79.3029 110.579 79.6827 110.288L79.9616 110.062C80.0566 109.985 80.1634 109.896 80.1753 109.884C80.205 109.854 80.2406 109.813 80.2703 109.771C80.3 109.748 80.3355 109.724 80.3652 109.688C80.5017 109.587 80.6561 109.475 80.9172 109.481C81.1665 109.469 81.487 109.534 81.8134 109.712C82.4663 110.05 83.0658 110.65 83.6177 111.309C84.1697 111.967 84.692 112.697 85.3033 113.433C86.6091 115.042 87.9919 115.73 89.4461 117.374C90.0989 118.11 90.4016 119.392 91.3275 120.544L95.9154 116.858L95.9214 116.846Z" fill="#EBFEB3"/>
<path d="M117.158 139.287C115.46 138.189 113.431 137.31 111.662 136.159C110.35 135.304 108.866 134.479 107.84 133.256C106.777 132.004 105.596 129.778 104.718 128.401C103.37 126.283 101.614 125.992 100.171 123.891C98.6876 121.701 98.4918 121.083 97.1504 118.573C97.0258 118.341 96.7231 117.914 96.4501 117.54C96.1712 117.172 95.9278 116.852 95.9219 116.846L91.334 120.531C93.3401 122.959 94.5093 123.653 95.8269 125.238C96.6044 126.17 97.1267 127.303 97.9161 128.235C99.2752 129.838 101.074 131.043 102.433 132.645C103.792 134.242 104.694 135.963 106.107 137.577C107.644 139.31 109.181 139.91 111.009 141.328C111.828 141.963 112.481 143.192 113.775 144.112L117.152 139.293L117.158 139.287Z" fill="#EBFEB3"/>
<path d="M145.831 142.937C143.457 143.074 141.184 143.952 139.065 144.641C138.264 144.884 137.492 145.222 136.703 145.507L136.11 145.709C135.92 145.762 135.742 145.81 135.558 145.857C135.19 145.94 134.816 146.018 134.43 146.012C133.646 146.035 132.661 145.917 131.718 145.691C130.768 145.489 129.86 145.169 129.142 144.955C128.044 144.611 127.159 144.617 126.233 144.587C125.313 144.557 124.358 144.498 123.284 143.946C122.18 143.37 121.545 142.919 120.916 142.439C120.298 141.934 119.687 141.4 118.725 140.48C118.547 140.308 118.15 140.029 117.805 139.768C117.455 139.513 117.153 139.299 117.147 139.293L113.77 144.112C115.17 145.056 116.256 145.566 117.218 145.97C118.185 146.374 119.028 146.67 120.025 147.133C121.212 147.656 122.287 148.451 123.563 148.843C125.747 149.543 128.091 149.412 130.311 149.62C132.554 149.822 134.566 150.237 136.941 149.964C139.107 149.703 140.371 148.855 142.478 148.534C143.422 148.398 144.597 148.872 145.944 148.825L145.814 142.943L145.831 142.937Z" fill="#EBFEB3"/>
<path d="M158.881 169.42C159.689 167.284 159.938 164.856 160.193 162.589C160.389 160.88 160.282 159.099 160.52 157.39C160.65 156.511 160.846 155.384 160.905 154.185C160.977 152.992 160.876 151.71 160.561 150.695C160.104 149.128 159.113 148.131 158.098 147.419C157.059 146.689 155.955 146.22 154.656 145.502C153.291 144.777 152.406 144.451 151.516 144.107C151.071 143.952 150.608 143.757 150.08 143.608C149.545 143.442 148.928 143.252 148.163 143.092C147.878 143.021 147.296 142.961 146.791 142.955C146.287 142.944 145.848 142.932 145.836 142.932L145.966 148.813C146.679 148.813 147.296 148.748 147.818 148.742C148.085 148.73 148.335 148.713 148.572 148.695C148.804 148.689 149.023 148.683 149.237 148.677C149.67 148.653 150.056 148.653 150.448 148.677C150.851 148.683 151.225 148.766 151.641 148.867C152.614 149.146 153.338 149.811 154.015 150.279C154.614 150.683 155.196 151.063 155.7 151.609C156.211 152.143 156.632 152.849 156.792 153.662C156.958 154.476 156.863 155.318 156.709 156.137C156.561 156.956 156.294 157.787 156.098 158.666C155.605 160.559 155.831 162.025 155.225 164.055C154.94 164.963 154.015 165.836 153.469 167.129L158.893 169.414L158.881 169.42Z" fill="#EBFEB3"/>
<path d="M140.881 196.864C142.507 195.113 143.51 192.959 144.62 191.042C145.445 189.605 146.098 188.003 147.149 186.745C148.229 185.457 150.164 183.73 151.274 182.436C152.983 180.442 152.716 178.643 154.176 176.495C155.672 174.227 156.17 173.788 157.88 171.384C158.034 171.159 158.295 170.678 158.503 170.239C158.604 170.019 158.705 169.818 158.776 169.669C158.841 169.515 158.889 169.42 158.889 169.414L153.464 167.129C152.312 169.913 152.17 171.212 151.274 172.993C150.74 174.037 149.903 174.904 149.321 175.925C148.33 177.676 147.76 179.694 146.585 181.356C145.41 183.011 143.956 184.175 142.632 185.682C141.208 187.309 140.798 188.798 139.457 190.496C138.857 191.244 137.658 191.748 136.727 192.692L140.881 196.858V196.864Z" fill="#EBFEB3"/>
<path d="M108.599 201.933C109.662 200.461 110.724 198.758 112.208 197.452C113.294 196.49 114.535 195.428 116.012 195.054C116.766 194.864 117.751 194.769 118.725 194.787C119.698 194.781 120.66 194.882 121.413 194.923C122.571 195.007 123.437 194.781 124.34 194.585C125.242 194.371 126.179 194.217 127.343 194.472C128.542 194.769 129.254 195.03 129.954 195.363C130.649 195.689 131.343 196.087 132.364 196.769C132.744 196.977 133.895 197.618 133.907 197.624L136.726 192.454C135.07 191.594 133.842 191.315 132.779 191.095C131.729 190.923 130.827 190.775 129.717 190.597C128.435 190.353 127.188 189.879 125.865 189.813C123.592 189.683 121.396 190.365 119.212 190.656C117.027 190.953 114.944 190.971 112.736 191.742C111.555 192.175 110.665 192.751 109.846 193.416C109.436 193.748 109.033 194.081 108.635 194.461C108.427 194.645 108.22 194.829 108.006 195.018C107.792 195.214 107.579 195.422 107.341 195.63C106.51 196.348 105.121 196.894 104.029 198.223L108.599 201.933Z" fill="#EBFEB3"/>
<path d="M112.036 224.082C111.157 223.774 110.267 223.453 109.371 223.139C108.492 222.794 107.62 222.391 106.854 221.857C105.732 221.073 104.522 220.064 104.076 218.669C104.023 218.491 103.97 218.301 103.922 218.106C103.886 217.904 103.863 217.69 103.833 217.47C103.762 217.043 103.792 216.568 103.786 216.117C103.815 215.654 103.857 215.203 103.91 214.776C103.993 214.343 104.029 213.951 104.106 213.589C104.213 213.043 104.207 212.562 104.213 212.099C104.213 211.868 104.189 211.642 104.165 211.417C104.148 211.191 104.13 210.965 104.118 210.74C104.076 210.289 104.035 209.826 104.082 209.333C104.1 209.09 104.13 208.835 104.177 208.574C104.231 208.312 104.32 208.045 104.427 207.76C104.539 207.47 104.64 207.209 104.741 206.971C104.854 206.746 104.955 206.538 105.05 206.348C105.252 205.974 105.4 205.612 105.643 205.345C105.875 205.06 106.088 204.775 106.373 204.449C106.688 204.128 106.996 203.736 107.448 203.315C107.614 203.161 107.875 202.799 108.13 202.496C108.385 202.199 108.605 201.932 108.605 201.932L104.035 198.223C103.762 198.585 103.507 198.917 103.293 199.244C103.091 199.576 102.907 199.885 102.741 200.181C102.391 200.763 102.195 201.321 101.969 201.819C101.75 202.306 101.601 202.84 101.412 203.327C101.204 203.825 101.091 204.318 100.913 204.858C100.812 205.173 100.687 205.487 100.563 205.79L100.207 206.692C99.9514 207.286 99.7378 207.915 99.6013 208.562C99.1621 210.805 99.5122 213.144 99.6844 215.447C99.7556 216.028 99.7496 216.598 99.8268 217.168C99.8565 217.453 99.8802 217.738 99.9099 218.022C99.9455 218.307 99.9989 218.586 100.046 218.877C100.23 220.017 100.563 221.174 101.138 222.302C101.756 223.524 102.593 224.326 103.435 225.044C104.314 225.72 105.222 226.326 106.296 227.002C107.234 227.614 108.148 228.824 109.709 229.483L112.036 224.076V224.082Z" fill="#EBFEB3"/>
<path d="M140.88 223.098C139.005 223.863 137.141 225.027 135.2 225.804C133.758 226.38 132.245 227.104 130.678 227.199C129.058 227.312 126.624 226.878 125.069 226.671C123.87 226.51 122.956 226.706 122.024 226.872C121.093 227.056 120.137 227.217 118.95 226.967C117.721 226.694 116.991 226.439 116.267 226.142C115.549 225.822 114.819 225.478 113.727 224.843C113.525 224.73 113.098 224.558 112.73 224.386C112.546 224.308 112.374 224.231 112.243 224.178C112.119 224.119 112.041 224.083 112.041 224.083L109.715 229.49C111.371 230.161 112.587 230.386 113.638 230.528C114.689 230.671 115.585 230.724 116.659 230.902C117.923 231.086 119.152 231.561 120.434 231.632C122.636 231.769 124.784 231.181 126.915 231.116C129.046 231.051 130.992 231.348 133.147 231.146C135.474 230.908 136.85 229.988 139.052 229.306C140.032 228.985 141.409 229.181 142.887 228.641L140.886 223.104L140.88 223.098Z" fill="#EBFEB3"/>
<path d="M157.458 202.366C157.108 204.491 157.244 206.782 157.119 208.931C157.102 209.388 157.078 209.856 157.06 210.325C157.084 210.664 157.125 211.02 157.09 211.37C157.078 212.076 156.87 212.788 156.526 213.412C156.14 214.041 155.535 214.753 154.805 215.346C154.466 215.655 154.063 215.922 153.725 216.189C153.345 216.433 153.024 216.682 152.71 216.884C151.784 217.531 151.214 218.201 150.638 218.925C150.039 219.626 149.41 220.35 148.312 220.866C147.178 221.406 146.436 221.65 145.664 221.863C144.893 222.077 144.086 222.243 142.78 222.504C142.537 222.552 142.068 222.7 141.658 222.837C141.249 222.973 140.893 223.092 140.887 223.098L142.887 228.635C144.448 228.048 145.475 227.466 146.353 226.932C147.231 226.392 147.956 225.899 148.905 225.377C150.021 224.772 151.267 224.368 152.353 223.644C154.205 222.35 155.57 220.486 157.113 218.813C157.897 217.982 158.651 217.163 159.381 216.278C160.081 215.364 160.746 214.361 161.197 213.139C161.416 212.474 161.571 211.839 161.606 211.221L161.624 210.99V210.877L161.636 210.818V210.788C161.636 210.788 161.636 210.759 161.636 210.818L161.624 210.877C161.624 210.877 161.612 210.871 161.606 210.871L161.618 210.705C161.636 210.468 161.654 210.236 161.672 210.005C161.731 209.073 161.761 208.135 161.951 207.043C162.123 206.064 162.924 205.001 163.227 203.547L157.458 202.372V202.366Z" fill="#EBFEB3"/>
<path d="M164.395 171.129C164.027 172.435 163.986 173.45 163.903 174.583C163.831 175.699 163.802 176.821 163.707 177.901C163.57 179.515 163.624 181.225 163.149 182.768C162.662 184.353 161.511 186.638 160.929 188.193C160.033 190.59 160.894 192.169 160.164 194.615C159.41 197.155 159.065 197.707 157.997 200.33C157.896 200.573 157.766 201.078 157.653 201.523C157.546 201.968 157.457 202.36 157.457 202.366L163.226 203.541C163.808 200.443 163.582 199.113 163.962 197.113C164.188 195.932 164.728 194.834 164.959 193.659C165.351 191.641 165.202 189.528 165.701 187.54C166.2 185.557 167.102 183.907 167.719 181.961C168.384 179.86 168.14 178.311 168.597 176.156C168.704 175.675 168.965 175.177 169.25 174.625C169.393 174.352 169.535 174.055 169.672 173.746C169.802 173.497 169.921 173.23 170.004 172.939L164.407 171.123L164.395 171.129Z" fill="#EBFEB3"/>
<path d="M189.668 150.397C188.119 151.662 186.647 153.294 184.997 154.623C183.775 155.614 182.54 156.784 181.068 157.437C179.561 158.107 177.068 158.742 175.471 159.437C174.249 159.959 173.483 160.707 172.765 161.484C172.047 162.274 171.37 163.087 170.296 163.953C169.168 164.85 168.51 165.491 167.803 166.132C167.465 166.464 167.121 166.814 166.723 167.236C166.355 167.681 165.892 168.167 165.435 168.868C165.346 168.992 165.227 169.194 165.103 169.426C164.984 169.657 164.871 169.93 164.764 170.179C164.658 170.435 164.563 170.666 164.491 170.844C164.432 171.022 164.396 171.135 164.396 171.141L169.993 172.957C170.385 171.74 170.664 170.892 170.973 170.144C171.109 169.764 171.299 169.438 171.465 169.087C171.667 168.755 171.881 168.423 172.166 168.084C172.842 167.289 173.839 166.814 174.658 166.132C176.083 164.974 177.412 163.443 179.193 162.499C180.967 161.562 182.807 161.188 184.701 160.333C186.754 159.401 187.781 158.143 189.692 156.861C190.547 156.291 191.912 156.06 193.188 155.116L189.668 150.397Z" fill="#EBFEB3"/>
<path d="M206.779 125.808C205.96 127.742 205.503 129.944 204.791 131.956C204.257 133.446 203.835 135.09 202.921 136.396C201.972 137.737 200.161 139.476 199.075 140.675C197.396 142.509 197.615 144.331 195.936 146.035C195.502 146.48 195.116 146.806 194.772 147.091C194.434 147.376 194.119 147.608 193.781 147.821C193.128 148.26 192.428 148.67 191.271 149.293C191.057 149.406 190.677 149.697 190.321 149.934C189.977 150.183 189.674 150.397 189.668 150.403L193.188 155.121C193.852 154.599 194.398 154.136 194.849 153.679C195.312 153.24 195.68 152.819 196.019 152.421C196.363 152.029 196.666 151.649 196.974 151.27C197.289 150.896 197.615 150.522 197.971 150.106C198.185 149.869 198.416 149.637 198.654 149.418L199.354 148.741C199.835 148.302 200.28 147.827 200.666 147.293C201.936 145.512 202.571 143.489 203.764 141.75C204.933 140.022 206.346 138.711 207.527 136.972C208.797 135.09 208.993 133.488 209.96 131.452C210.394 130.538 211.456 129.695 212.103 128.324L206.779 125.814V125.808Z" fill="#EBFEB3"/>
<path d="M215.029 96.5596C215.005 98.6073 215.308 100.791 215.302 102.898C215.273 104.459 215.397 106.145 214.905 107.652C214.424 109.213 213.166 111.368 212.459 112.816C211.931 113.932 211.789 114.882 211.7 115.855C211.581 116.822 211.48 117.808 210.934 118.929C209.771 121.25 209.331 121.725 207.753 123.992C207.604 124.2 207.367 124.651 207.165 125.049C206.963 125.446 206.785 125.796 206.785 125.802L212.109 128.313C213.433 125.363 213.48 123.98 214.24 122.045C214.679 120.9 215.415 119.879 215.819 118.71C216.531 116.71 216.614 114.531 217.273 112.531C217.599 111.534 217.979 110.608 218.4 109.682C218.792 108.751 219.178 107.813 219.492 106.798C219.789 105.688 219.884 104.726 219.908 103.765C219.908 102.798 219.914 101.836 220.015 100.691C220.086 99.6637 220.834 98.4886 220.905 96.9336L215.029 96.5537V96.5596Z" fill="#EBFEB3"/>
<path d="M207.592 68.5806C208.173 69.3522 208.933 69.9992 209.598 70.8182C209.948 71.2099 210.304 71.6017 210.654 71.9874C211.01 72.3792 211.301 72.8006 211.61 73.216C212.055 73.8392 212.583 74.4505 212.981 75.1331C213.385 75.8097 213.806 76.4922 213.996 77.2519C214.18 78.0354 214.37 79.0206 214.435 80.0296C214.465 80.5282 214.494 81.0326 214.524 81.5075C214.56 81.9763 214.583 82.4215 214.595 82.8132C214.649 84.024 215.052 84.8727 215.373 85.763C215.545 86.2081 215.723 86.6533 215.871 87.14C216.008 87.6326 216.073 88.1727 216.073 88.784C216.091 90.0541 215.972 90.8435 215.854 91.6448C215.747 92.4401 215.539 93.2591 215.254 94.5708C215.201 94.8141 215.171 95.3068 215.112 95.74C215.07 96.1733 215.034 96.5531 215.034 96.5591L220.91 96.9389C221.065 93.633 220.513 92.3095 220.406 90.1847C220.394 89.5556 220.376 88.9324 220.406 88.2973C220.412 87.6682 220.465 87.0272 220.358 86.404C220.044 84.2436 219.1 82.2316 218.596 80.1424C218.471 79.6201 218.376 79.1037 218.299 78.5874C218.222 78.071 218.109 77.5724 218.026 77.062C217.931 76.5516 217.842 76.0412 217.747 75.5248C217.634 75.0084 217.474 74.504 217.302 73.9817C217.112 73.4238 216.898 72.9193 216.667 72.4622C216.405 72.0171 216.132 71.6016 215.848 71.1981C215.569 70.7945 215.29 70.3909 214.993 69.9635C214.684 69.5481 214.364 69.1148 214.049 68.6222C213.758 68.183 213.61 67.6073 213.355 66.9841C213.088 66.3668 212.773 65.6783 212.292 65.0195L207.61 68.5866L207.592 68.5806Z" fill="#EBFEB3"/>
<path d="M181.793 57.4411C182.82 57.4411 183.87 57.358 184.933 57.2274C185.983 57.1622 187.058 57.0197 188.09 57.0316C188.862 57.0435 189.663 57.0078 190.458 57.0316C191.248 57.0909 192.037 57.1978 192.773 57.4352C193.527 57.6963 194.411 58.2008 195.284 58.6756C196.133 59.2098 196.94 59.7796 197.599 60.1654C198.085 60.5096 198.542 60.7351 198.999 60.9013C199.45 61.0734 199.919 61.1506 200.347 61.3108C200.786 61.4533 201.231 61.5898 201.688 61.7857C201.919 61.8866 202.151 61.9934 202.382 62.124C202.602 62.2783 202.822 62.4504 203.041 62.6522C203.498 63.0677 203.866 63.406 204.175 63.7146C204.477 64.0351 204.697 64.3615 204.934 64.6702C205.16 64.9847 205.386 65.3052 205.653 65.6732C205.92 66.0352 206.145 66.5219 206.472 67.068C206.59 67.2698 206.875 67.6377 207.136 67.9582C207.273 68.1126 207.362 68.2847 207.445 68.3975C207.522 68.5162 207.576 68.5874 207.576 68.5933L212.258 65.0263C211.766 64.3081 211.202 63.8096 210.739 63.3525C210.264 62.9015 209.843 62.5157 209.433 62.1833C208.561 61.5661 207.825 61.0438 206.976 60.3315C206.448 59.9458 205.973 59.5006 205.498 59.0555C205.255 58.8359 205.023 58.5985 204.768 58.3967C204.507 58.2067 204.234 58.0228 203.955 57.8506C203.474 57.5657 202.97 57.3105 202.465 57.0731C201.955 56.8417 201.415 56.6873 200.893 56.4974L199.332 55.9514C198.809 55.7911 198.293 55.6131 197.788 55.3994C196.797 54.9424 195.86 54.5269 194.928 54.064C193.996 53.5773 193.034 53.2212 191.99 52.877C189.717 52.2063 188.084 52.5683 185.793 52.3843C185.277 52.325 184.725 52.1707 184.096 51.9867C183.473 51.8146 182.778 51.6009 182.007 51.5771L181.781 57.4589L181.793 57.4411Z" fill="#EBFEB3"/>
<path d="M151.505 61.7969C153.5 61.1262 155.452 59.9926 157.429 59.2032C158.165 58.9005 158.907 58.5622 159.666 58.2714C160.426 57.9746 161.198 57.7372 161.987 57.6541C163.613 57.4523 166.118 57.6838 167.726 57.7075C170.201 57.7431 171.4 56.4611 173.911 56.4789C175.205 56.5264 176 56.5917 176.813 56.7104C177.62 56.8528 178.451 57.0072 179.787 57.2742C180.03 57.3277 180.528 57.3692 180.968 57.3989C181.407 57.4226 181.787 57.4404 181.793 57.4404L182.018 51.5587C180.374 51.5409 179.223 51.6418 178.232 51.8079C177.234 51.9563 176.392 52.0928 175.347 52.1759C174.73 52.2175 174.113 52.1759 173.489 52.1403C172.872 52.1225 172.255 52.0988 171.638 52.1581C169.519 52.3659 167.519 53.2265 165.441 53.4698C164.403 53.6063 163.405 53.6241 162.402 53.6419C161.405 53.6775 160.396 53.6775 159.358 53.8259C157.102 54.1286 155.779 55.0486 153.612 55.6777C152.645 55.9626 151.31 55.7252 149.855 56.1525L151.505 61.8028V61.7969Z" fill="#EBFEB3"/>
<path d="M129.26 80.4452C130.388 78.7418 131.255 76.6942 132.382 74.9077C133.225 73.5841 134.003 72.0766 135.196 71.0261C136.412 69.934 138.596 68.6935 139.938 67.7795C142.003 66.3788 142.229 64.622 144.282 63.1382C144.745 62.8118 144.597 63.0136 145.196 62.8474C145.648 62.7524 146.051 62.6871 146.455 62.6218C147.274 62.5031 148.117 62.42 149.494 62.2657C149.749 62.242 150.241 62.1174 150.681 62.0046C151.114 61.8918 151.488 61.7909 151.5 61.7909L149.85 56.1406C146.769 57.1021 145.707 57.9746 143.736 58.6987L143.238 58.8708L142.496 59.1142C142.353 59.1379 142.27 59.2566 142.152 59.3278L141.825 59.5771C141.564 59.7789 141.505 59.8026 141.362 59.9035C140.858 60.2418 140.347 60.5801 139.896 60.9897C138.335 62.3904 137.19 64.2243 135.635 65.625C134.086 67.0257 132.4 67.9635 130.845 69.3998C129.166 70.9548 128.608 72.4802 127.219 74.3023C126.596 75.1095 125.379 75.7445 124.465 77.0087L129.249 80.4393L129.26 80.4452Z" fill="#EBFEB3"/>
<path d="M129.901 103.456C129.456 103.248 129.082 102.993 128.637 102.791C128.204 102.584 127.741 102.394 127.343 102.144C126.933 101.907 126.476 101.693 126.079 101.432C125.699 101.159 125.319 100.88 124.939 100.583C124.672 100.358 124.447 100.103 124.18 99.8534C123.918 99.6041 123.639 99.3548 123.455 99.0521C123.248 98.7613 123.04 98.4586 122.856 98.15C122.714 97.8235 122.607 97.4793 122.524 97.1351C122.488 96.957 122.429 96.773 122.429 96.5653C122.429 96.3635 122.429 96.1498 122.429 95.9302C122.429 95.7166 122.441 95.497 122.446 95.2714C122.47 95.0459 122.524 94.8203 122.559 94.5948C122.648 94.1437 122.708 93.7105 122.862 93.295C122.998 92.8795 123.082 92.5056 123.206 92.1614C123.408 91.6391 123.467 91.1702 123.521 90.7132C123.598 90.2562 123.61 89.811 123.622 89.36C123.705 88.4638 123.776 87.5082 124.387 86.4695C125.669 84.3388 126.156 83.9293 128.014 82.0063C128.18 81.8282 128.477 81.4365 128.75 81.0923C129.011 80.7421 129.236 80.4394 129.242 80.4335L124.458 77.0029C122.583 79.745 122.328 81.1635 121.343 83.0924C121.052 83.6622 120.696 84.1964 120.375 84.7661C120.043 85.3241 119.704 85.8879 119.491 86.523C118.707 88.6774 118.69 91.0456 118.559 93.3781C118.511 94.5533 118.405 95.6869 118.488 96.8561C118.506 97.1469 118.5 97.4437 118.541 97.7405C118.595 98.0313 118.648 98.328 118.695 98.6248C118.755 98.9215 118.814 99.2242 118.885 99.5269C118.957 99.8296 119.087 100.109 119.2 100.411C119.669 101.717 120.452 102.572 121.188 103.397C122.019 104.121 122.82 104.863 123.817 105.616C124.251 105.967 124.625 106.513 125.111 106.987C125.592 107.474 126.126 108.074 126.838 108.483L129.877 103.444L129.901 103.456Z" fill="#EBFEB3"/>
<path d="M112.813 96.7318L109.953 96.0552L108.522 95.7169L107.804 95.5447L107.448 95.4616L107.27 95.4201L107.181 95.3964L107.133 95.3845H107.11L107.098 95.3786C109.335 93.7939 109.258 93.8473 110.451 93.0045C110.867 92.5297 110.855 92.5415 111.074 92.2863V92.2685V92.2448L111.098 92.2032L111.128 92.1142L111.187 91.9421L111.3 91.5919L111.525 90.8916L111.976 89.4909L112.884 86.6895C112.772 86.915 112.659 87.1346 112.546 87.3542C112.433 87.5916 112.321 87.829 112.214 88.0605C112.107 88.3098 111.994 88.559 111.887 88.8083C111.781 89.0695 111.68 89.3306 111.573 89.5858C111.472 89.8529 111.377 90.12 111.282 90.3871L111.211 90.5889V90.6007L111.205 90.6067L111.223 90.6185L111.252 90.6423L111.318 90.6898L111.567 90.8856L111.81 91.0874L112.042 91.3011L112.261 91.5207L112.469 91.7522L112.582 92.0371L112.683 92.3338L112.772 92.6365L112.843 92.9451L112.902 93.2597L112.956 93.5683L112.997 93.877L113.027 94.1856L113.045 94.4942V94.8088V95.1233L113.027 95.4438L112.991 95.7643L112.944 96.0848L112.89 96.4054L112.819 96.7258L112.813 96.7318Z" fill="#EBFEB3"/>
<path d="M140.88 196.864L138.803 194.781L137.764 193.742L137.242 193.22L136.98 192.959L136.85 192.828L136.785 192.763L136.755 192.733L136.737 192.715H136.731V192.704C137.075 192.531 137.064 192.537 137.254 192.442C136.909 192.46 136.915 192.46 136.731 192.466V192.484L136.719 192.502L136.696 192.543L136.654 192.626L136.565 192.787L136.387 193.107L136.037 193.754L135.331 195.048L133.924 197.63L134.007 197.671L134.09 197.707L134.262 197.772L134.345 197.802L134.428 197.832L134.511 197.855L134.6 197.879L134.689 197.897L134.779 197.915L134.962 197.938L135.147 197.956H135.336H135.532L135.734 197.944L135.841 197.932H135.954L136.191 197.921L136.429 197.897L136.666 197.861L136.903 197.814L137.141 197.754L137.378 197.826L137.616 197.885L137.853 197.932L138.09 197.968L138.322 197.992H138.381H138.411H138.423H138.441L138.577 197.974L138.714 197.95L138.85 197.926L138.987 197.897L139.123 197.861L139.248 197.826L139.372 197.784L139.497 197.742L139.622 197.695L139.746 197.642L139.859 197.588L140.085 197.469L140.304 197.339L140.411 197.268L140.512 197.196L140.708 197.036L140.803 196.953L140.892 196.864H140.88Z" fill="#EBFEB3"/>
<path d="M129.9 103.456L128.381 105.979L127.621 107.237L127.241 107.866L127.051 108.18L126.956 108.341L126.909 108.418L126.885 108.459L126.873 108.477V108.489H126.861C126.98 108.614 126.974 108.614 127.033 108.679C127.016 108.643 127.016 108.643 127.004 108.62H127.016H127.039L127.087 108.632L127.176 108.649L127.354 108.685L127.716 108.756L128.44 108.893L129.882 109.172L132.773 109.724L132.791 109.611L132.808 109.498L132.82 109.385V109.273L132.832 109.16V109.047L132.82 108.821L132.797 108.596L132.755 108.37L132.702 108.151L132.636 107.931L132.553 107.718L132.458 107.504L132.405 107.397L132.351 107.296L132.233 107.094L132.102 106.898L131.96 106.709L131.805 106.525L131.639 106.341L131.592 106.097L131.532 105.86L131.461 105.628L131.384 105.403L131.295 105.189L131.247 105.082L131.206 104.981L131.117 104.78L131.016 104.59L130.909 104.412L130.79 104.24L130.666 104.079L130.6 104.002L130.535 103.931L130.464 103.86L130.393 103.794L130.316 103.729L130.238 103.67L130.161 103.61L130.078 103.557L129.995 103.504L129.906 103.456H129.9Z" fill="#EBFEB3"/>
<path d="M107.064 96.4463C106.672 98.583 106.577 100.797 106.678 102.981C106.785 105.165 107.07 107.32 107.396 109.391C107.895 112.501 108.957 115.558 109.663 118.602C110.037 120.175 110.459 122.175 111.201 124.181C111.937 126.182 112.993 128.229 114.495 129.707C115.61 130.835 117.124 131.654 118.756 131.885C120.4 132.117 122.038 131.713 123.225 131.001C124.436 130.295 125.303 129.398 126.08 128.467C126.852 127.529 127.54 126.538 128.282 125.44C129.784 123.155 130.484 121.695 131.256 120.223C132.003 118.745 132.763 117.231 133.766 114.685C133.95 114.216 134.229 113.237 134.443 112.37C134.556 111.937 134.651 111.534 134.71 111.237C134.775 110.94 134.811 110.75 134.817 110.738L127.119 109.201C126.626 111.925 126.276 113.83 125.973 115.498C125.659 117.142 125.362 118.549 124.697 120.116C123.914 121.95 122.567 123.439 121.575 124.407C121.154 124.828 120.792 125.113 120.543 125.279C120.287 125.452 120.127 125.546 119.759 125.552C119.403 125.558 118.875 125.351 118.352 124.971C117.83 124.591 117.314 124.033 116.892 123.386C116.044 122.074 115.545 120.537 115.201 118.982C114.863 117.415 114.667 115.813 114.447 114.115C114.222 112.281 113.913 110.768 113.634 109.219C113.361 107.67 113.124 106.085 113.195 104.174C113.266 102.453 114.228 100.494 114.744 98.0606L107.064 96.4463Z" fill="#77B975"/>
<path d="M116.565 48.8222C116.855 51.5167 117.752 54.2944 118.197 57.0187C118.535 59.0426 119.087 61.1733 118.85 63.2269C118.683 64.6276 118.179 66.5268 117.686 68.0462L117.823 67.4052C117.318 68.3311 116.867 69.162 116.517 69.9039C115.686 71.6489 115.508 73.1624 115.395 74.5927C115.283 76.0468 115.205 77.4001 114.647 79.329C114.084 81.3529 113.763 82.6586 113.443 84.0297C113.128 85.3948 112.814 86.8429 112.469 89.1102C112.404 89.5256 112.327 90.2913 112.256 90.9442C112.184 91.5792 112.125 92.1312 112.125 92.1431L114.974 84.8309C116.06 83.0978 116.802 82.1363 117.36 81.3173C117.93 80.5101 118.351 79.8394 118.962 78.9254C119.675 77.8274 120.713 76.6878 121.265 75.667C121.734 74.7767 121.948 73.833 122.161 72.7825C122.375 71.7379 122.595 70.5924 123.022 69.4825C123.058 69.3876 123.093 69.2985 123.129 69.2095L123.206 69.0077L123.265 68.5448C123.443 67.1916 123.705 66.0105 123.972 64.7759C124.233 63.5533 124.488 62.3306 124.619 61.0249C124.903 58.0811 124.102 56.1343 123.924 53.2083C123.841 51.8966 124.536 50.2704 124.405 48.2939L116.576 48.8281L116.565 48.8222Z" fill="#77B975"/>
<path d="M103.746 14.9858C104.702 15.5141 105.728 16.0364 106.767 16.6773C107.8 17.3183 108.838 18.0781 109.741 18.9743C111.088 20.2859 112.59 21.8172 113.272 23.6987C113.61 24.6661 113.871 25.9422 114.038 27.2301C114.204 28.518 114.305 29.806 114.418 30.8209C114.75 33.9191 116.614 35.2545 116.875 38.4832C117.088 41.8188 116.875 42.6319 116.525 46.1752C116.489 46.5016 116.507 47.1545 116.525 47.7361C116.548 48.3119 116.572 48.8104 116.572 48.8223L124.401 48.2881C124.033 44.086 123.172 42.4835 122.768 39.7889C122.519 38.2043 122.662 36.5543 122.335 34.9577C121.765 32.2157 120.347 29.711 119.569 27.0283C118.786 24.3515 118.507 21.746 117.32 19.0217C116.673 17.5617 115.83 16.4815 114.91 15.4784C113.99 14.4754 112.969 13.5495 111.794 12.3981C111.539 12.1369 111.278 11.8402 111.023 11.5078C110.773 11.1695 110.5 10.8193 110.198 10.4454C109.61 9.69758 108.862 8.926 107.877 8.29688L103.752 14.974L103.746 14.9858Z" fill="#77B975"/>
<path d="M65.7901 7.85224C67.1255 7.8107 68.4847 7.61484 69.8557 7.37149C71.2267 7.15783 72.6155 6.97384 73.9747 6.83733C74.9896 6.71862 76.0343 6.6474 77.0789 6.59399C78.1234 6.55244 79.174 6.5465 80.177 6.77798C81.2038 7.03319 82.462 7.4902 83.7084 7.96501C84.9548 8.41609 86.1656 9.01554 87.1508 9.37165C90.1659 10.4637 92.1898 9.44881 95.2761 10.4993C96.8548 11.1047 97.8104 11.5439 98.7719 12.0306C99.6978 12.5232 100.843 13.0396 101.929 13.8765C102.149 14.0248 102.6 14.2979 103.01 14.5234C103.205 14.648 103.389 14.7667 103.526 14.8498C103.662 14.9329 103.752 14.9863 103.752 14.9863L107.877 8.30925C105.74 7.04506 103.935 6.59399 102.547 6.35064C101.271 6.16665 100.173 6.03014 98.8728 5.67403C98.1072 5.47224 97.3771 5.1458 96.6352 4.84904C95.8934 4.56415 95.1456 4.27927 94.368 4.09527C93.7033 3.94096 93.0267 3.82819 92.3501 3.73916C91.6735 3.6442 90.9909 3.57891 90.2964 3.5433C88.9195 3.45428 87.5544 3.34744 86.2309 3.03288C84.9014 2.73018 83.661 2.3622 82.4265 1.93487C81.8092 1.72714 81.186 1.51347 80.5509 1.31167C79.9099 1.13955 79.257 0.979305 78.5804 0.842796C77.8504 0.700351 77.1738 0.629129 76.5209 0.593518C75.874 0.557907 75.2508 0.569778 74.6276 0.629129C73.3753 0.724092 72.1348 0.860602 70.651 0.807185C69.3215 0.81312 67.7191 0.0237407 65.707 0L65.7961 7.84631L65.7901 7.85224Z" fill="#77B975"/>
<path d="M30.2074 19.9352C31.1808 19.0924 32.0236 18.0419 32.9792 17.0923C33.4421 16.5937 33.911 16.1011 34.368 15.6085C34.8606 15.1515 35.3592 14.6945 35.8637 14.2612C36.2435 13.9407 36.6115 13.5846 37.0033 13.2581C37.4009 12.9436 37.8045 12.6231 38.214 12.3204C38.6235 12.0118 39.0449 11.7209 39.4841 11.4538C39.9233 11.1927 40.3922 11.0028 40.8671 10.8366C41.8523 10.5042 43.1165 10.1956 44.4222 10.0591C45.0632 9.97599 45.7042 9.89289 46.3155 9.8098C46.9209 9.73264 47.5085 9.7089 48.013 9.64362C48.7905 9.55459 49.4434 9.36466 50.0428 9.12132C50.6482 8.90172 51.2061 8.65244 51.764 8.38536C52.322 8.11828 52.8858 7.83932 53.503 7.60785C54.1262 7.39418 54.8207 7.26361 55.616 7.21019C56.441 7.16271 57.1057 7.1271 57.6992 7.13897C58.2987 7.16865 58.815 7.21019 59.3373 7.25767C60.3879 7.37638 61.4503 7.47134 63.1893 7.78591C63.5098 7.83932 64.1507 7.85713 64.7205 7.85713C65.0054 7.85713 65.2666 7.85713 65.4624 7.85713C65.6583 7.85713 65.7829 7.85119 65.7889 7.85119L65.6998 0.00488281C63.5572 0.123586 62.0675 0.325382 60.7796 0.592466C59.4857 0.889225 58.3936 1.16224 57.0226 1.31062C55.4142 1.57177 53.7523 1.38184 52.132 1.69641C50.7551 2.02284 49.4196 2.47392 48.1139 3.01402C47.461 3.29891 46.8141 3.57193 46.1612 3.8212C45.5083 4.07642 44.8377 4.27228 44.1789 4.50969C41.514 5.32874 38.9322 5.60769 36.2732 6.6879C34.8547 7.29922 33.7627 7.98177 32.7834 8.8305C31.7803 9.64955 30.8069 10.4745 29.6021 11.4182C29.062 11.8337 28.326 12.1067 27.5425 12.4688C26.7769 12.8545 25.9282 13.2938 25.127 13.9466L30.2074 19.9293V19.9352Z" fill="#77B975"/>
<path d="M11.2104 52.9058C11.7505 50.2765 11.8217 47.4098 12.3025 44.7271C12.7001 42.7507 12.9078 40.5666 13.9168 38.7919C14.3976 37.8601 15.2225 36.8155 16.0475 35.7947C16.8429 34.756 17.7806 33.8242 18.4097 33.0229C18.8905 32.4057 19.2644 31.83 19.5612 31.2602C19.852 30.6845 20.0657 30.1088 20.2734 29.5212C20.4811 28.9336 20.7364 28.3757 21.039 27.794C21.3536 27.2183 21.7097 26.607 22.2735 26.0491C22.8552 25.4675 23.3419 25.0104 23.7752 24.6187C23.9948 24.4229 24.2025 24.2448 24.3984 24.0667C24.612 23.9006 24.8197 23.7522 25.0334 23.6038C25.4607 23.307 25.894 23.0103 26.3985 22.666C26.6537 22.4939 26.9149 22.3099 27.2176 22.1141C27.5262 21.9301 27.8586 21.7342 28.2265 21.5087C28.4996 21.3484 28.9862 20.9508 29.4017 20.5887C29.6094 20.4107 29.8053 20.2386 29.9596 20.1258C30.108 20.0071 30.2029 19.9359 30.2089 19.9299L25.1284 13.9473C21.8581 16.8971 21.1578 18.6479 19.3475 20.7609C18.8312 21.4019 18.2317 21.9657 17.6263 22.5355C17.0387 23.1171 16.4868 23.7284 16.0001 24.3991C14.3264 26.7079 13.5429 29.5034 12.1125 31.8715C11.4062 33.0645 10.6702 34.1566 9.87494 35.2308C9.13304 36.3288 8.39708 37.4387 7.73234 38.6732C7.07947 40.0324 6.74711 41.2491 6.48003 42.4717C6.25449 43.7122 6.05271 44.9527 5.63724 46.383C5.47106 47.03 5.09122 47.6828 4.68169 48.4188C4.47989 48.7868 4.26621 49.1785 4.07035 49.594C3.88636 50.0154 3.72613 50.4605 3.60742 50.9472L11.2104 52.888V52.9058Z" fill="#77B975"/>
<path d="M8.1588 92.4696C7.99855 91.1105 7.71364 89.7395 7.39314 88.3625C7.05483 86.9855 6.72839 85.6086 6.49692 84.2494C6.11707 82.2255 5.59477 80.1007 5.79063 78.0472C5.92121 76.9907 6.22392 75.6849 6.55035 74.3911C6.9124 73.1031 7.29817 71.8211 7.53558 70.8062C7.92137 69.2393 7.80863 67.9989 7.64244 66.7406C7.5 65.4824 7.3753 64.2122 7.73141 62.6335C8.15875 61.0072 8.4852 60.022 8.85911 59.0249C9.25083 58.0337 9.73159 57.0366 10.4201 55.4104C10.5506 55.1136 10.7524 54.4904 10.9127 53.9384C10.9898 53.6654 11.067 53.4043 11.1205 53.2144C11.1739 53.0244 11.2036 52.8998 11.2036 52.8998L3.60055 50.959C3.36314 51.9917 3.19101 52.882 3.07231 53.6714C2.97735 54.4667 2.92396 55.1611 2.87648 55.814C2.82899 56.4609 2.78149 57.0603 2.73994 57.6717C2.70433 58.283 2.64501 58.8943 2.54411 59.565C2.4254 60.3544 2.18204 61.1259 1.96838 61.8975C1.76658 62.675 1.55886 63.4525 1.45796 64.2479C1.26803 65.6129 1.35113 66.9958 1.39268 68.3728C1.42236 69.7498 1.5173 71.1149 1.37486 72.474C1.22054 73.8272 0.977204 75.0974 0.710121 76.3675C0.579547 77.0026 0.437118 77.6436 0.318415 78.2905C0.211581 78.9374 0.122552 79.5962 0.0572652 80.2788C-0.00802184 81.0147 -0.0139556 81.6854 0.0216555 82.3323C0.0632018 82.9733 0.158143 83.5847 0.259041 84.196C0.466772 85.4127 0.674524 86.6294 0.799163 88.0895C0.900061 89.3952 0.17594 91.0215 0.324319 92.9801L8.15286 92.4696H8.1588Z" fill="#77B975"/>
<path d="M15.2097 132.01C14.7942 130.704 14.177 129.428 13.5716 128.152C12.9721 126.87 12.3074 125.6 11.7791 124.324C11.0016 122.419 9.93329 120.478 9.68401 118.418C9.54157 117.362 9.51784 116.02 9.55345 114.673C9.57719 113.332 9.59499 111.996 9.61279 110.934C9.57718 107.693 7.79661 106.198 7.66603 102.927C7.62449 101.236 7.65416 100.185 7.73725 99.1111C7.85596 98.0428 7.97466 96.9448 8.17645 95.1464C8.21206 94.82 8.21208 94.1552 8.19427 93.5736C8.1824 93.2828 8.17645 93.0098 8.17051 92.808C8.15864 92.6062 8.15276 92.4815 8.15276 92.4756L0.324219 92.986C0.413246 94.0247 0.520109 94.909 0.650683 95.6865C0.793127 96.464 0.941501 97.1347 1.08988 97.7638C1.3807 99.0161 1.64779 100.084 1.83178 101.414C2.03951 102.987 1.8021 104.595 2.05732 106.168C2.44904 108.869 3.65981 111.403 4.05153 114.08C4.2652 115.415 4.28893 116.703 4.33641 117.997C4.38982 119.285 4.43138 120.585 4.6035 121.932C5.03677 124.834 6.24753 126.538 7.07846 129.333C7.42863 130.591 7.14374 132.313 7.67198 134.2L15.2097 132.016V132.01Z" fill="#77B975"/>
<path d="M30.4808 169.093C30.1247 168.511 29.721 167.947 29.3115 167.389C28.9079 166.826 28.4747 166.268 28.0355 165.716C27.1393 164.618 26.2549 163.514 25.4596 162.386C24.8601 161.549 24.2014 160.712 23.6197 159.834C23.0381 158.956 22.4861 158.059 22.1478 157.08C21.8035 156.071 21.5068 154.759 21.2337 153.448C20.9845 152.124 20.7649 150.801 20.5216 149.774C19.8212 146.604 17.7558 145.518 16.9545 142.343C16.5331 140.705 16.3788 139.66 16.2304 138.592C16.0821 137.524 15.9989 136.414 15.8209 134.615C15.7853 134.283 15.631 133.636 15.4826 133.072C15.3342 132.508 15.2096 132.016 15.2096 132.004L7.67188 134.188C8.90639 138.171 10.04 139.553 10.9243 142.088C11.4229 143.589 11.595 145.192 12.1292 146.688C13.0907 149.24 14.7763 151.477 15.7319 154.012C16.1889 155.288 16.5213 156.528 16.8358 157.78C16.9961 158.41 17.1563 159.039 17.3165 159.674C17.5005 160.303 17.7024 160.938 17.9398 161.573C18.4443 162.956 19.0912 164 19.8034 165.009C20.5097 166.018 21.2219 167.021 21.9579 168.292C22.6048 169.431 22.6523 171.212 23.6316 172.921L30.4808 169.087V169.093Z" fill="#77B975"/>
<path d="M56.0805 197.819C53.8132 196.632 51.1364 195.73 48.7802 194.394C47.8958 193.914 46.9877 193.409 46.0915 192.875C45.225 192.305 44.3704 191.712 43.6938 190.94C42.9934 190.157 42.2277 189.071 41.5274 187.937L41.2603 187.516L41.1297 187.308C41.0882 187.237 41.0348 187.165 41.0289 187.13C41.0407 187.053 40.833 186.661 40.7083 186.406C40.4294 185.842 40.1623 185.314 39.913 184.857C38.3996 182.043 36.1442 181.527 34.5773 178.672C33.0104 175.693 32.8442 174.868 31.6572 171.485C31.5444 171.176 31.2536 170.583 30.9925 170.06C30.8619 169.799 30.7373 169.562 30.6423 169.384C30.5473 169.206 30.488 169.093 30.482 169.093L23.6328 172.927C24.6715 174.749 25.5855 175.912 26.3927 176.921C27.188 177.936 27.9239 178.767 28.6718 179.895C29.5324 181.236 30.0844 182.767 31.0043 184.085C32.595 186.34 34.8503 188.056 36.4766 190.252L36.6249 190.459C36.6902 190.548 36.7555 190.649 36.8505 190.768C37.0523 190.994 37.1413 191.1 37.2482 191.225C37.4618 191.486 37.6695 191.747 37.8654 192.008C38.263 192.543 38.6488 193.071 39.0405 193.599C39.4382 194.127 39.8358 194.656 40.2394 195.19C40.6549 195.718 41.106 196.222 41.5867 196.733C43.6997 198.899 45.7473 199.576 48.2638 201.25C49.3856 201.997 50.353 203.546 52.1395 204.609L56.0745 197.819H56.0805Z" fill="#77B975"/>
<path d="M89.839 195.285C88.8775 196.134 87.9693 197.072 87.0316 198.015C86.0938 198.947 85.1204 199.867 84.0758 200.651C82.5327 201.802 80.8412 203.102 78.9004 203.47C77.9092 203.666 76.6331 203.689 75.3867 203.6C74.1403 203.505 72.9296 203.304 71.9859 203.143C70.5377 202.93 69.4279 203.066 68.2527 203.238C67.6711 203.298 67.0775 203.357 66.4424 203.345C65.8133 203.298 65.1367 203.226 64.4245 202.942C63.6766 202.674 63.0891 202.401 62.5786 202.14C62.0623 201.897 61.635 201.63 61.2076 201.357C60.994 201.22 60.7803 201.084 60.5607 200.935C60.347 200.775 60.1214 200.615 59.8781 200.437C59.6407 200.259 59.3796 200.069 59.1006 199.861C58.8276 199.642 58.5249 199.404 58.1985 199.143C58.0798 199.048 57.8839 198.923 57.6583 198.787C57.4387 198.639 57.1895 198.484 56.958 198.342C56.7206 198.199 56.5069 198.069 56.3467 197.974C56.1864 197.879 56.0796 197.819 56.0737 197.819L52.1387 204.609C54.0854 205.666 55.5573 206.212 56.8749 206.592C58.1866 206.989 59.3261 207.25 60.6972 207.69C62.2997 208.23 63.8547 209.019 65.564 209.346C67.036 209.577 68.5376 209.583 70.0214 209.452C71.5052 209.352 72.9592 209.126 74.4252 209.055C75.8853 208.948 77.2801 208.948 78.6867 208.835C79.393 208.805 80.0874 208.699 80.8056 208.616C81.5059 208.491 82.236 208.366 82.9482 208.153C84.5092 207.719 85.6606 207.013 86.7645 206.283C87.8506 205.517 88.8893 204.704 90.1653 203.826C91.3049 203.054 93.1389 202.716 94.7651 201.398L89.833 195.297L89.839 195.285Z" fill="#77B975"/>
<path d="M108.726 164.339C108.886 165.241 109.058 166.262 109.117 167.414C109.111 167.995 109.141 168.583 109.07 169.206C109.011 169.835 108.904 170.494 108.767 171.135C108.358 173.058 107.984 175.213 106.892 176.934C105.782 178.72 103.473 180.964 102.078 182.471C101.004 183.635 100.529 184.762 100.042 185.908C99.5498 187.047 99.0513 188.217 97.9118 189.338C96.7247 190.49 95.9413 191.137 95.0807 191.73C94.2319 192.33 93.3179 192.894 91.846 193.766C91.573 193.92 91.0863 194.318 90.6471 194.644C90.2138 194.983 89.8399 195.274 89.834 195.279L94.7661 201.381C96.4695 199.962 97.4607 198.769 98.2976 197.725C99.1166 196.662 99.7872 195.742 100.701 194.692C101.781 193.463 103.141 192.484 104.138 191.178C105.847 188.929 106.779 186.216 108.304 183.92C109.818 181.617 111.628 179.818 113.046 177.373C113.812 176.055 114.198 174.827 114.512 173.563C114.809 172.292 115.094 171.005 115.426 169.301C115.599 168.565 115.895 167.74 116.192 166.779C116.311 166.286 116.453 165.764 116.519 165.2C116.554 164.624 116.619 164.025 116.519 163.384L108.732 164.339H108.726Z" fill="#77B975"/>
<path d="M80.3242 162.47C80.6507 162.784 80.9356 163.081 81.3154 163.384C81.7071 163.686 81.9979 163.941 82.6567 164.345C83.8022 165.069 85.1079 165.544 86.3781 165.562C87.6541 165.633 88.9006 165.223 89.8977 164.529C90.141 164.345 90.3784 164.155 90.6099 163.959C90.8235 163.746 91.0372 163.532 91.239 163.312L91.785 162.606C91.9571 162.375 92.0818 162.155 92.2242 161.929C92.5922 161.3 92.8059 160.778 93.0255 160.214C93.2333 159.662 93.4172 159.122 93.5893 158.6C93.9454 157.555 94.3075 156.558 94.8476 155.727C94.996 155.508 95.1621 155.264 95.3521 155.033C95.4826 154.89 95.6132 154.789 95.7557 154.677C95.8507 154.629 95.9219 154.564 96.0287 154.54C96.1296 154.511 96.2483 154.516 96.3611 154.54C96.5866 154.576 96.7825 154.671 96.9487 154.766L97.0733 154.837C97.0733 154.837 97.1029 154.861 97.1386 154.873L97.2751 154.914C97.4531 154.973 97.6193 155.021 97.7974 155.086C98.1475 155.211 98.4799 155.335 98.7826 155.442C100.065 155.929 101.139 155.994 102.261 156.113C103.371 156.244 104.552 156.451 105.656 157.359C106.777 158.303 107.276 159.033 107.674 159.781C108.053 160.535 108.362 161.348 108.463 162.576C108.463 162.689 108.498 162.855 108.546 163.033C108.576 163.217 108.611 163.419 108.641 163.609C108.712 163.983 108.718 164.333 108.736 164.333L116.523 163.378C116.131 160.642 115.087 158.873 114.101 157.585C113.086 156.291 112.077 155.371 110.867 154.303C109.442 153.062 108.107 151.715 106.439 150.914C105.015 150.231 103.483 149.881 101.958 149.661C100.421 149.448 98.9132 149.353 97.2691 149.246C96.7943 149.24 96.3017 149.21 95.821 149.264C95.5776 149.288 95.3343 149.288 95.091 149.323L94.3787 149.454C94.1472 149.519 93.9217 149.59 93.6962 149.661C93.4766 149.745 93.251 149.84 93.0433 149.952L92.7643 150.166L92.6931 150.219L92.6753 150.231C92.6931 150.261 92.6457 150.196 92.6516 150.202L92.6457 150.213L92.61 150.243L92.4795 150.362L91.9453 150.831C91.5476 151.317 91.1025 151.816 90.7404 152.344C90.4733 152.677 90.2359 152.991 89.9985 153.318C89.5296 153.959 89.1142 154.582 88.7225 155.205C87.9984 156.392 87.6245 157.348 87.3099 158.101C87.2447 158.333 87.3218 158.398 87.2862 158.54C87.2624 158.677 87.1674 158.79 87.0369 158.819C86.9122 158.843 86.7995 158.588 86.8292 158.38C86.8292 158.327 86.841 158.273 86.8529 158.226C86.8529 158.196 86.8826 158.202 86.8529 158.143L86.7342 157.959C86.5799 157.739 86.3841 157.454 86.1348 157.193L80.3242 162.47Z" fill="#77B975"/>
<path d="M65.7901 121.374C65.5823 123.024 65.6713 124.71 65.9859 126.294C66.1105 127.096 66.342 127.861 66.5201 128.627C66.7516 129.375 66.9415 130.123 67.1789 130.835C67.8317 132.989 68.9357 135.001 69.4165 137.096C69.8853 139.257 70.283 142.658 70.8884 144.818C71.3513 146.468 72.1348 147.554 72.9835 148.587C73.8085 149.632 74.6928 150.623 75.3516 152.178C76.0757 153.78 76.4318 154.783 76.8473 155.858C77.0491 156.392 77.239 156.944 77.4942 157.585C77.7376 158.226 78.0522 158.968 78.4795 159.887C78.6457 160.226 79.067 160.867 79.4825 161.425C79.9158 161.989 80.3075 162.463 80.3313 162.469L86.1418 157.193C85.0615 156.036 84.1772 154.991 83.4116 154.13C83.0258 153.691 82.6638 153.276 82.3255 152.825C81.9812 152.385 81.6548 151.917 81.3283 151.347C80.9485 150.688 80.6577 149.982 80.3847 149.275C80.1176 148.563 79.8564 147.851 79.4944 147.192C78.3014 144.913 76.4971 142.925 75.6009 140.503C74.7285 138.088 74.6691 135.743 74.2655 133.339C74.1409 132.687 74.0221 132.111 73.8619 131.565C73.6898 131.019 73.5355 130.508 73.3574 129.992C73.0013 128.965 72.6808 127.921 72.568 126.645C72.5086 125.493 73.2802 124.17 73.5354 122.662L65.796 121.368L65.7901 121.374Z" fill="#77B975"/>
<path d="M99.9894 118.935C98.1614 116.822 95.7279 115.036 93.5675 113.154C91.9472 111.748 90.0539 110.501 88.5405 108.881C87.7451 108.05 86.8074 106.911 85.4304 105.854C85.0624 105.599 84.7004 105.344 84.2612 105.124C84.0535 105.005 83.8279 104.904 83.5846 104.815C83.3175 104.715 83.0445 104.614 82.7774 104.56C81.7091 104.281 80.6052 104.293 79.6793 104.56C79.1926 104.667 78.7652 104.899 78.3616 105.083C78.2607 105.142 78.1598 105.201 78.0589 105.255L77.8216 105.397C77.6672 105.492 77.5189 105.593 77.3705 105.694C77.0856 105.902 76.8185 106.127 76.5692 106.353C76.0766 106.816 75.6374 107.29 75.216 107.801C74.3673 108.81 73.5542 109.848 72.3256 111.012C70.9308 112.341 70.1473 113.285 69.3342 114.258C69.1324 114.508 68.9365 114.757 68.7229 115.024C68.5211 115.291 68.3193 115.582 68.0997 115.896C67.8683 116.205 67.6605 116.555 67.429 116.947C67.1857 117.333 66.9483 117.766 66.7108 118.259C66.515 118.615 66.2717 119.392 66.0818 120.087C65.9749 120.431 65.9275 120.757 65.874 120.995C65.8266 121.232 65.7969 121.386 65.7969 121.392L73.5363 122.686C73.7856 121.054 73.9993 119.944 74.2307 118.947C74.48 117.968 74.7709 117.113 75.3763 116.205C76.1182 115.131 77.2933 114.46 78.2608 113.582C78.789 113.095 79.3112 112.573 79.8513 112.05C80.1125 111.783 80.4033 111.528 80.6823 111.261C80.8188 111.125 80.9672 111 81.1155 110.875L81.3411 110.685L81.4539 110.59C81.4895 110.561 81.4954 110.549 81.5132 110.525C81.6379 110.306 81.9524 110.157 82.1898 110.258C82.4035 110.323 82.7715 110.531 83.0979 110.828C83.4362 111.107 83.7745 111.481 84.1069 111.878C84.7716 112.686 85.4126 113.611 86.1783 114.561C87.8104 116.632 89.5969 117.558 91.4606 119.701C92.2915 120.662 92.6595 122.348 93.8584 123.85L99.9835 118.947L99.9894 118.935Z" fill="#77B975"/>
<path d="M128.881 143.221C126.578 142.841 123.919 142.604 121.444 141.726C119.616 141.085 117.574 140.402 116.079 139.043C114.524 137.66 112.785 134.971 111.568 133.316C109.704 130.757 107.407 130.55 105.484 127.914C103.526 125.161 103.265 124.365 101.561 121.148C101.407 120.852 101.015 120.306 100.665 119.825C100.309 119.35 99.9944 118.941 99.9884 118.935L93.8633 123.837C96.4748 127 98.0298 127.885 99.7925 129.909C100.837 131.102 101.555 132.568 102.647 133.749C104.523 135.773 106.986 137.209 108.962 139.15C110.933 141.085 112.405 143.215 114.648 145.055C117.105 147.014 119.343 147.394 122.275 148.563C123.593 149.056 124.993 150.391 127.183 150.884L128.893 143.221H128.881Z" fill="#77B975"/>
<path d="M164.083 159.335C164.249 157.709 164.107 155.952 163.638 154.201C163.175 152.456 162.35 150.723 161.228 149.269C160.379 148.183 159.257 147.31 158.118 146.675C156.972 146.034 155.821 145.571 154.723 145.12C153.595 144.64 152.177 144.046 150.729 143.642C149.999 143.411 149.28 143.257 148.58 143.09C147.892 142.966 147.227 142.829 146.645 142.782C145.749 142.693 144.96 142.734 144.241 142.883C143.517 143.007 142.865 143.227 142.224 143.458C141.577 143.678 140.947 143.927 140.265 144.147C139.576 144.349 138.852 144.533 138.015 144.628C137.796 144.651 137.588 144.675 137.392 144.693C137.191 144.717 137.001 144.735 136.858 144.729C136.55 144.729 136.259 144.74 135.992 144.746C135.452 144.729 134.971 144.693 134.496 144.622C133.546 144.467 132.585 144.248 131.113 143.749C130.84 143.642 130.282 143.559 129.795 143.429C129.552 143.375 129.32 143.322 129.154 143.286C128.988 143.245 128.881 143.215 128.875 143.215L127.166 150.872C129.487 151.352 131.184 151.287 132.62 151.15C134.069 151.02 135.262 150.747 136.757 150.557C137.202 150.48 137.653 150.432 138.105 150.391C138.514 150.349 138.87 150.325 139.256 150.302L140.39 150.213C140.758 150.189 141.12 150.153 141.482 150.088C142.105 149.969 142.71 149.839 143.316 149.684C143.927 149.518 144.526 149.376 145.132 149.227C146.343 148.937 147.565 148.729 148.758 148.812C149.951 148.895 151.002 149.245 151.934 149.661C152.853 150.094 153.601 150.634 154.213 151.133C154.865 151.673 155.328 151.97 155.845 152.427C156.337 152.884 156.854 153.519 157.056 154.563C157.139 155.032 157.014 155.59 156.824 156.207C156.64 156.825 156.403 157.501 156.302 158.285L164.077 159.323L164.083 159.335Z" fill="#77B975"/>
<path d="M143.352 197.054C145.4 194.733 146.616 191.914 147.975 189.379C148.984 187.486 149.756 185.373 151.056 183.705C152.403 181.996 154.836 179.658 156.196 177.895C157.246 176.548 157.632 175.26 157.964 173.966C158.297 172.666 158.582 171.36 159.401 169.853C160.243 168.28 160.784 167.301 161.347 166.286C161.917 165.265 162.534 164.238 163.348 162.363C163.496 162.018 163.704 161.276 163.846 160.612C163.911 160.273 163.977 159.959 164.018 159.727C164.06 159.496 164.078 159.33 164.078 159.33L156.302 158.291C156.101 159.977 155.929 161.265 155.774 162.398C155.608 163.538 155.454 164.535 155.015 165.704C154.504 167.081 153.537 168.256 152.913 169.598C151.851 171.894 151.305 174.524 149.898 176.72C148.492 178.904 146.664 180.453 145.026 182.435C143.257 184.566 142.8 186.513 141.138 188.739C140.39 189.724 138.847 190.388 137.666 191.629L143.334 197.054H143.352Z" fill="#77B975"/>
<path d="M107.241 210.045C107.294 209.748 107.336 209.452 107.365 209.149C107.407 208.846 107.46 208.538 107.496 208.223C107.567 207.612 107.638 207 107.704 206.389C107.722 206.063 107.805 205.819 107.858 205.534C107.929 205.255 107.953 204.977 108.054 204.68C108.232 204.092 108.416 203.493 108.677 202.941C109.401 201.297 110.321 199.421 111.953 198.418C112.778 197.902 113.936 197.469 115.105 197.178C116.286 196.905 117.467 196.768 118.393 196.655C119.812 196.495 120.809 196.044 121.889 195.599C122.957 195.172 124.114 194.78 125.616 194.952C127.165 195.154 128.103 195.415 129.017 195.771C129.919 196.133 130.845 196.549 132.174 197.35C132.418 197.498 132.928 197.718 133.356 197.931C133.581 198.026 133.765 198.133 133.908 198.204C134.05 198.276 134.145 198.323 134.145 198.323L137.593 191.272C135.326 190.234 133.676 189.966 132.258 189.8C130.833 189.652 129.634 189.604 128.168 189.48C126.453 189.331 124.732 188.886 122.969 189.023C121.467 189.141 119.99 189.539 118.571 190.061C117.153 190.584 115.776 191.159 114.375 191.705C112.98 192.251 111.609 192.703 110.274 193.332C108.944 193.949 107.603 194.667 106.392 195.712C106.054 195.985 105.757 196.27 105.496 196.566C105.229 196.863 104.974 197.154 104.748 197.451C104.327 198.074 103.917 198.661 103.614 199.302C103.46 199.617 103.3 199.938 103.14 200.258C102.991 200.584 102.861 200.917 102.712 201.255C102.415 201.902 102.131 202.674 101.78 203.469C101.614 203.825 101.49 204.175 101.282 204.543C101.08 204.905 100.866 205.291 100.641 205.695C100.219 206.484 99.7684 207.374 99.5488 208.46L107.235 210.045H107.241Z" fill="#77B975"/>
<path d="M130.732 224.878C128.186 225.299 125.544 226.225 122.921 226.528C120.98 226.765 118.867 227.098 116.98 226.492C116.013 226.201 114.885 225.608 113.87 224.931C112.849 224.261 111.959 223.489 111.312 222.89C110.315 221.981 109.448 221.578 108.546 221.05C107.674 220.533 106.766 219.857 106.35 218.569C105.941 217.245 105.929 216.367 106.006 215.482C106.071 214.604 106.285 213.69 106.742 212.26C106.789 212.129 106.831 211.927 106.872 211.696C106.926 211.464 106.985 211.203 107.039 210.96C107.092 210.716 107.128 210.491 107.169 210.319C107.211 210.147 107.24 210.04 107.24 210.034L99.5543 208.449C99.1151 210.758 99.1982 212.497 99.3762 213.987C99.6077 215.488 99.9045 216.753 100.32 218.319C100.813 220.147 101.264 222.142 102.457 223.774C103.46 225.169 104.807 226.231 106.184 227.056C107.567 227.887 108.979 228.51 110.333 229.193C111.68 229.875 112.944 230.516 114.232 231.104C115.52 231.697 116.849 232.202 118.286 232.528C119.841 232.89 121.164 232.849 122.464 232.742C123.764 232.623 125.046 232.427 126.571 232.332C127.925 232.243 129.64 232.908 131.687 232.659L130.726 224.872L130.732 224.878Z" fill="#77B975"/>
<path d="M157.12 205.061C156.889 206.432 156.824 207.862 156.794 209.292C156.806 209.476 156.717 210.521 156.788 210.557C156.841 210.812 156.829 211.067 156.841 211.328C156.853 211.856 156.788 212.396 156.657 212.942C156.45 213.744 156.194 214.622 155.749 215.453C155.304 216.278 154.74 217.073 153.969 217.655C153.191 218.26 152.081 218.848 150.912 219.305C149.743 219.768 148.562 220.154 147.618 220.456C146.182 220.937 145.256 221.661 144.271 222.379C143.291 223.098 142.27 223.834 140.727 224.172C139.131 224.522 138.122 224.629 137.083 224.682C136.044 224.73 134.976 224.718 133.261 224.67C132.946 224.659 132.317 224.718 131.765 224.777C131.492 224.801 131.231 224.831 131.041 224.848C130.851 224.872 130.732 224.884 130.727 224.884L131.688 232.671C133.854 232.368 135.32 231.905 136.585 231.466C137.849 231.027 138.899 230.582 140.241 230.202C141.813 229.733 143.499 229.62 145.06 229.015C146.395 228.493 147.63 227.739 148.841 226.961C150.046 226.166 151.215 225.341 152.467 224.623C154.936 223.163 157.482 222.136 159.773 219.821C160.99 218.569 161.72 217.198 162.23 215.738C162.343 215.364 162.456 214.99 162.569 214.616C162.664 214.23 162.741 213.833 162.83 213.435C162.913 213.031 162.96 212.61 163.032 212.183C163.073 211.969 163.079 211.744 163.103 211.518C163.115 211.405 163.127 211.292 163.139 211.174L163.156 211.002C163.156 211.002 163.162 210.936 163.156 210.99L163.145 211.049V211.037C163.145 211.037 163.186 210.853 163.233 210.699C163.287 210.539 163.346 210.373 163.418 210.2C163.554 209.862 163.726 209.512 163.898 209.144C164.242 208.408 164.605 207.595 164.8 206.651L157.114 205.066L157.12 205.061Z" fill="#77B975"/>
<path d="M168.683 163.941C167.585 165.253 166.748 166.873 166.22 168.541C165.941 169.372 165.774 170.227 165.626 171.052C165.573 171.467 165.519 171.883 165.466 172.292C165.418 172.69 165.407 173.016 165.371 173.378C165.175 175.474 165.24 177.699 164.605 179.693C163.952 181.747 162.427 184.697 161.655 186.715C160.474 189.825 161.632 191.878 160.676 195.042C159.691 198.33 159.234 199.048 157.833 202.431C157.703 202.74 157.531 203.393 157.382 203.968C157.246 204.544 157.127 205.049 157.127 205.054L164.813 206.639C165.579 202.615 165.258 200.894 165.751 198.3C166.042 196.769 166.754 195.35 167.051 193.831C167.561 191.226 167.347 188.483 168 185.914C168.659 183.35 169.864 181.237 170.683 178.732C171.128 177.385 171.271 176.204 171.383 175.017C171.407 174.72 171.437 174.423 171.466 174.12C171.49 173.871 171.52 173.622 171.549 173.361C171.573 173.105 171.615 172.85 171.692 172.601C171.769 172.352 171.817 172.073 171.941 171.823C172.042 171.592 172.196 171.366 172.374 171.147C172.576 170.939 172.802 170.731 173.033 170.524C173.282 170.322 173.544 170.12 173.787 169.889C174.066 169.675 174.297 169.426 174.553 169.153L168.689 163.936L168.683 163.941Z" fill="#77B975"/>
<path d="M199.675 138.877C198.987 140.04 198.423 141.316 197.859 142.592L197.444 143.548L197.04 144.432C196.785 145.032 196.446 145.584 196.132 146.148C195.141 147.774 194.043 149.608 192.375 150.706C190.666 151.857 187.662 152.819 185.722 153.537C182.754 154.67 181.917 156.819 178.849 158.19C177.246 158.908 176.225 159.353 175.151 159.81C174.077 160.273 172.943 160.718 171.121 161.793C170.783 161.983 170.165 162.493 169.637 162.974C169.37 163.211 169.145 163.466 168.967 163.639C168.794 163.817 168.688 163.935 168.682 163.941L174.546 169.158C175.59 167.959 176.439 167.075 177.216 166.28C178.006 165.49 178.748 164.814 179.798 164.149C181.051 163.371 182.564 163.015 183.911 162.262C186.226 160.974 188.256 159.009 190.66 157.614C193.052 156.214 195.532 155.335 197.883 153.519C200.393 151.543 201.284 149.347 202.969 146.783C203.693 145.679 205.225 144.777 206.293 143.109L199.681 138.883L199.675 138.877Z" fill="#77B975"/>
<path d="M214.555 102.625C214.217 105.236 214.395 108.091 214.086 110.798C213.962 111.801 213.885 112.845 213.736 113.878C213.558 114.905 213.356 115.926 212.917 116.858C212.068 118.792 210.098 121.368 208.982 123.119C207.237 125.796 207.872 128.016 206.115 130.752C204.264 133.553 203.617 134.087 201.219 136.729C200.999 136.972 200.613 137.506 200.287 137.981C199.967 138.462 199.688 138.871 199.682 138.883L206.293 143.109C208.489 139.512 208.751 137.732 210.027 135.346C210.775 133.939 211.878 132.734 212.579 131.292C213.784 128.811 214.235 126.027 215.356 123.541C216.472 121.054 218.01 119.042 219.072 116.478C219.671 115.107 219.861 113.854 220.051 112.626C220.188 111.373 220.336 110.133 220.603 108.661C220.876 107.361 221.95 105.919 222.295 103.919L214.555 102.631V102.625Z" fill="#77B975"/>
<path d="M206.424 67.3821C206.839 67.8094 207.296 68.213 207.777 68.6047C208.216 69.038 208.667 69.4713 209.142 69.8986C209.374 70.1182 209.629 70.3141 209.854 70.5574L210.531 71.2934C210.97 71.7919 211.451 72.2667 211.837 72.8009C213.012 74.35 214.419 75.9881 214.917 77.9348C215.517 79.9172 215.38 83.0866 215.428 85.0571C215.392 86.6002 215.843 87.7101 216.205 88.8734C216.62 90.0248 216.953 91.2296 216.852 92.8025C216.668 94.4346 216.52 95.4317 216.229 96.4407C216.092 96.9452 215.956 97.4497 215.772 98.0373C215.582 98.6189 215.356 99.2837 215.083 100.109C214.994 100.411 214.846 101.035 214.739 101.587C214.686 101.865 214.638 102.121 214.603 102.311C214.573 102.501 214.549 102.625 214.549 102.625L222.289 103.913C222.912 99.6338 222.33 97.8414 222.431 95.0756C222.431 94.2506 222.55 93.4375 222.657 92.6185C222.728 91.7935 222.799 90.9626 222.763 90.1376C222.734 89.4253 222.591 88.7191 222.461 88.0187C222.33 87.3183 222.164 86.6239 221.956 85.9355C221.76 85.247 221.576 84.5585 221.398 83.8759C221.196 83.1934 221.018 82.5109 220.9 81.8105C220.793 81.1102 220.65 80.4395 220.556 79.7569C220.443 79.0803 220.401 78.3978 220.277 77.7271C220.039 76.3857 219.843 75.0147 219.345 73.6496C218.876 72.148 218.122 71.056 217.386 69.9876C217.03 69.4416 216.585 68.9549 216.175 68.4089C215.742 67.8747 215.374 67.2931 214.893 66.6521C214.46 66.0823 214.151 65.3344 213.778 64.5035C213.605 64.0762 213.356 63.6726 213.083 63.2571C212.81 62.8417 212.496 62.4203 212.133 62.0107L206.424 67.394V67.3821Z" fill="#77B975"/>
<path d="M171.353 59.0251C173.994 58.6037 176.689 57.6006 179.354 57.1436C180.345 56.9477 181.36 56.7459 182.387 56.6094C183.414 56.4432 184.44 56.4373 185.443 56.5857C185.96 56.651 186.53 56.7994 187.117 56.9834C187.711 57.1673 188.328 57.3573 188.933 57.5828C190.138 58.0814 191.325 58.5384 192.227 58.9598C193.652 59.5177 194.791 59.6364 196.008 59.7076C196.613 59.7432 197.195 59.85 197.818 59.9806C198.127 60.0518 198.447 60.1409 198.774 60.2536C199.088 60.3842 199.403 60.5563 199.729 60.7581C201.1 61.5534 201.807 62.2419 202.531 62.9007C202.905 63.2153 203.207 63.6308 203.581 64.064C203.765 64.2836 203.961 64.5151 204.181 64.7703C204.288 64.9009 204.406 65.0196 204.513 65.168C204.62 65.3163 204.727 65.4766 204.84 65.6428C205.006 65.8861 205.409 66.3075 205.771 66.6696C206.151 67.0138 206.395 67.3877 206.412 67.3818L212.122 61.9986C211.92 61.7849 211.736 61.5772 211.54 61.3932C211.333 61.2151 211.137 61.049 210.947 60.8828C210.561 60.5623 210.193 60.2714 209.849 59.9984C209.172 59.4405 208.496 59.0785 207.884 58.7283C207.261 58.39 206.715 58.0398 206.116 57.7549C205.522 57.47 204.935 57.1673 204.305 56.7994C204.121 56.6925 203.937 56.5738 203.759 56.4611L203.207 56.1406C202.839 55.921 202.483 55.6895 202.121 55.458C201.759 55.2325 201.397 54.9773 201.017 54.7873C200.638 54.5974 200.246 54.4194 199.848 54.265C198.483 53.6953 197.023 53.4994 195.604 53.2501C194.892 53.1492 194.174 53.0899 193.474 52.983C193.124 52.9296 192.773 52.8703 192.423 52.805C192.073 52.7575 191.729 52.6982 191.379 52.6269C190.69 52.4904 190.025 52.3005 189.373 52.1224C188.72 51.9622 188.073 51.7841 187.426 51.6001C186.779 51.4043 186.126 51.25 185.461 51.1075C184.797 50.971 184.12 50.8226 183.42 50.7455C181.912 50.5971 180.642 50.6802 179.401 50.9057C178.778 51.0066 178.161 51.1135 177.508 51.2203C176.861 51.339 176.185 51.4399 175.437 51.5052C174.772 51.5527 174.024 51.4458 173.193 51.3271C172.356 51.2084 171.436 51.1016 170.451 51.2262L171.359 59.0191L171.353 59.0251Z" fill="#77B975"/>
<path d="M137.38 73.7683C139.137 71.7444 140.579 69.222 142.294 67.0734C142.929 66.2722 143.546 65.4116 144.223 64.6044C144.555 64.2008 144.911 63.8091 145.279 63.4411L145.541 63.1859L145.695 63.0434C145.79 62.9307 145.944 62.9188 146.075 62.8832L146.188 62.8594L146.383 62.812C146.52 62.7823 146.656 62.7526 146.799 62.7229C147.084 62.6636 147.386 62.6102 147.695 62.5627C148.318 62.4677 148.977 62.3846 149.642 62.3193C150.965 62.1769 152.295 62.0938 153.333 61.9632C156.515 61.5893 157.815 59.6663 161.037 59.2568C164.367 58.8769 165.198 59.0253 168.741 59.1974C169.068 59.2212 169.715 59.1559 170.284 59.1143C170.569 59.0906 170.836 59.0669 171.032 59.055C171.228 59.0372 171.353 59.0253 171.359 59.0253L170.451 51.2324C166.242 51.8141 164.699 52.7637 162.046 53.3097C161.263 53.47 160.468 53.5412 159.666 53.6124C158.865 53.6777 158.07 53.7608 157.292 53.9567C154.621 54.6214 152.206 56.0755 149.576 56.7878C148.259 57.1379 146.983 57.3516 145.683 57.5653L144.704 57.7374L144.454 57.7849L144.324 57.8086L144.116 57.862L143.238 58.1113C142.917 58.1588 142.71 58.4021 142.448 58.5683L142.074 58.8473L141.885 58.9897L141.778 59.0609C141.505 59.2449 141.226 59.4348 140.953 59.6366C138.591 61.3875 137.671 63.2927 135.623 65.3997C134.709 66.3434 133.029 66.931 131.658 68.391L137.368 73.7742L137.38 73.7683Z" fill="#77B975"/>
<path d="M131.095 102.375C130.62 102.061 130.074 101.812 129.569 101.533C129.106 101.23 128.56 100.975 128.074 100.672C127.136 100.049 126.18 99.3723 125.522 98.482C125.284 98.1496 124.964 97.8351 124.78 97.4552L124.447 96.8914C124.394 96.7964 124.334 96.7014 124.281 96.6005L124.162 96.2919L123.943 95.6568C123.866 95.4432 123.8 95.2295 123.788 94.998C123.747 94.547 123.682 94.0959 123.753 93.6389C123.848 93.17 123.925 92.6536 124.133 92.1195C124.24 91.8583 124.346 91.5853 124.459 91.3123L124.631 90.9087L124.851 90.5051C125.148 89.9709 125.409 89.4546 125.747 88.9738C126.062 88.4931 126.329 88.042 126.614 87.6444C126.821 87.3357 126.988 87.039 127.124 86.7422C127.261 86.4454 127.409 86.1606 127.516 85.8697C127.629 85.5789 127.718 85.294 127.795 85.0032C127.884 84.7124 127.973 84.4275 128.062 84.1426C128.234 83.5609 128.4 82.9734 128.679 82.3858C128.946 81.7923 129.29 81.1869 129.813 80.5934C130.335 79.9642 130.798 79.4835 131.225 79.074C131.641 78.6585 132.021 78.3083 132.43 77.9759C133.231 77.2993 134.098 76.6465 135.499 75.59C135.76 75.4001 136.217 74.9431 136.62 74.5395C136.822 74.3377 137.012 74.1478 137.149 74.0112C137.285 73.8688 137.374 73.7798 137.374 73.7738L131.664 68.3906C128.81 71.5481 128.24 73.299 126.572 75.501C126.329 75.8274 126.068 76.142 125.795 76.4447C125.527 76.7592 125.254 77.0619 124.976 77.3705C124.412 77.9759 123.883 78.6229 123.438 79.3292C121.919 81.7923 121.254 84.7005 120.221 87.4722C119.954 88.1666 119.729 88.8729 119.45 89.5495C119.207 90.244 118.993 90.9621 118.755 91.6743C118.589 92.4162 118.393 93.17 118.287 93.9594C118.251 94.363 118.221 94.7666 118.198 95.182C118.192 95.3898 118.18 95.5975 118.174 95.8112C118.174 96.0248 118.203 96.2385 118.221 96.4522C118.269 96.921 118.334 97.3662 118.417 97.7935C118.488 98.2208 118.666 98.6185 118.797 99.0102C118.945 99.396 119.1 99.7699 119.26 100.132C119.462 100.476 119.669 100.809 119.877 101.141C120.091 101.467 120.293 101.8 120.524 102.108C120.773 102.399 121.023 102.696 121.284 103.005C121.545 103.301 121.782 103.634 122.073 103.919C122.364 104.204 122.655 104.5 122.958 104.821C123.474 105.42 123.984 106.079 124.578 106.845C125.159 107.652 125.907 108.317 126.833 108.975L131.083 102.381L131.095 102.375Z" fill="#77B975"/>
<path d="M114.737 98.0664L110.897 97.2593L108.98 96.8557L108.018 96.6539L107.537 96.553L107.3 96.5055L107.181 96.4817L107.122 96.4699H107.092L107.074 96.458H107.068C110.012 94.2857 109.917 94.3569 111.49 93.1936L112.125 92.1491V92.1253L112.137 92.0956L112.161 92.0363L112.202 91.9235L112.291 91.692L112.469 91.235L112.826 90.321L113.538 88.493L114.962 84.8369L114.707 85.2583L114.452 85.6975L114.202 86.1545L113.953 86.6234L113.71 87.1101L113.472 87.6086L113.241 88.1191L113.021 88.6414L112.808 89.1696L112.606 89.7038L112.505 89.9768V89.9946L112.493 90.0005L112.517 90.0183L112.558 90.048L112.647 90.1133L112.986 90.3744L113.306 90.6475L113.615 90.9323L113.906 91.2291L114.179 91.5377L114.327 91.9176L114.458 92.3093L114.576 92.7129L114.677 93.1224L114.76 93.5379L114.832 93.9474L114.891 94.351L114.932 94.7546L114.956 95.1641L114.974 95.5737V95.9891L114.95 96.4046L114.921 96.826L114.897 97.0337L114.867 97.2414L114.802 97.6628L114.766 97.8765L114.725 98.0902L114.737 98.0664Z" fill="#77B975"/>
<path d="M143.352 197.053L140.515 194.341L139.096 192.988L138.39 192.311L138.034 191.973L137.856 191.8L137.767 191.717L137.725 191.676L137.701 191.652L137.69 191.64V191.634C138.218 191.349 138.2 191.361 138.485 191.213C137.897 191.254 137.915 191.249 137.601 191.272L137.595 191.29L137.583 191.32L137.553 191.373L137.5 191.486L137.393 191.706L137.179 192.145L136.746 193.023L135.885 194.786L134.164 198.311L134.378 198.406L134.485 198.448L134.591 198.483L134.698 198.519L134.811 198.549L135.037 198.59L135.143 198.608L135.256 198.626L135.369 198.638H135.488L135.606 198.65H135.731H135.968L136.212 198.632L136.467 198.602L136.597 198.584H136.615H136.633H136.752L137.066 198.567L137.381 198.537L137.701 198.489L138.022 198.424L138.342 198.347L138.657 198.442L138.972 198.519L139.286 198.578L139.601 198.626L139.915 198.656H139.992L140.034 198.662H140.052H140.076L140.265 198.632L140.461 198.596L140.657 198.555L141.019 198.46L141.197 198.406L141.375 198.347L141.547 198.282L141.708 198.216L141.868 198.145L142.028 198.068L142.182 197.985L142.331 197.902L142.473 197.813L142.616 197.718L142.758 197.617L142.895 197.516L143.025 197.409L143.15 197.296L143.275 197.184L143.393 197.065L143.352 197.053Z" fill="#77B975"/>
<path d="M131.095 102.375L128.97 105.675L127.908 107.325L127.374 108.15L127.107 108.56L126.976 108.768L126.911 108.868L126.875 108.922L126.858 108.946V108.957L126.846 108.963C127.059 109.195 127.053 109.183 127.166 109.308C127.131 109.236 127.137 109.242 127.119 109.201H127.125H127.142H127.172L127.232 109.219L127.35 109.242L127.594 109.29L128.074 109.385L129.036 109.575L130.959 109.961L134.805 110.726L134.834 110.572L134.858 110.418L134.876 110.263L134.888 110.109V109.955L134.9 109.8V109.646L134.888 109.492L134.87 109.337L134.852 109.189L134.828 109.041L134.799 108.892L134.763 108.744L134.728 108.595L134.686 108.447L134.639 108.299L134.585 108.156L134.532 108.014L134.472 107.871L134.407 107.729L134.336 107.586L134.259 107.45L134.098 107.183L133.92 106.922L133.73 106.667L133.523 106.417L133.303 106.174L133.238 105.853L133.161 105.539L133.066 105.23L132.959 104.933L132.84 104.643L132.775 104.5L132.722 104.364L132.609 104.103L132.484 103.853L132.348 103.616L132.276 103.503L132.199 103.396L132.122 103.289L132.039 103.188L131.956 103.088L131.867 102.993L131.778 102.904L131.683 102.815L131.588 102.731L131.487 102.654L131.386 102.577L131.362 102.559L131.35 102.548L131.339 102.536L131.291 102.494L131.196 102.417L131.095 102.346V102.375Z" fill="#77B975"/>
</svg>
