<svg width="229" height="245" viewBox="0 0 229 245" fill="none" xmlns="http://www.w3.org/2000/svg">
<path d="M218.7 119.051C182.128 64.9341 185.896 163.06 155.971 155.137C126.046 147.213 69.6263 108.166 76.7366 70.6022C81.1702 47.1819 129.245 39.4009 149.965 68.4358C170.685 97.4707 105.92 106.759 138.089 123.318C170.251 139.878 178.703 97.4707 178.703 97.4707C184.187 90.2714 225.858 53.1112 183.944 34.1127C160.725 23.5896 159.96 42.2498 149.549 32.4923C133.981 17.8977 90.0492 -31.3346 29.6054 46.0602C-23.9953 114.683 33.5701 87.6717 15.5449 110.006C-2.03509 131.788 3.45495 153.831 8.59481 160.686C7.56209 169.666 52.1828 149.647 59.6848 166.984C82.2385 219.094 43.6005 189.205 28.353 197.55C13.1056 205.901 -4.71186 246.669 38.609 240.556C81.9299 234.443 83.4671 235.826 73.0984 180.243C68.4096 155.113 114.17 175.791 155.455 177.186C191.173 178.391 242.684 154.526 218.694 119.039L218.7 119.051Z" fill="#EBFEB3"/>
<path d="M39.9923 156.799C37.725 157.007 35.4875 157.832 33.3627 158.425C31.772 158.87 30.1755 159.541 28.5433 159.666C26.8696 159.79 24.2996 159.571 22.6378 159.588C20.0857 159.612 18.9105 160.983 16.394 161.054C15.1001 161.078 14.3167 161.019 13.5392 160.9C13.1593 160.835 12.7795 160.758 12.364 160.645C11.9723 160.526 11.5034 160.384 11.171 160.17C11.0464 160.105 10.8565 159.974 10.987 160.028C11.1117 160.069 11.4084 160.443 11.3788 160.443L6.19141 163.221C6.33385 163.464 6.48817 163.719 6.66029 163.921C6.83241 164.117 7.01046 164.301 7.19445 164.467C7.53276 164.746 7.91854 165.007 8.2153 165.138C8.36962 165.215 8.52987 165.292 8.67825 165.351C8.81476 165.399 8.95127 165.44 9.08778 165.488C9.36673 165.583 9.58633 165.619 9.8178 165.666C10.7021 165.814 11.3669 165.808 11.9426 165.767C13.1059 165.69 13.9962 165.512 15.0882 165.423C16.3702 165.31 17.6404 165.464 18.869 165.28C20.9759 164.966 22.9346 164.058 25 163.79C27.0536 163.523 28.935 163.755 30.9767 163.624C33.1727 163.482 34.5319 162.71 36.7042 162.419C37.6775 162.295 38.8943 162.758 40.3187 162.681L40.0041 156.805L39.9923 156.799Z" fill="#EBFEB3"/>
<path d="M66.0772 175.073C65.2404 172.996 63.8634 171.073 62.7298 169.186C62.3143 168.473 61.8276 167.785 61.3884 167.073C61.1688 166.717 60.967 166.361 60.7296 165.945C60.516 165.536 60.2608 165.15 60.059 164.734C59.596 163.909 58.9788 162.853 58.1834 161.909C57.3941 160.954 56.4504 160.123 55.6372 159.577C54.3731 158.74 53.2098 158.574 52.1118 158.491C51.0019 158.413 49.9276 158.425 48.5922 158.134C47.2034 157.838 46.3546 157.683 45.4762 157.482C44.6037 157.303 43.7016 157.078 42.2237 156.846C41.9507 156.805 41.3988 156.793 40.9121 156.787C40.4254 156.799 40.0099 156.805 39.998 156.805L40.3126 162.681C41.832 162.58 42.8766 162.432 43.7966 162.313C44.7165 162.188 45.5059 162.093 46.4674 162.153C47.601 162.224 48.6575 162.675 49.7021 162.883C50.6042 163.061 51.5064 163.162 52.3848 163.346C53.2572 163.53 54.1119 163.808 54.8004 164.313C55.4829 164.817 55.9518 165.458 56.2961 166.129C56.6462 166.812 56.8421 167.47 57.0914 168.248C57.7917 170.337 58.9075 171.447 59.7681 173.477C60.1599 174.385 60.0412 175.697 60.5338 177.062L66.0772 175.079V175.073Z" fill="#EBFEB3"/>
<path d="M54.2891 201.408C56.6039 201.568 59.1501 201.129 61.5775 200.286C62.4856 199.959 63.3878 199.467 64.2068 198.844C65.0259 198.22 65.7381 197.467 66.3613 196.683C67.0142 195.882 67.6908 194.772 68.1359 193.603C68.6048 192.434 68.8659 191.247 68.9728 190.309C69.1508 188.855 68.8066 187.804 68.4505 186.789C68.0706 185.786 67.6611 184.819 67.4593 183.501C67.0201 180.771 67.0617 180.1 66.664 177.18C66.6284 176.907 66.48 176.391 66.3376 175.934C66.1892 175.477 66.0645 175.085 66.0645 175.079L60.5211 177.061C61.5894 179.958 62.4025 180.985 62.9545 182.89C63.2809 184.012 63.2275 185.193 63.459 186.297C63.637 187.24 63.9397 188.16 64.1475 189.074C64.3789 189.994 64.4976 190.914 64.3908 191.781C64.278 192.641 63.9516 193.365 63.548 193.864C63.1385 194.374 62.6934 194.624 62.2423 194.861C61.7497 195.116 61.2748 195.419 60.6398 195.704C60.0107 195.989 59.2509 196.238 58.2657 196.291C57.3695 196.333 56.3071 195.716 54.9242 195.561L54.2832 201.413L54.2891 201.408Z" fill="#EBFEB3"/>
<path d="M26.0544 202.862C26.7547 202.173 27.4135 201.425 28.102 200.707C28.4463 200.345 28.7964 199.995 29.1585 199.669C29.3425 199.497 29.5146 199.354 29.6867 199.218C29.8588 199.069 30.0428 198.945 30.2387 198.826C31.3664 198.096 32.8442 197.384 34.3755 197.413C35.9543 197.425 38.2868 198.179 39.824 198.612C42.1862 199.265 43.6997 198.351 46.1806 199.004C48.7624 199.686 49.3084 200.043 52.092 200.998C52.3472 201.087 52.8933 201.188 53.3681 201.271C53.8548 201.342 54.2762 201.402 54.2821 201.402L54.9231 195.55C51.9437 195.235 50.6023 195.455 48.5843 195.14C47.3914 194.944 46.2518 194.428 45.0351 194.238C42.934 193.912 40.7499 194.179 38.5836 193.953C37.5034 193.834 36.4706 193.65 35.3964 193.508C34.328 193.365 33.2241 193.259 32.0133 193.371C30.7076 193.496 29.6214 193.894 28.6065 194.434C28.0961 194.701 27.6035 195.027 27.099 195.36C26.6479 195.68 26.1731 196.019 25.6567 196.386C24.7546 197.027 23.3301 197.378 22.1016 198.488L26.0485 202.856L26.0544 202.862Z" fill="#EBFEB3"/>
<path d="M14.5298 228.573C14.1797 226.84 13.693 224.816 13.7108 222.78C13.7286 221.278 13.7167 219.605 14.3399 218.162C14.9631 216.667 16.5003 214.732 17.4381 213.468C18.8803 211.539 18.5717 209.812 20.1683 207.9C21.0051 206.933 21.5868 206.393 22.204 205.877C22.8272 205.366 23.492 204.868 24.5781 204.12C24.7799 203.983 25.1419 203.663 25.4565 203.384C25.7711 203.105 26.0441 202.867 26.05 202.861L22.1091 198.493C20.833 199.686 20.1148 200.66 19.5154 201.52C18.9219 202.381 18.4589 203.14 17.8001 204.007C17.0286 205.028 16.0433 205.882 15.3548 206.969C14.1678 208.838 13.6158 211.016 12.6484 212.963C11.675 214.904 10.488 216.536 9.70454 218.661C8.90329 220.976 9.16444 222.709 9.06948 225.166C9.04574 226.264 8.45815 227.647 8.7015 229.41L14.5239 228.567L14.5298 228.573Z" fill="#EBFEB3"/>
<path d="M37.2613 237.772C35.2077 238.116 33.1185 238.888 31.0531 239.238C29.5218 239.499 27.8837 239.867 26.3465 239.57C25.563 239.416 24.6075 239.084 23.7172 238.668C23.4976 238.567 23.278 238.46 23.0584 238.359C22.8506 238.247 22.6429 238.134 22.4411 238.027C22.0375 237.825 21.6814 237.594 21.3609 237.422C20.3994 236.852 19.5744 236.686 18.7494 236.425C17.9363 236.169 17.0757 235.849 16.3813 234.988C15.6809 234.098 15.402 233.451 15.1883 232.786C14.9747 232.122 14.8381 231.415 14.761 230.264C14.761 230.05 14.666 229.641 14.6185 229.267C14.5889 229.083 14.5651 228.905 14.5473 228.78C14.5355 228.65 14.5236 228.566 14.5236 228.561L8.70117 229.403C8.992 231.261 9.55584 232.531 10.1316 233.552C10.7251 234.579 11.3127 235.392 12.0427 236.389C12.9092 237.546 13.7283 238.799 14.9153 239.671C15.9302 240.407 17.0698 240.894 18.1975 241.268C19.337 241.612 20.4528 241.909 21.5449 242.229C23.7053 242.894 25.6046 243.689 27.8303 243.998C30.234 244.307 31.8009 243.666 34.1097 243.452C34.632 243.41 35.2136 243.493 35.8665 243.565C36.5194 243.648 37.2375 243.713 38.0091 243.606L37.2672 237.766L37.2613 237.772Z" fill="#EBFEB3"/>
<path d="M67.7804 231.921C66.9317 232.36 66.0117 232.829 65.1096 233.357C64.1659 233.826 63.2281 234.366 62.2429 234.752C61.5129 235.055 60.7769 235.411 60.0053 235.684C59.2397 235.969 58.4622 236.218 57.6609 236.295C56.0169 236.479 53.4766 236.254 51.8207 236.26C49.2686 236.271 48.0756 237.613 45.5116 237.755C42.8467 237.898 42.2057 237.755 39.345 237.625C39.0838 237.613 38.5497 237.66 38.0986 237.702C37.6534 237.743 37.2736 237.785 37.2617 237.785L38.0036 243.625C38.8345 243.512 39.4993 243.376 40.0809 243.245C40.6626 243.109 41.173 242.972 41.6419 242.842C42.5856 242.575 43.3928 242.337 44.4077 242.177C45.6066 241.993 46.8411 242.129 48.0459 241.945C50.1114 241.631 52.0819 240.747 54.1592 240.479C56.2365 240.212 58.1536 240.414 60.2783 240.147C60.8481 240.076 61.3645 239.963 61.8512 239.827C62.3379 239.684 62.7949 239.506 63.2519 239.328C64.16 238.984 65.0562 238.556 66.1779 238.194C66.6765 238.046 67.2759 237.963 67.9525 237.88C68.2908 237.832 68.641 237.797 69.009 237.708C69.377 237.613 69.7568 237.488 70.1367 237.328L67.7864 231.933L67.7804 231.921Z" fill="#EBFEB3"/>
<path d="M74.6464 206.969C74.9966 209.076 75.8334 211.195 76.3023 213.272C76.6643 214.815 77.157 216.435 77.0264 218.014C76.8899 219.64 76.0886 221.967 75.5426 223.338C75.1153 224.394 75.0974 225.243 74.9669 226.098C74.9372 226.311 74.9313 226.543 74.8778 226.751C74.8244 226.958 74.7591 227.172 74.6879 227.386C74.6108 227.599 74.5336 227.831 74.4149 228.045C74.2784 228.246 74.1241 228.454 73.946 228.662C73.6018 229.113 73.2101 229.374 72.9014 229.635C72.7412 229.754 72.6106 229.884 72.4444 229.973C72.2782 230.062 72.1239 230.146 71.9637 230.235C71.3464 230.585 70.6401 230.846 69.4828 231.208C69.2632 231.267 68.8477 231.451 68.4916 231.623C68.1117 231.772 67.7794 231.902 67.7734 231.908L70.1238 237.303C70.9369 236.971 71.6016 236.544 72.1833 236.182C72.7649 235.837 73.2338 235.41 73.673 235.048C73.8867 234.864 74.1003 234.692 74.2962 234.508C74.4861 234.312 74.676 234.116 74.8719 233.92C75.2518 233.529 75.6613 233.173 76.0589 232.698C76.3023 232.431 76.5575 232.175 76.8187 231.926C77.0857 231.677 77.2994 231.386 77.5487 231.113C77.7861 230.834 78.0354 230.561 78.255 230.264C78.4508 229.962 78.6348 229.647 78.801 229.321C78.9375 229.042 79.0859 228.763 79.1927 228.472C79.2877 228.181 79.3767 227.89 79.4539 227.593L79.6853 226.715C79.7447 226.424 79.7744 226.127 79.8219 225.837C80.0296 224.667 80.0533 223.54 80.2729 222.424C80.3916 221.332 80.6884 220.287 80.8486 219.266C80.9436 218.75 81.0326 218.234 81.1276 217.711C81.1988 217.189 81.2404 216.667 81.27 216.121C81.3472 214.94 81.1632 213.99 80.9673 213.04C80.7834 212.085 80.5163 211.159 80.3738 210.025C80.2551 209.004 80.6647 207.722 80.4807 206.209L74.6404 206.957L74.6464 206.969Z" fill="#EBFEB3"/>
<path d="M70.0365 174.521C69.8406 175.928 70.0127 177.287 70.3154 178.528L70.5647 179.442L70.8615 180.32C71.0573 180.908 71.2591 181.377 71.4313 181.905C71.9595 183.442 72.7014 184.997 72.8676 186.617C73.0397 188.279 72.8676 190.837 72.9032 192.505C72.9803 195.069 74.3454 196.221 74.5472 198.779C74.7253 201.426 74.6184 202.073 74.4819 204.892C74.4701 205.153 74.5116 205.669 74.5591 206.126C74.6066 206.577 74.6422 206.975 74.6422 206.981L80.4765 206.233C80.0017 203.034 79.331 201.841 78.9749 199.799C78.7731 198.595 78.8799 197.354 78.6603 196.149C78.2983 194.084 77.3546 192.149 77.0578 190.084C76.7551 188.03 76.945 186.125 76.7314 184.059C76.6127 182.944 76.3396 182.053 76.037 181.163C75.8886 180.718 75.7343 180.273 75.574 179.804C75.4553 179.394 75.301 178.943 75.2476 178.462C75.117 177.59 75.6334 176.534 75.8174 175.53L70.0187 174.527L70.0365 174.521Z" fill="#EBFEB3"/>
<path d="M101.996 166.556C99.806 166.283 97.4616 166.545 95.2537 166.598C93.6038 166.64 91.8766 166.895 90.2444 166.657C88.5707 166.396 86.0245 165.69 84.2321 165.536C82.8611 165.417 81.7987 165.708 80.766 166.105C79.7273 166.509 78.7302 166.942 77.3176 167.364C75.8457 167.827 74.9139 168.29 73.9761 168.853C73.7446 169.014 73.5132 169.168 73.2758 169.334C73.0384 169.512 72.8069 169.72 72.5457 169.939C72.2905 170.165 72.0472 170.444 71.7682 170.741C71.519 171.055 71.2341 171.411 70.9788 171.827C70.8839 171.981 70.7652 172.225 70.6346 172.503C70.51 172.782 70.415 173.103 70.3082 173.4C70.2013 173.702 70.1598 173.975 70.1064 174.183C70.0648 174.391 70.0352 174.521 70.0352 174.527L75.8338 175.53C76.0178 174.45 76.1959 173.839 76.4511 173.281C76.7063 172.735 77.0446 172.26 77.6797 171.862C78.4453 171.388 79.4602 171.346 80.4395 171.097C81.2883 170.889 82.1726 170.604 83.1044 170.373C84.0422 170.153 85.0155 169.981 86.0008 170.017C87.9831 170.082 89.7222 170.723 91.6926 171.067C93.8234 171.447 95.3309 171.043 97.5269 171.281C98.5122 171.388 99.6042 172.135 101.064 172.367L102.002 166.556H101.996Z" fill="#EBFEB3"/>
<path d="M133.477 172.041C131.334 171.797 129.037 172.029 126.865 171.987C125.244 171.958 123.529 172.106 121.962 171.697C120.348 171.281 118.015 170.213 116.437 169.673C114.003 168.842 112.436 169.732 109.949 169.055C107.362 168.355 106.798 168.017 104.097 167.026C103.848 166.931 103.326 166.818 102.869 166.723C102.637 166.675 102.424 166.634 102.263 166.604C102.103 166.574 102.002 166.557 101.996 166.557L101.059 172.367C104.169 172.83 105.498 172.575 107.522 172.907C108.715 173.103 109.837 173.625 111.03 173.827C113.077 174.177 115.214 173.982 117.25 174.421C119.28 174.86 120.995 175.709 123.013 176.225C125.191 176.783 126.758 176.451 128.99 176.747C129.987 176.878 131.102 177.638 132.592 177.863L133.471 172.047L133.477 172.041Z" fill="#EBFEB3"/>
<path d="M164.66 174.035C162.57 174.284 160.422 174.973 158.315 175.299C156.748 175.56 155.098 175.923 153.495 175.733C151.851 175.525 149.436 174.724 147.833 174.344C145.37 173.744 143.898 174.759 141.394 174.243C138.8 173.691 138.224 173.382 135.542 172.474C135.292 172.391 134.782 172.284 134.331 172.201C133.88 172.118 133.488 172.047 133.476 172.047L132.598 177.863C135.779 178.291 137.12 177.982 139.18 178.219C140.396 178.356 141.566 178.813 142.788 178.932C144.889 179.139 147.026 178.766 149.115 178.985C151.204 179.205 153.032 179.846 155.139 180.083C157.448 180.332 158.991 179.733 161.276 179.591C162.303 179.525 163.579 180.036 165.117 179.911L164.654 174.041L164.66 174.035Z" fill="#EBFEB3"/>
<path d="M194.674 166.717C192.775 167.619 190.953 168.949 189.06 169.946C187.653 170.688 186.211 171.607 184.638 171.928C183.024 172.278 180.489 172.272 178.863 172.385C176.364 172.557 175.272 173.964 172.738 174.166C170.121 174.338 169.486 174.195 166.714 173.97C166.459 173.946 165.948 173.97 165.497 173.987C165.046 174.011 164.66 174.029 164.654 174.029L165.117 179.899C168.388 179.578 169.616 178.908 171.699 178.593C172.922 178.391 174.186 178.498 175.415 178.267C177.516 177.857 179.457 176.842 181.528 176.397C183.593 175.952 185.546 175.964 187.629 175.489C189.879 174.967 191.131 173.916 193.25 173.044C194.194 172.646 195.565 172.723 196.995 172.124L194.68 166.711L194.674 166.717Z" fill="#EBFEB3"/>
<path d="M218.343 148.703C217.382 150.407 216.575 152.413 215.417 154.152C214.557 155.434 213.69 156.876 212.414 157.82C211.102 158.793 208.805 159.76 207.357 160.443C205.138 161.493 204.615 163.179 202.318 164.218C199.932 165.25 199.285 165.328 196.603 165.998C196.359 166.064 195.879 166.236 195.457 166.402C195.042 166.568 194.68 166.716 194.674 166.722L196.989 172.135C199.992 170.776 200.947 169.749 202.817 168.746C203.915 168.153 205.149 167.82 206.236 167.167C208.093 166.046 209.565 164.384 211.334 163.167C213.097 161.945 214.925 161.143 216.646 159.76C218.498 158.241 219.162 156.68 220.593 154.781C221.216 153.92 222.48 153.22 223.341 151.813L218.343 148.709V148.703Z" fill="#EBFEB3"/>
<path d="M216.926 121.728C218.083 123.396 219.609 124.957 220.707 126.708C221.537 127.995 222.446 129.384 222.713 130.916C222.766 131.307 222.819 131.758 222.825 132.227C222.825 132.702 222.819 133.195 222.784 133.687C222.73 134.18 222.695 134.667 222.63 135.118C222.552 135.575 222.499 135.996 222.452 136.37C222.268 137.515 222.422 138.388 222.529 139.302C222.576 139.759 222.647 140.222 222.612 140.715C222.6 140.958 222.582 141.213 222.541 141.48C222.493 141.741 222.41 142.008 222.315 142.293C221.9 143.457 221.526 144.127 221.116 144.792C220.701 145.451 220.214 146.098 219.407 147.101C219.258 147.285 218.991 147.682 218.772 148.039C218.665 148.217 218.558 148.383 218.475 148.502C218.398 148.62 218.344 148.697 218.344 148.703L223.342 151.807C223.805 151.071 224.107 150.383 224.392 149.789C224.636 149.172 224.849 148.638 225.004 148.122C225.324 147.095 225.538 146.205 225.882 145.13C226.274 143.866 226.909 142.661 227.122 141.32C227.496 139.017 227.01 136.708 226.867 134.483C226.725 132.251 226.844 130.18 226.315 127.96C225.722 125.568 224.523 124.322 223.389 122.244C222.879 121.318 222.748 119.912 221.888 118.564L216.92 121.722L216.926 121.728Z" fill="#EBFEB3"/>
<path d="M196.81 106.599C197.445 106.119 198.039 105.679 198.733 105.347C199.416 105.009 200.217 104.748 201.096 104.795C202.378 104.795 203.98 105.08 205.173 106.018C206.419 106.967 207.79 108.967 208.681 110.273C210.064 112.244 211.814 112.487 213.197 114.6C213.916 115.68 214.283 116.41 214.651 117.158C215.019 117.9 215.34 118.701 215.91 119.977C216.011 120.209 216.296 120.654 216.503 121.028C216.729 121.402 216.925 121.722 216.931 121.728L221.898 118.571C220.967 117.134 220.195 116.333 219.524 115.573C218.854 114.831 218.224 114.226 217.595 113.383C217.227 112.885 216.883 112.356 216.563 111.822C216.23 111.288 215.916 110.742 215.494 110.267C214.1 108.6 212.188 107.412 210.639 105.863C210.236 105.484 209.868 105.092 209.506 104.694C209.12 104.314 208.746 103.923 208.372 103.531C207.992 103.139 207.565 102.777 207.138 102.397C206.71 102.023 206.2 101.697 205.689 101.359C205.108 101.02 204.52 100.777 203.95 100.581C203.648 100.498 203.357 100.433 203.066 100.367C202.775 100.302 202.484 100.249 202.176 100.237C201.873 100.213 201.576 100.195 201.268 100.172C200.965 100.154 200.639 100.183 200.324 100.195C199.689 100.195 199.012 100.32 198.288 100.403C197.968 100.474 197.623 100.51 197.255 100.545C196.882 100.563 196.514 100.652 196.098 100.718C195.683 100.777 195.279 100.902 194.858 101.05C194.418 101.186 194.021 101.4 193.617 101.661L196.816 106.599H196.81Z" fill="#EBFEB3"/>
<path d="M182.544 132.892C183.321 130.832 183.624 128.524 184.146 126.417C184.532 124.844 184.769 123.14 185.523 121.704C186.289 120.226 187.874 118.238 188.799 116.909C189.506 115.876 189.761 114.95 190.028 114.018C190.283 113.08 190.556 112.137 191.304 111.157C191.69 110.653 192.028 110.273 192.331 109.935C192.645 109.614 192.924 109.347 193.215 109.086C193.518 108.843 193.821 108.599 194.177 108.332C194.551 108.101 194.948 107.78 195.465 107.513C195.56 107.46 195.69 107.365 195.827 107.258C195.969 107.163 196.129 107.056 196.278 106.955C196.426 106.854 196.557 106.748 196.658 106.7C196.759 106.641 196.824 106.605 196.824 106.605L193.625 101.667C193.186 101.934 192.847 102.231 192.521 102.504C192.188 102.771 191.921 103.044 191.684 103.311C191.179 103.827 190.829 104.314 190.497 104.765C189.856 105.673 189.405 106.474 188.758 107.389C188.034 108.469 187.078 109.383 186.461 110.504C185.387 112.427 184.965 114.588 184.016 116.475C183.072 118.363 181.849 119.858 180.888 121.716C179.855 123.722 179.843 125.325 179.048 127.414C178.692 128.352 177.707 129.248 177.131 130.607L182.556 132.892H182.544Z" fill="#EBFEB3"/>
<path d="M160.838 158.448C162.209 158.294 163.527 157.73 164.69 157.054C165.254 156.686 165.817 156.33 166.298 155.902C166.809 155.505 167.26 155.065 167.705 154.65C169.023 153.374 169.954 151.813 171.141 150.596C172.376 149.362 174.37 147.563 175.468 146.192C177.154 144.079 176.786 142.275 178.133 140.037C179.51 137.693 179.967 137.212 181.587 134.815C181.736 134.595 181.979 134.114 182.175 133.693C182.371 133.265 182.537 132.897 182.543 132.892L177.118 130.606C175.931 133.521 175.872 134.85 175.053 136.702C174.566 137.788 173.777 138.702 173.254 139.759C172.364 141.551 171.895 143.581 170.756 145.207C169.616 146.821 168.156 147.872 166.797 149.053C166.423 149.362 166.108 149.664 165.823 149.967C165.527 150.24 165.277 150.561 165.004 150.834C164.464 151.386 163.906 151.967 163.093 152.359C162.737 152.567 162.262 152.561 161.782 152.584C161.283 152.555 160.779 152.561 160.227 152.59L160.838 158.442V158.448Z" fill="#EBFEB3"/>
<path d="M129.422 146.941C131.398 147.956 133.695 148.519 135.79 149.208C137.357 149.724 139.061 150.068 140.497 150.864C141.969 151.689 144.034 153.279 145.518 154.128C147.809 155.44 149.536 154.84 151.946 155.861C153.21 156.389 153.988 156.734 154.783 157.108C154.985 157.203 155.181 157.298 155.394 157.398C155.638 157.493 155.887 157.594 156.16 157.707C156.433 157.814 156.724 157.945 157.062 158.045C157.406 158.14 157.78 158.241 158.196 158.354C158.498 158.455 159.163 158.467 159.739 158.491C160.03 158.508 160.303 158.491 160.498 158.467C160.7 158.449 160.825 158.437 160.831 158.437L160.22 152.585C159.056 152.722 158.184 152.751 157.388 152.722C156.635 152.716 155.75 152.591 154.813 152.33C153.679 152.009 152.67 151.362 151.56 150.983C149.655 150.342 147.56 150.158 145.702 149.309C143.85 148.46 142.426 147.237 140.675 146.222C138.788 145.119 137.227 145 135.244 144.026C134.36 143.593 133.582 142.525 132.312 141.801L129.428 146.929L129.422 146.941Z" fill="#EBFEB3"/>
<path d="M102.814 128.232C104.542 129.639 106.684 130.642 108.595 131.74C110.02 132.571 111.622 133.242 112.857 134.322C114.127 135.432 115.801 137.414 117.047 138.565C118.964 140.346 120.774 140.144 122.84 141.723C124.994 143.349 125.41 143.872 127.612 145.765C127.813 145.937 128.265 146.234 128.662 146.489C129.066 146.732 129.422 146.94 129.428 146.946L132.312 141.818C129.582 140.316 128.259 140.091 126.52 139.052C125.493 138.435 124.662 137.545 123.653 136.904C121.926 135.812 119.914 135.147 118.276 133.912C116.637 132.684 115.498 131.176 113.984 129.829C112.358 128.357 110.851 127.924 109.106 126.576C108.328 125.965 107.782 124.772 106.684 123.805L102.82 128.244L102.814 128.232Z" fill="#EBFEB3"/>
<path d="M81.3184 103.489C82.5589 105.394 84.3513 106.997 85.9004 108.593C87.0578 109.792 88.4347 110.861 89.3725 112.214C90.328 113.608 91.4913 115.947 92.4588 117.36C93.9366 119.544 95.7528 119.757 97.4325 121.74C99.2011 123.793 99.4979 124.393 101.267 126.702C101.433 126.915 101.813 127.295 102.151 127.627C102.501 127.948 102.804 128.227 102.81 128.233L106.674 123.793C104.305 121.775 103.065 121.283 101.587 119.906C100.715 119.093 100.097 118.042 99.2605 117.205C97.8182 115.781 96.0199 114.683 94.7201 113.11C93.4203 111.543 92.7021 109.816 91.5922 108.142C90.4111 106.332 89.0995 105.519 87.8175 103.756C87.5385 103.358 87.3604 102.836 87.1527 102.266C86.9509 101.691 86.7373 101.062 86.3574 100.45L81.3125 103.483L81.3184 103.489Z" fill="#EBFEB3"/>
<path d="M73.6849 71.0352C73.3822 73.3914 73.8214 75.8545 74.2012 78.104C74.4683 79.8014 75.0915 81.4692 75.1983 83.1429C75.323 84.8582 75.2755 87.529 75.5426 89.274C75.958 91.9685 77.5546 92.9241 78.3855 95.4228C78.8366 96.7226 79.0859 97.5476 79.347 98.3845C79.4717 98.8118 79.5963 99.2391 79.7447 99.7436C79.9049 100.242 80.0889 100.812 80.3204 101.518C80.4094 101.779 80.6587 102.266 80.8842 102.693C80.997 102.907 81.1098 103.103 81.1869 103.251C81.27 103.394 81.3235 103.489 81.3235 103.495L86.3684 100.462C84.7777 97.8681 83.8222 96.9956 82.9319 95.227C82.4155 94.1824 82.2434 93.0013 81.8101 91.9389C81.0623 90.1227 79.8931 88.4312 79.4717 86.4785C79.0562 84.5377 79.2639 82.7393 79.2105 80.8282C79.1868 78.7687 78.5636 77.4273 78.5933 75.3263C78.6111 74.8574 78.7595 74.3529 78.9731 73.801C79.1749 73.249 79.3767 72.6555 79.5014 71.9789L73.6908 71.0352H73.6849Z" fill="#EBFEB3"/>
<path d="M98.2097 48.3926C95.99 49.0929 93.8889 50.3631 91.96 51.5798C91.5979 51.7994 91.2359 52.0368 90.8738 52.2682C90.5237 52.5234 90.1735 52.7786 89.8174 53.0339C89.4672 53.2831 89.1111 53.5205 88.7431 53.7401C88.3811 53.9597 88.0249 54.1972 87.6451 54.3871C87.2593 54.583 86.8082 54.7788 86.3216 54.9806C85.8467 55.2062 85.3422 55.4436 84.8437 55.681C83.805 56.1202 82.8435 56.7256 82.066 57.2004C81.4666 57.5683 81.057 58.0491 80.6831 58.4824C80.3151 58.9275 80.0006 59.3726 79.7513 59.8712C79.4902 60.3579 79.2409 60.8386 78.9323 61.3253C78.6355 61.8239 78.3447 62.364 77.9055 62.91C76.2377 65.29 75.6916 65.8005 74.3028 68.7443C74.1841 69.0173 74.0001 69.6049 73.8636 70.1213C73.7686 70.6139 73.6915 71.0412 73.6855 71.0531L79.4961 71.9968C79.5554 71.6466 79.5792 71.2846 79.6326 71.0056C79.686 70.7207 79.7335 70.4536 79.7691 70.2044C79.8403 69.6999 79.8641 69.2428 79.9768 68.8392C80.0659 68.4238 80.1549 68.038 80.238 67.6463C80.327 67.2486 80.5229 66.8866 80.7128 66.4771C80.8315 66.2396 80.968 66.0082 81.1105 65.7886C81.2588 65.569 81.4547 65.3731 81.6328 65.1713C81.8108 64.9695 81.9889 64.7677 82.1551 64.5659C82.3212 64.3582 82.4756 64.1445 82.6595 63.9427C82.9504 63.5866 83.2115 63.2068 83.4549 62.8091C83.6923 62.4055 84.0068 62.0554 84.2798 61.6636C84.814 60.8743 85.4966 60.1858 86.2444 59.5863C86.6124 59.2836 87.0456 59.0759 87.4492 58.8504C87.8647 58.6426 88.2564 58.423 88.6897 58.2568C89.117 58.0907 89.5444 57.9245 89.9776 57.7583C90.1913 57.6692 90.399 57.5802 90.6186 57.4912C90.8382 57.414 91.0638 57.3309 91.2834 57.2419C91.7641 57.0461 92.1796 56.8324 92.5654 56.595C92.9512 56.3635 93.3369 56.1617 93.7049 55.9243C94.0788 55.6929 94.4468 55.4495 94.8445 55.2121C95.254 55.0044 95.6932 54.7907 96.1858 54.6008C97.0642 54.2268 98.3403 54.4939 99.6757 54.0963L98.2097 48.3985V48.3926Z" fill="#EBFEB3"/>
<path d="M131.44 50.4822C130.336 50.132 129.185 49.865 128.021 49.6988C127.44 49.6335 126.852 49.5682 126.27 49.5088C125.695 49.4436 125.125 49.3723 124.561 49.3367C123.718 49.2655 122.858 49.2358 122.009 49.1765C121.154 49.1587 120.312 49.0934 119.498 48.8916C118.667 48.6839 117.623 48.4108 116.578 48.0785C115.528 47.758 114.459 47.5206 113.605 47.3366C112.281 47.0873 111.243 47.3247 110.228 47.5265C109.207 47.7817 108.21 48.0666 106.874 48.0488C104.108 48.1082 103.444 47.9538 100.435 48.0132C100.156 48.0251 99.6037 48.12 99.1229 48.2091C98.8796 48.2566 98.6541 48.2981 98.4879 48.3337C98.3217 48.3693 98.2148 48.3931 98.2148 48.3931L99.6808 54.0908C101.129 53.7525 102.114 53.343 103.005 53.0937C103.889 52.8266 104.649 52.5299 105.628 52.429C106.204 52.3578 106.779 52.3696 107.361 52.3815C107.937 52.4112 108.518 52.4646 109.088 52.423C110.073 52.334 111.053 52.2034 112.044 52.061C113.035 51.8948 114.032 51.8651 115.029 51.9423C117.017 52.15 118.685 52.8978 120.573 53.4083C122.597 53.978 124.092 53.7288 126.158 54.2926C126.389 54.352 126.621 54.4469 126.858 54.5775C127.09 54.714 127.327 54.8742 127.576 55.0404C128.075 55.3728 128.621 55.723 129.28 55.9604L131.452 50.4941L131.44 50.4822Z" fill="#EBFEB3"/>
<path d="M155.952 73.4447C155.02 71.0766 153.264 69.1833 151.691 67.5214C151.097 66.8983 150.426 66.3463 149.815 65.7468C149.501 65.4501 149.216 65.1414 148.919 64.8387C148.616 64.542 148.331 64.2333 148.076 63.901C147.542 63.2244 146.99 62.2688 146.325 61.3963C145.678 60.512 145.067 59.5564 144.45 58.9332C143.524 57.948 142.628 57.3901 141.642 56.9924C141.156 56.7788 140.675 56.577 140.182 56.3158C139.933 56.1912 139.69 56.0369 139.435 55.8826C139.173 55.7342 138.906 55.568 138.639 55.3662C137.517 54.5472 136.847 53.9892 136.129 53.4729C135.773 53.1999 135.416 52.9209 135.001 52.5944C134.793 52.4283 134.562 52.2562 134.318 52.0603C134.057 51.8882 133.778 51.6982 133.464 51.4846C133.232 51.3303 132.734 51.0751 132.289 50.8614C132.063 50.7546 131.855 50.6596 131.701 50.5884C131.547 50.5171 131.44 50.4756 131.44 50.4756L129.268 55.9419C129.956 56.2268 130.55 56.4464 131.09 56.6245C131.63 56.7966 132.105 56.9331 132.538 57.0933C133.404 57.4079 134.182 57.6275 135.031 58.1023C135.523 58.3931 135.974 58.7552 136.425 59.1113L137.102 59.6395C137.322 59.8294 137.541 60.0075 137.773 60.1677C138.568 60.7375 139.482 61.1293 140.307 61.6694C141.138 62.1917 142.028 62.6783 142.699 63.4084C144.117 64.7913 144.895 66.4412 146.005 68.0081C146.569 68.8865 147.192 69.5038 147.815 70.1151C148.106 70.4297 148.403 70.7442 148.711 71.0766C148.996 71.4209 149.275 71.7948 149.554 72.228C149.774 72.6198 149.898 73.1242 150.005 73.6703C150.094 74.2223 150.213 74.8039 150.409 75.4033L155.958 73.4388L155.952 73.4447Z" fill="#EBFEB3"/>
<path d="M141.335 103.067C142.955 101.607 144.327 99.6719 145.739 97.9507C146.796 96.6569 147.715 95.1612 148.932 94.0157C149.561 93.4281 150.416 92.7396 151.253 91.9977C152.09 91.2558 152.915 90.4664 153.496 89.7424C154.404 88.6503 154.731 87.5404 154.95 86.4424C155.188 85.3444 155.289 84.2345 155.686 82.8516C156.09 81.4034 156.209 80.4657 156.369 79.4982C156.476 78.5367 156.636 77.5099 156.529 75.8481C156.529 75.5335 156.387 74.94 156.256 74.4118C156.191 74.1447 156.126 73.9013 156.06 73.7352C156.001 73.563 155.959 73.4503 155.959 73.4443L150.41 75.4089C150.861 76.6671 151.188 77.5277 151.401 78.3112C151.639 79.0887 151.769 79.7831 151.74 80.6437C151.686 81.6705 151.164 82.5845 150.873 83.5401C150.38 85.1782 149.989 87.0834 148.819 88.6265C147.632 90.1459 146.101 91.0896 144.617 92.3538C142.997 93.713 142.344 95.1078 140.724 96.5975C140 97.2622 138.712 97.5946 137.572 98.5501L141.353 103.061L141.335 103.067Z" fill="#EBFEB3"/>
<path d="M140.302 121.11C138.433 120.327 136.296 119.781 134.509 118.879C133.845 118.54 133.174 118.196 132.557 117.775C131.969 117.347 131.405 116.843 131.12 116.232C130.8 115.614 130.669 114.778 130.83 114.089C130.972 113.389 131.346 112.801 131.678 112.308C132.183 111.561 132.474 110.801 132.83 109.982C133.192 109.169 133.631 108.314 134.575 107.537C136.569 105.934 137.192 105.726 139.632 104.332C139.857 104.207 140.278 103.892 140.646 103.607C141.008 103.317 141.323 103.067 141.329 103.067L137.548 98.5566C135.139 100.64 134.45 101.851 132.895 103.311C131.981 104.177 130.847 104.848 129.963 105.869C129.209 106.747 128.586 107.78 128.07 108.925C127.559 110.071 127.144 111.335 126.912 112.73C126.675 114.119 126.734 115.579 127.114 116.89C127.488 118.208 128.117 119.365 128.924 120.362C129.803 121.449 130.717 122.036 131.625 122.57C132.545 123.075 133.471 123.508 134.515 124.084C134.984 124.339 135.418 124.766 135.928 125.182C136.183 125.396 136.45 125.621 136.741 125.841C137.044 126.048 137.37 126.238 137.732 126.41L140.302 121.116V121.11Z" fill="#EBFEB3"/>
<path d="M165.96 117.508C164.708 119.009 163.604 120.79 162.132 122.161C161.568 122.63 161.04 123.223 160.393 123.633C160.079 123.853 159.758 124.072 159.426 124.262C159.081 124.428 158.725 124.553 158.357 124.66C157.621 124.915 156.618 124.909 155.669 124.956C155.188 124.939 154.701 124.879 154.256 124.85C154.037 124.832 153.817 124.82 153.615 124.808C153.407 124.778 153.212 124.749 153.022 124.719C152.452 124.636 151.959 124.66 151.49 124.719C151.016 124.731 150.57 124.802 150.119 124.873C149.888 124.909 149.662 124.945 149.425 124.98C149.187 125.016 148.95 124.998 148.707 124.992C148.214 124.974 147.686 124.909 147.11 124.755C145.929 124.339 145.223 123.995 144.522 123.651C143.852 123.223 143.163 122.784 142.036 122.066C141.834 121.918 141.406 121.68 141.021 121.478C140.635 121.283 140.303 121.116 140.291 121.11L137.721 126.405C138.492 126.755 139.163 127.028 139.762 127.247C140.374 127.449 140.932 127.568 141.442 127.699C141.952 127.823 142.421 127.936 142.902 128.055C143.383 128.167 143.881 128.251 144.416 128.399C145.051 128.553 145.644 128.838 146.279 129.028C146.914 129.218 147.555 129.408 148.214 129.521C148.772 129.639 149.366 129.604 149.941 129.604C150.523 129.58 151.093 129.586 151.668 129.509C152.82 129.325 153.947 129.224 155.087 129.052C157.354 128.844 159.497 128.719 161.729 127.888C162.316 127.645 162.85 127.402 163.319 127.099C163.776 126.785 164.192 126.458 164.601 126.126C165.023 125.811 165.373 125.419 165.776 125.051C166.168 124.678 166.607 124.315 167.04 123.888C167.438 123.514 167.996 123.229 168.578 122.861C169.142 122.482 169.788 122.06 170.335 121.449L165.96 117.508Z" fill="#EBFEB3"/>
<path d="M181.378 90.0166C179.996 91.6844 178.915 93.6964 177.687 95.6491C177.574 95.8331 177.461 96.023 177.343 96.2308L177.259 96.3791L176.921 97.127V97.1863V97.2516V97.5424C176.897 97.9342 176.874 98.3377 176.838 98.7354C176.761 99.5366 176.612 100.332 176.328 101.074C175.74 102.605 174.327 104.676 173.491 106.042C172.209 108.125 172.689 109.822 171.289 111.888C170.938 112.422 170.606 112.826 170.315 113.182C170.024 113.532 169.769 113.84 169.478 114.119C169.188 114.398 168.897 114.683 168.558 115.01C168.214 115.33 167.793 115.668 167.306 116.108C167.134 116.274 166.796 116.618 166.505 116.927C166.22 117.235 165.977 117.508 165.971 117.514L170.345 121.455C172.606 118.796 172.909 117.354 174.048 115.514C174.381 114.962 174.773 114.458 175.141 113.935C175.514 113.413 175.894 112.897 176.167 112.321C177.153 110.356 177.485 108.155 178.304 106.172C179.117 104.19 180.215 102.552 180.939 100.492C181.135 99.9343 181.266 99.412 181.355 98.8956C181.402 98.6345 181.432 98.3912 181.467 98.1004V98.0706V98.0588V98.0469C181.236 98.5633 181.99 96.8896 180.945 99.2043L180.963 99.1687L180.999 99.1034L181.07 98.9787C181.111 98.8957 181.165 98.8066 181.218 98.7176C181.646 97.9935 182.138 97.1982 182.85 96.3554C183.497 95.5957 184.738 95.0912 185.747 93.9695L181.373 90.0285L181.378 90.0166Z" fill="#EBFEB3"/>
<path d="M198.193 64.5303C197.653 66.4473 197.386 68.6255 196.739 70.6316C196.264 72.1214 195.843 73.7654 194.905 75.0593C193.95 76.3947 192.068 78.0684 190.929 79.2258C189.172 81.0004 189.273 82.7809 187.504 84.609C185.658 86.4845 185.088 86.799 182.869 88.5321C182.667 88.6924 182.293 89.0603 181.978 89.3868C181.664 89.7191 181.391 90.01 181.385 90.0159L185.759 93.9509C187.872 91.5234 188.353 90.2236 189.676 88.6093C190.454 87.6537 191.469 86.9 192.228 85.9147C193.534 84.2232 194.329 82.1815 195.588 80.4722C196.84 78.7569 198.306 77.4452 199.529 75.6469C200.834 73.6882 201.024 72.0264 201.897 69.8482C202.277 68.8689 203.292 67.8836 203.802 66.3405L198.199 64.5362L198.193 64.5303Z" fill="#EBFEB3"/>
<path d="M189.213 40.3323C190.934 41.371 192.928 42.1722 194.584 43.3652C195.801 44.2436 197.166 45.1814 197.908 46.5286C198.098 46.8729 198.288 47.2705 198.43 47.7097C198.507 47.9293 198.585 48.1489 198.656 48.3804C198.715 48.6119 198.774 48.8493 198.834 49.0808C199.065 50.0126 199.16 50.9622 199.273 51.6804C199.392 52.8021 199.778 53.5796 200.092 54.4284C200.424 55.2652 200.721 56.1674 200.591 57.3485C200.454 58.5711 200.235 59.3071 199.985 60.049C199.724 60.7849 199.41 61.5268 198.846 62.702C198.733 62.9157 198.602 63.3727 198.448 63.7763C198.312 64.1799 198.199 64.53 198.193 64.536L203.796 66.3403C204.3 64.6903 204.437 63.4677 204.532 62.4053C204.603 61.3369 204.621 60.4229 204.704 59.3011C204.822 57.9835 205.131 56.6481 205.036 55.283C204.846 52.9208 203.784 50.7604 202.977 48.6297C202.175 46.493 201.576 44.4454 200.27 42.4986C199.914 41.9823 199.534 41.555 199.16 41.1573C198.763 40.7834 198.365 40.451 197.967 40.1305C197.552 39.8278 197.136 39.5311 196.703 39.2165C196.27 38.9019 195.813 38.5992 195.344 38.2135C194.923 37.8751 194.531 37.4241 194.092 36.9077C193.646 36.3973 193.124 35.8809 192.459 35.418L189.219 40.3323H189.213Z" fill="#EBFEB3"/>
<path d="M162.143 36.214C163.093 35.6917 163.918 35.0982 164.755 34.5462C165.592 33.9824 166.446 33.4897 167.354 33.1217C168.69 32.5757 170.221 32.0178 171.74 32.2077C173.313 32.3799 175.497 33.4007 176.892 34.0832C177.438 34.3028 177.937 34.4987 178.423 34.5878C178.91 34.6768 179.379 34.7361 179.854 34.8074C180.329 34.8726 180.809 34.9201 181.308 35.0507C181.806 35.1872 182.323 35.3712 182.863 35.668C183.985 36.309 184.655 36.7482 185.296 37.2526C185.611 37.5079 185.931 37.769 186.311 38.0717C186.667 38.3863 187.083 38.7424 187.587 39.1935C187.777 39.3478 188.175 39.6445 188.531 39.8879C188.893 40.1253 189.202 40.3389 189.208 40.3389L192.448 35.4246C189.552 33.6203 188.116 33.4838 186.187 32.5579C185.053 32.0178 184.014 31.2462 182.833 30.7596C180.762 29.9761 178.506 29.8337 176.358 29.2995C174.215 28.7713 172.245 27.9997 169.841 27.9463C169.194 27.9463 168.607 27.976 168.049 28.1006C167.491 28.1956 166.974 28.3558 166.464 28.5339C165.443 28.884 164.476 29.341 163.33 29.8158C162.315 30.2254 160.843 30.2788 159.496 30.9673L162.137 36.2259L162.143 36.214Z" fill="#EBFEB3"/>
<path d="M133.264 21.714C134.118 22.3431 135.05 22.9129 136.012 23.4411C136.967 23.9871 137.929 24.5332 138.837 25.1089C140.178 25.9932 141.704 26.7767 142.79 27.9756C143.911 29.1982 145.259 31.3764 146.291 32.7C147.099 33.7268 147.912 34.255 148.927 34.8366C149.965 35.3767 150.992 35.9168 152.333 36.6172C153.835 37.3591 155.046 37.5609 156.179 37.6024C157.319 37.638 158.506 37.5015 160.085 37.0861C160.358 37.0089 160.916 36.7893 161.349 36.5875C161.569 36.4866 161.77 36.3917 161.919 36.3264C162.061 36.2551 162.156 36.2136 162.156 36.2136L159.515 30.955C158.102 31.6969 157.313 32.2133 156.684 32.5516C156.061 32.878 155.592 33.0739 154.998 33.0205C154.286 32.9492 153.675 32.3142 152.903 31.8038C152.571 31.5426 152.203 31.3586 151.835 31.0856L151.265 30.7117L150.636 30.2606C149.799 29.6611 148.962 29.038 148.238 28.2961C146.79 26.8123 145.811 25.1563 144.38 23.6073C143.597 22.7823 142.831 22.2244 142.036 21.6902C141.235 21.1679 140.41 20.6753 139.531 19.9512C138.724 19.3221 138.148 18.0876 136.949 17.1201L133.276 21.7199L133.264 21.714Z" fill="#EBFEB3"/>
<path d="M106.246 7.78433C107.255 8.00393 108.306 8.09889 109.386 8.16417C110.442 8.29475 111.517 8.41345 112.561 8.58557C113.345 8.6924 114.128 8.87639 114.923 9.04851C115.707 9.24437 116.502 9.44025 117.191 9.84384C117.903 10.2534 118.74 10.8588 119.559 11.476C120.372 12.1051 121.138 12.8055 121.784 13.2862C122.782 14.0163 123.672 14.3724 124.61 14.6751C125.073 14.8294 125.547 14.9837 126.022 15.1914C126.491 15.417 126.972 15.7019 127.459 16.0995C127.969 16.509 128.373 16.8473 128.723 17.156C129.067 17.4765 129.358 17.7732 129.643 18.07C130.212 18.6873 130.8 19.2926 131.714 20.3491C131.886 20.545 132.266 20.8833 132.61 21.1741C132.96 21.459 133.257 21.7083 133.263 21.7142L136.937 17.1144C134.343 15.1202 132.978 14.77 131.251 13.5593C130.206 12.8826 129.358 11.933 128.295 11.2564C127.369 10.7044 126.372 10.283 125.393 9.84976C124.402 9.4343 123.387 9.06038 122.467 8.51435C121.559 7.95644 120.692 7.4282 119.85 6.84062C119.422 6.5498 119.001 6.26491 118.568 5.96815C118.128 5.6892 117.66 5.44587 117.173 5.20252C116.116 4.69803 115.196 4.38346 114.223 4.21134C113.256 4.03329 112.282 3.88491 111.166 3.55254C110.163 3.27953 109.071 2.44265 107.546 2.03906L106.24 7.77839L106.246 7.78433Z" fill="#EBFEB3"/>
<path d="M76.6056 10.3479C77.5374 9.86716 78.4989 9.43983 79.4307 8.89972C79.8996 8.63264 80.3744 8.3715 80.8433 8.10441C81.0807 7.97384 81.3181 7.84326 81.5496 7.71269C81.787 7.58805 82.0303 7.49903 82.2737 7.3922C82.9978 7.07764 83.7337 6.75713 84.4756 6.43663C85.2235 6.128 85.9891 5.84312 86.7844 5.81344C87.5975 5.75409 88.6243 5.78971 89.6392 5.83719C90.1437 5.84312 90.6541 5.9262 91.1349 5.99149C91.6156 6.05678 92.0608 6.1102 92.4584 6.14581C93.0698 6.19923 93.6039 6.16362 94.1025 6.07459C94.601 5.98556 95.0699 5.92621 95.5388 5.81344C96.4766 5.62352 97.444 5.3683 98.6666 5.55229C101.195 6.05678 101.783 6.24077 104.305 7.27349C104.537 7.36252 105.023 7.48123 105.451 7.57619C105.664 7.62367 105.866 7.66521 106.008 7.71269C106.157 7.75423 106.246 7.77798 106.252 7.77798L107.558 2.03866C104.252 1.4214 102.863 1.66474 100.72 1.51636C100.085 1.46294 99.4679 1.32644 98.8388 1.18993C98.2096 1.07123 97.5805 1.01187 96.9395 1C96.3935 1 95.8474 1.02968 95.3014 1.07716C94.7554 1.12464 94.2153 1.17212 93.6751 1.29676C92.5949 1.51043 91.5325 1.71223 90.4464 1.74784C89.9063 1.74784 89.384 1.78939 88.8617 1.80719C88.3454 1.825 87.829 1.825 87.3126 1.825C86.2858 1.8428 85.2234 1.75971 84.1551 1.96744C81.8285 2.35916 80.4456 3.22571 78.2793 4.07444C77.7867 4.25249 77.1991 4.3059 76.5462 4.37712C76.2198 4.41273 75.8755 4.45428 75.5194 4.51363C75.1693 4.59079 74.8191 4.70949 74.457 4.85787L76.6115 10.336L76.6056 10.3479Z" fill="#EBFEB3"/>
<path d="M50.8825 27.1922C51.6422 26.4443 52.3307 25.5897 52.9954 24.7113C53.6899 23.8685 54.3902 23.0257 55.1084 22.2304C55.6366 21.625 56.1767 21.0077 56.7168 20.3905C56.9958 20.0878 57.2747 19.7851 57.5774 19.518C57.892 19.2628 58.2184 19.0254 58.5626 18.8236C59.2689 18.4022 60.2186 17.963 61.1623 17.5416C62.1119 17.1261 63.0378 16.6928 63.8093 16.402C64.9667 15.9153 65.6671 15.2565 66.3793 14.5681C66.7354 14.2238 67.0856 13.8796 67.4892 13.5413C67.8928 13.2089 68.3854 12.9537 68.9611 12.7103C70.1719 12.2177 70.9316 11.9566 71.715 11.7192C72.1127 11.6123 72.4984 11.464 72.9851 11.3809C73.4599 11.2859 74.006 11.1731 74.6826 11.0366C74.9319 10.9832 75.4067 10.817 75.8221 10.6627C76.2376 10.5024 76.5937 10.36 76.5997 10.36L74.4452 4.88184C72.9198 5.54658 71.9049 6.12822 71.0325 6.63864C70.5873 6.88199 70.2075 7.16689 69.8098 7.42803C69.4121 7.68918 69.0026 7.94438 68.5337 8.19366C67.4357 8.79311 66.1656 9.05428 65.0854 9.69528C64.1773 10.2651 63.3405 10.9535 62.5036 11.6301C62.0881 11.9684 61.6667 12.3008 61.2394 12.6213C61.0257 12.7816 60.8061 12.9299 60.5865 13.0843C60.3729 13.2445 60.1592 13.3988 59.9396 13.5472C58.1887 14.7283 56.3132 15.3515 54.5208 16.5089C52.6275 17.8146 51.8203 19.2331 50.0931 20.7169C49.3394 21.4054 48.0633 21.8208 46.9297 22.8476L50.8885 27.2041L50.8825 27.1922Z" fill="#EBFEB3"/>
<path d="M29.8722 50.5415C30.5013 49.663 31.0355 48.6897 31.5518 47.6985C32.08 46.7251 32.5905 45.7458 33.1365 44.814C33.9556 43.4311 34.6618 41.8642 35.7777 40.695C36.3356 40.0837 37.1902 39.4545 38.0212 38.8195C38.858 38.1903 39.7068 37.5731 40.3418 37.0448C41.3152 36.2376 41.8137 35.383 42.3064 34.5105C42.8287 33.6737 43.345 32.819 44.3125 31.994C45.3155 31.1394 45.9684 30.6467 46.6509 30.166C46.9952 29.9286 47.3453 29.6911 47.7549 29.4122C48.1703 29.1451 48.6689 28.8602 49.2624 28.4922C49.482 28.3557 49.8856 28.0352 50.2298 27.7444C50.5741 27.4476 50.8708 27.1924 50.8768 27.1865L46.918 22.8301C45.731 23.94 44.9831 24.8065 44.3421 25.5662C43.7367 26.3615 43.2323 27.0559 42.5082 27.8097C41.6535 28.7 40.5792 29.3469 39.7186 30.2372C39.3566 30.623 39.0005 31.0147 38.6918 31.442C38.3832 31.8753 38.0864 32.3145 37.7897 32.7537C37.1902 33.6321 36.5908 34.4986 35.8667 35.2643C35.1426 36.024 34.371 36.665 33.5935 37.3001C32.8219 37.9411 32.086 38.6117 31.35 39.3655C29.7831 41.0095 29.2964 42.5468 27.9195 44.3392C27.3141 45.1464 26.1271 45.7636 25.2012 46.9566L29.8722 50.5355V50.5415Z" fill="#EBFEB3"/>
<path d="M12.6477 76.7337C13.4905 74.8285 14.0247 72.6325 14.8081 70.6323C15.0989 69.8845 15.3957 69.1188 15.6865 68.3532C16.0129 67.5994 16.375 66.8694 16.8557 66.2225C17.3543 65.5637 18.0784 64.804 18.8084 64.0561C19.5503 63.3142 20.3041 62.5901 20.862 61.9848C22.601 60.133 22.4348 58.3465 24.1085 56.4116C25.8594 54.4174 26.3995 54.0494 28.5006 52.1502C28.6964 51.9721 29.0347 51.5744 29.3256 51.2183C29.6164 50.8622 29.8657 50.5536 29.8716 50.5476L25.2006 46.9688C23.2954 49.5506 22.9156 50.8622 21.7107 52.5537C20.9926 53.5449 20.037 54.3462 19.3366 55.3552C18.1318 57.0764 17.4136 59.124 16.191 60.8333C14.9684 62.5367 13.5142 63.8069 12.2619 65.5162C10.9146 67.368 10.6594 68.9764 9.60889 71.0122C9.37741 71.4692 8.99162 71.9084 8.56429 72.401C8.14883 72.8995 7.70963 73.4634 7.35352 74.1578L12.6418 76.7455L12.6477 76.7337Z" fill="#EBFEB3"/>
<path d="M20.3403 98.5924C19.6934 97.9632 19.0227 97.5537 18.3936 97.2451C17.7585 96.9424 17.1591 96.7406 16.5774 96.5685C15.426 96.2361 14.3458 96.0224 13.3665 95.7138C12.6365 95.4883 11.9005 95.2805 11.2239 94.9779C10.5473 94.6811 9.93004 94.2775 9.50271 93.7314C9.05757 93.1735 8.71926 92.3604 8.59462 91.5473C8.46405 90.7282 8.53527 89.9033 8.59462 89.2444C8.70146 88.2355 8.55308 87.4283 8.46405 86.5321C8.35722 85.6477 8.32754 84.6922 8.74894 83.5645C9.20595 82.3952 9.5858 81.7008 9.99533 81.0124C10.2149 80.674 10.4405 80.3298 10.7016 79.9262C10.9746 79.5345 11.2892 79.0834 11.6809 78.5255C11.8234 78.3178 12.0726 77.8786 12.2744 77.4869C12.4762 77.0892 12.6484 76.7509 12.6543 76.745L7.37198 74.1572C5.97127 77.1723 5.93566 78.6205 5.24125 80.6859C5.02758 81.2913 4.79017 81.9026 4.52902 82.5021C4.29755 83.1253 4.04234 83.7366 3.92957 84.4132C3.4963 86.7161 3.86428 89.1792 4.45187 91.6541C4.74269 92.8946 5.14628 94.1113 5.75761 95.239C6.363 96.3667 7.17611 97.3994 8.16135 98.2184C9.22969 99.1028 10.2387 99.5242 11.2002 99.8566C12.1617 100.189 13.1172 100.426 14.0906 100.848C14.5298 101.038 14.9215 101.382 15.2836 101.75C15.6456 102.112 15.9542 102.504 16.1145 102.688L20.3522 98.6042L20.3403 98.5924Z" fill="#EBFEB3"/>
<path d="M8.35139 129.526C8.4879 129.033 8.58879 128.523 8.67189 128.007C8.75498 127.49 8.81433 126.956 8.93897 126.44C9.1467 125.401 9.33069 124.339 9.57404 123.312C10.0014 121.816 10.3931 120.178 11.2062 118.825C11.6929 118.166 12.3932 117.4 13.0936 116.659C13.4438 116.291 13.7939 115.923 14.1263 115.572C14.4468 115.216 14.8148 114.926 15.0938 114.635C15.9781 113.762 16.3758 112.896 16.7734 111.999C16.8743 111.774 16.9752 111.554 17.0761 111.323C17.1889 111.091 17.3254 110.848 17.4678 110.605C17.7586 110.13 18.0791 109.619 18.5243 109.103C19.4264 107.993 19.9784 107.245 20.5482 106.403C20.6847 106.177 20.8271 105.957 20.9696 105.72C21.1061 105.459 21.2485 105.192 21.391 104.883C21.6462 104.23 21.9726 103.423 21.9489 102.106C21.9489 101.631 21.7174 100.598 21.2663 99.8264C21.0467 99.4644 20.8153 99.1142 20.6372 98.9242C20.4592 98.7225 20.3405 98.5859 20.3345 98.5859L16.0968 102.669C16.2749 102.865 16.257 102.794 16.3342 102.865C16.3876 102.942 16.4826 103.126 16.4588 103.417C16.4588 103.975 16.2927 104.664 15.8713 105.423C15.3608 106.337 14.4646 107.055 13.7702 107.946C13.4853 108.308 13.1826 108.794 12.9096 109.257C12.6307 109.726 12.3695 110.201 12.1024 110.676C11.8353 111.151 11.5742 111.62 11.2893 112.077L10.4168 113.43C9.82331 114.326 9.15857 115.104 8.4879 115.887C8.16146 116.285 7.78755 116.659 7.49672 117.086C7.19403 117.513 6.89727 117.952 6.61238 118.421C6.00699 119.436 5.62714 120.338 5.34819 121.288C5.09891 122.25 4.88524 123.217 4.47571 124.315C4.07212 125.276 3.19372 126.321 2.70703 127.84L8.34545 129.52L8.35139 129.526Z" fill="#EBFEB3"/>
<path d="M10.4342 158.134C10.1611 157.802 9.91186 157.38 9.62104 156.994C9.47859 156.799 9.33022 156.603 9.1759 156.407C9.02159 156.211 8.89695 155.985 8.7545 155.778C8.46368 155.35 8.17879 154.923 7.88797 154.496C7.63275 154.045 7.38348 153.594 7.14607 153.137C6.77215 152.466 6.45165 151.742 6.13709 151.006C5.98871 150.638 5.82846 150.27 5.72756 149.884C5.63853 149.498 5.56731 149.113 5.5317 148.721C5.49609 148.317 5.48422 147.866 5.48422 147.385C5.48422 146.905 5.56731 146.394 5.61479 145.89C5.67414 145.391 5.72756 144.887 5.78098 144.418C5.82846 143.949 5.93529 143.498 5.98277 143.106C6.16083 141.901 5.90562 140.981 5.78098 140.038C5.70382 139.569 5.61479 139.088 5.57325 138.578C5.52577 138.067 5.52576 137.515 5.68008 136.916C5.97684 135.663 6.19051 134.904 6.45759 134.144C6.78996 133.402 7.12826 132.648 7.68617 131.408C7.78707 131.182 7.91171 130.708 8.07789 130.298C8.22034 129.883 8.34498 129.526 8.34498 129.52L2.70655 127.841C2.18426 129.443 2.13084 130.654 2.01807 131.675C1.97059 132.185 1.92311 132.666 1.87563 133.147C1.82221 133.628 1.81628 134.12 1.73912 134.66C1.59074 135.925 1.05064 137.135 1.0269 138.429C0.866648 140.637 1.47204 142.815 1.53732 144.988C1.62042 146.074 1.51952 147.112 1.52545 148.157C1.55513 149.202 1.50765 150.264 1.6857 151.368C1.7866 151.961 1.92311 152.496 2.07742 153C2.15458 153.249 2.23767 153.493 2.3267 153.73C2.43354 153.962 2.54037 154.193 2.6472 154.424C3.08641 155.339 3.52561 156.247 4.05384 157.345C4.28531 157.837 4.35653 158.454 4.5702 159.125C4.66516 159.463 4.772 159.82 4.90257 160.182C4.96786 160.366 5.03908 160.55 5.12811 160.734C5.22901 160.918 5.34177 161.108 5.46048 161.291L10.4223 158.128L10.4342 158.134Z" fill="#EBFEB3"/>
<path d="M10.4336 158.134L7.95269 159.713L6.71224 160.502L6.08904 160.9L5.78041 161.096L5.6261 161.197L5.54894 161.244L5.50739 161.268L5.48959 161.28H5.47772V161.292C5.31153 161.499 5.31747 161.493 5.23438 161.6C5.87537 162.675 5.85163 162.639 6.19587 163.215L6.20775 163.209L6.22555 163.197L6.2671 163.173L6.35019 163.132L6.51044 163.043L6.83687 162.87L7.48381 162.52L8.78361 161.826L11.3773 160.437L11.4129 160.532V160.556L11.4248 160.579V160.603V160.627V160.68V160.704V160.728L11.401 160.775L11.3832 160.805L11.3595 160.835L11.3298 160.864L11.2942 160.894L11.2526 160.924L11.2052 160.947H11.1933L11.1874 160.953H11.1636H11.0627H10.944L10.8134 160.936L10.7422 160.924H10.7363L10.7185 160.9L10.6829 160.87L10.5404 160.758L10.3861 160.645L10.2199 160.538L10.0478 160.431L9.86382 160.33L9.97065 160.146L10.0656 159.968L10.1546 159.79L10.2318 159.618L10.2971 159.452L10.3268 159.369L10.3624 159.292L10.4217 159.143L10.4692 159.001L10.5048 158.864L10.5286 158.734L10.5464 158.609V158.55V158.49V158.437L10.5404 158.383L10.5286 158.33L10.5167 158.283L10.4989 158.235L10.4811 158.188L10.4573 158.146L10.4336 158.104V158.134Z" fill="#EBFEB3"/>
<path d="M51.6055 156.864C48.2462 156.205 44.964 156.876 42.0142 157.362C39.7945 157.736 37.5984 158.49 35.4202 158.561C33.1767 158.621 29.7462 158.253 27.5146 158.282C24.084 158.306 22.535 160.158 19.1816 160.354C17.4485 160.449 16.392 160.419 15.3356 160.324C14.8133 160.271 14.2791 160.205 13.7034 160.098C13.1336 159.992 12.457 159.861 11.8694 159.63C11.6617 159.552 11.2403 159.428 11.27 159.398C11.2759 159.398 11.2641 159.398 11.2819 159.398C11.3115 159.398 11.3353 159.41 11.359 159.422C11.3828 159.44 11.4955 159.493 11.5667 159.546C11.6024 159.576 11.632 159.6 11.6558 159.624C11.6973 159.653 11.7329 159.683 11.7626 159.713C11.822 159.766 11.8516 159.802 11.8516 159.802L6.03516 165.066C6.18354 165.226 6.33191 165.375 6.49216 165.517C6.64054 165.642 6.78299 165.743 6.93137 165.85C7.07975 165.95 7.22813 166.057 7.37057 166.146C7.50115 166.218 7.63172 166.283 7.76229 166.348C7.89287 166.407 8.02344 166.473 8.15402 166.532C8.27272 166.58 8.37955 166.615 8.49825 166.657C8.71192 166.728 8.9612 166.817 9.14519 166.853C9.33512 166.894 9.52504 166.936 9.70903 166.977C9.89302 167.013 10.0414 167.025 10.2076 167.048C10.54 167.096 10.8189 167.102 11.0919 167.114C12.1721 167.143 12.9674 167.037 13.7093 166.93C15.1575 166.692 16.2911 166.402 17.6978 166.212C19.3478 165.986 21.0037 166.146 22.6062 165.879C25.3423 165.416 27.8885 164.2 30.589 163.891C33.2776 163.588 35.717 163.986 38.3285 163.986C41.1358 164.01 42.9401 163.143 45.6762 163.191C46.8989 163.232 48.264 164.117 49.819 164.484L51.6055 156.846V156.864Z" fill="#77B975"/>
<path d="M67.8971 199.051C68.6508 198.095 69.1909 196.985 69.4462 195.941C69.7251 194.89 69.8141 193.875 69.7785 192.937C69.7251 191.056 69.3156 189.424 68.9179 187.898C68.3125 185.619 67.2323 183.542 66.7931 181.382C66.3599 179.156 66.075 175.69 65.5764 173.476C65.2025 171.773 64.4725 170.633 63.7009 169.517C63.321 168.959 62.9293 168.407 62.5613 167.79C62.3774 167.481 62.2052 167.161 62.039 166.811C61.9619 166.633 61.8788 166.443 61.7957 166.253C61.6948 166.027 61.5939 165.796 61.4989 165.552C61.0657 164.555 60.6205 163.766 60.1695 163.101C59.9499 162.763 59.7303 162.454 59.4988 162.169C59.2792 161.873 59.0537 161.6 58.8103 161.338C58.5788 161.06 58.3296 160.804 58.0625 160.543C57.8013 160.27 57.5105 160.009 57.19 159.736C56.5549 159.184 55.7834 158.614 54.7803 158.021C54.4123 157.795 53.617 157.469 52.9167 157.237C52.5665 157.13 52.2401 157.024 51.9967 156.958C51.7534 156.899 51.5991 156.857 51.5931 156.857L49.8066 164.496C51.4922 164.858 52.5368 165.155 53.439 165.452C54.3114 165.772 55.0237 166.122 55.6409 166.823C55.8309 167.018 55.9555 167.268 56.0861 167.505C56.187 167.766 56.3057 168.004 56.365 168.283L56.4837 168.698L56.6558 169.262C56.7745 169.636 56.9111 170.01 57.0654 170.366C58.1337 172.835 59.843 175.037 60.6562 177.595C61.4574 180.141 61.4871 182.586 61.861 185.085C62.0569 186.432 62.3952 187.483 62.7038 188.522C63.0184 189.554 63.321 190.611 63.2795 191.75C63.2439 192.243 63.0065 192.777 62.686 193.163C62.3714 193.572 62.0331 193.816 61.8491 194.029L67.8793 199.051H67.8971Z" fill="#77B975"/>
<path d="M27.1161 203.472C28.0182 202.618 28.8729 201.722 29.7631 200.908C30.511 200.161 31.4665 199.543 32.6239 199.11C34.3273 198.487 36.4462 197.899 38.4879 198.238C40.5889 198.564 43.6159 199.899 45.6872 200.6C47.2838 201.134 48.6192 201.11 49.9724 201.045C51.3316 200.98 52.6907 200.879 54.4416 201.223C56.2756 201.567 57.4626 201.757 58.7506 201.923C59.3916 202.006 60.0741 202.06 60.911 202.072C61.7597 202.054 62.7627 202.024 64.1338 201.638C64.6323 201.496 65.6532 201.045 66.4782 200.398C66.8877 200.089 67.2497 199.745 67.505 199.496C67.7424 199.229 67.8967 199.057 67.9026 199.051L61.8725 194.029C61.6885 194.273 61.4986 194.475 61.1781 194.694C60.8576 194.902 60.4896 195.116 60.0563 195.27C59.2135 195.602 58.2698 195.804 57.0828 195.78C55.6583 195.745 54.228 195.151 52.7145 194.944C50.1089 194.581 47.2838 194.819 44.5299 194.279C41.7819 193.756 39.3603 192.694 36.28 192.421C34.6181 192.285 33.164 192.516 31.7218 192.931C30.2795 193.359 28.8373 193.958 27.1279 194.854C26.3682 195.258 25.5907 195.531 24.6886 195.917C23.7983 196.297 22.8665 196.783 22.0059 197.513L27.1161 203.466V203.472Z" fill="#77B975"/>
<path d="M18.5061 234.46C17.693 233.873 16.8799 233.285 16.1261 232.507C15.3723 231.736 14.672 230.768 14.2387 229.647C13.5562 228.009 12.9864 225.925 13.4137 223.967C13.6333 222.964 14.1319 221.759 14.7373 220.607C15.3367 219.456 16.0311 218.37 16.5534 217.497C17.3547 216.162 17.6277 214.987 17.9363 213.77C18.239 212.565 18.5833 211.319 19.5804 210.055C20.619 208.749 21.355 208.025 22.1503 207.336C22.9515 206.66 23.8062 206.001 25.2129 205.045C25.474 204.873 25.9369 204.464 26.3465 204.119C26.756 203.775 27.1062 203.478 27.1121 203.473L22.0019 197.52C20.2154 199.11 19.2539 200.434 18.4586 201.603C17.6692 202.772 17.0757 203.811 16.2329 204.998C15.2477 206.399 13.9716 207.603 13.1229 209.123C11.6688 211.734 11.1524 214.726 10.1494 217.491C9.64487 218.886 9.0929 220.192 8.60622 221.563C8.11953 222.934 7.69813 224.376 7.54382 225.991C7.37763 227.736 7.64472 229.249 8.10173 230.703C8.57061 232.157 9.22348 233.57 10.1078 235.202C10.5233 235.926 10.8378 236.816 11.3483 237.76C11.8409 238.71 12.5412 239.701 13.5324 240.526L18.5061 234.454V234.46Z" fill="#77B975"/>
<path d="M56.5138 234.199C53.7896 234.811 51.006 236.033 48.258 236.87C46.2104 237.493 44.1093 238.378 41.9667 238.514C40.8628 238.579 39.4621 238.526 38.0732 238.443C36.7378 238.33 35.4083 238.217 34.3459 238.128C32.7434 237.986 31.5564 238.312 30.3397 238.585C29.1289 238.882 27.8766 239.131 26.3334 238.817C24.7369 238.479 23.8288 238.099 22.9444 237.665C22.072 237.226 21.2232 236.674 20.1134 235.725C20.0065 235.641 19.8641 235.511 19.6801 235.386C19.4961 235.262 19.3062 235.119 19.14 234.983C18.9619 234.852 18.7958 234.727 18.6949 234.627C18.5821 234.532 18.5109 234.472 18.5049 234.466L13.5312 240.538C15.6976 242.241 17.4781 242.793 18.956 243.203C20.4517 243.571 21.704 243.731 23.2056 244.028C24.9683 244.36 26.6658 244.936 28.4226 245.001C31.4377 245.102 34.2806 244.164 37.1177 243.915C37.8239 243.844 38.5302 243.82 39.2009 243.814C39.8597 243.802 40.5126 243.814 41.1655 243.832C42.4712 243.868 43.7769 243.915 45.1539 243.832C48.1155 243.648 49.9495 242.586 52.8874 242.046C54.205 241.79 55.9262 242.307 57.9323 241.933L56.5257 234.211L56.5138 234.199Z" fill="#77B975"/>
<path d="M73.8264 209.152C74.2419 211.906 75.3162 214.69 75.7613 217.396C76.0877 219.39 76.616 221.563 76.064 223.474C75.9631 223.978 75.7138 224.489 75.4646 225.017C75.2449 225.569 74.8651 226.044 74.5505 226.531C74.4022 226.786 74.1826 226.982 74.0045 227.189C73.8146 227.391 73.6425 227.599 73.4644 227.783C73.0489 228.109 72.7344 228.448 72.3961 228.691C72.1349 228.875 71.9153 229.071 71.7254 229.273C71.5295 229.468 71.3099 229.641 71.1319 229.842C70.7995 230.258 70.4078 230.632 70.0517 231.053C69.8795 231.273 69.6659 231.463 69.4463 231.653C69.2267 231.843 68.9952 232.038 68.7459 232.222C68.2296 232.578 67.6064 232.869 66.8704 233.101C66.0692 233.291 65.4341 233.451 64.8465 233.54C64.253 233.623 63.7307 233.682 63.2084 233.73C62.6861 233.777 62.1282 233.777 61.4931 233.801C60.864 233.825 60.134 233.831 59.22 233.837C58.8817 233.837 58.2288 233.944 57.6353 234.021C57.3385 234.062 57.0655 234.104 56.8637 234.133C56.6619 234.169 56.5313 234.187 56.5254 234.187L57.932 241.909C58.9885 241.707 59.8906 241.481 60.68 241.238C61.4694 241.001 62.1519 240.781 62.7929 240.526C63.428 240.282 64.0215 240.057 64.621 239.831C65.2264 239.588 65.8436 239.362 66.538 239.149C67.3571 238.882 68.2118 238.674 69.0783 238.478C69.5116 238.347 69.9448 238.217 70.3781 238.074C70.8114 237.932 71.2387 237.778 71.6542 237.54C72.3664 237.154 73.0608 236.757 73.7077 236.205C74.0342 235.944 74.3547 235.683 74.6692 235.404L75.5595 234.478L75.9928 234.015C76.1352 233.855 76.2599 233.676 76.3904 233.51L77.168 232.501C77.4172 232.163 77.625 231.789 77.8683 231.439C78.0938 231.083 78.3609 230.744 78.5449 230.376C80.2483 227.522 81.5184 224.821 82.0348 221.776C82.5274 218.482 81.6787 216.393 81.3819 213.348C81.3226 212.66 81.4413 211.888 81.5422 211.04C81.6431 210.191 81.7618 209.235 81.6253 208.238L73.8324 209.146L73.8264 209.152Z" fill="#77B975"/>
<path d="M76.8185 165.582C75.0735 166.288 73.2336 167.553 72.005 169.41C71.6845 169.85 71.4471 170.348 71.2038 170.829C71.0079 171.327 70.7943 171.814 70.6815 172.313C70.3966 173.298 70.3194 174.259 70.272 175.162C70.2304 176.515 70.4916 177.773 70.7646 178.96C70.907 179.542 71.0495 180.123 71.1919 180.699C71.3225 181.257 71.4293 181.761 71.4827 182.302C71.7201 184.498 71.4827 187.881 71.548 190.083C71.643 193.466 73.4888 194.985 73.75 198.362C74.0052 201.858 73.8331 202.713 73.6491 206.416C73.6372 206.76 73.6728 207.437 73.7203 208.031C73.744 208.327 73.7737 208.606 73.7915 208.808C73.8153 209.01 73.8271 209.141 73.8271 209.146L81.62 208.238C81.3411 206.096 80.9553 204.636 80.5932 203.371C80.2431 202.101 79.8929 201.033 79.6614 199.68C79.3943 198.077 79.5249 196.445 79.24 194.849C78.7415 192.124 77.4951 189.56 77.0855 186.842C76.8838 185.483 76.8422 184.177 76.8185 182.865C76.8066 182.213 76.7888 181.56 76.7769 180.895C76.7532 180.29 76.7235 179.678 76.6938 179.049C76.6463 177.85 76.5039 176.978 76.4267 176.159C76.3496 175.346 76.3615 174.598 76.7888 173.939C76.9906 173.648 77.3764 173.47 77.8631 173.369C78.3438 173.256 78.878 173.179 79.5071 172.942L76.8185 165.57V165.582Z" fill="#77B975"/>
<path d="M120.632 169.185C117.789 168.782 114.732 169.025 111.848 168.936C109.693 168.871 107.414 169.049 105.325 168.52C103.176 167.968 100.037 166.609 97.8704 165.98C96.2026 165.493 94.8494 165.582 93.4902 165.731C92.1311 165.873 90.7778 166.057 89.0329 165.814C87.187 165.553 86.0415 165.393 84.8783 165.232C83.6734 165.078 82.4448 164.858 80.231 164.858C79.8215 164.87 78.9906 164.977 78.2427 165.167C77.8747 165.244 77.5127 165.357 77.2575 165.44C76.9963 165.523 76.8302 165.577 76.8242 165.577L79.5129 172.948C80.8839 172.438 82.1303 172.099 83.2223 171.826C84.3263 171.553 85.3412 171.363 86.6113 171.357C88.1129 171.357 89.5967 171.862 91.128 171.975C93.7514 172.182 96.5053 171.761 99.1761 172.26C101.835 172.752 104.085 173.856 106.72 174.545C109.563 175.292 111.622 174.865 114.548 175.31C115.86 175.512 117.296 176.551 119.249 176.907L120.644 169.185H120.632Z" fill="#77B975"/>
<path d="M161.72 173.523C158.972 173.761 156.189 174.538 153.34 174.811C151.245 175.031 149.019 175.452 146.924 175.096C144.764 174.734 141.624 173.535 139.529 172.93C136.312 172.004 134.306 173.274 131.018 172.455C127.617 171.594 126.869 171.155 123.355 169.832C123.035 169.707 122.358 169.547 121.759 169.416C121.159 169.291 120.643 169.185 120.631 169.179L119.236 176.9C123.403 177.589 125.183 177.233 127.89 177.648C129.486 177.886 131.006 178.55 132.614 178.776C135.374 179.162 138.211 178.776 140.965 179.185C143.707 179.595 146.087 180.545 148.865 180.978C150.36 181.209 151.631 181.144 152.895 181.031C154.159 180.913 155.417 180.746 156.966 180.729C158.337 180.693 160.017 181.465 162.082 181.364L161.72 173.523Z" fill="#77B975"/>
<path d="M200.537 163.071C198.198 164.46 195.955 166.377 193.557 167.831C191.776 168.906 189.936 170.205 187.889 170.71C185.776 171.238 182.452 171.321 180.321 171.499C178.683 171.648 177.52 172.164 176.339 172.704C175.158 173.238 173.959 173.778 172.303 173.903C170.582 174.016 169.519 174.004 168.427 173.933C167.335 173.856 166.219 173.737 164.415 173.523C164.083 173.488 163.412 173.493 162.831 173.499C162.243 173.511 161.738 173.529 161.727 173.529L162.089 181.369C166.475 181.073 168.131 180.194 170.902 179.797C172.535 179.553 174.22 179.696 175.852 179.375C178.654 178.823 181.218 177.434 183.96 176.787C186.696 176.135 189.29 176.063 192.049 175.31C195.023 174.473 196.619 172.971 199.367 171.618C200.596 171.013 202.43 170.959 204.27 169.98L200.543 163.071H200.537Z" fill="#77B975"/>
<path d="M220.657 134.221C220.871 135.42 221.162 136.637 221.393 137.901C221.601 139.159 221.738 140.465 221.684 141.759C221.589 143.664 221.423 145.824 220.355 147.546C220.1 147.991 219.72 148.448 219.334 148.922C218.913 149.38 218.491 149.86 218.004 150.299C217.079 151.202 216.046 151.985 215.28 152.644C214.075 153.635 213.446 154.662 212.752 155.706C212.069 156.745 211.333 157.807 209.968 158.692C208.556 159.612 207.612 160.069 206.633 160.502C205.647 160.923 204.609 161.309 202.923 161.903C202.609 162.01 202.027 162.312 201.505 162.567C201.243 162.698 201.006 162.823 200.828 162.912C200.65 163.007 200.537 163.066 200.531 163.066L204.259 169.969C208.116 167.767 209.238 166.224 211.547 164.538C212.906 163.535 214.479 162.799 215.773 161.659C217.987 159.671 219.482 157.03 221.328 154.721C223.18 152.43 225.156 150.454 226.569 147.623C227.293 146.085 227.584 144.667 227.726 143.254C227.851 141.836 227.881 140.423 227.922 138.744C227.964 137.266 228.747 135.402 228.427 133.123L220.652 134.203L220.657 134.221Z" fill="#77B975"/>
<path d="M199.301 106.943C199.984 106.818 200.827 106.711 201.913 106.848C202.987 106.961 204.21 107.394 205.349 107.946C207.053 108.8 209 109.869 210.264 111.519C211.581 113.204 212.917 116.208 213.866 118.125C215.344 121.074 217.665 121.615 218.923 124.588C219.558 126.119 219.802 127.105 219.992 128.119C220.17 129.128 220.282 130.185 220.342 131.829C220.336 132.132 220.466 132.725 220.514 133.247C220.549 133.509 220.579 133.746 220.603 133.93C220.633 134.108 220.644 134.227 220.644 134.227L228.414 133.147C228.04 130.749 227.381 129.194 226.805 127.876C226.182 126.57 225.6 125.508 224.971 124.167C224.781 123.775 224.615 123.371 224.467 122.962L223.986 121.751C223.683 120.932 223.315 120.149 222.87 119.401C222.484 118.766 222.021 118.19 221.564 117.608C221.101 117.05 220.615 116.54 220.14 116.012C219.196 114.955 218.199 113.934 217.386 112.771C215.73 110.474 214.632 108.076 212.65 105.803C212.127 105.186 211.552 104.687 210.982 104.242C210.43 103.785 209.801 103.423 209.195 103.061C208.602 102.693 207.902 102.39 207.243 102.04C206.887 101.88 206.525 101.714 206.145 101.542C205.961 101.453 205.771 101.364 205.575 101.275C205.367 101.192 205.159 101.108 204.946 101.019C204.198 100.693 203.379 100.206 202.334 99.7731C201.794 99.5831 201.242 99.3457 200.578 99.2508C200.251 99.1973 199.919 99.1439 199.569 99.1143C199.218 99.1143 198.85 99.1261 198.482 99.1558L199.29 106.961L199.301 106.943Z" fill="#77B975"/>
<path d="M180.814 139.414C181.959 136.666 182.404 133.586 183.099 130.778C183.621 128.683 183.912 126.422 184.885 124.523C185.888 122.558 187.948 119.905 189.159 118.148C190.084 116.789 190.411 115.584 190.749 114.356C191.099 113.151 191.444 111.892 192.459 110.688C193.515 109.453 194.257 108.83 195.04 108.314C195.818 107.839 196.696 107.376 197.842 107.198C198.049 107.144 198.417 107.067 198.726 107.002C198.88 106.99 199.017 106.966 199.124 106.943C199.225 106.931 199.296 106.943 199.296 106.937L198.489 99.1318C196.916 99.3218 195.634 99.8025 194.666 100.354C194.423 100.497 194.192 100.633 193.966 100.764C193.746 100.901 193.562 101.055 193.367 101.197C192.987 101.482 192.631 101.761 192.346 102.058C191.123 103.203 190.346 104.266 189.366 105.471C188.221 106.889 186.915 108.112 186.031 109.613C184.547 112.195 184.007 115.08 182.772 117.596C181.55 120.107 179.953 122.101 178.701 124.552C177.353 127.199 177.353 129.3 176.291 132.025C175.81 133.235 174.493 134.381 173.686 136.114L180.808 139.408L180.814 139.414Z" fill="#77B975"/>
<path d="M143.121 155.113C145.911 156.175 149.08 156.514 152.012 156.988C153.11 157.166 154.25 157.261 155.371 157.392C155.989 157.451 156.606 157.517 157.217 157.576C157.84 157.6 158.44 157.701 159.069 157.718C160.333 157.867 161.989 157.89 163.657 157.623C165.325 157.362 166.963 156.787 168.108 156.14C169.901 155.148 170.838 153.872 171.58 152.608C172.328 151.332 172.957 150.05 174.079 148.649C175.248 147.189 175.949 146.281 176.702 145.373C177.444 144.459 178.24 143.539 179.409 141.96C179.628 141.67 179.985 141.04 180.275 140.477C180.424 140.192 180.554 139.931 180.655 139.735C180.75 139.539 180.81 139.414 180.81 139.408L173.687 136.114C172.856 137.966 172.393 139.313 171.972 140.471C171.557 141.634 171.195 142.625 170.554 143.735C169.782 145.029 168.625 146.008 167.77 147.13C167.022 148.08 166.387 149.077 165.663 149.997C164.933 150.881 164.108 151.682 163.129 152.121C162.155 152.578 161.158 152.62 160.232 152.519C159.769 152.489 159.312 152.353 158.861 152.264C158.398 152.104 157.953 152.021 157.472 151.831C157.342 151.789 157.217 151.748 157.093 151.718L156.909 151.67L156.677 151.605C156.368 151.516 156.066 151.445 155.769 151.386C155.176 151.261 154.594 151.166 154.012 151.083C152.843 150.899 151.656 150.739 150.297 150.282C149.074 149.884 147.911 148.608 146.16 147.872L143.115 155.107L143.121 155.113Z" fill="#77B975"/>
<path d="M106.149 132.666C108.517 134.446 111.413 135.657 114.007 136.999C115.953 138.002 118.108 138.791 119.823 140.12C121.58 141.497 123.954 143.99 125.711 145.409C128.417 147.599 130.797 147.154 133.694 149.023C136.732 150.94 137.338 151.575 140.519 153.807C140.816 154.009 141.457 154.335 142.027 154.614C142.317 154.745 142.585 154.869 142.78 154.964C142.982 155.053 143.107 155.107 143.113 155.113L146.158 147.878C142.407 146.346 140.662 146.192 138.258 145.047C136.851 144.352 135.664 143.278 134.287 142.536C131.925 141.278 129.213 140.607 126.957 139.112C124.708 137.622 123.099 135.734 121.022 134.055C118.785 132.233 116.772 131.764 114.404 130.084C113.348 129.33 112.576 127.769 111.087 126.559L106.143 132.654L106.149 132.666Z" fill="#77B975"/>
<path d="M77.7911 99.5117C79.263 102.212 81.5421 104.497 83.5304 106.699C85.0201 108.349 86.8185 109.821 88.0233 111.643C89.2638 113.519 90.801 116.629 92.0889 118.51C94.0772 121.412 96.4988 121.65 98.772 124.244C101.176 126.92 101.591 127.698 104.031 130.701C104.256 130.974 104.772 131.473 105.247 131.888C105.722 132.298 106.138 132.654 106.143 132.666L111.087 126.57C107.888 124.03 106.244 123.425 104.25 121.662C103.081 120.617 102.244 119.258 101.128 118.172C99.2171 116.32 96.8193 114.925 95.1159 112.848C93.4244 110.777 92.4866 108.515 91.1096 106.29C89.6377 103.886 87.9343 102.794 86.3971 100.408C85.7264 99.3336 85.6196 97.648 84.8065 95.998L77.7852 99.5057L77.7911 99.5117Z" fill="#77B975"/>
<path d="M81.6309 55.793C79.1737 58.0009 77.494 61.188 76.3723 64.2091C76.1764 64.7848 75.9568 65.3486 75.8144 65.9421C75.6838 66.5356 75.5592 67.1351 75.4286 67.7345L75.3277 68.1737L75.2684 68.6248C75.2268 68.9216 75.1793 69.2183 75.12 69.5151C75.0072 70.1027 74.8648 70.6784 74.752 71.2244C74.6155 71.7883 74.4137 72.4174 74.2475 73.094C74.1525 73.4323 74.0516 73.7825 73.9567 74.1327C73.8676 74.4888 73.7786 74.8508 73.6837 75.2069C73.3097 76.6551 73.0367 78.1389 72.9299 79.3319C72.829 80.2518 72.9299 81.059 73.0545 81.8068C73.2207 82.5487 73.4344 83.2254 73.6837 83.8901C74.2 85.2196 74.752 86.5016 75.0666 88.2643C75.393 90.1042 75.6007 91.2379 75.8084 92.4012C76.0043 93.5763 76.2002 94.7871 76.6691 96.7457C76.7521 97.1078 77.037 97.7962 77.2863 98.4016C77.4109 98.7043 77.5356 98.9833 77.6365 99.1851C77.7314 99.3869 77.7967 99.5174 77.7967 99.5234L84.8181 96.0157C83.91 94.2707 83.2156 93.0837 82.6042 92.0332C81.9988 90.9827 81.4884 90.0686 81.0848 88.8638C80.6041 87.4393 80.6516 85.9081 80.337 84.4777C79.8088 82.0383 78.7998 79.599 78.9185 77.0409C78.966 75.7767 79.2687 74.6075 79.6188 73.4739C79.7791 72.9041 80.0165 72.3521 80.1945 71.7883C80.3963 71.2423 80.6337 70.7911 80.8059 70.2688C80.889 69.9899 81.0077 69.7347 81.1086 69.4795C81.2095 69.2243 81.2866 68.975 81.3578 68.7317C81.4647 68.2212 81.6724 67.7701 81.8149 67.2775C81.8861 67.0283 81.9632 66.7849 82.0404 66.5356C82.1472 66.2982 82.26 66.0549 82.3728 65.8056C82.6042 65.313 82.8416 64.7788 83.2571 64.2862C83.6132 63.8411 84.1118 63.4375 84.7646 63.0932C85.0792 62.9092 85.3997 62.7193 85.7143 62.4997C86.0229 62.2742 86.3909 62.0724 86.7054 61.7934L81.6368 55.8048L81.6309 55.793Z" fill="#77B975"/>
<path d="M125.32 47.7867C122.269 47.1219 118.993 47.4127 115.995 47.567C114.868 47.6739 113.728 47.8045 112.6 47.9528C112.037 48.0359 111.473 48.1012 110.915 48.1368C110.357 48.1665 109.799 48.1784 109.241 48.1784C106.968 48.0537 103.454 47.6561 101.086 47.7629C99.2819 47.8994 97.9703 48.4455 96.7357 49.1339C95.4775 49.769 94.2964 50.5346 92.5692 51.0332C91.679 51.33 90.9549 51.5555 90.302 51.7454C89.6669 51.9769 89.0972 52.1609 88.5215 52.3449C88.2306 52.4339 87.9339 52.5289 87.6312 52.6238C87.3285 52.7366 87.0139 52.8553 86.6756 52.98C85.999 53.247 85.1918 53.5022 84.2541 53.9889C83.9039 54.161 83.2391 54.5706 82.6694 54.9682C82.3964 55.1878 82.1411 55.3896 81.9512 55.538C81.7672 55.6923 81.6426 55.7873 81.6426 55.7932L86.7112 61.7818C87.0555 61.491 87.3463 61.1883 87.6549 60.945C87.9635 60.6957 88.2484 60.4583 88.5096 60.2327C89.02 59.7579 89.5067 59.3721 89.9518 59.0041C90.8243 58.2326 91.6671 57.6628 92.7651 57.0693C93.4358 56.7666 94.1539 56.5707 94.8602 56.3749C95.5784 56.1968 96.3084 56.0662 96.9969 55.8051C97.5785 55.5677 98.1899 55.3837 98.7715 55.1225L99.6559 54.7367C99.9526 54.6121 100.255 54.5053 100.558 54.3866C101.163 54.1611 101.763 53.9118 102.386 53.7337C103.009 53.5675 103.644 53.431 104.285 53.3479C106.867 53.0868 109.194 53.5853 111.716 53.8405C113.081 53.9236 114.215 53.9118 115.372 53.7812C115.948 53.7337 116.524 53.7159 117.135 53.6921C117.746 53.6803 118.387 53.6625 119.07 53.7752C119.687 53.8583 120.334 54.1551 121.04 54.4638C121.741 54.8199 122.5 55.1878 123.385 55.3896L125.331 47.7867H125.32Z" fill="#77B975"/>
<path d="M157.918 78.2703C157.698 76.46 157.016 74.7447 156.167 73.2372C155.306 71.7297 154.309 70.3943 153.3 69.1895C152.558 68.2814 151.716 67.4445 150.879 66.6611C150.042 65.8717 149.312 65.0111 148.6 64.1505C148.249 63.6934 147.876 63.1593 147.496 62.5777C147.122 61.9901 146.665 61.4262 146.243 60.8149C145.804 60.2273 145.401 59.5804 144.938 59.0581C144.487 58.518 144.047 58.0135 143.644 57.5743C143.038 56.8858 142.362 56.4407 141.715 56.0608C141.056 55.6929 140.427 55.3783 139.762 55.1349C138.415 54.666 137.127 54.1734 135.59 53.2594C134.029 52.2326 133.014 51.6985 132.017 51.0278C131.518 50.6835 130.996 50.3868 130.385 50.0247C129.767 49.6746 129.079 49.2176 128.177 48.7724C127.844 48.6062 127.138 48.351 126.509 48.1433C126.194 48.0424 125.898 47.9474 125.684 47.8762C125.464 47.8109 125.316 47.7812 125.316 47.7812L123.369 55.3842C125.239 55.8709 126.592 56.0846 127.761 56.3576C128.349 56.4882 128.913 56.5653 129.447 56.7374C129.987 56.9036 130.533 57.0876 131.115 57.3309C131.815 57.598 132.414 58.061 133.032 58.4824C133.334 58.696 133.643 58.9097 133.952 59.1115C134.26 59.3133 134.557 59.5388 134.877 59.7228C135.423 60.0433 135.987 60.3282 136.575 60.5893C137.133 60.892 137.703 61.177 138.278 61.4678L139.139 61.9129C139.412 62.0791 139.679 62.2572 139.946 62.4352C140.48 62.7913 140.997 63.1771 141.477 63.5985C143.299 65.4147 144.386 67.4861 145.709 69.593C146.071 70.1628 146.463 70.6436 146.837 71.0828C147.175 71.5279 147.573 71.9196 147.911 72.3291C148.623 73.1363 149.318 73.9791 149.846 75.1128C150.054 75.6232 150.113 76.2582 150.089 76.9289C150.089 77.5996 150.018 78.3 150.101 79.0181L157.912 78.2643L157.918 78.2703Z" fill="#77B975"/>
<path d="M133.107 112.996C133.398 112.243 133.861 111.174 134.519 110.058C135.166 108.943 135.95 107.767 136.822 106.693C138.128 105.085 139.452 103.239 141.202 101.981C143.007 100.705 146.099 99.1554 147.986 97.7725C149.434 96.722 150.218 95.5112 150.912 94.2649C151.607 93.0066 152.23 91.7364 153.358 90.2408C154.509 88.668 155.18 87.6056 155.833 86.466C156.456 85.3146 157.15 84.0919 157.75 81.8069C157.874 81.3855 157.946 80.5071 157.969 79.7296C157.957 79.3438 157.951 78.9818 157.946 78.7147C157.946 78.5841 157.934 78.4713 157.934 78.3941C157.928 78.317 157.922 78.2755 157.922 78.2695L150.111 79.0233C150.277 80.5546 150.277 81.6348 150.23 82.6438C150.17 83.6409 150.028 84.549 149.541 85.5757C148.966 86.7984 147.874 87.7302 147.025 88.852C145.571 90.775 144.301 93.149 142.271 94.8762C140.241 96.5914 137.956 97.5588 135.706 99.1673C134.49 100.04 133.617 100.966 132.774 101.957C131.932 102.954 131.124 103.993 130.032 105.221C129.546 105.785 128.863 106.266 128.121 106.942C127.385 107.613 126.56 108.444 125.967 109.756L133.113 112.996H133.107Z" fill="#77B975"/>
<path d="M160.433 121.134C160.183 121.295 159.958 121.497 159.709 121.651C159.459 121.805 159.21 121.971 158.967 122.149C158.486 122.529 157.958 122.814 157.441 123.158C156.391 123.811 155.245 124.375 154.035 124.731C153.589 124.897 153.121 124.992 152.646 125.105C152.171 125.2 151.684 125.366 151.186 125.396C150.195 125.473 149.168 125.55 148.206 125.248C147.714 125.099 147.156 124.969 146.598 124.684C146.04 124.411 145.458 124.114 144.894 123.817C144.325 123.526 143.791 123.123 143.268 122.802C142.758 122.458 142.265 122.203 141.844 121.888C140.538 120.992 139.345 120.749 138.14 120.393C136.965 120.048 135.713 119.692 134.591 118.66C133.445 117.591 132.965 116.831 132.662 116.101C132.514 115.739 132.442 115.383 132.419 115.033C132.431 114.689 132.49 114.374 132.668 114.089C132.745 113.977 132.775 113.775 132.894 113.52C132.923 113.401 133 113.264 133.042 113.169C133.078 113.075 133.113 113.003 133.113 113.003L125.967 109.763C125.344 111.146 125.059 112.641 125.124 113.977C125.19 115.312 125.528 116.464 125.985 117.36C126.893 119.182 127.991 120.232 129.172 121.408C130.585 122.755 131.819 124.132 133.345 125.064C134.662 125.829 136.021 126.387 137.446 126.832C138.152 127.064 138.852 127.289 139.541 127.544C140.229 127.794 140.953 127.996 141.63 128.286C142.971 128.892 144.313 129.39 145.63 129.996C147.007 130.465 148.396 131.028 149.993 131.207C150.42 131.266 150.83 131.313 151.227 131.343C151.625 131.355 152.023 131.319 152.397 131.296C152.776 131.266 153.144 131.224 153.506 131.171L154.046 131.094L154.581 130.957C155.287 130.767 155.993 130.589 156.717 130.364C157.435 130.097 158.189 129.859 159.002 129.598C159.715 129.307 160.587 129.218 161.537 129.005C162.463 128.749 163.543 128.5 164.516 127.853L160.439 121.146L160.433 121.134Z" fill="#77B975"/>
<path d="M182.501 87.499C180.726 89.701 179.325 92.354 177.693 94.8587L177.467 95.2207L177.165 95.6896C176.927 96.0516 176.696 96.4137 176.488 96.7757C176.447 97.2149 176.405 97.6541 176.352 98.0696L176.292 98.8768C176.191 99.9273 176.001 100.972 175.604 101.939C174.809 103.945 172.868 106.598 171.693 108.302C170.802 109.631 170.458 110.795 170.108 112.005C169.93 112.605 169.728 113.192 169.467 113.81C169.188 114.409 168.826 115.015 168.304 115.62C167.206 116.848 166.428 117.489 165.615 118.101C165.194 118.374 164.766 118.653 164.268 118.979C163.745 119.252 163.17 119.596 162.451 119.947C162.178 120.065 161.686 120.38 161.264 120.671C160.825 120.92 160.445 121.134 160.439 121.14L164.517 127.846C166.636 126.535 167.781 125.247 168.755 124.155C169.686 123.021 170.405 122.03 171.342 120.867C171.912 120.196 172.482 119.543 173.099 118.914C173.663 118.255 174.257 117.602 174.708 116.854C176.286 114.296 176.892 111.353 178.085 108.753C179.278 106.141 180.762 103.975 181.759 101.215C181.889 100.841 182.002 100.479 182.091 100.123C182.138 99.9451 182.18 99.767 182.216 99.589C182.233 99.4881 182.216 99.5415 182.204 99.5178C182.186 99.5059 182.156 99.4822 182.138 99.4525C182.127 99.4406 182.115 99.4228 182.103 99.3991L182.317 99.0548C182.928 98.0755 183.599 97.0191 184.554 95.8973C185.415 94.8883 187.071 94.1998 188.406 92.6864L182.506 87.5109L182.501 87.499Z" fill="#77B975"/>
<path d="M198.044 53.562C198.359 54.6719 198.709 55.8233 198.988 57.0579C199.267 58.2924 199.457 59.5981 199.457 60.9098C199.463 62.8506 199.445 65.0466 198.549 66.9043C197.659 68.8332 195.522 71.2845 194.192 72.8989C193.183 74.1512 192.756 75.3323 192.305 76.5371C191.854 77.736 191.397 78.9646 190.299 80.211C187.996 82.769 187.26 83.2083 184.405 85.5349C184.144 85.7485 183.669 86.2352 183.26 86.6744C182.85 87.1136 182.5 87.4994 182.494 87.5053L188.394 92.6808C191.171 89.3927 191.753 87.624 193.439 85.3984C194.424 84.0748 195.73 82.9946 196.667 81.6058C198.276 79.2139 199.119 76.3828 200.525 73.8781C201.92 71.3676 203.617 69.2725 204.733 66.4236C205.327 64.8923 205.517 63.4975 205.57 62.0968C205.629 60.6961 205.582 59.2954 205.552 57.6098C205.54 56.8561 205.713 56.0192 205.802 55.0518C205.914 54.0903 205.938 52.9982 205.689 51.8408L198.032 53.562H198.044Z" fill="#77B975"/>
<path d="M169.169 35.1036C170.285 34.9315 171.466 34.7178 172.73 34.5695C173.366 34.5279 174.012 34.4448 174.677 34.4567C175.01 34.4567 175.342 34.4389 175.668 34.4567C176.001 34.4804 176.333 34.5101 176.665 34.5339C178.63 34.7416 180.844 34.9078 182.672 35.9168C183.61 36.4272 184.714 37.2165 185.734 38.0771C186.767 38.9199 187.729 39.828 188.482 40.5106C189.658 41.5492 190.732 42.0359 191.848 42.5523C192.928 43.0865 194.067 43.6503 194.993 44.8907C195.456 45.5377 195.818 46.0659 196.074 46.5704C196.352 47.0571 196.542 47.5082 196.715 47.9652C197.047 48.8792 197.332 49.8347 197.545 51.366C197.581 51.645 197.729 52.1851 197.842 52.6658C197.896 52.9032 197.949 53.1288 197.985 53.2949C198.026 53.4552 198.038 53.568 198.044 53.568L205.7 51.8468C205.107 49.3896 204.217 47.8109 203.386 46.5526C202.537 45.2943 201.73 44.2972 200.78 43.0746C199.67 41.6442 198.756 40.0239 197.403 38.8309C196.833 38.3146 196.204 37.8694 195.575 37.448C194.928 37.0563 194.287 36.6468 193.616 36.3144C192.952 35.9642 192.299 35.62 191.64 35.2876C191.314 35.1214 190.993 34.9434 190.673 34.7594C190.352 34.5873 190.032 34.4092 189.723 34.2193C187.242 32.7177 185.26 31.0024 182.577 29.7145C181.129 29.026 179.787 28.7411 178.428 28.5512C177.74 28.474 177.075 28.3731 176.339 28.3256C175.615 28.2604 174.855 28.1891 174.024 28.106C173.288 28.0111 172.463 27.7855 171.526 27.5481C171.051 27.4532 170.546 27.3582 170.006 27.2929C169.466 27.2632 168.896 27.2336 168.297 27.3048L169.163 35.1036H169.169Z" fill="#77B975"/>
<path d="M131.203 21.6956C131.767 22.0992 132.36 22.4731 132.978 22.8292C133.583 23.2031 134.206 23.5592 134.835 23.9094C136.106 24.5919 137.364 25.3279 138.563 26.0757C140.331 27.2331 142.332 28.2836 143.762 29.8802C144.498 30.6992 145.311 31.8269 146.112 32.9784C146.522 33.5541 146.931 34.1357 147.317 34.6818C147.495 34.9429 147.756 35.2515 147.982 35.5186C148.219 35.7916 148.421 36.0587 148.676 36.2902C150.119 37.7443 152.012 38.4684 153.994 38.504C154.979 38.504 155.971 38.3616 156.885 38.0767C157.805 37.8155 158.689 37.4713 159.591 37.1567C160.475 36.8362 161.194 36.581 161.829 36.3495C162.434 36.1418 162.933 35.9816 163.443 35.8569C164.452 35.6076 165.467 35.4177 166.986 35.3584C167.129 35.3584 167.331 35.3227 167.562 35.2931C167.794 35.2693 168.049 35.2337 168.286 35.1981C168.767 35.1447 169.176 35.1031 169.188 35.1031L168.322 27.3043C165.776 27.6367 164.102 28.3845 162.778 29.073C161.461 29.7734 160.44 30.4678 159.229 31.1028C157.805 31.8566 156.38 32.0584 155.704 32.1415C155.395 32.183 155.175 32.2542 154.873 32.2483C154.582 32.2839 154.196 32.2068 153.763 32.0999L153.08 31.8329C152.843 31.7082 152.605 31.5717 152.374 31.4352C151.899 31.1088 151.466 30.7823 150.967 30.2719C149.068 28.3549 147.816 26.1351 145.928 24.0815C143.893 21.8558 141.857 21.108 139.495 19.2147C138.426 18.3778 137.649 16.7278 136.011 15.4814L131.221 21.7015L131.203 21.6956Z" fill="#77B975"/>
<path d="M94.8667 7.85518C95.5314 7.84331 96.1962 7.78396 96.8728 7.69494C97.5494 7.61184 98.2319 7.47533 98.9204 7.43379C99.6148 7.36257 100.303 7.29134 100.992 7.22605C101.342 7.19044 101.686 7.16076 102.03 7.12515C102.375 7.11921 102.719 7.12515 103.057 7.12515C104.072 7.15482 105.14 7.07766 106.197 7.14295C107.242 7.24385 108.292 7.4041 109.271 7.73647C110.274 8.11039 111.45 8.80482 112.601 9.45769C113.741 10.1699 114.833 10.9593 115.729 11.4875C117.082 12.3837 118.293 12.6686 119.545 12.9654C120.156 13.1375 120.78 13.3037 121.421 13.5411C122.062 13.7785 122.726 14.0753 123.379 14.5798C124.756 15.5947 125.575 16.2535 126.347 17.0369C127.124 17.8025 127.902 18.5919 129.13 19.9392C129.356 20.1826 129.872 20.6099 130.335 20.9719C130.561 21.1619 130.775 21.3399 130.929 21.4705C131.089 21.5951 131.19 21.6782 131.19 21.6841L135.98 15.4641C135.119 14.7993 134.33 14.3008 133.623 13.8735C132.911 13.4521 132.294 13.09 131.689 12.7873C130.472 12.1938 129.445 11.6834 128.24 10.9474C126.804 10.1046 125.617 8.86416 124.109 8.09852C123.474 7.76022 122.815 7.46347 122.145 7.19638C121.462 6.95304 120.768 6.73344 120.079 6.5079C119.385 6.29423 118.72 6.03901 118.026 5.83128C117.337 5.61762 116.661 5.38021 116.002 5.08938C114.702 4.47806 113.468 3.91421 112.239 3.26728C111.022 2.5966 109.728 2.09213 108.345 1.61138C107.972 1.48674 107.604 1.3799 107.253 1.29087C106.897 1.21371 106.541 1.17217 106.197 1.13063C105.508 1.04754 104.844 1.01191 104.185 0.988172C102.867 0.893209 101.532 1.0416 99.965 0.922894C98.5762 0.768579 96.8906 0.0504111 94.7539 0.00292969L94.8607 7.84924L94.8667 7.85518Z" fill="#77B975"/>
<path d="M58.5436 22.2362C59.054 21.7614 59.6001 21.334 60.1105 20.8414C60.6209 20.3607 61.1254 19.8502 61.624 19.3339C62.1225 18.8116 62.6151 18.2893 63.1078 17.7729C63.6063 17.2566 64.1464 16.8114 64.6687 16.3544C65.4521 15.66 66.2593 14.9478 67.0606 14.2415C67.2683 14.0694 67.4701 13.8973 67.6838 13.7311C67.9034 13.5827 68.123 13.4402 68.3485 13.3037C68.7996 13.0307 69.2625 12.7814 69.7492 12.5796C70.2478 12.3719 70.8176 12.1701 71.4289 11.9743C72.0402 11.7784 72.6812 11.5825 73.3578 11.4698C74.6873 11.2027 76.0049 10.9653 77.0198 10.7101C77.4056 10.6032 77.7736 10.5083 78.1178 10.4074C78.4621 10.3005 78.7766 10.1759 79.0793 10.0394C79.6847 9.76637 80.2248 9.43993 80.7708 9.1135C81.0439 8.94731 81.3169 8.78113 81.5958 8.61494C81.8748 8.44876 82.1775 8.33599 82.4921 8.20541C83.1153 7.95614 83.8037 7.7484 84.6109 7.6297C86.2728 7.33888 87.3292 7.42197 88.3916 7.43977C88.9199 7.46945 89.454 7.4932 90.0772 7.52881C90.7004 7.57629 91.4126 7.7128 92.2792 7.81963C92.9202 7.90272 94.855 7.80182 94.8728 7.8493L94.766 0.00299038C94.1962 -0.0148152 93.6799 0.0504798 93.1932 0.103896C92.7065 0.157313 92.2554 0.222593 91.834 0.281945C90.9912 0.406583 90.2612 0.549036 89.5846 0.67961C88.2492 1.05353 87.1215 1.4037 85.6971 1.64111C84.8543 1.75387 84.0233 1.90225 83.1746 1.99128C82.3318 2.09218 81.4831 2.19902 80.6521 2.40675C79.934 2.56106 79.2752 2.8875 78.6045 3.17239C77.9398 3.46915 77.281 3.78964 76.6281 4.1042C75.2986 4.69179 74.076 5.45743 72.7346 5.96786C72.0699 6.22901 71.4051 6.44267 70.7404 6.6326C70.0697 6.81065 69.4465 7.06587 68.7937 7.26766C67.4998 7.695 66.194 8.11046 64.8586 8.68024C63.4817 9.37466 62.4549 10.1759 61.4578 10.995C60.9592 11.4045 60.4666 11.814 59.9443 12.2473C59.4398 12.6924 58.9116 13.1613 58.2943 13.6183C57.7483 14.0278 57.0301 14.3186 56.2289 14.657C55.8312 14.8231 55.4158 15.0071 54.9944 15.2208C54.567 15.4285 54.1397 15.6778 53.7539 16.0043L58.5317 22.2303L58.5436 22.2362Z" fill="#77B975"/>
<path d="M30.1558 51.9889C30.9808 50.8315 31.6871 49.5436 32.3637 48.2438C33.0581 46.9677 33.7288 45.6679 34.447 44.4394C35.5272 42.6173 36.4293 40.5103 38.0022 39.068C38.7915 38.3143 39.8895 37.4655 40.9875 36.6405C41.5395 36.231 42.0915 35.8215 42.6138 35.4298C43.142 35.044 43.6584 34.7057 44.0857 34.3792C45.4211 33.3821 46.1215 32.3019 46.8159 31.1861C47.1661 30.6341 47.5044 30.0643 47.9258 29.5124C48.365 28.9841 48.8813 28.4559 49.552 27.9514C52.3178 25.8682 53.0716 25.4883 56.33 23.8087C56.6268 23.6484 57.1728 23.2626 57.6535 22.9065C57.8909 22.7285 58.1105 22.5623 58.2708 22.4376C58.431 22.313 58.5319 22.2299 58.5379 22.2299L53.7601 16.0039C50.4186 18.8053 49.4392 20.3307 47.445 22.2715C46.2461 23.3932 44.7564 24.1826 43.5575 25.3102C41.6048 27.346 40.1685 29.8447 38.1921 31.8152C36.275 33.8332 34.0968 35.1923 32.0848 37.1509C30.0015 39.3292 29.3546 41.3768 27.5325 43.7568C26.7075 44.8192 25.1466 45.6442 23.918 47.217L30.1558 51.977V51.9889Z" fill="#77B975"/>
<path d="M10.1771 86.7032C10.4382 84.4123 10.6163 81.5515 11.3285 78.8866C11.8626 76.9102 12.3315 74.7142 13.4889 72.9514C14.6878 71.1353 17.0856 68.8087 18.51 67.1884C20.712 64.7016 20.4449 62.3512 22.6113 59.7694C24.8844 57.1164 25.6085 56.6356 28.3624 54.1132C28.6177 53.8817 29.0628 53.3594 29.4486 52.8905C29.8284 52.4157 30.1549 52.0062 30.1608 52.0003L23.9229 47.2402C21.4064 50.6708 20.9197 52.4217 19.341 54.677C18.4091 56.0006 17.1509 57.0867 16.2309 58.434C14.6759 60.7665 13.7797 63.4967 12.2425 65.8411C10.7053 68.1736 8.84164 69.9661 7.32223 72.4114C6.50911 73.7349 6.06991 74.9694 5.69599 76.2277C5.33394 77.5037 5.02532 78.7798 4.53863 80.3111C4.10536 81.6643 2.82336 83.1303 2.43164 85.4806L10.183 86.7151L10.1771 86.7032Z" fill="#77B975"/>
<path d="M13.0215 121.02C14.2323 118.652 15.0335 115.857 16.3868 113.435C16.6242 112.978 16.8556 112.503 17.0871 112.029C17.3067 111.56 17.6213 111.02 17.8943 110.527C18.4463 109.5 19.022 108.497 19.6748 107.488C20.0072 106.954 20.4049 106.367 20.7729 105.607C20.8619 105.405 20.9628 105.251 21.0459 105.001C21.1349 104.758 21.218 104.503 21.3011 104.248C21.3664 103.986 21.4198 103.719 21.4673 103.446C21.5088 103.173 21.5207 102.894 21.5385 102.615C21.5741 101.488 21.2239 100.354 20.6185 99.4105C20.025 98.4609 19.1407 97.6774 18.6303 97.2738C17.7518 96.5794 16.9862 96.2292 16.2918 95.974C15.5974 95.7247 14.9564 95.5882 14.3391 95.4576C13.1343 95.1965 11.9057 94.9413 10.9442 93.9857C9.99457 93.0005 9.75123 92.3061 9.62065 91.5879C9.52569 90.8579 9.52569 90.1279 9.84619 88.8103C9.8818 88.6856 9.90554 88.5016 9.92335 88.2939C9.95896 88.0743 9.99457 87.8309 10.0242 87.5995C10.1014 87.1246 10.1667 86.7151 10.1726 86.7032L2.42128 85.4688C2.0711 87.9734 2.30851 89.9557 2.83674 91.6413C3.38871 93.3269 4.16622 94.7395 5.31171 96.2351C6.67087 97.9801 8.1784 99.5054 9.83432 100.402C11.2528 101.161 12.6773 101.535 13.8821 101.909C14.4816 102.093 15.0395 102.283 15.4668 102.485C15.906 102.71 15.9772 102.734 16.0959 102.924C16.185 103.09 16.1731 103.298 16.0841 103.452C15.995 103.63 15.8823 103.63 15.6389 104.028C15.1344 104.711 14.3985 105.5 13.6269 106.39C13.2114 106.877 12.8375 107.358 12.5111 107.844C12.1431 108.402 11.8107 108.984 11.4962 109.56C11.1816 110.135 10.867 110.705 10.5347 111.311C10.2082 111.91 9.80464 112.498 9.43072 113.186C9.08055 113.791 8.51671 114.349 7.90538 114.984C7.59675 115.305 7.27626 115.643 6.96763 116.011C6.81331 116.195 6.65306 116.391 6.51062 116.599C6.38004 116.812 6.24947 117.038 6.13077 117.275L13.0215 121.032V121.02Z" fill="#77B975"/>
<path d="M11.0386 157.659C9.77443 155.795 8.11258 153.48 7.09766 150.999C6.31422 149.165 5.44768 147.135 5.45362 145.07C5.42988 144.542 5.51297 143.948 5.61387 143.325C5.70883 142.702 5.83347 142.049 5.95217 141.402C6.29048 140.138 6.62878 138.868 6.9018 137.865C7.13921 137.105 7.22824 136.422 7.25198 135.77C7.26385 135.443 7.25198 135.123 7.23417 134.808C7.21636 134.494 7.23417 134.185 7.2223 133.87C7.21637 133.247 7.20449 132.618 7.25198 131.947C7.28165 131.615 7.31726 131.265 7.38848 130.915C7.48345 130.564 7.60809 130.208 7.7624 129.834C8.42121 128.285 8.81886 127.348 9.44206 126.463C9.73882 126.024 10.0415 125.579 10.3917 125.057C10.7478 124.546 11.1158 123.947 11.6915 123.264C11.8933 123.009 12.2257 122.451 12.5046 121.958C12.6411 121.709 12.7717 121.478 12.8667 121.306C12.9557 121.133 13.015 121.021 13.021 121.021L6.13023 117.264C4.06478 121.288 4.06478 123.246 3.08548 125.953C2.84214 126.772 2.49196 127.549 2.14772 128.339C1.9756 128.73 1.79161 129.122 1.64323 129.526C1.51266 129.935 1.39989 130.351 1.30492 130.772C1.15061 131.496 1.04378 132.226 0.960684 132.956L0.901332 133.508L0.889462 134.066L0.871657 135.176C0.859786 135.912 0.853851 136.648 0.812304 137.378C0.812304 138.108 0.812305 138.844 0.741083 139.568C0.456194 142.458 -0.083908 145.088 0.0110549 148.091C0.0704067 148.898 0.206916 149.628 0.367166 150.317C0.450258 150.661 0.533351 150.993 0.628314 151.32C0.741083 151.646 0.865722 151.967 0.990361 152.281C1.23964 152.91 1.48892 153.539 1.75006 154.204C2.04682 154.857 2.34358 155.546 2.6166 156.305C2.84807 156.988 3.038 157.801 3.21012 158.721C3.28728 159.184 3.43565 159.665 3.61964 160.163C3.80957 160.662 3.99356 161.178 4.31406 161.694L11.0386 157.647V157.659Z" fill="#77B975"/>
<path d="M11.0382 157.659L7.67884 159.683L5.99919 160.692L5.15639 161.197L4.735 161.452L4.52726 161.577L4.42043 161.642L4.36701 161.671L4.34327 161.689H4.3314L4.32547 161.701C4.05838 162.057 4.06432 162.045 3.92188 162.235C5.34038 164.123 5.2929 164.057 6.04667 165.066L6.05854 165.049L6.08228 165.031L6.12976 164.989L6.21879 164.906L6.40278 164.74L6.76483 164.414L7.49485 163.755L8.94897 162.437L11.8572 159.808L11.8928 159.849L11.9225 159.891L11.9522 159.932V159.944L11.97 159.956L11.9878 159.98L12.0234 160.033L12.0531 160.087L12.0768 160.14L12.1006 160.194L12.1184 160.253L12.1362 160.312L12.1599 160.425L12.1718 160.479V160.532L12.1836 160.585V160.639V160.692V160.746L12.1658 160.799L12.154 160.852L12.1421 160.9L12.1243 160.936L12.1065 160.971L12.0887 161.007L12.0649 161.042L12.0412 161.078L12.0115 161.114L11.9819 161.149L11.9462 161.179L11.9106 161.209L11.8928 161.22H11.875L11.8394 161.238L11.7682 161.262L11.691 161.28L11.6079 161.292H11.5189L11.4239 161.304H11.418L11.4061 161.292L11.3824 161.274L11.3349 161.238L11.145 161.09L10.9432 160.941L10.7236 160.799L10.4921 160.657L10.2488 160.52L10.3912 160.277L10.5218 160.039L10.6346 159.808L10.7355 159.576L10.8245 159.351L10.866 159.244L10.9135 159.143L10.9966 158.947L11.0619 158.763L11.1153 158.591L11.1569 158.425L11.1687 158.348L11.1806 158.271V158.199L11.1925 158.128V158.057L11.1865 157.992L11.1747 157.926L11.1628 157.867L11.145 157.808L11.1212 157.754L11.0916 157.701L11.0619 157.647L11.0382 157.659Z" fill="#77B975"/>
</svg>
