<svg width="184" height="251" viewBox="0 0 184 251" fill="none" xmlns="http://www.w3.org/2000/svg">
<path d="M150.535 38.7721C139.478 44.6895 135.816 107.412 139.478 114.404C143.14 121.396 146.873 112.814 149.04 119.758C151.075 126.286 154.387 163.797 149.04 168.48C143.692 173.162 127.934 186.178 132.718 187.419C137.502 188.659 147.817 176.326 153.978 177.151C171.748 179.519 181.558 226.009 169.831 229.072C88.4117 253.744 129.459 209.622 89.0171 219.083C81.1589 221.783 78.6483 183.264 76.5176 209.99C73.5025 247.845 36.556 249.768 22.7211 244.551C-1.64279 235.363 -0.503232 205.117 15.3022 199.55C31.1075 193.983 44.4202 198.179 51.8451 195.716C64.4158 191.544 58.1482 175.317 68.5823 174.183C92.7741 171.554 88.6432 155.244 90.1032 138.655C91.5396 122.328 86.0495 84.0457 86.0495 84.0457C86.0495 84.0457 80.7969 84.8351 80.9571 88.1707C82.0492 111.692 77.5919 154.585 74.5649 159.737C71.5321 164.883 56.8722 168.337 60.0237 162.705C84.4826 119.063 57.6259 77.2914 61.0921 70.2998C64.5582 63.3081 58.7477 58.6787 58.7477 58.6787C58.7477 58.6787 54.0589 85.9568 46.7883 86.6809C21.1602 89.2271 32.9593 31.3591 34.8348 17.0969C36.7104 2.82869 83.2362 11.0726 83.2362 11.0726C83.2362 11.0726 119.067 -1.62865 139.466 3.72489C158.827 8.81134 202.705 18.456 169.825 43.8823C145.775 62.4773 161.575 32.8488 150.517 38.7662L150.535 38.7721Z" fill="#EBFEB3"/>
<path d="M83.3384 117.23C83.3978 114.962 82.9348 112.594 82.7152 110.345C82.555 108.665 82.1811 106.92 82.365 105.241C82.549 103.519 83.2494 100.944 83.5105 99.2164C83.9201 96.5575 82.7508 95.1211 82.9408 92.4444C83.0239 91.0496 83.1248 90.189 83.2375 89.3046C83.2672 89.085 83.3028 88.8595 83.3325 88.628C83.3503 88.5093 83.3681 88.3906 83.3859 88.2719C83.3978 88.2126 83.4037 88.1473 83.4156 88.088C83.4274 88.0464 83.4512 88.0583 83.4631 88.0405C83.4927 88.0226 83.5165 88.0049 83.5343 87.9871C83.564 87.9811 83.6055 87.9871 83.6292 87.9871C83.6352 87.9871 83.6945 87.993 83.7183 87.9989C83.7361 87.9989 83.7361 87.9989 83.7598 88.0049H83.831C83.831 88.0049 83.8607 88.0049 83.8726 87.993C83.9023 87.9811 83.9319 87.9693 83.9616 87.9515C83.9972 87.9159 84.1159 87.8683 84.1872 87.809C84.294 87.7496 84.3949 87.6963 84.472 87.6547C84.5611 87.6132 84.6204 87.5835 84.6204 87.5835L81.9318 82.3486C80.9228 82.8828 80.0207 83.601 79.3618 84.5388C79.0235 84.9898 78.7861 85.5299 78.6021 86.0344C78.4716 86.5626 78.3351 87.0849 78.3647 87.5597C78.3647 87.7971 78.3707 88.0345 78.3885 88.26C78.4063 88.4084 78.43 88.5034 78.4478 88.628C78.4834 88.8595 78.519 89.091 78.5606 89.3225C78.6259 89.7854 78.6852 90.2543 78.7031 90.7825C78.7505 92.017 78.4656 93.2456 78.4834 94.486C78.525 96.6049 79.0888 98.7238 78.982 100.86C78.8752 102.985 78.2935 104.855 78.0502 106.962C77.789 109.241 78.3113 110.784 78.252 113.087C78.2282 114.12 77.5813 115.325 77.4863 116.856L83.3622 117.23H83.3384Z" fill="#EBFEB3"/>
<path d="M79.8652 150.401C80.1561 148.122 79.8949 145.713 79.8652 143.445C79.8415 141.754 79.6159 139.985 79.9305 138.323C80.251 136.62 81.1591 134.115 81.5627 132.424C82.1978 129.824 81.165 128.293 81.6102 125.657C82.0613 122.921 82.3402 122.298 83.0702 119.42C83.1355 119.153 83.2008 118.607 83.2542 118.126C83.3017 117.645 83.3373 117.23 83.3373 117.218L77.4615 116.844C77.2953 120.102 77.6811 121.438 77.5446 123.556C77.4674 124.803 77.052 126.008 76.957 127.248C76.7967 129.379 77.1707 131.545 76.8917 133.67C76.6068 135.783 75.8768 137.599 75.4613 139.682C75.0162 141.932 75.4079 143.505 75.1586 145.784C75.0459 146.805 74.298 147.944 74.0547 149.434L79.8652 150.383V150.401Z" fill="#EBFEB3"/>
<path d="M59.2536 157.88C59.0221 158.385 58.8381 158.854 58.6244 159.441C58.2743 160.326 57.9538 161.192 57.657 162.023C57.2831 162.824 57.2594 163.703 57.4137 164.468C57.562 165.234 58.0487 166.023 58.7194 166.468C59.212 166.813 59.8055 166.985 60.4169 167.098C61.046 167.181 61.6929 167.193 62.3399 167.115L62.8206 167.068L63.2954 166.985L63.7584 166.908L64.1442 166.825L64.8623 166.676L65.533 166.557C66.447 166.409 67.5984 166.267 68.7558 166.035C69.9132 165.81 71.0765 165.495 71.9786 165.121C73.3734 164.539 74.2636 163.661 75.0174 162.622C75.3913 162.088 75.7415 161.542 76.0798 160.866C76.2519 160.545 76.3944 160.147 76.5428 159.797C76.6496 159.471 76.798 159.127 76.9345 158.782C77.4686 157.417 77.7951 156.574 78.1275 155.708C78.4717 154.859 78.8397 154.005 79.362 152.586C79.4629 152.325 79.5875 151.779 79.6884 151.298C79.7834 150.817 79.8605 150.402 79.8665 150.39L74.0559 149.44C73.5692 152.616 73.7948 153.969 73.3496 155.933C73.2784 156.218 73.1953 156.503 73.0944 156.764L72.7621 157.53L72.4237 158.153C72.3288 158.266 72.2813 158.391 72.1745 158.521C71.8896 158.99 71.3554 159.673 70.7203 160.296C70.0734 160.919 69.29 161.501 68.3937 161.875C67.5035 162.249 66.5835 162.427 65.6814 162.527C65.2303 162.575 64.7852 162.605 64.34 162.628L64.0136 162.64C63.9008 162.64 63.7881 162.652 63.7346 162.64C63.5981 162.628 63.4141 162.634 63.4616 162.605C63.4616 162.51 63.4616 162.64 63.242 162.735C63.0224 162.842 62.7375 162.771 62.8562 162.522C62.9393 162.338 63.1945 162.148 63.426 162.017C63.4913 161.975 63.5269 161.976 63.6041 161.904C63.7109 161.768 63.8177 161.619 63.9246 161.471C64.1382 161.174 64.34 160.848 64.524 160.492L59.2595 157.862L59.2536 157.88Z" fill="#EBFEB3"/>
<path d="M67.3417 127.29C67.3061 129.462 67.6859 131.753 67.7037 133.955C67.7215 135.593 67.8758 137.344 67.4188 138.935C66.9796 140.579 65.751 142.876 65.0626 144.401C64.0061 146.734 64.6708 148.407 63.555 150.776C62.3799 153.197 61.9169 153.696 60.2788 156.028C60.1245 156.242 59.8693 156.705 59.6556 157.114C59.436 157.524 59.252 157.874 59.2461 157.886L64.5106 160.515C65.2466 158.978 65.6323 157.844 65.9232 156.841C66.2318 155.844 66.4514 154.972 66.8491 153.951C67.312 152.746 68.0598 151.66 68.4634 150.425C69.1816 148.312 69.2587 146.039 69.8701 143.926C70.4814 141.819 71.4191 140.021 71.9652 137.867C72.5468 135.534 72.1848 133.884 72.3628 131.516C72.44 130.453 73.1225 129.219 73.2116 127.617L67.3357 127.29H67.3417Z" fill="#EBFEB3"/>
<path d="M63.7812 95.4365C64.3985 97.5613 65.4965 99.6445 66.2503 101.734C66.8141 103.289 67.5501 104.891 67.6925 106.547C67.8468 108.251 67.562 110.85 67.4789 112.53C67.3602 115.112 68.6244 116.417 68.5116 119.035C68.3573 121.735 68.1436 122.37 67.556 125.172C67.4967 125.427 67.4433 125.955 67.4077 126.418C67.372 126.881 67.3424 127.279 67.3424 127.291L73.2182 127.617C73.3488 124.216 72.8324 122.863 72.779 120.679C72.7374 119.397 73.0045 118.109 72.9096 116.821C72.7552 114.613 71.9777 112.488 71.7759 110.31C71.5741 108.138 71.8115 106.144 71.586 103.959C71.3427 101.597 70.4405 100.185 69.8648 97.9055C69.6037 96.8846 69.8648 95.5136 69.485 93.9883L63.7812 95.4306V95.4365Z" fill="#EBFEB3"/>
<path d="M58.8556 63.7713C59.1761 64.4775 59.4669 65.1838 59.6509 65.9969C59.7696 66.4005 59.7755 66.8338 59.8289 67.279C59.8289 67.5045 59.8052 67.7241 59.7933 67.9556C59.7814 68.1871 59.7636 68.4185 59.6983 68.6441L59.5856 69.1664C59.544 69.3563 59.5381 69.4512 59.4075 69.8786C59.2235 70.573 59.2295 71.1665 59.271 71.6888C59.36 72.7453 59.5678 73.6237 59.6568 74.514C59.8408 76.3302 59.9357 79.0306 60.185 80.7637C60.5649 83.4226 62.0961 84.4495 62.6244 87.0491C63.1645 89.7437 63.1229 90.4143 63.3604 93.3166C63.3782 93.5837 63.485 94.1119 63.5859 94.5689C63.6868 95.0319 63.7817 95.4296 63.7817 95.4355L69.4855 93.9932C68.613 90.7645 67.7761 89.619 67.1589 87.5654C66.7968 86.3547 66.7375 85.0727 66.3695 83.8678C65.7344 81.8083 64.5593 79.9328 64.0607 77.8851C63.8114 76.8643 63.7105 75.879 63.663 74.9235C63.6215 73.9857 63.6215 73.0242 63.6749 72.2764C63.6927 71.8669 63.7343 71.5939 63.7165 71.5464C63.7105 71.5108 63.6986 71.5405 63.6808 71.5583L63.663 71.5701C63.663 71.5701 63.6393 71.5939 63.663 71.5405L63.7343 71.3209C63.8292 71.03 63.9182 70.7451 64.0013 70.4602C64.3337 69.3147 64.4762 68.0862 64.5652 66.6261C64.5652 66.2937 64.6067 65.9495 64.6602 65.5815C64.7076 65.2135 64.7195 64.8159 64.7492 64.3945C64.7848 63.5517 64.6898 62.602 64.3397 61.6465L58.8496 63.7713H58.8556Z" fill="#EBFEB3"/>
<path d="M40.5508 89.0258C41.8803 89.3938 43.275 89.4295 44.5748 89.2811C45.2277 89.198 45.8628 89.0911 46.4681 88.9309L46.9252 88.8241C46.9845 88.8122 47.1151 88.7766 47.2219 88.741L47.5483 88.64C47.762 88.5688 47.9816 88.5035 48.1716 88.4086L48.7117 88.1059C49.7325 87.4767 50.4091 86.6459 50.9255 85.8565C51.2163 85.4648 51.4181 85.0671 51.6852 84.6931C51.9166 84.3133 52.1541 83.9394 52.4152 83.5892C53.4598 82.1529 55.1098 80.0341 55.9585 78.5028C57.2583 76.1465 56.5817 74.4313 57.5373 72.0038C58.4988 69.4635 58.8786 68.9175 60.0597 66.2585C60.1666 66.0152 60.3209 65.4988 60.4396 65.0418C60.4989 64.8103 60.5523 64.5966 60.5939 64.4423C60.6295 64.2821 60.6532 64.1812 60.6532 64.1812L54.908 62.917C54.2729 65.9558 54.4332 67.2794 53.9405 69.232C53.6379 70.3775 53.0206 71.4161 52.6823 72.5379C52.1066 74.455 51.9938 76.5382 51.1451 78.3306C50.3082 80.0993 49.0381 81.4288 47.9341 82.5684C47.3465 83.1678 46.9904 83.5952 46.7708 83.8623C46.7293 83.8979 46.664 84.0106 46.6343 84.0284C46.6165 84.0462 46.6047 84.0641 46.5868 84.0878L46.5572 84.1293C46.5572 84.1293 46.4622 84.1531 46.4207 84.165C46.0171 84.2481 45.5779 84.3489 45.1149 84.343C44.6935 84.3727 44.2484 84.1828 43.7795 84.0047C43.554 83.8919 43.3225 83.7791 43.0732 83.6842C42.8358 83.5714 42.5925 83.4646 42.3254 83.3993L40.5626 89.014L40.5508 89.0258Z" fill="#EBFEB3"/>
<path d="M27.5645 58.252C27.6476 60.4895 28.3183 62.7805 28.805 64.9528C29.167 66.579 29.7784 68.223 29.903 69.873C30.0158 71.5705 29.9327 74.2354 30.2235 76.0159C30.4431 77.381 30.9951 78.3366 31.6301 79.2328C32.2533 80.135 32.9359 80.9778 33.6125 82.2301C34.3366 83.524 34.8648 84.3193 35.4643 85.1205C36.0637 85.9158 36.7106 86.7646 38.1291 87.8626C38.3844 88.0762 38.9838 88.3789 39.5121 88.6341C39.7851 88.7409 40.0403 88.8419 40.2302 88.9131C40.4201 88.9843 40.5388 89.0259 40.5448 89.0318L42.3075 83.4171C41.2036 83.0729 40.4498 82.7702 39.7791 82.4319C39.1203 82.0758 38.5268 81.7315 37.9808 81.0727C37.322 80.3011 37.0371 79.2744 36.5563 78.3544C35.7254 76.7816 34.5562 75.1553 34.1466 73.2264C33.7371 71.3093 33.9745 69.4932 33.8974 67.5346C33.8321 65.4098 33.1377 64.0387 32.9774 61.8665C32.9062 60.8931 33.4582 59.7001 33.4463 58.2579L27.5586 58.2698L27.5645 58.252Z" fill="#EBFEB3"/>
<path d="M30.5261 26.048C30.2828 28.2203 30.5439 30.5409 30.5736 32.7251C30.5973 34.3573 30.8169 36.0725 30.5024 37.6691C30.1759 39.3131 29.2797 41.7347 28.8761 43.3728C28.2648 45.9012 29.3094 47.385 28.9236 49.9431C28.5437 52.6139 28.2885 53.2252 27.701 56.08C27.6475 56.3412 27.606 56.8813 27.5882 57.3561C27.5822 57.5935 27.5704 57.8131 27.5645 57.9793C27.5645 58.1396 27.5645 58.2464 27.5645 58.2523L33.4521 58.2404C33.4165 55.1482 32.9892 53.8899 33.0486 51.8661C33.0901 50.6731 33.4699 49.5157 33.5412 48.3228C33.6658 46.287 33.2622 44.2037 33.5412 42.162C33.8142 40.1263 34.5502 38.3873 34.9656 36.3812C35.4167 34.2148 35.025 32.6895 35.2742 30.4756C35.387 29.4845 36.1289 28.3805 36.3485 26.9145L30.5261 26.0361V26.048Z" fill="#EBFEB3"/>
<path d="M53.8684 5.82129C51.619 5.98154 49.328 6.74718 47.1558 7.38224C45.5295 7.85706 43.9211 8.61078 42.2592 8.96689C41.3986 9.15088 40.2888 9.31711 39.1551 9.60794C38.0215 9.89283 36.8464 10.3379 35.9561 10.8899C34.5791 11.7564 33.8254 13.0147 33.4396 14.2967C33.2615 14.9495 33.1428 15.6083 33.0835 16.2968C33.0597 16.5995 33.03 16.9141 33.0004 17.2406C32.9707 17.5195 32.9232 17.8163 32.852 18.1249C32.2407 20.6948 31.9083 21.2705 30.9646 23.9651C30.8756 24.2144 30.7687 24.7308 30.6797 25.1878C30.5966 25.6448 30.5254 26.0424 30.5254 26.0484L36.3478 26.9268C36.7751 23.793 36.4962 22.4695 36.7751 20.4218C36.8582 19.8164 37.0185 19.2288 37.1787 18.6294C37.333 18.0596 37.5052 17.3177 37.5526 17.0863C37.6773 16.5165 37.8078 15.9467 38.158 15.3176C38.5023 14.7003 39.0958 14.0889 39.8614 13.6972C41.4224 12.9019 43.1851 12.9138 45.031 12.6586C47.043 12.4033 48.3487 11.6378 50.4795 11.3707C51.435 11.252 52.6339 11.7505 54.0643 11.703L53.8566 5.82129H53.8684Z" fill="#EBFEB3"/>
<path d="M84.7262 7.47626C84.3286 7.62464 83.9309 7.78494 83.5392 7.96893L83.2483 8.10542C83.1593 8.14697 83.0109 8.21222 83.0525 8.21816C83.0525 8.25377 83.0406 8.28942 83.0228 8.33096C83.011 8.3547 82.9931 8.38438 82.9694 8.40812C82.9457 8.41999 82.9694 8.43776 82.9041 8.4437H82.637L81.5865 8.4734C80.8862 8.49714 80.1977 8.52086 79.5151 8.5268C77.877 8.53867 76.1558 8.75826 74.5533 8.4437C72.9093 8.11726 70.4758 7.23296 68.8259 6.85311C66.2797 6.26553 64.8137 7.32791 62.2378 6.98367C59.5492 6.6513 58.9379 6.40204 56.0534 5.89161C55.7863 5.85007 55.2462 5.82039 54.7654 5.81445C54.528 5.81445 54.3025 5.81445 54.1363 5.81445C53.9701 5.81445 53.8633 5.81445 53.8633 5.81445L54.071 11.6962C57.1276 11.5597 58.38 11.1145 60.392 11.1324C61.579 11.1502 62.7423 11.5122 63.9293 11.5656C65.9592 11.6606 68.0365 11.2332 70.0723 11.4944C72.1021 11.7555 73.8411 12.4796 75.8353 12.8951C77.9838 13.3462 79.5092 12.9604 81.6933 13.2394C81.7824 13.2512 81.8714 13.269 81.9604 13.2868C82.0851 13.3165 82.2097 13.3462 82.3343 13.3818C82.6845 13.4708 83.0584 13.5717 83.4561 13.6904C85.0883 13.2869 85.569 13.3818 86.5305 13.0672L84.7143 7.47032L84.7262 7.47626Z" fill="#EBFEB3"/>
<path d="M116.349 0.229492C114.141 0.573733 111.969 1.52334 109.88 2.20588C108.319 2.72818 106.752 3.47006 105.132 3.67779C103.464 3.88553 100.876 3.82618 99.1907 3.98049C96.597 4.22384 95.5405 5.70173 92.9943 6.16467C90.3473 6.66323 89.6885 6.61571 86.8158 6.94808C86.5488 6.9837 86.0324 7.1084 85.5754 7.23303C85.1243 7.36361 84.7326 7.47633 84.7207 7.48227L86.5369 13.0792C89.4926 12.088 90.555 11.2749 92.5017 10.6813C93.6472 10.3371 94.8699 10.3193 96.0213 10.0047C97.9918 9.45868 99.8317 8.39628 101.844 7.99862C103.856 7.6069 105.725 7.73751 107.749 7.51197C109.927 7.26269 111.245 6.4377 113.405 6.02818C114.373 5.85606 115.625 6.24775 117.067 6.06969L116.349 0.229492Z" fill="#EBFEB3"/>
<path d="M148.975 3.17358C146.833 2.68096 144.506 2.69287 142.346 2.46733C141.538 2.39611 140.713 2.3249 139.888 2.25962C139.022 2.19433 138.179 2.04591 137.366 1.84411C135.704 1.37523 133.211 0.484945 131.496 0.128834C130.184 -0.114508 129.152 0.0220445 128.143 0.247581C127.638 0.354415 127.128 0.461242 126.588 0.538399C126.048 0.627427 125.472 0.674929 124.813 0.633383C122.089 0.526549 121.448 0.342544 118.534 0.0992018C118.267 0.0813963 117.726 0.0991641 117.252 0.134775C117.014 0.146646 116.795 0.176374 116.634 0.188244C116.474 0.20605 116.367 0.217876 116.361 0.217876L117.079 6.05807C120.142 5.65448 121.329 5.06695 123.323 4.92451C124.504 4.82954 125.668 5.12037 126.837 5.07289C128.825 5.04321 130.837 4.50309 132.82 4.75236C134.784 5.02538 136.434 5.76728 138.209 6.38454C138.678 6.52698 139.188 6.66349 139.669 6.75846C140.15 6.84748 140.612 6.90682 141.081 6.96023C142.013 7.06113 142.951 7.1324 144.037 7.38168C145.01 7.60128 146.025 8.46187 147.45 8.84765L148.981 3.16764L148.975 3.17358Z" fill="#EBFEB3"/>
<path d="M179.274 16.3727C177.368 14.7583 175.006 13.8978 172.905 13.0787C171.326 12.4555 169.605 12.0875 168.157 11.2922C166.673 10.4613 164.554 8.93002 163.047 8.1169C160.726 6.85865 159.023 7.52336 156.631 6.53218C154.132 5.51727 153.598 5.13148 151.01 3.85541C150.773 3.73671 150.268 3.57054 149.823 3.4281C149.372 3.29159 148.986 3.17879 148.981 3.17285L147.449 8.85286C150.494 9.63037 151.823 9.51162 153.776 10.0636C154.928 10.396 155.96 11.037 157.088 11.399C159.029 12.0044 161.124 12.135 162.993 12.9303C164.857 13.7256 166.276 14.9186 167.961 15.9216C169.765 17.0137 171.261 17.168 173.036 18.2601C173.825 18.7587 174.371 19.8686 175.315 20.7232L179.28 16.3727H179.274Z" fill="#EBFEB3"/>
<path d="M170.987 46.7137C172.726 45.2833 174.168 43.3366 175.569 41.5739C176.631 40.2563 177.498 38.7072 178.661 37.4845C178.97 37.17 179.32 36.8198 179.694 36.4518C180.08 36.0898 180.465 35.6743 180.863 35.2648C181.64 34.4279 182.394 33.508 182.875 32.6652C183.629 31.3772 183.783 30.1427 183.736 28.9438C183.682 27.733 183.492 26.5697 183.332 25.0562C183.136 23.4715 182.816 22.5278 182.501 21.5663C182.169 20.6048 181.777 19.6374 180.91 18.2071C180.75 17.9459 180.353 17.4711 179.991 17.0794C179.807 16.8894 179.628 16.7114 179.504 16.5808C179.373 16.4503 179.284 16.373 179.284 16.373L175.32 20.7236C176.34 21.6257 177.011 22.2371 177.563 22.8009C178.103 23.3647 178.542 23.8811 178.845 24.6111C179.189 25.4895 179.035 26.4094 179.035 27.27C179.035 28.0179 179.053 28.8132 178.94 29.6619C178.827 30.5047 178.56 31.3831 178.097 32.1725C177.118 33.7453 175.67 34.7543 174.281 36.0304C172.761 37.4073 172.144 38.7784 170.554 40.2325C169.841 40.8854 168.577 41.1584 167.432 42.0309L170.993 46.7196L170.987 46.7137Z" fill="#EBFEB3"/>
<path d="M151.093 42.0728C151.206 41.9185 151.312 41.8176 151.413 41.6692C151.514 41.5683 151.609 41.4259 151.686 41.3428C151.763 41.2538 151.841 41.147 151.941 41.052C151.965 41.0283 151.995 40.9986 152.007 40.9808V40.9392C152.007 40.9392 152.031 40.8799 152.048 40.8443C152.102 40.7196 152.215 40.5653 152.387 40.4585C152.559 40.3517 152.778 40.3516 152.927 40.4466C153.039 40.5178 153.152 40.6128 153.259 40.7493C153.36 40.8917 153.455 41.0045 153.55 41.3606C153.74 42.0907 153.835 42.8978 153.793 43.711C153.758 44.5538 153.586 45.6161 153.538 46.821C153.52 47.4323 153.526 48.0555 153.669 48.7677C153.74 49.1239 153.876 49.5571 154.043 49.9191C154.209 50.293 154.411 50.6373 154.642 50.9282C155.342 51.854 156.351 52.3051 157.289 52.4297C157.764 52.4891 158.227 52.4713 158.672 52.4119C159.07 52.3407 159.45 52.2398 159.74 52.1211C160.981 51.6523 161.877 51.0053 163.183 50.489C164.494 49.931 165.302 49.5867 166.132 49.2366C166.952 48.8864 167.812 48.554 169.142 47.913C169.391 47.8003 169.842 47.4976 170.246 47.2246C170.447 47.0881 170.625 46.9575 170.762 46.8625C170.893 46.7675 170.982 46.7023 170.982 46.7023L167.42 42.0135C166.21 42.9572 165.426 43.6872 164.732 44.3104C164.043 44.9395 163.45 45.4737 162.637 45.9722C161.675 46.5598 160.565 46.7794 159.693 47.1118L158.702 47.4917C158.589 47.5273 158.488 47.5807 158.47 47.6103C158.429 47.6459 158.375 47.6756 158.316 47.6994C158.197 47.7469 158.049 47.735 157.924 47.6638C157.794 47.5688 157.746 47.5273 157.657 47.189C157.497 46.5064 157.568 45.6161 157.687 44.714C157.805 43.794 157.978 42.8325 157.995 41.693C157.995 41.3784 157.989 41.0817 157.96 40.7552C157.936 40.5297 157.912 40.322 157.871 40.1024C157.823 39.859 157.782 39.6216 157.728 39.3901C157.497 38.4642 157.111 37.6749 156.577 37.0576C156.061 36.4344 155.36 35.9715 154.553 35.7222C153.746 35.4848 152.861 35.4788 151.906 35.6866C151.075 35.8706 150.013 36.1614 149.194 36.4582C148.268 36.8084 147.419 37.3603 146.736 38.0963L151.087 42.055L151.093 42.0728Z" fill="#EBFEB3"/>
<path d="M143.086 70.8527C143.282 68.716 143.015 66.4428 143.045 64.2884C143.069 62.6859 142.926 60.9825 143.359 59.4334C143.804 57.8368 144.944 55.5814 145.585 54.0917C146.564 51.8067 145.816 50.1982 146.843 47.9191C147.389 46.7617 147.793 46.0852 148.244 45.4382C148.707 44.8091 149.205 44.1444 150.042 43.2897C150.203 43.1473 150.452 42.7911 150.683 42.5419C150.903 42.2629 151.093 42.0967 151.093 42.0789L146.742 38.1201C145.383 39.7107 144.938 40.9037 144.535 41.9186C144.155 42.9395 143.905 43.806 143.508 44.8269C143.039 46.0258 142.333 47.106 141.965 48.3227C141.324 50.4 141.347 52.5961 140.801 54.6378C140.255 56.6735 139.365 58.3947 138.819 60.4364C138.237 62.6383 138.576 64.2171 138.303 66.4606C138.184 67.4636 137.442 68.5973 137.246 70.0929L143.08 70.8586L143.086 70.8527Z" fill="#EBFEB3"/>
<path d="M141.064 102.268C140.957 100.143 140.381 97.9289 140.114 95.7863C139.912 94.1897 139.539 92.522 139.74 90.9195C139.948 89.2695 140.726 86.8419 141.088 85.2335C141.646 82.7526 140.601 81.2985 141.07 78.7879C141.562 76.1883 141.853 75.6007 142.702 72.9121C142.779 72.6628 142.874 72.1524 142.951 71.7013C143.022 71.2503 143.088 70.8585 143.088 70.8526L137.253 70.0869C136.886 73.286 137.236 74.6096 137.046 76.675C136.933 77.8917 136.512 79.0669 136.417 80.2895C136.25 82.3846 136.672 84.5035 136.47 86.5808C136.268 88.6581 135.645 90.4743 135.396 92.5575C135.135 94.8069 135.687 96.3204 135.722 98.5817C135.74 99.5907 135.158 100.819 135.176 102.345L141.064 102.273V102.268Z" fill="#EBFEB3"/>
<path d="M153.242 126.436C152.857 124.228 151.96 122.073 151.088 119.865C150.928 119.45 150.696 118.999 150.477 118.589L150.097 117.948C149.919 117.681 149.759 117.414 149.557 117.177C149.183 116.684 148.726 116.286 148.221 115.984C147.711 115.681 147.141 115.521 146.559 115.461C146.263 115.432 145.936 115.426 145.598 115.444C145.295 115.473 144.975 115.497 144.648 115.527C144.138 115.568 143.675 115.574 143.36 115.497C143.04 115.414 142.903 115.272 142.82 115.135C142.731 114.999 142.654 114.832 142.547 114.654C142.387 114.369 142.167 114.049 141.912 113.758C141.799 113.598 141.645 113.42 141.532 113.307C141.497 113.271 141.449 113.248 141.402 113.194L141.247 112.998C140.826 112.381 140.422 111.467 140.387 110.262C140.351 107.71 140.559 107.081 140.98 104.339C141.016 104.09 141.04 103.573 141.052 103.122C141.058 102.671 141.063 102.279 141.063 102.268L135.176 102.339C135.277 105.585 135.829 106.867 136.025 108.992C136.149 110.25 135.977 111.538 136.25 112.897C136.381 113.491 136.541 114.067 136.85 114.755C136.974 115.046 137.259 115.58 137.413 115.77C137.597 116.031 137.775 116.28 137.995 116.542C138.399 117.052 138.891 117.568 139.479 118.055C140.06 118.542 140.814 119.011 141.681 119.272C143.438 119.806 144.975 119.402 145.746 119.414C145.918 119.414 145.895 119.462 145.942 119.497C145.972 119.533 145.99 119.575 146.002 119.616C146.025 119.699 146.002 119.776 145.984 119.812C145.972 119.836 145.966 119.842 145.966 119.842C145.966 119.842 145.966 119.842 145.972 119.842C145.972 119.824 145.99 119.877 146.007 119.913L146.061 120.02C146.138 120.144 146.215 120.316 146.298 120.471C146.387 120.631 146.459 120.768 146.542 120.952C146.868 121.664 147.206 122.518 147.42 123.563C147.61 124.513 147.224 125.759 147.414 127.201L153.248 126.43L153.242 126.436Z" fill="#EBFEB3"/>
<path d="M154.613 158.901C154.708 156.628 154.18 154.313 153.877 152.129C153.652 150.497 153.189 148.823 153.278 147.191C153.367 145.511 153.895 142.983 154.044 141.297C154.275 138.704 153.017 137.398 153.029 134.816C153.023 132.127 153.195 131.486 153.391 128.596C153.409 128.329 153.373 127.795 153.337 127.32C153.314 127.082 153.296 126.863 153.278 126.703C153.26 126.542 153.248 126.436 153.248 126.436L147.414 127.207C147.853 130.282 148.453 131.48 148.678 133.498C148.809 134.691 148.595 135.896 148.702 137.089C148.88 139.131 149.586 141.131 149.616 143.185C149.646 145.232 149.177 147.06 149.04 149.084C148.892 151.268 149.479 152.717 149.479 154.901C149.479 155.88 148.856 157.025 148.749 158.444L154.619 158.901H154.613Z" fill="#EBFEB3"/>
<path d="M138.76 181.727C138.683 181.757 138.422 181.78 138.309 181.602C138.256 181.507 138.208 181.407 138.273 181.193C138.54 180.783 138.873 180.314 139.187 179.893C140.143 178.623 141.057 177.181 142.339 176.195C143.651 175.181 145.924 174.029 147.325 173.139C148.405 172.456 149.016 171.667 149.621 170.86C149.776 170.658 149.924 170.456 150.078 170.248C150.162 170.142 150.227 170.053 150.334 169.928C150.47 169.768 150.619 169.595 150.737 169.429C151.218 168.753 151.527 168.094 151.877 167.411C152.233 166.699 152.453 166.135 152.654 165.637C152.844 165.144 153.01 164.717 153.183 164.284C153.509 163.423 153.847 162.55 154.281 161.108C154.364 160.841 154.453 160.295 154.512 159.808C154.542 159.565 154.566 159.339 154.589 159.179C154.607 159.013 154.613 158.906 154.613 158.906L148.743 158.449C148.648 159.963 148.654 161.013 148.648 161.921C148.642 162.829 148.624 163.607 148.411 164.473C148.286 164.978 148.061 165.441 147.823 165.809C147.592 166.171 147.325 166.438 147.283 166.468C147.283 166.468 147.277 166.48 147.277 166.485C147.277 166.485 147.2 166.563 147.164 166.598L146.891 166.865C146.707 167.049 146.529 167.233 146.357 167.423C146.007 167.803 145.663 168.195 145.313 168.587C144.618 169.37 143.918 170.148 143.111 170.806C141.502 172.124 139.769 172.961 138.113 174.266C137.217 174.973 136.6 175.703 136.012 176.463C135.721 176.848 135.425 177.228 135.116 177.632L134.997 177.78L134.938 177.857L134.831 177.982C134.689 178.148 134.54 178.314 134.392 178.48C134.083 178.831 133.769 179.187 133.436 179.567C132.855 180.231 132.047 180.926 131.222 181.78C130.397 182.623 129.596 183.626 129.252 184.54L138.76 181.721V181.727Z" fill="#EBFEB3"/>
<path d="M157.811 175.157C157.502 175.032 157.17 174.943 156.837 174.86C156.511 174.771 156.167 174.712 155.828 174.67C155.49 174.617 155.14 174.593 154.796 174.581C154.618 174.575 154.463 174.569 154.267 174.569C154.048 174.569 153.834 174.581 153.621 174.599C152.778 174.676 152.036 174.884 151.389 175.151C151.057 175.282 150.748 175.418 150.463 175.572C150.16 175.715 149.893 175.875 149.62 176.023C148.018 176.949 146.783 178.225 145.323 179.027C143.822 179.852 141.418 180.819 139.952 181.561C139.673 181.703 139.418 181.852 139.186 182.012L139.026 182.125L139.002 182.149C139.002 182.149 138.973 182.19 138.961 182.214C138.907 182.315 138.848 182.475 138.735 182.677C138.622 182.879 138.462 183.116 138.26 183.318C138.064 183.52 137.827 183.68 137.655 183.68C137.317 183.668 137.234 183.472 137.323 183.146C137.37 182.985 137.465 182.778 137.667 182.528C137.875 182.285 138.177 182.048 138.48 181.87C138.711 181.733 138.753 181.727 138.753 181.727L129.245 184.546C128.901 185.514 128.924 186.155 129.007 186.689C129.108 187.223 129.28 187.65 129.589 188.137C129.743 188.375 129.951 188.618 130.177 188.814C130.408 189.004 130.64 189.158 130.877 189.271C131.352 189.52 131.856 189.627 132.379 189.734C133.025 189.805 133.589 189.906 134.242 189.924L134.764 189.894L135.026 189.876L135.316 189.817L135.91 189.686C136.118 189.627 136.343 189.532 136.563 189.449C138.1 188.837 139.798 187.597 141.258 186.446L141.78 186.024L142.077 185.757L142.676 185.235C143.074 184.897 143.483 184.57 143.917 184.285C145.632 183.14 147.4 182.522 149.098 181.697C150.012 181.258 150.671 180.795 151.306 180.38C151.935 179.97 152.588 179.596 153.223 179.531C153.371 179.501 153.49 179.561 153.615 179.608C153.781 179.68 154.018 179.798 154.226 179.899C154.653 180.142 155.092 180.404 155.621 180.623L157.811 175.157Z" fill="#EBFEB3"/>
<path d="M176.117 203.332C175.5 201.142 174.277 199.064 173.239 197.088C172.467 195.604 171.44 194.18 170.882 192.619C170.33 191.01 169.731 188.428 169.042 186.796C168.52 185.544 167.784 184.766 167.001 184.042C166.217 183.312 165.416 182.636 164.591 181.538C163.73 180.404 163.161 179.704 162.567 178.974C161.95 178.262 161.35 177.484 160.063 176.398C159.819 176.202 159.291 175.858 158.786 175.603C158.537 175.466 158.3 175.353 158.116 175.276C157.938 175.199 157.819 175.151 157.813 175.146L155.623 180.612C156.757 181.051 157.588 181.443 158.329 181.823C159.065 182.202 159.712 182.582 160.377 183.217C161.167 183.971 161.647 184.998 162.33 185.859C163.499 187.336 165.03 188.678 165.927 190.464C166.811 192.239 167.06 194.055 167.654 195.931C168.271 197.96 169.298 199.094 169.992 201.142C170.295 202.062 170.063 203.332 170.396 204.715L176.117 203.332Z" fill="#EBFEB3"/>
<path d="M166.007 233.262C167.064 232.93 168.049 232.443 169.046 231.945C169.557 231.683 170.067 231.422 170.577 231.161C171.278 230.864 171.978 230.384 172.53 229.885C173.367 229.119 173.901 228.176 174.293 227.285C174.685 226.389 174.964 225.517 175.29 224.686C175.996 223.006 176.982 220.43 177.278 218.662C177.528 217.308 177.32 216.258 177.065 215.237C176.804 214.216 176.513 213.219 176.483 211.896C176.447 210.519 176.447 209.664 176.459 208.786C176.477 207.901 176.507 206.999 176.471 205.515C176.459 205.242 176.382 204.696 176.287 204.221C176.192 203.747 176.103 203.337 176.103 203.331L170.382 204.714C171.112 207.652 171.776 208.774 172.085 210.72C172.257 211.872 172.067 213.041 172.156 214.181C172.305 216.121 172.898 218.08 172.637 219.991C172.382 221.879 171.486 223.422 170.702 224.644C170.358 225.184 170.073 225.636 169.788 226.087C169.729 226.193 169.658 226.247 169.592 226.348C169.509 226.413 169.456 226.502 169.337 226.567L169.159 226.668C169.1 226.704 168.939 226.763 168.827 226.805C168.583 226.9 168.328 226.995 168.061 227.078C167.111 227.386 165.77 227.202 164.357 227.6L165.984 233.256L166.007 233.262Z" fill="#EBFEB3"/>
<path d="M134.084 239.542C136.363 239.358 138.606 238.509 140.737 237.904C142.328 237.447 143.918 236.747 145.551 236.58C147.224 236.414 149.818 236.539 151.504 236.414C152.803 236.319 153.729 235.916 154.643 235.471C155.557 235.031 156.471 234.574 157.741 234.361C160.394 233.927 161.047 233.975 163.92 233.732C164.181 233.708 164.703 233.589 165.16 233.482C165.611 233.37 166.009 233.269 166.015 233.263L164.389 227.606C161.38 228.52 160.294 229.298 158.335 229.856C157.178 230.165 155.955 230.17 154.798 230.461C152.815 230.966 150.958 231.993 148.94 232.349C146.928 232.699 145.058 232.521 143.046 232.681C140.88 232.865 139.544 233.631 137.384 233.939C136.416 234.058 135.211 233.595 133.793 233.666L134.078 239.542H134.084Z" fill="#EBFEB3"/>
<path d="M106.479 223.422C107.648 224.562 109.173 226.164 110.556 227.921C111.589 229.239 112.907 230.491 113.957 231.886C114.503 232.604 115.18 233.548 115.987 234.42C116.788 235.299 117.708 236.106 118.509 236.622C119.744 237.435 120.889 237.631 121.981 237.714C123.085 237.815 124.16 237.791 125.483 238.118C126.866 238.426 127.715 238.604 128.587 238.812C129.026 238.913 129.472 239.014 129.988 239.133C130.504 239.24 131.098 239.352 131.84 239.489C132.113 239.53 132.665 239.548 133.151 239.548C133.395 239.548 133.62 239.548 133.792 239.548C133.959 239.542 134.065 239.536 134.071 239.536L133.786 233.661C130.783 233.839 129.584 234.248 127.661 234.123C127.092 234.094 126.557 233.928 126.017 233.791C125.495 233.613 124.961 233.477 124.445 233.346C123.536 233.174 122.646 233.037 121.744 232.859C120.86 232.663 119.999 232.373 119.263 231.874C118.533 231.375 117.987 230.734 117.518 230.052C117.049 229.363 116.664 228.639 116.212 227.868C115.245 226.194 114.105 225.221 112.853 223.232C112.277 222.354 112.076 220.882 110.835 219.487L106.461 223.428L106.479 223.422Z" fill="#EBFEB3"/>
<path d="M79.7051 212.211C80.1265 213.267 80.7081 214.306 81.3788 215.315C82.0554 216.324 82.8092 217.309 83.6698 218.259C84.3167 218.965 85.112 219.666 86.2041 220.176C86.7501 220.425 87.4149 220.597 88.0737 220.591C88.4061 220.603 88.7325 220.55 89.0352 220.485L89.2607 220.425L89.3735 220.396L89.4269 220.378H89.4566C89.1895 220.449 89.3854 220.39 89.326 220.407H89.3379L89.6347 220.36C91.2609 220.105 93.7536 220.289 95.3146 220.36C96.5254 220.396 97.3979 220.158 98.3 219.909C99.1903 219.683 100.128 219.446 101.25 219.713C102.401 219.992 103.048 220.289 103.636 220.657C104.211 221.037 104.752 221.476 105.41 222.277C105.476 222.348 105.571 222.449 105.683 222.568C105.796 222.681 105.927 222.805 106.039 222.936C106.158 223.06 106.265 223.173 106.342 223.268C106.419 223.357 106.473 223.417 106.473 223.417L110.847 219.476C109.506 218.022 108.17 217.297 107.048 216.84C105.903 216.383 104.906 216.158 103.731 215.885C102.354 215.564 101.024 215.113 99.6592 215.072C97.3266 215.042 95.1959 215.843 93.0592 216.11C91.985 216.235 90.9701 216.294 89.9492 216.342C89.4388 216.372 88.9284 216.407 88.412 216.437H88.4001C88.4595 216.419 87.9016 216.579 88.139 216.514V216.508V216.496V216.478C88.139 216.466 88.139 216.461 88.1449 216.455C88.1568 216.431 88.1865 216.407 88.2102 216.401C88.2399 216.377 88.2755 216.366 88.3111 216.366C88.3408 216.342 88.3764 216.354 88.4001 216.348C88.501 216.336 88.4001 216.306 88.2161 216.182C88.0381 216.069 87.7947 215.861 87.5455 215.636C87.041 215.167 86.4949 214.532 86.0379 213.63C85.6225 212.81 85.7234 211.552 85.2486 210.223L79.7051 212.205V212.211Z" fill="#EBFEB3"/>
<path d="M77.4665 221.108C77.6387 220.55 77.7158 219.968 77.7871 219.386C77.8583 218.805 77.9057 218.211 77.9473 217.63C78.0126 216.455 77.9473 215.279 77.9888 214.158C78.0126 213.706 77.971 213.38 77.9354 213.012C77.8998 212.644 77.8701 212.27 77.8464 211.896C77.8227 211.522 77.8167 211.137 77.8286 210.763L77.8464 210.347C77.8523 210.24 77.8701 210.134 77.8939 210.039C77.9948 209.641 78.2144 209.32 78.428 209.303C78.6417 209.261 78.8494 209.522 78.9563 209.712C79.0453 209.855 79.0512 209.795 79.0512 209.534C79.0512 209.362 79.0512 209.19 79.0512 209.024C79.0512 208.822 79.0809 208.573 79.1284 208.412C79.259 207.777 79.4192 207.498 79.5676 208.276C79.7041 209.047 79.7279 209.528 79.716 209.985C79.6982 210.424 79.6388 210.869 79.4489 211.113C79.437 211.125 79.4192 211.143 79.4014 211.166C79.4014 211.19 79.4014 211.214 79.4014 211.243V211.279C79.4014 211.279 79.4014 211.279 79.4252 211.356C79.4964 211.588 79.5676 211.801 79.6151 211.962C79.6685 212.122 79.7041 212.223 79.7041 212.223L85.2416 210.24C84.838 209.154 84.4879 208.234 84.1852 207.421C83.7816 206.335 83.4314 205.421 83.105 204.614C82.4521 203.023 81.912 201.765 81.271 200.608C80.5172 199.308 79.8762 198.299 79.2056 198.067C79.0631 198.014 78.9088 197.984 78.7426 197.96C78.5764 197.943 78.3687 197.925 78.0363 197.984C77.7158 198.049 77.5378 198.168 77.3835 198.293C77.2291 198.417 77.0986 198.56 76.9739 198.714C76.4932 199.367 76.1074 200.192 75.6801 201.231C75.2527 202.275 74.8966 203.611 74.5286 205.106C74.3565 205.884 74.1725 206.685 74.0241 207.593C73.947 208.038 73.8758 208.484 73.7986 208.929C73.7393 209.22 73.6799 209.522 73.6265 209.825C73.5137 210.49 73.4544 211.113 73.4187 211.712C73.4009 212.015 73.395 212.306 73.395 212.597V213.03L73.3831 213.368C73.3653 214.253 73.3772 215.149 73.2229 216.205C73.122 216.668 72.8668 217.149 72.5938 217.677C72.3089 218.199 72.0655 218.793 71.8281 219.446L77.4665 221.126V221.108Z" fill="#EBFEB3"/>
<path d="M55.2282 245.958C57.3708 245.002 59.2166 243.317 60.9675 241.869C61.6026 241.287 62.2198 240.676 62.843 240.076C63.4365 239.441 64.0716 238.871 64.7542 238.379C66.1311 237.346 68.4696 235.969 69.7456 234.705C70.2382 234.23 70.6537 233.779 70.9267 233.28C71.2116 232.788 71.4253 232.295 71.633 231.809C71.7399 231.565 71.8408 231.322 71.9476 231.073C72.0426 230.817 72.1375 230.562 72.2503 230.307C72.4758 229.791 72.7488 229.262 73.1406 228.71C73.8824 227.529 74.3573 226.793 74.8855 226.063C75.3484 225.304 75.8885 224.544 76.6542 223.226C76.7848 222.983 76.9866 222.455 77.1587 221.992C77.3249 221.523 77.4614 221.119 77.4673 221.107L71.8289 219.428C71.6152 220.134 71.4609 220.739 71.3422 221.291C71.2294 221.843 71.0751 222.3 70.9742 222.746C70.8674 223.191 70.7665 223.606 70.6537 224.022C70.535 224.437 70.357 224.835 70.1552 225.268C69.9059 225.772 69.6151 226.265 69.2708 226.71C68.9206 227.155 68.5764 227.595 68.2975 228.081L67.5912 229.334C67.3656 229.755 67.146 230.194 66.9324 230.633C66.689 231.049 66.4338 231.464 66.1608 231.868C65.8878 232.272 65.6148 232.675 65.2527 233.001C64.5583 233.678 63.8461 234.254 63.0448 234.723C62.659 234.966 62.2732 235.203 61.8815 235.453C61.4779 235.678 61.0743 235.91 60.6767 236.171C60.463 236.313 60.2672 236.456 60.0772 236.598C59.8814 236.729 59.6974 236.865 59.5193 237.008C59.1691 237.287 58.8486 237.578 58.5341 237.874C58.2136 238.165 57.8753 238.432 57.5132 238.723C57.1512 239.002 56.7773 239.311 56.3084 239.548C55.8989 239.774 55.3706 239.886 54.8068 240.023C54.2311 240.142 53.5901 240.248 52.9609 240.527L55.2163 245.964L55.2282 245.958Z" fill="#EBFEB3"/>
<path d="M21.8126 247.347C24.157 248.119 26.6438 248.059 28.9111 248.077C30.6144 248.089 32.3534 247.81 34.0034 248.006C35.695 248.208 38.2827 248.831 40.0336 248.914C42.74 249.068 44.0161 247.733 46.6394 247.424C49.3874 247.056 50.064 247.11 53.0613 246.647C53.3343 246.599 53.8744 246.433 54.3433 246.273C54.5807 246.196 54.8003 246.124 54.9546 246.053C55.1149 245.988 55.2158 245.946 55.2158 245.946L52.9604 240.51C52.2957 240.818 51.7021 241.044 51.2036 241.293C50.705 241.548 50.2599 241.75 49.8385 241.946C49.423 242.142 49.0372 242.332 48.6396 242.504C48.236 242.658 47.8146 242.801 47.3457 242.931C46.7938 243.092 46.218 243.133 45.6423 243.175C45.0666 243.216 44.5028 243.27 43.933 243.353C42.0159 243.721 40.1048 244.457 38.1106 244.492C36.1223 244.51 34.3833 243.928 32.4722 243.626C31.9558 243.531 31.481 243.489 31.024 243.483C30.5729 243.454 30.1337 243.454 29.6945 243.46C29.2494 243.477 28.8161 243.46 28.3591 243.442C27.8961 243.43 27.4213 243.382 26.9109 243.276C26.448 243.192 25.985 242.937 25.4924 242.646C24.982 242.373 24.4715 242.035 23.8543 241.821L21.8066 247.341L21.8126 247.347Z" fill="#EBFEB3"/>
<path d="M1.05078 221.238C1.34754 223.648 2.4693 225.951 3.54356 228.004C3.72162 228.396 3.96497 228.77 4.19644 229.144C4.43385 229.518 4.6475 229.898 4.8849 230.26C5.38346 230.984 5.79299 231.738 6.18471 232.491C6.38057 232.883 6.5527 233.352 6.7723 233.833C6.99191 234.319 7.21743 234.83 7.44891 235.34C7.68038 235.851 7.95933 236.343 8.20861 236.824C8.45195 237.311 8.71904 237.744 8.98019 238.112C9.74583 239.287 10.6954 239.863 11.6035 240.433C12.0724 240.7 12.5591 240.937 13.0399 241.24C13.2832 241.388 13.5147 241.56 13.7699 241.732C14.0251 241.899 14.2803 242.088 14.5474 242.308C15.6216 243.24 16.3398 243.733 17.0283 244.338C17.3725 244.647 17.7464 244.908 18.1738 245.24C18.607 245.555 19.0878 245.97 19.7347 246.374C19.9721 246.528 20.4885 246.777 20.9455 246.985C21.177 247.086 21.3906 247.187 21.545 247.258C21.6993 247.329 21.818 247.365 21.818 247.365L23.8656 241.845C22.5243 241.323 21.5212 241.062 20.6784 240.753C20.257 240.605 19.8416 240.498 19.4558 240.326C19.07 240.154 18.6842 239.964 18.2747 239.726C17.7761 239.465 17.3844 239.056 16.9689 238.688C16.7671 238.498 16.5594 238.314 16.3517 238.136C16.1558 237.94 15.954 237.756 15.7404 237.584C15.3783 237.281 14.9628 237.044 14.5949 236.753C14.215 236.468 13.8233 236.201 13.4316 235.922C12.6956 235.328 11.9181 234.729 11.3721 233.94C10.7845 233.186 10.4343 232.331 10.0663 231.524C9.76363 230.687 9.46686 229.85 9.1523 228.966C9.06327 228.734 8.96832 228.515 8.86742 228.307C8.77839 228.093 8.68935 227.892 8.59439 227.696C8.4104 227.304 8.173 226.948 7.98901 226.574C7.79315 226.194 7.60322 225.82 7.39549 225.423C7.2115 225.013 7.06312 224.574 6.91474 224.087C6.67734 223.197 7.03938 222.022 6.91474 220.71L1.05672 221.256L1.05078 221.238Z" fill="#EBFEB3"/>
<path d="M20.2874 195.064C19.1834 195.396 18.0854 195.805 17.0408 196.34C16.5244 196.613 16.0022 196.886 15.4917 197.159C15.2365 197.295 14.9813 197.426 14.7261 197.556C14.4709 197.693 14.1919 197.865 13.9248 198.013C13.1177 198.441 12.3995 199.052 11.6754 199.592C11.3312 199.895 10.9929 200.192 10.6367 200.465C10.2806 200.732 9.96607 201.046 9.59809 201.295C9.21824 201.551 8.81465 201.859 8.38138 202.192C8.16178 202.358 7.93624 202.524 7.70476 202.696C7.48516 202.88 7.26557 203.07 7.04597 203.26C6.82637 203.45 6.59488 203.634 6.38715 203.83C6.18536 204.038 5.98357 204.239 5.78771 204.435C5.59185 204.637 5.40785 204.833 5.22386 205.023C5.05768 205.219 4.90336 205.415 4.76092 205.604C4.54132 205.889 4.35733 206.174 4.19115 206.453C4.04277 206.738 3.92999 207.023 3.82909 207.296C3.72819 207.575 3.6451 207.848 3.56794 208.115C3.50265 208.388 3.46112 208.661 3.41364 208.934C3.32461 209.48 3.22964 210.014 3.14655 210.584C3.05159 211.154 2.89134 211.741 2.70735 212.406C2.48775 213.089 2.31563 213.647 2.19099 214.145C2.06042 214.644 1.90017 215.077 1.79927 215.522C1.68057 215.973 1.56185 216.424 1.41941 216.953C1.29477 217.487 1.18201 218.104 1.03957 218.881C0.992085 219.166 0.998022 219.748 1.00396 220.264C1.00989 220.52 1.01583 220.763 1.02176 220.941C1.03957 221.119 1.05143 221.232 1.05143 221.232L6.90945 220.686C6.83229 219.985 6.78482 219.386 6.69579 218.852C6.65425 218.318 6.59488 217.855 6.53553 217.415C6.47024 216.543 6.38123 215.771 6.52961 214.857C6.58303 214.311 6.79076 213.795 6.97475 213.29C7.14687 212.774 7.40207 212.293 7.53858 211.777C8.06681 210.05 8.33983 208.127 9.46751 206.643C10.5952 205.183 12.1027 204.435 13.5569 203.646C13.7587 203.539 13.9308 203.414 14.1148 203.313C14.2988 203.219 14.4709 203.118 14.6371 203.005C14.8033 202.898 14.9576 202.779 15.1178 202.672C15.284 202.577 15.4442 202.477 15.6045 202.376C15.7647 202.269 15.9309 202.162 16.0971 202.055C16.2633 201.948 16.4948 201.853 16.6966 201.753C17.118 201.557 17.569 201.361 18.0676 201.183C18.9638 200.833 20.2399 201.153 21.5931 200.797L20.2874 195.058V195.064Z" fill="#EBFEB3"/>
<path d="M51.5359 192.689C51.3401 192.773 51.1442 192.867 50.9483 192.968C50.7465 193.046 50.5507 193.129 50.3489 193.218C50.1471 193.301 49.9572 193.414 49.7376 193.497L49.061 193.746C48.6158 193.936 48.1232 194.078 47.6306 194.221C47.1439 194.375 46.6335 194.5 46.1171 194.589C44.6036 194.897 42.9299 195.295 41.3274 195.153C39.6715 194.992 37.1906 194.298 35.4931 194.072C32.8876 193.704 31.5047 194.921 28.8813 194.88C26.1393 194.909 25.4805 194.743 22.4951 194.737C22.2221 194.737 21.6701 194.814 21.1834 194.891C20.9401 194.933 20.7145 194.969 20.5543 194.998C20.3881 195.028 20.2812 195.058 20.2812 195.058L21.587 200.797C24.5071 200.138 25.6348 199.497 27.5993 199.248C28.181 199.182 28.7626 199.2 29.3443 199.218C29.9259 199.248 30.5135 199.295 31.0952 199.254C33.0834 199.117 35.0895 198.524 37.1431 198.601C39.1848 198.69 40.995 199.266 43.0961 199.456C44.2475 199.539 45.1972 199.456 46.1883 199.272C47.1558 199.117 48.1529 198.874 49.3696 198.696C49.6485 198.642 49.9453 198.631 50.2599 198.625C50.5804 198.625 50.9127 198.648 51.2926 198.613C52.0404 198.565 52.8891 198.5 53.7201 198.156L51.5419 192.689H51.5359Z" fill="#EBFEB3"/>
<path d="M71.7345 170.735C71.2419 170.842 70.7493 170.991 70.2567 171.145C69.7522 171.281 69.2477 171.442 68.7432 171.608L68.3634 171.732L67.8707 171.887C67.5324 172 67.206 172.083 66.8736 172.243C66.2148 172.51 65.5798 172.854 64.9922 173.252C64.1019 173.834 63.3956 174.688 62.8555 175.519C62.3095 176.362 61.9059 177.211 61.4845 177.994C60.5705 179.603 59.3122 181.959 58.6415 183.443C58.1192 184.588 58.0539 185.52 57.9471 186.44C57.8403 187.354 57.7216 188.297 57.0687 189.229C56.3921 190.185 55.8698 190.636 55.3 191.028C54.7421 191.425 54.1011 191.728 53.0625 192.072C52.9675 192.102 52.831 192.161 52.6767 192.233C52.5164 192.298 52.3384 192.369 52.1722 192.434C52.006 192.5 51.8635 192.577 51.7389 192.618C51.6202 192.66 51.543 192.684 51.5371 192.69L53.7153 198.156C55.5018 197.414 56.6117 196.5 57.4664 195.663C58.3092 194.785 58.9205 193.972 59.6505 192.986C60.4933 191.823 61.4311 190.725 61.9534 189.449C62.8496 187.259 62.814 185.003 63.4253 183.069C64.0307 181.152 65.0753 179.656 65.9833 178.665C66.47 178.137 66.7312 177.792 67.117 177.418C67.5087 177.056 68.025 176.706 68.8856 176.564C69.9184 176.397 71.2597 176.825 72.8385 176.516L71.7227 170.735H71.7345Z" fill="#EBFEB3"/>
<path d="M86.6021 150.484C86.5843 152.609 87.0116 154.787 87.0116 156.859C87.0116 158.39 87.0888 160.052 86.4715 161.447C86.1451 162.153 85.6228 162.984 84.9877 163.684C84.3823 164.408 83.682 165.002 83.1597 165.465C82.3347 166.159 81.9014 166.854 81.3732 167.554C81.1002 167.892 80.8449 168.266 80.477 168.569C80.2989 168.729 80.109 168.884 79.8953 169.032C79.6816 169.174 79.4264 169.293 79.1653 169.406C78.6193 169.655 78.1385 169.786 77.7171 169.91C77.3016 170.041 76.9218 170.112 76.536 170.165C75.7763 170.302 74.9632 170.355 73.6634 170.433C73.42 170.439 72.9452 170.522 72.5238 170.599C72.3161 170.64 72.1202 170.676 71.9718 170.694C71.8235 170.717 71.7345 170.729 71.7285 170.735L72.8443 176.516C74.518 176.166 75.6576 175.727 76.631 175.282C77.1176 175.08 77.5628 174.842 78.0198 174.623C78.4768 174.409 78.9397 174.19 79.4502 173.952C79.7529 173.81 80.0674 173.691 80.382 173.572C80.6966 173.454 81.0111 173.311 81.3257 173.187C81.9667 172.943 82.584 172.629 83.1656 172.237C83.6701 171.916 84.1034 171.477 84.5485 171.074C84.9699 170.64 85.3616 170.171 85.7415 169.709C86.4596 168.735 87.1244 167.756 87.7713 166.771C89.077 164.842 90.3531 163.085 91.095 160.895C91.8725 158.527 91.4986 156.847 91.6707 154.538C91.7479 153.5 92.4007 152.295 92.4779 150.763L86.6021 150.479V150.484Z" fill="#EBFEB3"/>
<path d="M86.8686 118.939C87.0764 121.076 87.8361 123.26 88.2278 125.373C88.3821 126.162 88.5899 126.963 88.7442 127.77C88.8866 128.578 88.9756 129.391 88.9282 130.192C88.9044 130.607 88.851 131.07 88.7798 131.557C88.6967 132.044 88.5899 132.554 88.483 133.059C88.2516 134.068 88.0616 135.089 87.8717 135.866C87.6046 137.089 87.7648 137.985 87.9014 139.018C88.0319 140.038 88.2041 141.053 88.026 142.341C87.6699 145.012 87.4384 145.635 86.8093 148.401C86.7499 148.656 86.7025 149.179 86.6609 149.63C86.6253 150.081 86.6016 150.472 86.6016 150.484L92.4774 150.769C92.5724 147.535 92.1094 146.27 92.1628 144.229C92.1925 143.03 92.5605 141.872 92.6258 140.697C92.6495 140.193 92.6555 139.694 92.6376 139.184C92.6198 138.685 92.5723 138.11 92.5367 137.581C92.4536 136.501 92.4121 135.421 92.4358 134.364C92.4774 133.308 92.6554 132.311 92.8098 131.32C92.9522 130.328 93.1065 129.337 93.1659 128.281C93.2786 126.008 92.6139 124.542 92.424 122.292C92.329 121.289 92.8276 120.037 92.7385 118.529L86.8686 118.939Z" fill="#EBFEB3"/>
<path d="M83.5391 87.3761C83.907 89.5068 84.7795 91.6435 85.3612 93.7327C85.7885 95.2937 86.4295 96.8902 86.4829 98.5105C86.5482 100.172 86.1862 102.707 86.1149 104.369C86.0022 106.921 87.2901 108.173 87.3019 110.731C87.3019 113.384 87.1417 114.019 86.8212 116.832C86.7915 117.094 86.8034 117.616 86.8212 118.073C86.8449 118.53 86.8627 118.928 86.8627 118.939L92.7327 118.53C92.4418 115.343 91.872 114.108 91.6524 112.055C91.5278 110.844 91.7415 109.615 91.605 108.404C91.3854 106.327 90.596 104.327 90.4357 102.25C90.2874 100.178 90.5901 98.2968 90.5188 96.2136C90.4298 93.9701 89.6582 92.5694 89.314 90.3556C89.1597 89.3644 89.5692 88.0884 89.3734 86.5986L83.5391 87.382V87.3761Z" fill="#EBFEB3"/>
<path d="M64.3391 61.6466L61.597 62.709L60.226 63.2432L59.5375 63.5102L59.1932 63.6408L59.0211 63.7061L58.938 63.7417L58.8965 63.7595H58.8728L58.8609 63.7713C60.1785 64.0087 60.131 64.0029 60.8373 64.1275C60.7186 64.1691 60.7245 64.169 60.6592 64.1928H60.6474H60.6236L60.5761 64.175L60.4871 64.1571L60.3091 64.1156L59.947 64.0385L59.2289 63.8782L57.7925 63.5636L54.9199 62.9345L55.0327 62.4478L55.1573 61.9671L55.2938 61.4982L55.4422 61.0412L55.6025 60.5901L55.7686 60.1509L55.9467 59.7236L56.1307 59.3081L56.3266 58.9045L56.5284 58.5187L56.7361 58.1448L56.9557 57.7709L57.1812 57.4148L57.4186 57.0765L57.662 56.75L57.9113 56.4414L58.303 56.5067L58.7006 56.5898L59.1042 56.6848L59.5137 56.7975L59.9233 56.9281L60.0242 56.9637L60.0776 56.9815L60.1013 56.9934L60.1429 57.0172L60.4278 57.1714L60.677 57.3139L60.9204 57.4564L61.1519 57.6107L61.3833 57.7709L61.4961 57.854L61.6089 57.943L61.8285 58.1211L62.0481 58.3051L62.2558 58.5068L62.4635 58.7146L62.6713 58.9283L63.063 59.3971L63.2529 59.6405L63.431 59.9017L63.7752 60.4417L63.8168 60.5129L63.8346 60.5486L63.8524 60.5842L63.9236 60.7325L64.066 61.0293L64.2085 61.332L64.2797 61.4863L64.3153 61.5635L64.3331 61.6051L64.345 61.6466H64.3391Z" fill="#EBFEB3"/>
<path d="M89.3725 86.5981L86.4583 86.9898L84.9982 87.1857L84.2682 87.2807L83.9062 87.3281L83.7222 87.3519L83.6332 87.3637H83.5857L83.5619 87.3756H83.5501C83.7044 87.2034 83.6985 87.2094 83.7815 87.1204C84.3276 87.429 84.3098 87.4172 84.6006 87.5834V87.5655L84.5887 87.5477L84.565 87.5062L84.5234 87.4231L84.4403 87.2569L84.2742 86.9304L83.9358 86.2776L83.2652 84.9659L81.9238 82.3485L82.1138 82.2535L82.2087 82.206L82.3037 82.1704L82.6835 82.028L82.8735 81.9627L83.0574 81.9152L83.4254 81.8321L83.5204 81.8143L83.6094 81.8024L83.7934 81.7787L83.9715 81.7609L84.1495 81.749H84.4997H84.6718L84.8439 81.7609L85.0161 81.7787L85.1882 81.8024L85.5324 81.8678L85.6214 81.8855H85.6452L85.6749 81.8974H85.7342L85.7579 81.9093H85.7758L85.8114 81.9271L85.8767 81.9567L86.1378 82.0695L86.393 82.2001L86.6423 82.3425L86.8797 82.4909L87.1112 82.6512L87.3308 82.8293L87.5444 83.0132L87.7462 83.2091L87.9421 83.4168L88.1261 83.6305L88.2151 83.7432L88.3041 83.862L88.4703 84.0993L88.6247 84.3427L88.7671 84.5979L88.8976 84.8591L89.0164 85.1262L89.1232 85.4051L89.2122 85.69L89.2894 85.9808L89.3547 86.2776L89.4022 86.5803L89.3725 86.5981Z" fill="#EBFEB3"/>
<path d="M82.297 124.608C82.4038 121.919 81.8044 119.094 81.5373 116.423C81.3355 114.423 80.8666 112.346 81.1219 110.363C81.3949 108.328 82.3386 105.289 82.7243 103.253C83.3001 100.113 81.7747 98.3862 82.0655 95.2168C82.208 93.5669 82.3445 92.546 82.5225 91.4955C82.6175 90.9672 82.7065 90.439 82.8193 89.8158C82.8727 89.5013 82.9321 89.1689 82.9914 88.801C83.0211 88.617 83.0567 88.427 83.0864 88.2252C83.1458 88.2311 83.1932 88.3142 83.1992 88.3736C83.2467 88.4389 83.2288 88.5457 83.217 88.6407C83.217 88.6882 83.1992 88.7416 83.1695 88.7831C83.1695 88.8187 83.1695 88.8425 83.1458 88.8662C83.1101 88.89 83.1576 88.884 83.1458 88.8899C83.1517 88.8899 83.1398 88.89 83.1695 88.8781C83.2051 88.8603 83.2229 88.8425 83.2229 88.8425L78.5757 82.5215C78.2314 82.7886 77.905 83.0498 77.5904 83.394C77.2818 83.6967 76.991 84.0825 76.7417 84.4682C76.4805 84.8303 76.2906 85.311 76.1126 85.7206C75.9464 86.1479 75.8574 86.6049 75.7802 87.0323C75.7149 87.4596 75.7268 87.8572 75.7327 88.2489L75.7446 88.5398L75.7624 88.6703C75.7743 88.7534 75.7921 88.8306 75.8039 88.9077C75.8633 89.2223 75.9167 89.5191 75.9701 89.8099C76.1957 90.9613 76.3796 91.9584 76.4271 93.1929C76.4687 94.653 76.0651 96.1012 76.071 97.5672C76.0829 100.072 76.8188 102.588 76.6408 105.111C76.4746 107.621 75.6734 109.817 75.3291 112.31C74.9552 114.999 75.6318 116.839 75.5428 119.557C75.4953 120.774 74.6347 122.186 74.4863 123.991L82.3089 124.608H82.297Z" fill="#77B975"/>
<path d="M73.3831 165.246C74.0656 164.7 74.7244 164.011 75.3179 163.168C75.4663 162.943 75.6087 162.741 75.7512 162.498C75.8877 162.248 76.0183 161.999 76.1429 161.75C76.3625 161.204 76.5821 160.604 76.6355 160.219L76.7661 159.566L76.8373 158.978C76.8848 158.581 76.9204 158.201 76.9382 157.839C76.9976 157.097 77.0154 156.39 77.0629 155.69C77.1756 153.619 76.9501 151.488 77.4309 149.535C77.9294 147.529 79.1817 144.591 79.7574 142.603C80.6477 139.534 79.3004 137.671 79.9236 134.561C80.5587 131.332 80.9385 130.602 81.9297 127.207C82.0187 126.893 82.1196 126.252 82.1909 125.682C82.2205 125.397 82.2562 125.13 82.274 124.934C82.2918 124.738 82.3036 124.613 82.3036 124.608L74.4811 123.99C74.2318 127.842 74.7363 129.433 74.5285 131.926C74.4098 133.397 73.846 134.804 73.7036 136.264C73.4602 138.769 73.9291 141.351 73.5136 143.838C73.0922 146.312 72.0773 148.402 71.4482 150.788C71.1039 152.076 71.0387 153.162 70.9912 154.26C70.9378 155.322 70.914 156.462 70.6113 157.548C70.5757 157.655 70.5282 157.756 70.4748 157.856L70.3858 158.011C70.3561 158.064 70.3205 158.118 70.2908 158.118C70.2374 158.147 70.184 158.177 70.1246 158.213C70.0534 158.242 69.9763 158.272 69.905 158.302C69.5727 158.438 69.1157 158.634 68.623 159.014L73.3831 165.252V165.246Z" fill="#77B975"/>
<path d="M63.0362 140.46C62.5851 142.947 62.6385 145.689 62.229 148.253C61.9323 150.158 61.7542 152.235 60.8521 153.963C59.9143 155.743 57.8785 158.058 56.6796 159.613C56.4422 159.916 56.2523 160.206 56.0802 160.503C55.9971 160.652 55.9199 160.794 55.8487 160.942L55.7478 161.162L55.635 161.417C55.5223 161.672 55.4273 161.928 55.3383 162.177C55.2493 162.468 55.178 162.8 55.1187 163.103C55.0653 163.465 55.0475 163.874 55.0653 164.272C55.089 164.509 55.1246 164.747 55.178 164.978C55.2018 165.097 55.2315 165.204 55.2671 165.323C55.3145 165.447 55.362 165.572 55.4154 165.691C55.5223 165.934 55.641 166.171 55.7894 166.379C55.9437 166.581 56.1099 166.777 56.282 166.955C56.46 167.151 56.6321 167.257 56.8102 167.382C56.9823 167.495 57.1841 167.631 57.3444 167.703C58.0151 168.005 58.6204 168.124 59.1249 168.165C60.1577 168.26 61.0182 168.195 61.9679 168.183C62.9472 168.16 63.7009 168.082 64.3657 168.011C65.0364 167.94 65.6062 167.863 66.1937 167.786C67.363 167.608 68.5678 167.465 70.5442 166.836C70.9122 166.723 71.6125 166.379 72.2239 166.005C72.5266 165.833 72.8115 165.631 73.0192 165.495C73.2269 165.358 73.3634 165.245 73.3634 165.245L68.6034 159.007C67.5351 159.844 66.5439 160.503 65.707 161.049C64.8524 161.595 64.0571 162.034 63.0421 162.302C62.4427 162.456 61.8254 162.474 61.2972 162.414C61.0361 162.385 60.7927 162.349 60.5968 162.302C60.49 162.29 60.4425 162.254 60.3594 162.242C60.306 162.224 60.2823 162.213 60.2645 162.218C60.312 162.236 60.3773 162.242 60.7571 162.545C60.8699 162.67 61.1429 162.937 61.2438 163.21C61.41 163.477 61.4515 163.839 61.4753 164.041C61.4871 164.147 61.4574 164.308 61.4515 164.355C61.4515 164.414 61.4337 164.474 61.41 164.527C61.3981 164.557 61.3862 164.581 61.3684 164.604L61.3565 164.616C61.3565 164.616 61.3328 164.634 61.315 164.634C61.3091 164.634 61.2972 164.634 61.2913 164.634V164.598V164.521C61.2972 164.486 61.2735 164.492 61.3031 164.414L61.3922 164.183C61.6236 163.56 61.861 162.942 62.1163 162.337C62.3655 161.726 62.6326 161.126 62.9472 160.551C64.1876 158.242 65.7783 156.402 66.9594 154.004C68.2117 151.41 68.0633 149.345 68.7815 146.597C68.9417 145.98 69.3097 145.351 69.6777 144.638C70.0635 143.926 70.4493 143.125 70.6629 142.193L63.0125 140.454L63.0362 140.46Z" fill="#77B975"/>
<path d="M62.9785 103.222C63.5898 105.733 64.7947 108.232 65.5425 110.736C66.1004 112.6 66.8779 114.547 66.8482 116.505C66.8245 118.523 66.0707 121.521 65.7146 123.461C65.4416 124.957 65.6612 126.115 65.8927 127.296C66.1123 128.471 66.3438 129.67 66.047 131.171C65.3882 134.275 64.9905 134.97 63.7145 138.074C63.5898 138.359 63.4237 138.952 63.2931 139.475C63.1625 139.997 63.0438 140.454 63.0438 140.46L70.6943 142.199C71.5252 138.193 71.086 136.477 71.4005 133.884C71.5727 132.352 72.1306 130.874 72.2315 129.325C72.3976 126.666 71.6914 124.031 71.7388 121.414C71.7863 118.802 72.368 116.452 72.3502 113.811C72.3205 110.962 71.2996 109.193 70.7774 106.428C70.5459 105.193 71.0385 103.555 70.6764 101.703L62.9785 103.217V103.222Z" fill="#77B975"/>
<path d="M56.6795 65.2263C56.8635 65.9267 57.0594 66.6745 57.0831 67.6123C57.1246 68.0811 57.0356 68.5797 56.9703 69.102L56.9584 69.2029L56.8754 69.464C56.8219 69.6421 56.7685 69.8142 56.727 69.9923C56.6795 70.3009 56.6201 70.6274 56.6142 70.9004C56.5905 71.4583 56.632 71.9331 56.6914 72.3723C56.8813 73.6602 57.3027 74.6989 57.6825 75.7138C58.0624 76.7228 58.4244 77.6962 58.6025 78.6992C58.9764 80.7587 59.0595 83.9281 59.3147 85.952C59.7064 89.062 61.6651 90.2313 62.1814 93.3116C62.6918 96.4988 62.5791 97.3001 62.6266 100.719C62.6266 101.033 62.7156 101.656 62.8046 102.203C62.8462 102.476 62.8877 102.731 62.9174 102.915C62.953 103.099 62.9708 103.223 62.9708 103.223L70.6687 101.71C69.82 97.7868 68.7932 96.3979 68.1403 93.917C67.7486 92.457 67.7605 90.9079 67.3391 89.4538C66.6209 86.9669 65.1431 84.7412 64.5021 82.2841C63.8729 79.8388 63.8908 77.4825 63.5762 75.1856C63.4159 73.9688 63.1073 73.0192 62.9174 72.3604C62.8046 72.0518 62.769 71.7728 62.6444 71.9212C62.6266 71.9449 62.6028 71.9687 62.5791 71.9865C62.5553 72.0221 62.5909 71.9331 62.5969 71.8975L62.6444 71.755C62.7096 71.5651 62.769 71.3752 62.8343 71.1853C62.953 70.7876 63.131 70.4255 63.2319 69.9745C63.3388 69.5827 63.4931 69.1911 63.6712 68.7697C63.8195 68.3245 63.9798 67.8497 64.1519 67.3571C64.3062 66.8467 64.3893 66.2828 64.4724 65.6833C64.5021 65.0898 64.508 64.437 64.3774 63.79L56.6617 65.2322L56.6795 65.2263Z" fill="#77B975"/>
<path d="M27.9961 78.8354C29.2722 81.9395 31.8836 84.8715 34.9759 86.7055C36.1332 87.388 37.433 87.8509 38.715 88.1477C40.003 88.4504 41.2672 88.6047 42.4898 88.765C42.9112 88.8421 43.3623 88.8778 43.8549 88.949C44.1042 88.9846 44.3535 89.0084 44.6205 89.0262C44.8995 89.044 45.1191 89.0677 45.4871 89.0855C45.8313 89.0558 46.1815 89.0261 46.5317 88.9965C46.8878 88.9608 47.232 88.8244 47.5881 88.7235C48.2825 88.4682 48.9176 88.1299 49.4221 87.7916C49.9859 87.4414 50.3836 87.0735 50.8228 86.7114C51.1908 86.3494 51.5825 85.9873 51.8615 85.6549C53.2147 84.0881 53.6123 82.634 53.9506 81.2273C54.2652 79.8148 54.4848 78.42 55.2208 76.7938C55.9805 75.0963 56.4494 74.0576 56.9776 73.0071C57.5058 71.9507 58.0637 70.8823 58.8887 69.0898C59.043 68.7575 59.2567 68.0631 59.4347 67.4459C59.5178 67.1372 59.595 66.8463 59.6543 66.6327C59.7078 66.419 59.7434 66.2825 59.7434 66.2766L52.0989 64.502C51.2027 68.5438 51.3629 70.2947 50.6151 72.8587C50.1581 74.3603 49.2618 75.672 48.7158 77.0727C48.2469 78.2775 47.9146 79.512 47.4932 80.6694L47.1608 81.5122C47.0421 81.7852 46.9115 82.0345 46.7809 82.2956C46.6444 82.539 46.4961 82.7586 46.3477 82.9841C46.1934 83.1681 46.0272 83.3699 45.861 83.5124C45.309 83.9872 45.1013 83.8981 44.8757 83.7913C44.8045 83.7616 44.5909 83.7438 44.4306 83.7201C44.2644 83.6963 44.0923 83.6845 43.9321 83.6429C43.6116 83.5598 43.2851 83.5183 42.9884 83.4174C42.6916 83.3224 42.3889 83.2512 42.11 83.1325L41.6886 82.9841C41.558 82.9248 41.4215 82.8654 41.285 82.812C40.3769 82.4321 39.6647 82.2007 38.8753 81.8387C38.1037 81.4766 37.2847 80.9721 36.5546 80.0284C36.4003 79.8088 36.2757 79.5476 36.1688 79.2627C36.0798 78.9601 35.9908 78.6455 35.9196 78.3012C35.7771 77.6068 35.6287 76.8649 35.3379 76.0637L28.002 78.8414L27.9961 78.8354Z" fill="#77B975"/>
<path d="M26.8805 34.3867C26.6075 37.3365 27.0408 40.4643 27.1951 43.42C27.3079 45.6279 27.7114 47.9249 27.4147 50.1031C27.1001 52.3466 26.1386 55.7059 25.8122 57.9969C25.5629 59.7537 25.8419 61.1188 26.192 62.4661C26.5363 63.8193 26.9221 65.1487 26.9458 66.9352C26.9814 68.7929 26.9874 69.9562 26.9874 71.1611C26.9992 72.3719 26.9518 73.6183 27.1536 75.7253C27.207 76.1111 27.3613 76.8826 27.5749 77.5592C27.6758 77.8975 27.7649 78.2121 27.848 78.4436C27.9311 78.675 27.9845 78.8234 27.9904 78.8294L35.3263 76.0517C34.6556 74.3661 34.1749 73.0901 33.7475 71.9624C33.3321 70.8288 32.976 69.8316 32.786 68.5378C32.5605 67.0124 32.8276 65.4455 32.7148 63.9024C32.5249 61.2493 31.7118 58.5667 31.8601 55.8365C32.0026 53.1182 32.8395 50.7441 33.249 48.0555C33.706 45.1532 33.1006 43.1411 33.338 40.1795C33.4448 38.8559 34.3945 37.3544 34.6497 35.3957L26.8687 34.3867H26.8805Z" fill="#77B975"/>
<path d="M55.1443 4.98447C52.0995 5.1091 48.9776 6.05283 46.0219 6.87189C43.7962 7.50101 41.618 8.51002 39.3448 9.12134C38.1696 9.44778 36.6384 9.80383 35.0596 10.5457C34.2702 10.9196 33.4868 11.4123 32.7746 12.0058C32.0623 12.6053 31.4629 13.3412 31.0059 14.0594C30.8456 14.3443 30.7032 14.6292 30.5726 14.9141C30.4598 15.2049 30.3649 15.4898 30.2818 15.7747C30.1453 16.3326 30.0622 16.9676 30.0681 17.2287C30.0444 17.9113 30.0859 18.576 30.1334 19.2408C30.2224 20.5762 30.3293 21.9294 29.9197 23.6091C29.071 27.099 28.6437 27.8765 27.421 31.5444C27.3083 31.8827 27.1717 32.5831 27.0649 33.2063C27.0115 33.5149 26.964 33.8057 26.9284 34.0194C26.8987 34.2331 26.875 34.3696 26.875 34.3755L34.656 35.3845C35.1486 31.2002 34.7628 29.4315 35.1308 26.7132C35.3504 25.1048 36.0092 23.5854 36.2407 21.9651C36.4366 20.5762 36.4544 19.1577 36.4603 17.7036C36.3832 16.9795 36.5137 16.2317 37.1963 15.6263C37.8373 15.0209 38.8344 14.6707 39.8493 14.4392C40.8939 14.2137 42.0156 14.095 43.2086 13.911C45.7963 13.549 47.5472 12.5518 50.402 12.2551C51.684 12.1304 53.2628 12.8308 55.1858 12.8189L55.1443 4.97266V4.98447Z" fill="#77B975"/>
<path d="M96.3506 2.93083C93.478 3.74988 90.724 5.31677 88.0413 6.56316C87.0383 7.0261 86.0412 7.56621 85.0263 8.05883C84.5218 8.30217 84.0114 8.5396 83.4891 8.74139C83.2279 8.84229 82.9668 8.94318 82.7056 9.02627L82.308 9.15089L82.1062 9.21022L82.0587 9.2221C82.0587 9.2221 82.0409 9.2221 82.0349 9.2221L81.9815 9.23399C81.8628 9.25179 81.7382 9.26959 81.572 9.29926C81.4355 9.23991 81.299 9.18059 81.1744 9.10937C81.1447 9.07969 80.9725 9.0263 80.8301 8.97881C80.6877 8.93133 80.5452 8.87792 80.3968 8.83043C79.8152 8.6227 79.2098 8.41494 78.6044 8.20127C77.3996 7.77394 76.2066 7.36441 75.2214 7.09139C71.8264 6.15957 69.7966 7.50683 66.3542 6.91925C64.5618 6.62249 63.4519 6.40292 62.3183 6.13584C61.1787 5.87469 60.0214 5.56606 58.0865 5.17434C57.7304 5.10312 57.0004 5.0497 56.3534 5.02002C56.0329 5.00815 55.7302 5.00219 55.5047 4.99032C55.2851 4.99032 55.1427 4.99032 55.1367 4.99032L55.1783 12.8367C59.2795 12.7833 60.9769 12.2491 63.6774 12.3678C65.274 12.4509 66.8112 12.991 68.4019 13.1216C71.1202 13.353 73.9275 12.896 76.6399 13.3648C77.4471 13.5014 78.2127 13.6973 78.9605 13.9169C79.3344 14.0296 79.7024 14.1483 80.0704 14.267C80.1772 14.3145 80.6164 14.4213 80.9548 14.5104L82.029 14.7952C82.5098 14.6765 82.9905 14.5519 83.4713 14.4273L83.8214 14.3382L84.0173 14.3027L84.409 14.2314C84.9313 14.1365 85.4596 14.0356 85.9937 13.9109C88.8545 13.2521 90.4926 11.9463 93.3237 11.0679C94.5938 10.6822 96.3269 11.0086 98.2321 10.5398L96.3506 2.91895V2.93083Z" fill="#77B975"/>
<path d="M140.675 0.579743C140.319 0.502585 139.957 0.431378 139.601 0.372026C139.239 0.312674 138.889 0.259246 138.456 0.211764C137.631 0.128672 136.806 0.0336917 135.993 0.045562C135.174 0.045562 134.366 0.0336656 133.571 0.0930174C132.776 0.134564 131.992 0.1643 131.233 0.229587C128.942 0.348291 126.639 0.912104 124.413 0.793401C122.128 0.650956 118.644 0.0633995 116.335 0.00404765C112.768 -0.0968504 111.118 1.71926 107.64 2.02789C104.014 2.384 103.129 2.25344 99.2241 2.41369C98.868 2.4315 98.1558 2.55611 97.5267 2.68075C97.2121 2.7401 96.9213 2.80541 96.7136 2.85289C96.4999 2.90037 96.3634 2.93599 96.3574 2.93599L98.2389 10.5567C102.281 9.50622 103.776 8.54474 106.429 7.9809C107.99 7.65446 109.617 7.78502 111.178 7.51793C113.848 7.06093 116.43 5.94516 119.149 5.79085C121.855 5.64247 124.259 6.23 126.864 6.47928C128.271 6.62172 129.434 6.52086 130.603 6.4437C131.191 6.39029 131.779 6.34278 132.384 6.34278C132.995 6.33091 133.642 6.33687 134.319 6.4437C134.627 6.48525 134.936 6.58018 135.263 6.70482C135.583 6.83539 135.904 7.01348 136.242 7.1856C136.408 7.26869 136.586 7.35769 136.764 7.44672C136.954 7.53574 137.15 7.62481 137.352 7.71384C137.779 7.89783 138.23 8.06398 138.717 8.19455L140.687 0.597566L140.675 0.579743Z" fill="#77B975"/>
<path d="M181.498 19.3054C180.364 17.7801 178.934 16.6287 177.474 15.7266C176.008 14.8185 174.506 14.1537 173.076 13.5186C170.939 12.569 168.618 12.0527 166.654 10.9844C164.642 9.87451 161.745 7.85059 159.686 6.806C156.517 5.18569 154.255 6.11751 151.003 4.87112C147.614 3.59506 146.878 3.09057 143.388 1.45839C143.067 1.31001 142.391 1.09038 141.791 0.912329C141.192 0.740209 140.676 0.591873 140.67 0.585938L138.705 8.18293C142.86 9.19191 144.64 8.98418 147.287 9.67266C148.848 10.0763 150.255 10.9132 151.786 11.3524C154.41 12.1061 157.229 12.207 159.745 13.2338C162.256 14.2606 164.167 15.8215 166.375 17.1629C167.568 17.8869 168.618 18.3202 169.669 18.7535C170.713 19.1927 171.776 19.6378 172.82 20.4272C173.289 20.7774 173.64 21.3413 173.984 21.9407C174.31 22.552 174.625 23.193 175.028 23.7687L181.486 19.3114L181.498 19.3054Z" fill="#77B975"/>
<path d="M152.178 52.335C153.151 53.3143 154.504 53.8603 155.875 53.9612C157.252 54.0562 158.695 53.6526 159.917 53.1244C160.054 53.0591 160.256 52.976 160.339 52.9225L160.641 52.7505C160.843 52.6377 161.045 52.5189 161.229 52.3943C161.609 52.1569 161.959 51.9017 162.303 51.6524C162.98 51.1479 163.609 50.6435 164.208 50.1449C166.013 48.6611 167.502 46.845 169.366 45.6282C169.841 45.3077 170.399 44.9753 171.004 44.6311C171.61 44.2809 172.245 43.913 172.88 43.5509C174.15 42.7912 175.432 42.0078 176.381 41.254C177.853 40.1085 178.613 38.8087 179.254 37.4614C179.895 36.0963 180.447 34.7312 181.385 32.9803C182.346 31.1286 182.78 29.7991 183.112 28.3746C183.201 28.0185 183.26 27.6505 183.314 27.2588C183.385 26.8671 183.403 26.4516 183.426 26.0006C183.456 25.0984 183.421 24.0301 183.13 22.76C183.082 22.5226 182.975 22.1783 182.821 21.7985C182.679 21.4127 182.489 21.0091 182.293 20.6411C182.109 20.2612 181.901 19.9467 181.759 19.7033C181.61 19.4659 181.509 19.3057 181.509 19.3057L175.052 23.763C175.907 24.9797 176.298 25.7632 176.601 26.5466C176.88 27.3241 177.011 28.0957 176.797 29.081C176.524 30.2561 175.622 31.2473 174.927 32.3809C173.728 34.3336 172.565 36.7611 170.577 38.5001C168.577 40.2154 166.286 41.1294 164.024 42.5182C162.808 43.2542 161.935 44.0138 161.069 44.7617C160.214 45.4917 159.33 46.2633 158.273 46.7262C157.97 46.8568 157.959 46.8152 157.864 46.7737C157.792 46.7262 157.739 46.6431 157.709 46.5482C157.638 46.3582 157.745 46.1387 157.757 46.1505L152.196 52.335H152.178Z" fill="#77B975"/>
<path d="M143.435 65.1604C143.785 62.3293 143.554 59.2905 143.762 56.4417C143.922 54.3228 143.898 52.0378 144.699 50.0732C145.103 49.0583 145.785 47.8712 146.521 46.7673C147.263 45.6633 148.07 44.6662 148.682 43.9718C148.801 43.8294 148.901 43.6988 148.996 43.5979C149.085 43.4911 149.186 43.3545 149.24 43.2774C149.281 43.2299 149.299 43.1765 149.323 43.0994C149.358 42.951 149.382 42.7254 149.501 42.4643C149.614 42.2091 149.804 41.9182 150.071 41.7224C150.32 41.5206 150.735 41.4434 150.89 41.8114C151.038 42.1794 150.979 42.5177 150.937 42.7729C150.884 43.0341 150.801 43.23 150.706 43.3961C150.682 43.4377 150.658 43.4733 150.634 43.5148C150.611 43.5564 150.581 43.5623 150.551 43.6751L150.51 43.8056C150.498 43.8412 150.486 43.9481 150.468 44.0193C150.445 44.1795 150.415 44.3458 150.385 44.5179C150.332 44.8681 150.278 45.2539 150.225 45.699C150.201 45.9245 150.177 46.1619 150.16 46.4231C150.148 46.5536 150.142 46.6842 150.136 46.8385V47.064C150.13 47.1353 150.124 47.2183 150.136 47.3489C150.154 48.0315 150.397 49.4322 150.919 50.5184C151.169 51.0644 151.477 51.5214 151.721 51.8419C151.851 51.9962 151.958 52.1208 152.029 52.2099C152.112 52.293 152.16 52.3404 152.166 52.3404L157.727 46.1559C157.727 46.1559 157.662 46.1975 157.59 46.1797H157.579L157.555 46.0789L157.501 45.8889C157.466 45.7405 157.436 45.5921 157.407 45.4497C157.341 45.1589 157.288 44.8562 157.228 44.5594C157.175 44.2448 157.122 43.9481 157.074 43.6513C157.021 43.1409 156.961 42.6364 156.908 42.126C156.783 41.0161 156.623 39.924 156.291 38.8557C155.881 37.6212 155.347 36.5528 154.391 35.7279C153.911 35.3243 153.317 35.0097 152.712 34.8376C152.106 34.6655 151.477 34.612 150.836 34.6773C149.738 34.796 148.593 35.2649 147.554 35.8941C146.515 36.5291 145.613 37.4253 144.854 38.4165L144.325 39.194L144.07 39.5738L143.916 39.8647L143.607 40.4463L143.34 40.9983L142.313 43.1171C141.631 44.4822 140.948 45.7168 140.289 46.9691C139.631 48.2155 139.007 49.4737 138.515 50.8447C137.464 53.8183 137.791 56.0024 137.28 59.0234C137.049 60.3767 136.004 61.8782 135.672 63.9021L143.417 65.1723L143.435 65.1604Z" fill="#77B975"/>
<path d="M140.687 107.057C140.42 104.297 139.595 101.353 139.203 98.4986C138.907 96.3679 138.39 94.1303 138.657 91.9818C138.924 89.768 139.963 86.5155 140.462 84.361C141.227 81.0433 139.85 79.0846 140.515 75.7194C141.221 72.2473 141.625 71.4638 142.842 67.8968C142.954 67.5704 143.097 66.8938 143.222 66.2943C143.334 65.6949 143.435 65.1785 143.435 65.1666L135.69 63.8965C135.061 68.2173 135.5 70.0157 135.191 72.7993C135.019 74.4374 134.432 76.0162 134.277 77.6602C134.028 80.4854 134.568 83.3401 134.289 86.1475C134.016 88.9429 133.179 91.3942 132.871 94.2134C132.538 97.2582 133.298 99.2939 133.411 102.356C133.464 103.728 132.734 105.413 132.853 107.52L140.687 107.063V107.057Z" fill="#77B975"/>
<path d="M154.119 142.538C153.864 139.564 152.855 136.567 152.161 133.695C151.644 131.546 150.819 129.368 150.706 127.16C150.647 126.026 150.706 124.59 150.736 123.124C150.748 122.388 150.76 121.652 150.736 120.922C150.724 120.554 150.701 120.192 150.665 119.83C150.641 119.64 150.629 119.48 150.582 119.248C150.558 119.136 150.546 119.035 150.517 118.922C150.481 118.797 150.451 118.673 150.416 118.554C150.024 117.046 149.288 115.812 148.326 115.082C147.359 114.334 146.178 114.049 145.074 114.168C144.516 114.221 143.964 114.358 143.418 114.536C143.151 114.631 142.878 114.726 142.599 114.821C142.433 114.874 142.409 114.892 142.332 114.928L142.231 114.969C142.231 114.969 142.201 114.987 142.178 114.999C141.946 115.147 141.596 115.189 141.329 114.975C141.192 114.868 141.103 114.732 141.038 114.619C140.967 114.465 140.907 114.328 140.848 114.192C140.765 113.978 140.682 113.8 140.623 113.574C140.593 113.473 140.551 113.355 140.534 113.272C140.545 113.224 140.557 113.2 140.557 113.141C140.557 112.88 140.557 112.393 140.587 111.853C140.611 111.301 140.664 110.607 140.747 109.734C140.777 109.414 140.753 108.761 140.735 108.173C140.712 107.586 140.694 107.075 140.694 107.069L132.859 107.526C133.026 109.77 133.37 111.355 133.803 112.815C134.017 113.545 134.26 114.251 134.616 115.1C134.753 115.456 135.133 116.186 135.311 116.423C135.518 116.767 135.768 117.135 136.041 117.527L136.622 118.299C136.866 118.572 137.103 118.857 137.37 119.112C137.892 119.634 138.498 120.073 139.157 120.418C139.821 120.762 140.557 120.964 141.311 121.047C141.691 121.082 142.071 121.094 142.457 121.059C142.646 121.047 142.842 121.023 143.032 120.993L143.317 120.946L143.513 120.904L143.667 120.869L143.745 120.851L143.768 120.833L143.816 120.791C143.851 120.762 143.893 120.72 143.952 120.679C144.065 120.596 144.225 120.548 144.368 120.584C144.516 120.619 144.659 120.72 144.771 120.869C144.831 120.958 144.937 121.248 145.021 121.539C145.104 121.83 145.175 122.139 145.228 122.459C145.644 125.041 145.252 127.552 145.347 130.258C145.436 133.19 146.398 135.06 146.712 138.009C146.849 139.327 146.19 140.977 146.291 142.936L154.131 142.544L154.119 142.538Z" fill="#77B975"/>
<path d="M138.104 182.457C139.986 180.415 141.636 177.84 143.499 175.62C144.888 173.964 146.194 172.071 147.957 170.765C148.182 170.599 148.431 170.427 148.693 170.249C148.865 170.13 149.055 169.964 149.245 169.809C149.423 169.637 149.601 169.471 149.767 169.269C150.42 168.498 150.859 167.756 151.263 167.008C152.046 165.518 152.592 164.064 152.936 162.901C153.453 161.102 153.304 159.69 153.114 158.301C152.918 156.912 152.663 155.553 152.847 153.796C153.197 150.158 153.488 149.315 154.076 145.445C154.129 145.089 154.141 144.365 154.141 143.73C154.141 143.41 154.129 143.119 154.129 142.899C154.123 142.68 154.117 142.543 154.117 142.537L146.283 142.929C146.538 147.101 147.203 148.751 147.25 151.458C147.274 153.048 146.829 154.609 146.776 156.17C146.734 157.512 146.841 158.841 146.894 160.165C146.948 161.482 146.93 162.8 146.615 163.981C146.461 164.563 146.247 165.097 146.004 165.524L145.814 165.815C145.749 165.892 145.689 165.981 145.624 166.046C145.565 166.094 145.505 166.177 145.452 166.195C145.405 166.218 145.387 166.207 145.339 166.218C145.381 166.07 144.597 166.592 144.075 166.913C143.511 167.269 142.947 167.649 142.383 168.058C139.95 169.857 138.953 171.774 136.757 173.899C135.778 174.854 134.033 175.43 132.543 176.926L138.104 182.463V182.457Z" fill="#77B975"/>
<path d="M162.725 178.38C161.419 177.247 159.811 176.321 158.072 175.686C157.188 175.389 156.291 175.128 155.366 174.985C154.914 174.896 154.446 174.861 153.989 174.813C153.763 174.789 153.526 174.789 153.3 174.778C153.057 174.778 152.885 174.754 152.57 174.76C150.837 174.772 149.508 175.395 148.386 176C147.252 176.617 146.267 177.27 145.228 177.781C143.098 178.825 139.845 180.179 137.886 181.164C136.379 181.918 135.512 182.832 134.646 183.668C134.213 184.096 133.785 184.482 133.31 184.802C133.192 184.873 133.073 184.945 132.948 185.016C132.83 185.069 132.711 185.117 132.586 185.17C132.468 185.206 132.361 185.229 132.242 185.259C132.153 185.259 132.04 185.271 131.969 185.259C131.91 185.235 131.838 185.229 131.844 185.194C131.821 185.176 131.827 185.152 131.999 185.2C132.046 185.218 132.189 185.277 132.278 185.348C132.408 185.437 132.515 185.544 132.634 185.686C132.853 185.959 132.948 186.31 132.984 186.47C133.037 186.856 133.031 186.826 133.103 186.784C133.174 186.725 133.281 186.612 133.405 186.488C133.945 185.953 134.741 185.295 136.141 184.262C136.397 184.072 136.872 183.621 137.293 183.217C137.714 182.808 138.082 182.458 138.088 182.452L132.527 176.914C130.966 178.529 130.01 179.858 129.215 181.146C128.817 181.799 128.461 182.428 128.087 183.188C127.903 183.562 127.714 183.983 127.524 184.505C127.476 184.63 127.429 184.772 127.381 184.933C127.334 185.075 127.292 185.247 127.251 185.437C127.173 185.793 127.102 186.262 127.132 186.85C127.15 187.526 127.441 188.535 128.058 189.265C128.663 190.001 129.358 190.369 129.898 190.595C130.924 190.981 131.69 191.04 132.474 191.046C133.957 191.004 135.061 190.66 136.011 190.233C137.613 189.467 138.777 188.464 139.887 187.497C140.996 186.523 142.029 185.556 143.181 184.79C144.326 184.025 145.483 183.455 146.623 182.968C147.763 182.481 148.89 182.084 149.899 181.745C150.445 181.561 150.879 181.395 151.205 181.277C151.383 181.199 151.502 181.17 151.638 181.099C151.733 181.069 151.852 180.998 151.905 180.974C151.905 180.909 152.22 180.926 152.416 180.909C152.635 180.891 152.861 180.926 153.098 180.932C153.567 180.992 154.066 181.093 154.588 181.324C155.063 181.514 155.478 181.983 155.906 182.487C156.333 183.022 156.778 183.591 157.372 184.149L162.701 178.386L162.725 178.38Z" fill="#77B975"/>
<path d="M177.111 221.369C177.39 217.992 176.47 214.763 175.717 211.814C175.147 209.594 174.191 207.428 173.877 205.22C173.716 204.08 173.621 202.626 173.497 201.16C173.372 199.7 173.206 198.228 172.98 197.071C172.63 195.29 171.876 194.085 171.069 192.922C170.256 191.759 169.401 190.643 168.695 188.975C167.93 187.224 167.461 186.144 166.98 185.04C166.475 183.918 166.001 182.737 164.885 180.88C164.778 180.707 164.6 180.464 164.392 180.197C164.173 179.93 163.923 179.639 163.686 179.366C163.443 179.099 163.199 178.856 163.021 178.678C162.849 178.499 162.718 178.387 162.718 178.387L157.389 184.15C158.683 185.325 159.632 186.239 160.469 187.064C161.3 187.895 162.006 188.661 162.677 189.747C163.466 191.035 163.793 192.56 164.446 193.931C165.561 196.269 167.229 198.471 167.93 201.065C168.63 203.647 168.499 206.098 168.749 208.692C168.998 211.487 170.001 213.232 170.197 216.028C170.268 217.28 169.502 218.758 169.307 220.432L177.099 221.369H177.111Z" fill="#77B975"/>
<path d="M136.954 240.373C139.993 239.934 142.943 238.67 145.744 237.684C146.795 237.322 147.839 236.865 148.896 236.485C149.946 236.082 151.015 235.743 152.101 235.577C154.332 235.227 157.822 235.233 160.072 234.948C163.544 234.533 164.933 232.515 168.28 231.826C168.5 231.785 168.707 231.743 168.903 231.702C168.98 231.69 169.153 231.648 169.283 231.613C169.42 231.577 169.556 231.541 169.693 231.506C170.233 231.334 170.743 231.12 171.176 230.877C172.043 230.39 172.72 229.844 173.295 229.268C173.871 228.692 174.393 228.069 174.88 227.327C175.379 226.585 175.865 225.719 176.328 224.651C176.506 224.253 176.732 223.428 176.88 222.71C176.957 222.348 177.005 222.015 177.046 221.772C177.088 221.523 177.106 221.363 177.106 221.363L169.313 220.425C169.123 222.217 168.963 223.351 168.773 224.229C168.583 225.078 168.322 225.707 167.942 225.986C167.817 226.069 167.74 226.099 167.562 226.111L167.437 226.123L167.152 226.176L166.547 226.283C165.74 226.419 164.927 226.556 164.143 226.799C162.802 227.209 161.55 227.761 160.274 228.324C158.997 228.859 157.715 229.393 156.368 229.696C153.685 230.295 151.163 230.194 148.468 230.556C145.566 230.942 143.821 232.099 140.949 232.651C139.661 232.901 137.999 232.366 136.105 232.574L136.936 240.379L136.954 240.373Z" fill="#77B975"/>
<path d="M100.465 222.14C101.504 222.324 102.453 222.443 103.403 222.793C104.352 223.125 105.344 223.736 106.234 224.662C107.575 226.021 109.089 227.802 110.199 229.82C110.774 230.865 111.463 232.265 112.418 233.613C113.362 234.96 114.573 236.206 115.665 237.008C117.356 238.254 118.977 238.539 120.484 238.663C122.01 238.782 123.47 238.747 125.286 239.097C127.173 239.417 128.336 239.619 129.529 239.821C130.129 239.934 130.728 240.035 131.435 240.141C132.147 240.26 132.948 240.361 133.957 240.474C134.331 240.521 135.073 240.491 135.726 240.462C136.052 240.444 136.361 240.426 136.58 240.408C136.8 240.385 136.948 240.373 136.948 240.373L136.117 232.568C134.1 232.805 132.711 233.073 131.494 233.286C130.277 233.5 129.227 233.684 127.957 233.642C126.449 233.601 125.037 233.049 123.671 232.788C122.496 232.562 121.327 232.443 120.211 232.176C119.095 231.915 118.021 231.494 117.172 230.764C116.33 230.034 115.76 229.108 115.279 228.117C114.798 227.12 114.407 226.016 113.831 224.805C113.208 223.475 112.43 222.359 111.457 221.244C110.483 220.134 109.326 219.018 107.759 217.825C107.047 217.309 106.329 216.602 105.403 215.967C104.489 215.332 103.385 214.745 102.127 214.472L100.465 222.14Z" fill="#77B975"/>
<path d="M78.3016 215.392C78.26 215.279 78.0938 214.668 77.981 213.564C77.9514 213.291 77.9336 212.988 77.9276 212.674C77.9098 212.359 77.9751 212.009 78.0226 211.849C78.0998 211.481 78.1591 211.238 78.2481 211.125C78.3668 210.947 78.5271 210.739 78.7229 210.852C78.9188 210.953 79.1503 211.374 79.2927 212.063C79.4352 212.775 79.5183 213.766 79.4826 214.419L79.4648 214.656C79.4648 214.739 79.4352 214.775 79.4648 214.923C79.4826 215.06 79.4826 215.149 79.5183 215.309C79.5657 215.493 79.6073 215.671 79.6548 215.849C79.8447 216.567 80.0643 217.256 80.3195 217.873C80.5213 218.348 80.7528 218.793 81.0436 219.209C81.186 219.416 81.3285 219.612 81.5065 219.82C81.7024 220.069 81.9517 220.312 82.1772 220.532C83.115 221.422 84.2071 221.933 85.3169 222.117C85.8808 222.188 86.4446 222.188 86.9966 222.081C87.2755 222.04 87.5426 221.951 87.8216 221.873C87.9581 221.826 88.0946 221.778 88.237 221.725L88.4448 221.648C88.4448 221.648 88.4804 221.636 88.4982 221.63C88.5219 221.63 88.5575 221.63 88.5635 221.63L88.6228 221.606C89.2698 221.363 89.982 221.161 90.807 221.09C92.5163 220.924 93.5609 220.953 94.6174 221.037C95.656 221.149 96.7422 221.298 98.2912 221.713C98.4337 221.755 98.6414 221.79 98.8848 221.826C99.1162 221.873 99.3714 221.921 99.6088 221.962C100.066 222.057 100.458 222.141 100.463 222.141L102.125 214.472C99.4545 213.98 97.7215 214.205 96.2614 214.413C94.7954 214.633 93.6262 214.947 92.1542 215.155C91.2996 215.303 90.4271 215.333 89.5784 215.404C89.1511 215.44 88.7118 215.463 88.2964 215.523C88.0827 215.553 87.875 215.582 87.6613 215.618L87.2162 215.701C87.1094 215.772 86.8957 215.944 86.5693 215.843C86.5455 215.843 86.4446 215.76 86.3556 215.677C86.2666 215.588 86.1775 215.511 86.0885 215.41C85.9105 215.214 85.7383 214.995 85.5722 214.763C85.2398 214.288 84.9371 213.742 84.7056 213.155C84.6344 212.965 84.5572 212.769 84.486 212.579L84.3673 212.258L84.2249 211.843C84.029 211.279 83.8628 210.698 83.6907 210.104C83.3643 208.911 83.0616 207.647 82.747 206.3C82.4324 204.958 82.106 203.546 81.7321 202.186C81.3582 200.851 80.919 199.682 80.456 198.904C79.9575 198.067 79.5123 197.735 79.1384 197.575C78.7586 197.409 78.444 197.373 78.1413 197.385C77.8327 197.397 77.5656 197.426 77.1857 197.409C77.0848 197.409 76.978 197.409 76.8356 197.409C76.705 197.409 76.4676 197.432 76.2836 197.486C75.9334 197.599 75.7494 197.741 75.5476 197.877C75.2034 198.133 74.8473 198.168 74.3962 198.24C73.9511 198.335 73.3754 198.358 72.8887 199.349L78.3016 215.386V215.392Z" fill="#77B975"/>
<path d="M57.161 245.638C59.998 244.071 62.3424 241.537 64.3782 239.168C64.758 238.717 65.1201 238.254 65.4881 237.791C65.8383 237.311 66.1647 236.812 66.5089 236.331C67.2212 235.394 67.8265 234.391 68.6278 233.566C69.0254 233.126 69.4528 232.622 69.9513 232.111C70.1947 231.85 70.4618 231.595 70.711 231.322C70.9544 231.043 71.1977 230.758 71.447 230.473C72.4797 229.352 73.3759 228.123 74.0585 227.108C74.5748 226.325 74.8419 225.547 75.0793 224.817C75.1862 224.449 75.2871 224.087 75.3524 223.731C75.4058 223.369 75.4473 223.007 75.4888 222.651C75.566 221.933 75.6491 221.226 75.7678 220.479C75.8568 219.725 76.0052 218.941 76.296 218.075C76.3732 217.849 76.4444 217.636 76.5097 217.434C76.5572 217.274 76.6047 217.119 76.6522 216.977C76.7471 216.698 76.8302 216.437 76.9133 216.193C77.0795 215.73 77.2457 215.291 77.4059 214.965C77.6255 214.799 77.8807 214.733 78.1716 215.166C78.2784 215.321 78.3081 215.422 78.3081 215.416L72.8952 199.379C72.7587 199.581 72.6637 199.972 72.5569 200.269C72.456 200.602 72.3491 200.851 72.2839 201.272C72.1473 202.05 72.0049 202.703 71.9396 203.528C71.7675 205.017 71.7259 206.572 71.6725 207.908C71.6251 209.213 71.5776 210.418 71.5301 211.647L71.5063 212.092L71.4826 212.407C71.4648 212.603 71.447 212.804 71.4233 213.006C71.3817 213.41 71.3283 213.819 71.2689 214.241C70.99 216.478 70.2065 217.552 69.8623 219.06C69.4647 220.271 69.3341 221.576 68.9839 222.811L68.7465 223.755L68.6219 224.224L68.4557 224.675C68.2242 225.274 67.969 225.868 67.6663 226.432C66.3368 228.639 64.485 230.088 62.7223 231.779C62.2178 232.218 61.8083 232.658 61.4403 233.109C61.0664 233.554 60.6925 233.963 60.3482 234.408C60.0099 234.865 59.6301 235.287 59.2146 235.708C58.7991 236.136 58.3599 236.592 57.7961 236.978C57.2916 237.328 56.6625 237.596 55.9087 237.797C55.1668 238.017 54.3893 238.278 53.5762 238.664L57.1491 245.65L57.161 245.638Z" fill="#77B975"/>
<path d="M12.0957 244.385C12.7782 244.854 13.532 245.216 14.2977 245.555C15.0514 245.917 15.8468 246.172 16.6361 246.415C17.0338 246.534 17.4196 246.67 17.8172 246.765C18.2149 246.854 18.6125 246.949 19.0102 247.038C19.4019 247.127 19.7936 247.222 20.1854 247.311C20.5889 247.389 20.9866 247.466 21.3843 247.543C23.7524 247.982 26.1502 247.863 28.37 248.314C29.5155 248.552 30.9399 248.938 32.3881 249.276C33.8363 249.614 35.3082 249.905 36.4952 250.024C38.3233 250.214 39.718 249.828 41.0653 249.371C41.7419 249.163 42.4067 248.89 43.1308 248.682C43.8549 248.487 44.6264 248.279 45.5286 248.166C46.4663 248.071 47.2201 247.917 47.8967 247.84C48.5793 247.762 49.1668 247.662 49.7663 247.584C50.9771 247.43 52.2235 247.27 54.2592 246.801C54.6331 246.706 55.3632 246.439 55.9982 246.184C56.3069 246.035 56.5977 245.899 56.8114 245.798C57.025 245.697 57.1615 245.626 57.1675 245.626L53.5945 238.64C51.8911 239.56 50.6981 240.207 49.6535 240.771C49.3864 240.913 49.1312 241.056 48.876 241.192C48.6149 241.311 48.3597 241.43 48.0985 241.548C47.5762 241.774 47.0421 242.017 46.4189 242.166C45.6888 242.361 44.941 242.468 44.1754 242.51C43.4216 242.569 42.6678 242.623 41.92 242.735C39.3916 243.169 36.8335 244.13 34.1864 244.017C31.5572 243.893 29.3137 242.979 26.9099 242.314C24.3044 241.584 22.5772 241.809 19.9954 240.741C19.4494 240.474 18.9152 240.047 18.3751 239.513C17.8469 238.961 17.2356 238.444 16.5471 237.916L12.0957 244.379V244.385Z" fill="#77B975"/>
<path d="M5.03237 200.916C4.87806 201.082 4.72374 201.248 4.58129 201.427L4.18365 201.972C3.92844 202.34 3.66135 202.708 3.44175 203.1C3.01442 203.89 2.59895 204.679 2.30813 205.51C1.96982 206.323 1.76209 207.166 1.53062 207.979C1.42379 208.388 1.35257 208.804 1.25761 209.213C1.16858 209.623 1.07954 210.021 1.02613 210.424C0.598794 212.834 0.794663 215.291 0.533516 217.594C0.414812 218.787 0.171458 220.289 0.076495 221.832C0.0527543 222.217 0.0290164 222.603 0.00527572 222.989C-0.00659464 223.369 0.00527572 223.749 0.00527572 224.123C0.0112109 224.491 0.00528079 224.859 0.0290215 225.203C0.0646326 225.547 0.0942984 225.879 0.129909 226.188C0.349511 228.111 1.14483 229.429 1.96982 230.657C2.39122 231.269 2.86604 231.85 3.28151 232.503C3.75632 233.132 4.17177 233.839 4.62285 234.664C5.1036 235.512 5.46565 236.224 5.85143 236.812C6.22535 237.406 6.51023 237.969 6.86634 238.486C7.21652 239.008 7.53702 239.572 7.97622 240.183C8.20176 240.486 8.43917 240.812 8.70625 241.168C8.97334 241.53 9.26416 241.922 9.63214 242.314C9.89922 242.611 10.4868 243.157 11.0329 243.608C11.3177 243.821 11.5789 244.017 11.7747 244.16C11.9706 244.302 12.0952 244.391 12.1012 244.397L16.5526 237.934C16.1727 237.673 15.7988 237.453 15.4724 237.227C15.1519 236.996 14.8432 236.782 14.5524 236.592C13.947 236.224 13.4841 235.833 13.0033 235.518C12.5107 235.204 12.1249 234.842 11.6976 234.497C11.2703 234.153 10.9023 233.738 10.5165 233.269C10.0417 232.729 9.75678 232.046 9.43035 231.417C9.2701 231.096 9.15733 230.752 9.00301 230.438C8.8665 230.111 8.68251 229.808 8.53413 229.488C7.98216 228.414 7.29962 227.387 6.74765 226.271L6.33218 225.434C6.20754 225.149 6.1007 224.859 5.99387 224.562C5.7624 223.98 5.6259 223.369 5.53687 222.752C5.2045 220.259 5.86331 218.039 6.39154 215.766C6.46869 215.457 6.52804 215.16 6.56958 214.87C6.61707 214.579 6.68237 214.312 6.71204 214.039C6.77139 213.487 6.84855 212.97 6.91384 212.442C7.03847 211.386 7.24026 210.323 7.78037 209.178C8.04745 208.685 8.49259 208.216 9.03862 207.789C9.1692 207.676 9.29978 207.563 9.43629 207.451C9.5728 207.344 9.71524 207.231 9.86362 207.124C10.1485 206.899 10.3978 206.626 10.6827 206.37L5.02051 200.94L5.03237 200.916Z" fill="#77B975"/>
<path d="M48.2947 192.4C48.0692 192.495 47.7546 192.536 47.4816 192.625C47.1908 192.696 46.9356 192.809 46.6092 192.874C45.98 193.023 45.3628 193.219 44.6683 193.361L43.6475 193.599L42.5851 193.806C41.8848 193.949 41.1547 194.067 40.4425 194.162C38.2999 194.453 36.0327 194.97 33.8248 194.821C31.5635 194.655 28.0854 193.925 25.7173 193.883C24.8092 193.83 24.0199 193.961 23.2898 194.133C22.5598 194.311 21.8951 194.53 21.2363 194.815C20.5775 195.088 19.9305 195.367 19.2183 195.605C18.512 195.866 17.7582 196.109 16.862 196.257C15.9302 196.394 15.1942 196.584 14.5236 196.697C13.8469 196.815 13.2534 196.916 12.654 197.023C12.3216 197.1 11.9892 197.183 11.6391 197.266C11.283 197.35 10.915 197.433 10.5292 197.575C10.1375 197.712 9.72199 197.86 9.25905 198.02C8.81391 198.21 8.33317 198.442 7.799 198.703C7.38947 198.875 6.71286 199.433 6.08966 199.914C5.78697 200.157 5.54363 200.418 5.34777 200.602C5.15784 200.786 5.03914 200.911 5.0332 200.911L10.6954 206.341C11.8052 205.166 12.6243 204.389 13.4315 203.783C13.8173 203.445 14.2268 203.219 14.6423 202.964C14.8263 202.84 15.1111 202.721 15.3901 202.614C15.6691 202.501 15.9599 202.394 16.2626 202.294C16.9867 202.05 17.7345 201.902 18.5001 201.831C19.2598 201.748 20.0077 201.629 20.7496 201.475C23.272 200.899 25.7767 199.801 28.4653 199.682C31.1361 199.575 33.5221 200.282 36.2285 200.519C39.1724 200.78 41.1725 200.098 44.3478 199.937C45.066 199.896 45.8554 200.056 46.8109 200.145C47.2798 200.198 47.7724 200.258 48.3363 200.228C48.6093 200.222 48.8942 200.204 49.185 200.181C49.4699 200.157 49.7667 200.121 50.0872 200.026L48.3066 192.382L48.2947 192.4Z" fill="#77B975"/>
<path d="M77.1992 167.483C76.2258 168.101 75.205 168.819 74.0654 169.489C73.5016 169.828 72.8962 170.136 72.2967 170.457C71.6735 170.73 71.0563 171.039 70.4093 171.264C69.9286 171.43 69.4419 171.62 68.9493 171.804C68.4507 171.97 67.9403 172.137 67.4299 172.285C66.9729 172.427 66.2666 172.588 65.6256 172.76L64.6463 173.074L63.6729 173.454C63.0141 173.757 62.2544 174.131 61.56 174.671C60.8359 175.193 60.1949 175.852 59.6251 176.535C58.5093 177.912 57.7199 179.348 57.2095 180.44C56.4379 182.131 56.3786 183.449 56.2955 184.725C56.2124 185.983 56.1352 187.277 55.3399 188.535C54.5149 189.817 53.8502 190.387 53.132 190.844C52.402 191.283 51.6245 191.628 50.2772 191.889C50.0457 191.954 49.5353 192.079 49.108 192.221C48.8884 192.263 48.6925 192.304 48.5441 192.34C48.3957 192.376 48.3067 192.399 48.3008 192.399L50.0813 200.044C51.4405 199.7 52.497 199.272 53.405 198.762C54.3191 198.269 55.0669 197.717 55.7138 197.153C57.0077 196.02 57.9395 194.862 58.9366 193.45C60.094 191.794 61.287 190.18 61.8746 188.441C62.8895 185.473 62.6461 182.511 63.6254 180.386C64.0943 179.324 64.7947 178.707 65.3882 178.458C65.9995 178.226 66.5396 178.256 67.3646 178.238C67.5248 178.226 67.6792 178.214 67.8275 178.202C68.0175 178.179 68.2074 178.161 68.3973 178.137C68.7712 178.09 69.1273 178.03 69.4716 177.965C70.166 177.834 70.8248 177.609 71.4717 177.407C72.7775 176.974 74.0535 176.44 75.6323 175.905C75.9884 175.799 76.3742 175.68 76.7897 175.603C77.2051 175.508 77.6621 175.472 78.131 175.348C78.6058 175.241 79.1044 175.116 79.6207 174.962C80.1312 174.772 80.6594 174.54 81.1876 174.25L77.1992 167.489V167.483Z" fill="#77B975"/>
<path d="M84.9011 130.941C84.9961 132.365 85.1623 133.778 85.4234 135.22C85.5362 135.932 85.6252 136.632 85.7261 137.339C85.8211 138.039 85.916 138.745 85.9576 139.517C86.106 141.76 86.6045 144.046 86.3612 146.218C86.1179 148.461 85.1623 151.732 84.6459 153.791C84.2542 155.382 84.3432 156.593 84.4085 157.833C84.4797 159.067 84.4797 160.332 83.815 161.709C83.6547 162.071 83.4708 162.367 83.2986 162.64C83.1384 162.919 82.9781 163.163 82.806 163.376C82.6398 163.59 82.4974 163.798 82.3312 163.976C82.165 164.148 81.9988 164.314 81.8326 164.48C81.1382 165.098 80.4082 165.691 79.0906 166.356C78.8294 166.457 78.4021 166.777 77.9807 167.021C77.773 167.145 77.5771 167.258 77.4347 167.341C77.2922 167.43 77.2032 167.484 77.1973 167.484L81.1857 174.244C83.4055 172.896 84.6934 171.436 85.6371 170.131C86.5808 168.813 87.2277 167.596 87.9756 166.136C88.854 164.427 89.8748 162.783 90.314 160.979C90.6998 159.435 90.7473 157.886 90.7473 156.391C90.7473 154.889 90.6879 153.435 90.8185 152.005C91.0678 149.156 91.8156 146.705 92.148 143.992C92.3261 142.532 92.2548 141.327 92.1658 140.128C92.1183 139.499 92.0708 138.864 92.0234 138.199C91.9818 137.505 91.9581 136.775 91.9818 135.986C91.9996 135.279 92.1717 134.526 92.3735 133.671C92.5635 132.822 92.789 131.867 92.7534 130.846L84.9071 130.935L84.9011 130.941Z" fill="#77B975"/>
<path d="M81.1935 88.6762C81.6802 91.5369 82.8375 94.4155 83.6032 97.2229C84.167 99.318 85.0039 101.472 85.0633 103.645C85.1345 105.882 84.624 109.277 84.4875 111.497C84.2917 114.91 85.9773 116.619 85.912 120.05C85.8289 123.599 85.5618 124.442 85.0039 128.163C84.9445 128.501 84.9149 129.19 84.903 129.801C84.903 130.406 84.8911 130.935 84.8911 130.941L92.7374 130.852C92.6722 128.662 92.4585 127.136 92.2151 125.825C91.9777 124.507 91.7759 123.379 91.6632 121.99C91.5385 120.346 91.8649 118.69 91.7106 117.052C91.4792 114.239 90.4583 111.527 90.2803 108.725C90.1022 105.93 90.5473 103.401 90.4583 100.6C90.3515 97.579 89.3366 95.6857 88.8796 92.7003C88.6718 91.3648 89.2298 89.6496 88.9627 87.6494L81.1816 88.6762H81.1935Z" fill="#77B975"/>
<path d="M64.3973 63.7844L60.5394 64.5026L58.6105 64.8646L57.649 65.0427L57.1682 65.1317L56.9249 65.1792L56.8062 65.203L56.7468 65.2148H56.7172L56.6994 65.2208H56.6934C58.9191 65.844 58.842 65.8261 60.029 66.1585C59.8331 66.2297 59.8391 66.2238 59.7322 66.2653H59.7263H59.7085H59.6788L59.6195 66.2416L59.5008 66.2119L59.2634 66.1585L58.7886 66.0457L57.833 65.8261L55.9218 65.381L52.0996 64.4907C52.153 64.277 52.2064 64.0574 52.2599 63.8438C52.3192 63.6301 52.3786 63.4224 52.432 63.2087L52.616 62.5855L52.8178 61.9801L53.0314 61.3866L53.257 60.805L53.4944 60.2412L53.7436 59.6951L54.0048 59.1669L54.2778 58.6564L54.5568 58.1638L54.8476 57.6652L55.1503 57.1905L55.4648 56.7334L55.7913 56.3002L56.1237 55.8906L56.6459 55.9737L57.1742 56.0806L57.7143 56.2111L58.2603 56.3655L58.8064 56.5435L58.9429 56.591L59.0141 56.6148L59.0497 56.6266H59.0556L59.0734 56.6385L59.1091 56.6563L59.2337 56.7275L59.3287 56.775L59.5126 56.8759L59.851 57.0777L60.0171 57.1845L60.1774 57.2913L60.4979 57.5169L60.8065 57.7602L61.1151 58.0155L61.4119 58.2885L61.7087 58.5733L61.7799 58.6446L61.8511 58.7217L61.9876 58.876L62.2666 59.1966L62.4031 59.3627L62.4684 59.4458L62.5336 59.5348L62.7889 59.8909L63.0381 60.2589L63.0975 60.3539L63.1272 60.4013L63.1568 60.4489L63.2696 60.6447L63.4833 61.0483L63.691 61.4638L63.8691 61.903L64.0352 62.354L64.1184 62.5796L64.1599 62.6924L64.1896 62.8111L64.3083 63.2919L64.4151 63.7785L64.3973 63.7844Z" fill="#77B975"/>
<path d="M88.9743 87.6495L85.0868 88.1658L83.14 88.4211L82.1666 88.5516L81.68 88.6169L81.4366 88.6466L81.3179 88.6644H81.2586L81.2289 88.6762H81.2111H81.2051C81.5434 88.2786 81.5316 88.2964 81.7096 88.0827C82.7246 88.5872 82.6949 88.5694 83.235 88.8365L83.2231 88.8187L83.2053 88.795L83.1697 88.7474L83.0985 88.6466L82.956 88.4507L82.6652 88.0531L82.0836 87.2637L80.9203 85.6849L78.5996 82.5214L78.748 82.4087L78.8192 82.3612L78.8904 82.3137L79.1753 82.1416L79.4661 81.9755L79.5374 81.9339L79.6086 81.8983L79.751 81.833L80.03 81.7143L80.3089 81.6015L80.582 81.5125L80.855 81.4353L80.9915 81.3997L81.0568 81.3819L81.1221 81.3701L81.3832 81.3225L81.6444 81.281L81.7749 81.2632L81.8996 81.2513L82.1488 81.2336L82.3981 81.2217H82.6415L82.8848 81.2336L83.1222 81.2513L83.3596 81.2751L83.597 81.3107L83.8344 81.3522L83.9591 81.376L84.0184 81.3879L84.1074 81.3997H84.1312H84.143H84.1668L84.2084 81.4235L84.2974 81.4591L84.6416 81.6134L84.9799 81.7855L85.3123 81.9695L85.6328 82.1713L85.9414 82.385L86.2382 82.6224L86.5231 82.8717L86.7961 83.1328L87.0572 83.4058L87.3065 83.6966L87.4252 83.845L87.538 83.9993L87.7576 84.3198L87.9594 84.6463L88.1493 84.9846L88.3214 85.3347L88.3986 85.5128L88.4758 85.6968L88.547 85.8808L88.6123 86.0648L88.6775 86.2547L88.7369 86.4446L88.7903 86.6405L88.8378 86.8363L88.8793 87.0322L88.9209 87.234L88.9565 87.4358L88.9862 87.6376L88.9743 87.6495Z" fill="#77B975"/>
</svg>
