<svg width="243" height="243" viewBox="0 0 243 243" fill="none" xmlns="http://www.w3.org/2000/svg">
<g filter="url(#filter0_f_1047_23554)">
<path d="M123.609 1.12305C124.431 0.86832 125.237 1.01951 125.945 1.48242C126.222 1.6637 126.426 1.67815 126.617 1.62305C127.4 1.39837 128.174 1.51482 128.875 1.91992C129.073 2.03438 129.233 2.0493 129.461 1.94336C130.091 1.65103 130.742 1.48581 131.406 1.48242C132.02 1.47947 132.624 1.58137 133.211 1.7793C133.662 1.93195 134.122 2.06182 134.578 2.16211C135.072 2.27056 135.564 2.37928 136.055 2.49023C136.577 2.60838 137.098 2.75709 137.609 2.92773C138.025 3.06625 138.445 3.15873 138.867 3.20898C139.133 3.24057 139.465 3.18974 139.883 2.99023C140.296 2.79282 140.76 2.69461 141.242 2.76367C141.725 2.83352 142.139 3.06165 142.477 3.37305C142.806 3.6765 143.108 3.82492 143.383 3.88086C143.789 3.9631 144.208 3.99938 144.641 3.98242C145.24 3.95856 145.837 4.01014 146.414 4.14648C146.966 4.27707 147.502 4.46792 148.023 4.70898C148.413 4.88915 148.813 5.01563 149.219 5.0918C149.665 5.1755 150.122 5.22904 150.586 5.25586C151.046 5.28241 151.52 5.27583 152.008 5.24023C152.813 5.18133 153.546 5.44154 154.156 5.9668C154.445 6.21587 154.732 6.34443 155.023 6.38867C155.619 6.47772 156.198 6.65234 156.742 6.91211C157.136 7.10009 157.542 7.25068 157.961 7.35742C158.446 7.4806 158.937 7.60212 159.422 7.72461C159.945 7.85693 160.459 8.02282 160.961 8.2168C161.488 8.42031 161.992 8.67688 162.477 8.98242C162.741 9.14936 163.044 9.23144 163.398 9.23242C164.187 9.2353 164.895 9.52023 165.469 10.0605C165.572 10.1577 165.699 10.2262 166.023 10.1465C166.451 10.0407 166.903 10.026 167.344 10.1465C167.791 10.2689 168.17 10.5147 168.469 10.8496C168.668 11.0724 168.875 11.1713 169.133 11.1855C169.832 11.2246 170.484 11.4307 171.062 11.8105C171.502 12.0992 171.936 12.4014 172.359 12.7168C172.779 13.0288 173.194 13.3479 173.602 13.6777C173.77 13.814 173.994 13.9035 174.359 13.873C175.128 13.8083 175.863 13.9537 176.5 14.373C176.838 14.5958 177.205 14.7695 177.602 14.8887C178.219 15.0738 178.784 15.3758 179.281 15.7871C179.674 16.1125 180.07 16.4396 180.461 16.7637C180.804 17.0478 181.166 17.2961 181.547 17.5059C182.068 17.7931 182.548 18.1507 182.977 18.5762C183.287 18.8842 183.62 19.1471 183.977 19.3652C184.275 19.5481 184.627 19.6783 185.047 19.7402C185.867 19.8606 186.541 20.2834 187 20.9746C187.151 21.2015 187.334 21.324 187.602 21.373C188.477 21.5324 189.125 22.0649 189.5 22.8574C189.602 23.0741 189.717 23.1525 189.93 23.1777C190.663 23.263 191.33 23.5237 191.883 23.9902C192.189 24.248 192.537 24.4587 192.922 24.623C193.564 24.8977 194.097 25.3292 194.508 25.8965C194.738 26.2133 195.009 26.4611 195.32 26.6465C195.798 26.9307 196.254 27.2465 196.68 27.5996C197.019 27.8808 197.383 28.1338 197.773 28.3574C198.485 28.7643 198.929 29.4254 199.148 30.209C199.264 30.6208 199.438 30.8523 199.625 30.9902C200.043 31.298 200.454 31.6185 200.852 31.9512C201.167 32.2156 201.525 32.4456 201.922 32.6387C202.411 32.8763 202.893 33.1359 203.359 33.4043C204.05 33.8023 204.502 34.4256 204.734 35.1855C204.821 35.4662 204.956 35.6017 205.156 35.6855C205.749 35.9318 206.286 36.2563 206.75 36.6699C207.222 37.0908 207.6 37.5961 207.891 38.1699C208.093 38.569 208.331 38.9242 208.602 39.2402C208.928 39.6222 209.255 40.0038 209.578 40.3887C209.87 40.7371 210.186 41.0646 210.523 41.373C210.901 41.718 211.274 42.0718 211.641 42.4277C211.945 42.723 212.291 42.9931 212.68 43.2324C213.203 43.5551 213.578 44.0044 213.805 44.5449L214.164 45.6855C214.24 45.8558 214.329 46.0061 214.43 46.1387C214.687 46.476 214.986 46.7857 215.32 47.0684C215.798 47.472 216.192 47.9486 216.5 48.4902C216.747 48.925 216.999 49.3574 217.25 49.7871C217.456 50.1392 217.703 50.4608 218 50.748C218.344 51.0803 218.713 51.4047 219.094 51.7168C219.578 52.1147 219.985 52.5784 220.305 53.1074C220.619 53.6288 220.844 54.2013 220.992 54.8105C221.084 55.1847 221.244 55.491 221.461 55.748C221.768 56.1114 222.097 56.4645 222.438 56.8105C222.787 57.1655 223.147 57.5178 223.516 57.8652C223.983 58.3059 224.351 58.8193 224.617 59.3965C224.852 59.9061 225.045 60.4385 225.195 60.9902C225.319 61.4446 225.468 61.8812 225.648 62.2949C225.845 62.7442 226.055 63.1908 226.266 63.6309C226.463 64.0428 226.684 64.4415 226.93 64.8262C227.142 65.1584 227.418 65.4716 227.758 65.7637C228.323 66.2488 228.699 66.8668 228.859 67.5918C228.934 67.9311 229.089 68.2259 229.32 68.4902C229.759 68.9906 230.072 69.5648 230.25 70.2012C230.389 70.6987 230.523 71.1993 230.648 71.7012C230.72 71.9845 230.869 72.2455 231.141 72.4902C231.712 73.004 232.077 73.6528 232.188 74.4121C232.268 74.9675 232.316 75.5332 232.328 76.1074C232.336 76.4839 232.424 76.803 232.586 77.084C232.837 77.5181 233.09 77.9531 233.344 78.3887C233.656 78.9237 233.875 79.4993 233.992 80.1074C234.089 80.6116 234.18 81.1181 234.266 81.623C234.304 81.8468 234.423 82.0798 234.719 82.3262C235.061 82.61 235.343 82.9728 235.492 83.4121C235.641 83.8498 235.637 84.3004 235.539 84.7324C235.456 85.0945 235.507 85.3418 235.617 85.5371C235.919 86.0702 236.13 86.6374 236.25 87.2324C236.301 87.4862 236.443 87.7559 236.742 88.0371C237.072 88.3461 237.324 88.7335 237.438 89.1934C237.55 89.6498 237.506 90.1037 237.367 90.5293C237.26 90.8554 237.308 91.0428 237.406 91.1934C237.712 91.6628 237.991 92.1418 238.242 92.6309C238.579 93.288 238.681 94.0001 238.562 94.7324C238.485 95.213 238.45 95.6806 238.453 96.1309C238.455 96.3819 238.539 96.641 238.773 96.9199C239.057 97.2579 239.261 97.6544 239.328 98.1074C239.394 98.5597 239.32 99.0044 239.156 99.4121C239.038 99.7047 239.069 99.8734 239.164 100.029C239.48 100.547 239.736 101.082 239.922 101.639C240.145 102.309 240.159 103.007 239.992 103.701C239.898 104.094 239.895 104.453 239.961 104.787C240.045 105.209 240.177 105.633 240.352 106.053C240.552 106.535 240.75 107.019 240.945 107.506C241.204 108.153 241.284 108.834 241.18 109.521C241.106 110.009 241.046 110.495 241.008 110.975C240.977 111.367 241.01 111.754 241.109 112.139C241.257 112.707 241.335 113.29 241.344 113.873C241.352 114.434 241.309 114.993 241.219 115.553C241.151 115.97 241.144 116.382 241.188 116.787C241.24 117.278 241.299 117.771 241.359 118.264C241.422 118.774 241.471 119.29 241.516 119.803C241.561 120.323 241.572 120.817 241.492 121.209C241.453 121.401 241.407 121.732 241.359 122.225C241.322 122.616 241.346 123.012 241.438 123.412C241.594 124.103 241.551 124.797 241.312 125.467C241.205 125.769 241.191 126.059 241.273 126.365C241.429 126.944 241.518 127.529 241.531 128.115C241.544 128.726 241.458 129.33 241.281 129.92C241.119 130.464 240.915 131.003 240.664 131.529C240.571 131.725 240.557 131.918 240.68 132.193C240.958 132.816 241.115 133.458 241.141 134.107C241.166 134.759 241.058 135.396 240.812 136.006C240.66 136.385 240.572 136.764 240.555 137.146C240.529 137.716 240.452 138.282 240.312 138.834C240.205 139.259 240.137 139.691 240.109 140.131C240.081 140.594 240.075 141.069 240.102 141.545C240.135 142.141 240.093 142.727 239.977 143.303C239.864 143.861 239.701 144.412 239.477 144.943C239.297 145.369 239.151 145.803 239.039 146.24C238.876 146.875 238.57 147.458 238.148 147.99C238.057 148.106 238.003 148.22 238.117 148.498C238.461 149.332 238.433 150.206 237.883 150.967C237.687 151.237 237.607 151.512 237.609 151.811C237.614 152.467 237.482 153.098 237.219 153.693C237.026 154.129 236.853 154.569 236.703 155.014C236.525 155.544 236.301 156.064 236.031 156.561C235.804 156.979 235.597 157.403 235.414 157.834C235.292 158.121 235.246 158.45 235.289 158.842C235.365 159.518 235.301 160.177 235.094 160.803C234.874 161.464 234.48 162.035 233.945 162.514C233.714 162.721 233.63 162.923 233.625 163.154C233.613 163.75 233.546 164.334 233.414 164.896C233.292 165.415 233.148 165.925 232.984 166.428C232.831 166.899 232.683 167.374 232.539 167.85C232.31 168.604 231.803 169.19 231.133 169.615C230.79 169.833 230.656 170.048 230.602 170.248C230.505 170.605 230.465 171.016 230.508 171.49C230.574 172.228 230.463 172.937 230.125 173.576C229.886 174.026 229.638 174.474 229.391 174.92C229.108 175.428 228.765 175.903 228.367 176.342C228.104 176.633 227.916 176.954 227.789 177.303C227.568 177.913 227.222 178.457 226.766 178.928C226.404 179.302 226.042 179.675 225.68 180.045C225.383 180.349 225.141 180.677 224.953 181.029C224.741 181.425 224.555 181.839 224.398 182.271C224.227 182.743 224.064 183.222 223.898 183.701C223.707 184.257 223.453 184.782 223.141 185.271C222.824 185.768 222.441 186.218 222 186.623C221.719 186.88 221.507 187.179 221.359 187.514C221.085 188.134 220.667 188.658 220.125 189.076C219.828 189.306 219.612 189.573 219.461 189.881C219.216 190.382 218.929 190.86 218.609 191.311C218.321 191.718 218.031 192.13 217.742 192.537C217.453 192.945 217.16 193.35 216.867 193.756C216.647 194.061 216.472 194.418 216.352 194.834C216.115 195.649 215.568 196.25 214.797 196.592C214.591 196.684 214.498 196.804 214.453 197.045C214.32 197.758 214.028 198.398 213.562 198.928C213.09 199.464 212.472 199.825 211.766 200.045C211.444 200.145 211.305 200.295 211.227 200.475C210.998 200.997 210.745 201.5 210.453 201.975C210.164 202.444 209.844 202.888 209.5 203.311C209.149 203.742 208.759 204.144 208.344 204.514C207.973 204.844 207.607 205.178 207.242 205.514C206.892 205.835 206.558 206.174 206.234 206.521C205.935 206.843 205.661 207.193 205.414 207.576C204.992 208.232 204.367 208.664 203.617 208.881C203.186 209.005 202.839 209.184 202.562 209.404C202.295 209.617 202.068 209.895 201.891 210.256C201.566 210.915 201.08 211.439 200.438 211.787C199.991 212.029 199.548 212.275 199.109 212.521C198.728 212.735 198.379 212.981 198.062 213.264C197.733 213.557 197.425 213.884 197.141 214.24C196.774 214.699 196.357 215.104 195.898 215.459C195.508 215.761 195.119 216.071 194.734 216.381C194.43 216.627 194.156 216.927 193.914 217.287C193.477 217.94 192.848 218.373 192.086 218.561C191.786 218.635 191.572 218.783 191.406 219.014C191.046 219.514 190.628 219.955 190.156 220.326C189.601 220.761 188.943 221.013 188.227 221.1C187.958 221.133 187.8 221.235 187.672 221.436C187.17 222.223 186.377 222.592 185.469 222.576C185.341 222.574 185.293 222.6 185.281 222.607C185.271 222.614 185.215 222.652 185.156 222.795C184.843 223.551 184.329 224.162 183.57 224.482C183.083 224.688 182.589 224.879 182.086 225.053C181.716 225.181 181.385 225.368 181.086 225.615C180.638 225.986 180.155 226.3 179.641 226.561C179.248 226.759 178.872 226.993 178.516 227.264C178.035 227.629 177.51 227.92 176.945 228.131C176.425 228.325 175.889 228.483 175.336 228.6C174.836 228.705 174.337 228.815 173.844 228.928C173.515 229.003 173.22 229.152 172.961 229.389C172.531 229.78 172.071 230.124 171.586 230.42C171.155 230.683 170.724 230.949 170.289 231.209C169.782 231.512 169.239 231.748 168.672 231.912C168.238 232.038 167.819 232.193 167.414 232.381C166.8 232.666 166.131 232.782 165.438 232.748C165.219 232.737 165.058 232.802 164.883 233.014C164.301 233.713 163.499 234.03 162.594 233.912C162.26 233.869 162.025 233.938 161.828 234.076C161.318 234.437 160.763 234.71 160.172 234.881C159.731 235.008 159.299 235.161 158.875 235.342C158.296 235.588 157.684 235.719 157.047 235.74C156.63 235.754 156.24 235.826 155.875 235.959C155.48 236.103 155.09 236.3 154.711 236.545C154.192 236.88 153.639 237.128 153.055 237.287C152.445 237.453 151.809 237.501 151.164 237.436C150.821 237.401 150.525 237.459 150.25 237.6C149.761 237.85 149.258 238.072 148.75 238.264C148.086 238.513 147.384 238.551 146.68 238.404C146.388 238.344 146.156 238.389 145.93 238.529C145.39 238.863 144.82 239.104 144.219 239.24C143.606 239.379 142.978 239.395 142.344 239.303C142.164 239.277 141.972 239.314 141.719 239.545C141.383 239.853 140.975 240.086 140.5 240.162C140.024 240.238 139.563 240.14 139.148 239.951C138.756 239.773 138.451 239.748 138.203 239.795C137.668 239.896 137.124 239.964 136.578 239.99C136.222 240.008 135.863 240.097 135.5 240.271C134.968 240.528 134.421 240.728 133.867 240.873C133.154 241.059 132.436 240.996 131.742 240.725C131.405 240.593 131.12 240.582 130.859 240.654C130.439 240.771 130.01 240.935 129.578 241.154C128.877 241.509 128.124 241.599 127.367 241.389C127.087 241.31 126.822 241.325 126.539 241.451C125.681 241.832 124.817 241.677 124.07 241.17C123.949 241.088 123.894 241.092 123.891 241.092C123.888 241.092 123.83 241.09 123.711 241.178C122.984 241.71 122.129 241.892 121.258 241.553C120.838 241.389 120.429 241.291 120.031 241.256C119.654 241.223 119.268 241.264 118.875 241.373C118.107 241.585 117.348 241.475 116.648 241.1C116.402 240.967 116.193 240.96 115.961 241.045C115.161 241.335 114.354 241.247 113.625 240.818C113.339 240.65 113.1 240.618 112.859 240.67C112.39 240.773 111.912 240.911 111.43 241.076C110.571 241.37 109.732 241.194 109.023 240.654C108.81 240.492 108.664 240.486 108.477 240.553C107.616 240.859 106.769 240.699 106.055 240.146C105.832 239.974 105.67 239.956 105.477 240.014C104.785 240.221 104.083 240.244 103.398 240.045C103.087 239.954 102.751 239.94 102.375 240.021C101.686 240.172 100.998 240.15 100.336 239.936C99.8434 239.776 99.3538 239.603 98.8672 239.428C98.3168 239.229 97.7827 238.966 97.2734 238.639C97.0447 238.493 96.8156 238.443 96.5312 238.498C95.846 238.63 95.1671 238.607 94.5156 238.396C94.0017 238.231 93.496 238.035 93 237.811C92.6157 237.636 92.2191 237.511 91.8125 237.443C91.36 237.368 90.8946 237.324 90.4219 237.303C89.7415 237.272 89.1 237.07 88.5156 236.717C88.1015 236.467 87.6803 236.244 87.2578 236.045C86.8966 235.875 86.5159 235.761 86.1172 235.709C85.5742 235.638 85.0403 235.531 84.5156 235.389C83.9254 235.229 83.3679 234.975 82.8516 234.631C82.7097 234.536 82.5117 234.474 82.1484 234.576C81.3903 234.789 80.6277 234.788 79.9141 234.482C79.4245 234.272 78.9397 234.043 78.4688 233.787C77.9276 233.493 77.4302 233.108 76.9844 232.646C76.7107 232.363 76.4243 232.19 76.125 232.1C75.6809 231.966 75.2254 231.853 74.7578 231.764C74.1601 231.649 73.5875 231.452 73.0547 231.17C72.7572 231.013 72.4168 230.918 72.0156 230.904C71.1544 230.875 70.4329 230.48 69.9219 229.795C69.7743 229.598 69.6262 229.525 69.3906 229.529C68.5307 229.543 67.7785 229.208 67.2344 228.537C67.0157 228.268 66.7794 228.121 66.5078 228.053C65.8969 227.9 65.3272 227.648 64.8125 227.295C64.5203 227.095 64.1858 226.951 63.7969 226.881C63.1679 226.767 62.578 226.557 62.0391 226.24C61.5185 225.934 61.0441 225.545 60.625 225.092C60.3939 224.843 60.124 224.682 59.8047 224.592C59.1345 224.402 58.5518 224.048 58.0703 223.545C57.8026 223.266 57.4963 223.059 57.1562 222.912C56.5068 222.631 55.9824 222.174 55.5781 221.584C55.4029 221.328 55.1876 221.182 54.9141 221.107C54.2745 220.932 53.6965 220.635 53.1953 220.217C52.884 219.957 52.5382 219.744 52.1562 219.576C51.5092 219.292 50.9786 218.844 50.5781 218.256C50.3786 217.963 50.1358 217.763 49.8438 217.631C49.2476 217.361 48.7269 216.975 48.2969 216.482C48.0776 216.232 47.8091 216.043 47.4688 215.92C46.8822 215.709 46.3433 215.421 45.8594 215.053C45.3693 214.68 44.9438 214.23 44.5938 213.709C44.2917 213.26 44.0028 212.799 43.7266 212.326C43.6205 212.145 43.4631 212.011 43.1484 211.951C42.4593 211.82 41.8323 211.568 41.2891 211.178C40.638 210.71 40.2565 210.026 40.0859 209.24C39.9951 208.822 39.8334 208.599 39.6641 208.467C39.2878 208.175 38.8944 207.891 38.4922 207.623C38.0663 207.339 37.6404 207.055 37.2188 206.764C36.7928 206.47 36.3697 206.164 35.9531 205.857C35.3233 205.393 34.9377 204.733 34.7656 203.967C34.6871 203.618 34.5461 203.434 34.3672 203.318C33.9189 203.03 33.475 202.731 33.0469 202.42C32.6246 202.113 32.2066 201.796 31.7969 201.475C31.3003 201.084 30.8919 200.612 30.5703 200.068C30.3184 199.642 30.0559 199.221 29.7891 198.811C29.5666 198.468 29.2973 198.166 28.9844 197.896C28.47 197.454 28.088 196.903 27.8438 196.264C27.715 195.926 27.5297 195.652 27.2734 195.436C26.8818 195.105 26.4842 194.778 26.0938 194.443C25.5156 193.947 25.1682 193.29 25.0312 192.537C24.9908 192.316 24.8958 192.185 24.6641 192.076C24.0301 191.778 23.4856 191.372 23.0625 190.85C22.6791 190.376 22.3762 189.848 22.1562 189.271C21.9562 188.746 21.788 188.2 21.6562 187.639C21.5853 187.337 21.4431 187.112 21.2109 186.928C20.7454 186.559 20.3282 186.148 19.9609 185.701C19.6079 185.272 19.2888 184.819 19.0078 184.342C18.6974 183.815 18.4796 183.242 18.3438 182.631C18.2676 182.289 18.1148 182.01 17.8906 181.771C17.5555 181.416 17.1988 181.066 16.8281 180.725C16.2392 180.181 15.9268 179.476 15.8828 178.678C15.8672 178.392 15.765 178.199 15.5703 178.037C15.0393 177.595 14.6368 177.057 14.3828 176.428C14.2103 175.999 14.0051 175.58 13.7812 175.178C13.4889 174.652 13.284 174.087 13.1562 173.49C13.0504 172.995 12.938 172.499 12.8203 172.014C12.7363 171.667 12.5774 171.354 12.3438 171.068C12.0129 170.664 11.683 170.254 11.3594 169.842C10.9974 169.38 10.6882 168.891 10.4375 168.373C10.1541 167.787 10.0059 167.154 9.98438 166.49C9.97397 166.163 9.87519 165.895 9.6875 165.654C9.297 165.154 9.0039 164.601 8.8125 164.006C8.66084 163.535 8.505 163.066 8.34375 162.6C8.14817 162.034 8.0325 161.444 8 160.834C7.97574 160.38 7.91434 159.944 7.80469 159.529C7.67131 159.024 7.5539 158.513 7.45312 157.998C7.40465 157.753 7.26724 157.499 6.96875 157.232C6.39822 156.724 6.00103 156.095 5.85156 155.357C5.76523 154.932 5.6329 154.518 5.46094 154.115C5.17128 153.436 5.12806 152.713 5.28906 151.982C5.37163 151.608 5.33949 151.312 5.23438 151.061C5.00473 150.514 4.85111 149.944 4.77344 149.357C4.7182 148.941 4.60879 148.535 4.45312 148.139C4.21925 147.543 4.11159 146.915 4.125 146.271C4.13277 145.879 4.07276 145.509 3.94531 145.154C3.76448 144.653 3.6033 144.144 3.46875 143.631C3.34049 143.142 3.21519 142.647 3.09375 142.154C2.92303 141.46 2.97787 140.753 3.21094 140.061C3.31644 139.746 3.28789 139.509 3.1875 139.295C2.98333 138.859 2.75504 138.42 2.49219 137.982C2.12774 137.376 1.92355 136.717 1.91406 136.021C1.90764 135.556 1.87245 135.091 1.8125 134.631C1.74009 134.074 1.71635 133.513 1.74219 132.951C1.76147 132.529 1.73184 132.113 1.64844 131.701C1.53722 131.152 1.47591 130.596 1.46094 130.037C1.4499 129.622 1.38513 129.204 1.26562 128.787C1.10047 128.211 1.01067 127.627 1 127.037C0.986663 126.277 1.25276 125.561 1.70312 124.92C1.80581 124.774 1.83232 124.687 1.83594 124.646C1.83889 124.614 1.8322 124.561 1.78125 124.467C1.39783 123.761 1.29256 122.992 1.51562 122.217C1.59742 121.932 1.58669 121.654 1.46875 121.35C1.167 120.574 1.21438 119.778 1.58594 119.037C1.68179 118.847 1.68969 118.684 1.5625 118.451C1.35411 118.068 1.22886 117.645 1.24219 117.193C1.25599 116.74 1.40702 116.321 1.64062 115.951C1.8841 115.566 2.01884 115.204 2.07031 114.865C2.10978 114.603 2.07028 114.299 1.89062 113.936C1.52291 113.194 1.44942 112.394 1.75781 111.615C1.92412 111.197 2.04076 110.778 2.10156 110.365C2.17685 109.854 2.26199 109.343 2.36719 108.834C2.4434 108.466 2.45364 108.083 2.39062 107.686C2.28667 107.031 2.32495 106.379 2.50781 105.748C2.59274 105.454 2.59759 105.139 2.5 104.779C2.30778 104.075 2.3202 103.362 2.55469 102.678C2.69958 102.254 2.79742 101.822 2.85938 101.389C2.94713 100.777 3.14035 100.19 3.42969 99.6309C3.65649 99.1927 3.86051 98.7508 4.03906 98.3105C4.13973 98.0607 4.16175 97.7796 4.07031 97.4277C3.84731 96.5688 4.04611 95.7508 4.61719 95.0762C4.87485 94.7724 5.00188 94.4816 5.03906 94.2012C5.11096 93.6526 5.22435 93.112 5.38281 92.584C5.52249 92.1189 5.65041 91.6483 5.77344 91.1777C5.85469 90.8669 5.86454 90.51 5.77344 90.0918C5.63257 89.4443 5.59018 88.8036 5.66406 88.1777C5.76264 87.3437 6.22785 86.6751 6.89062 86.1777C7.21405 85.9351 7.30368 85.73 7.32031 85.5605C7.37703 84.9857 7.4904 84.424 7.66406 83.8809C7.77652 83.5282 7.82427 83.1426 7.80469 82.7168C7.7646 81.8575 8.10469 81.1093 8.74219 80.5449C9.07865 80.2471 9.30867 79.9423 9.45312 79.6309C9.65079 79.2035 9.83354 78.7672 9.99219 78.3262C10.0961 78.0367 10.1273 77.6828 10.0625 77.248C9.96017 76.5594 9.98961 75.8864 10.1641 75.248C10.3091 74.7176 10.4877 74.1973 10.7031 73.6934C10.9076 73.2153 11.129 72.7452 11.3594 72.2793C11.6588 71.674 12.099 71.157 12.6562 70.7324C12.8695 70.5699 12.9495 70.4091 12.9531 70.1777C12.9623 69.511 13.086 68.8723 13.3359 68.2793C13.6143 67.62 14.0786 67.0795 14.6797 66.6621C14.8929 66.513 14.9682 66.3596 14.9766 66.1309C15.0013 65.4624 15.1425 64.8273 15.4062 64.2402C15.6609 63.6741 16.0092 63.1626 16.4453 62.709C16.7946 62.3457 17.1325 61.978 17.4609 61.6074C17.7523 61.2786 18.0045 60.924 18.2109 60.5527C18.4422 60.1366 18.6617 59.7126 18.8672 59.2793C19.0413 58.9121 19.1701 58.5039 19.25 58.0527C19.4125 57.1355 20.0113 56.4971 20.8438 56.1543C21.1584 56.0241 21.2447 55.8786 21.2812 55.7246C21.432 55.0899 21.6917 54.5088 22.0625 53.9902C22.2785 53.688 22.4391 53.3346 22.5469 52.9277C22.7902 52.0107 23.4709 51.4379 24.3359 51.1777C24.7247 51.0611 24.8447 50.9033 24.8984 50.7715C25.0773 50.3324 25.2387 49.8704 25.375 49.3887C25.595 48.614 26.0783 48.0071 26.7812 47.6152C27.0895 47.4432 27.2909 47.2294 27.4219 46.9668C27.6975 46.4102 28.0601 45.9066 28.5 45.4746C28.8349 45.1456 29.1541 44.8007 29.4531 44.4434C29.8322 43.9907 30.2728 43.591 30.7656 43.248C30.9128 43.1447 31.0398 42.9769 31.0859 42.6074C31.1954 41.7233 31.6467 40.9795 32.4688 40.5684C32.7242 40.4398 32.8881 40.2608 32.9922 39.9902C33.2668 39.2765 33.7484 38.7091 34.4141 38.334C34.7435 38.1478 35.0017 37.9112 35.2031 37.623C35.6103 37.0407 36.1647 36.617 36.8281 36.3418C37.2037 36.1861 37.496 35.9758 37.7266 35.7246C38.0897 35.328 38.4769 34.952 38.8828 34.5996C39.1616 34.3576 39.4 34.0588 39.5938 33.6934C39.9736 32.9767 40.5849 32.4936 41.3594 32.2637C41.7544 32.1467 42.0565 31.9699 42.2891 31.748C42.574 31.4755 42.8302 31.1522 43.0469 30.7715C43.3203 30.2904 43.6109 29.8196 43.9141 29.3652C44.3938 28.6462 45.1266 28.2673 45.9688 28.1777C46.3581 28.136 46.5736 28.0077 46.7109 27.8496C47.0836 27.4201 47.4883 27.027 47.9297 26.6777C48.291 26.3919 48.6385 26.0856 48.9688 25.7559C49.4544 25.2709 50.0413 24.9344 50.7109 24.748C50.9374 24.6851 51.1076 24.5614 51.2422 24.2949C51.553 23.6785 51.9643 23.1527 52.4844 22.7402C52.9941 22.3363 53.5764 22.0466 54.2188 21.8809C54.4698 21.8158 54.6629 21.6867 54.8203 21.4277C55.1936 20.8132 55.6925 20.3214 56.3203 19.998C56.7288 19.7874 57.1241 19.5481 57.5 19.2871C58.0937 18.8762 58.7844 18.6757 59.5234 18.6543C59.9616 18.6413 60.3045 18.5485 60.5781 18.3965C60.9183 18.207 61.2346 17.9557 61.5234 17.6465C61.912 17.2306 62.3292 16.8528 62.7656 16.5059C63.3542 16.0382 64.0549 15.8077 64.8125 15.7949C65.2046 15.7877 65.5001 15.6952 65.7344 15.5371C66.1271 15.2718 66.5127 14.9873 66.8906 14.6855C67.422 14.2614 68.0304 13.9844 68.7031 13.8652C68.9228 13.8264 69.1196 13.7152 69.3125 13.4355C69.5624 13.0733 69.8968 12.7731 70.3125 12.584C70.7263 12.3966 71.1664 12.3502 71.6016 12.3965C71.872 12.4254 72.0097 12.3533 72.1406 12.2012C72.6859 11.563 73.4168 11.2179 74.2578 11.2168C74.4997 11.2167 74.6806 11.1385 74.8594 10.9277C75.3966 10.2953 76.1104 9.93721 76.9453 9.91992C77.3994 9.91083 77.8246 9.85165 78.2188 9.74023C78.5072 9.65855 78.7895 9.49117 79.0625 9.20117C79.6557 8.57061 80.426 8.27833 81.2891 8.36523C81.5217 8.38867 81.6883 8.32946 81.8672 8.13867C82.4281 7.54096 83.1433 7.20788 83.9688 7.20898C84.4965 7.20969 85.0226 7.20703 85.5469 7.20898C85.8867 7.21025 86.1865 7.12872 86.4609 6.95898C86.9769 6.63882 87.5258 6.39171 88.1016 6.23242C88.5756 6.10126 89.0512 5.96698 89.5234 5.82617C89.8767 5.72059 90.2263 5.54124 90.5703 5.2793C91.0381 4.92365 91.5627 4.71585 92.125 4.66211H93.3125C93.5077 4.64714 93.7 4.61558 93.8828 4.56836C94.3997 4.43499 94.9235 4.32663 95.4531 4.24805C95.7873 4.19835 96.1198 4.07545 96.4531 3.84961C97.0725 3.42883 97.7707 3.2166 98.5156 3.25586C99.0501 3.28405 99.5878 3.3289 100.125 3.38867C100.466 3.42635 100.78 3.37655 101.086 3.24023C101.667 2.98073 102.278 2.83572 102.906 2.80273C103.237 2.78542 103.569 2.68092 103.906 2.48242C104.555 2.10185 105.272 1.94694 106.016 2.04492C106.506 2.10948 106.993 2.16225 107.477 2.19336C107.939 2.22305 108.4 2.21989 108.852 2.18555C109.367 2.14636 109.883 2.11936 110.398 2.10742C110.786 2.09846 111.173 2.02696 111.562 1.88867C112.182 1.66852 112.826 1.58306 113.477 1.63867C113.796 1.66552 114.119 1.60952 114.461 1.45117C115.081 1.16433 115.731 1.0179 116.398 1.03711C116.994 1.05432 117.586 1.15972 118.172 1.3418C118.498 1.44324 118.808 1.45001 119.117 1.36523C119.805 1.17624 120.505 1.1909 121.188 1.4043C121.539 1.51382 121.875 1.52965 122.211 1.4668C122.674 1.38023 123.14 1.26841 123.609 1.12305ZM124.203 3.0293C123.662 3.19695 123.12 3.33421 122.578 3.43555C121.91 3.56033 121.24 3.51495 120.586 3.31055C120.263 3.2102 119.958 3.20983 119.648 3.29492C118.961 3.48364 118.261 3.46847 117.578 3.25586C117.157 3.12494 116.747 3.04906 116.344 3.03711C116.01 3.02752 115.664 3.09773 115.305 3.26367C114.668 3.55856 113.994 3.68961 113.305 3.63086C112.945 3.6001 112.59 3.64509 112.234 3.77148C111.651 3.97886 111.054 4.0933 110.445 4.10742C109.964 4.11855 109.481 4.14112 109 4.17773C108.454 4.21917 107.905 4.22104 107.352 4.18555C106.821 4.15146 106.286 4.09989 105.75 4.0293C105.468 3.99225 105.203 4.04469 104.922 4.20898C104.328 4.55806 103.682 4.75962 103.008 4.79492C102.632 4.81498 102.268 4.9069 101.906 5.06836C101.27 5.35247 100.592 5.45802 99.8984 5.38086C99.4017 5.32564 98.9071 5.28195 98.4141 5.25586C98.1292 5.24083 97.8564 5.30899 97.5781 5.49805C97.016 5.87993 96.4058 6.13462 95.75 6.23242C95.2895 6.30075 94.8315 6.39009 94.3828 6.50586C93.7815 6.66117 93.1577 6.70408 92.5234 6.64648C92.2528 6.62189 92.0204 6.691 91.7812 6.87305C91.2617 7.26859 90.6976 7.55999 90.0938 7.74023C89.6083 7.88499 89.1202 8.02727 88.6328 8.16211C88.2468 8.26897 87.8746 8.43156 87.5156 8.6543C86.9156 9.02655 86.2475 9.21163 85.5391 9.20898C85.0174 9.20704 84.4939 9.20969 83.9688 9.20898C83.7384 9.20868 83.5323 9.27978 83.3203 9.50586C82.7263 10.1384 81.9533 10.437 81.0859 10.3496C80.8503 10.3266 80.6868 10.3864 80.5156 10.5684C80.0237 11.0911 79.441 11.4708 78.7656 11.6621C78.1959 11.8235 77.5987 11.9076 76.9844 11.9199C76.7532 11.9252 76.5691 12.005 76.3828 12.2246C75.8367 12.8679 75.1053 13.2164 74.2578 13.2168C74.012 13.2176 73.8356 13.2974 73.6641 13.498C73.0774 14.1846 72.2769 14.4756 71.3906 14.3809C71.2527 14.3662 71.1794 14.3874 71.1406 14.4043C71.1034 14.4212 71.038 14.4645 70.9609 14.5762C70.5004 15.2429 69.8581 15.6914 69.0547 15.834C68.704 15.896 68.4051 16.0373 68.1406 16.248C67.7219 16.5823 67.2891 16.8978 66.8516 17.1934C66.2572 17.5944 65.5746 17.7824 64.8438 17.7949C64.4758 17.8011 64.2138 17.9048 64.0078 18.0684C63.6502 18.3527 63.308 18.6673 62.9844 19.0137C62.5611 19.4668 62.084 19.8435 61.5547 20.1387C60.9588 20.4706 60.2892 20.6337 59.5781 20.6543C59.1683 20.6663 58.8716 20.7756 58.6406 20.9355C58.1918 21.2471 57.7214 21.5284 57.2344 21.7793C56.9655 21.9178 56.7245 22.1357 56.5234 22.4668C56.1072 23.1501 55.4952 23.6176 54.7188 23.8184C54.3312 23.9184 54.0043 24.0829 53.7266 24.3027C53.4596 24.5143 53.2197 24.8041 53.0234 25.1934C52.6509 25.9315 52.0516 26.4549 51.25 26.6777C50.892 26.7772 50.6109 26.9426 50.3828 27.1699C49.9986 27.5535 49.5941 27.914 49.1719 28.248C48.8302 28.5184 48.5106 28.818 48.2188 29.1543C47.6918 29.7617 46.9774 30.0769 46.1797 30.1621C45.8326 30.199 45.6785 30.3242 45.5781 30.4746C45.3019 30.8886 45.0392 31.3158 44.7891 31.7559C44.4821 32.2961 44.1067 32.7774 43.6719 33.1934C43.1845 33.6589 42.5957 33.9884 41.9297 34.1855C41.6432 34.2707 41.4749 34.4129 41.3594 34.6309C41.0576 35.1998 40.67 35.695 40.1953 36.1074C39.8469 36.4099 39.5149 36.7357 39.2031 37.0762C38.7594 37.5602 38.2163 37.9273 37.5938 38.1855C37.2573 38.325 37.018 38.5221 36.8438 38.7715C36.4643 39.3143 35.9735 39.7477 35.3906 40.0762C35.1428 40.216 34.9722 40.4157 34.8594 40.709C34.5764 41.4445 34.0643 42.0048 33.3594 42.3574C33.2196 42.4274 33.1098 42.5333 33.0703 42.8496C32.9678 43.6775 32.6024 44.4034 31.9062 44.8887C31.5539 45.1339 31.2464 45.4194 30.9844 45.7324C30.6432 46.14 30.2796 46.53 29.8984 46.9043C29.6214 47.1765 29.3965 47.491 29.2188 47.8496C28.8966 48.5003 28.3969 49.0086 27.7578 49.3652C27.5114 49.5026 27.3698 49.678 27.2969 49.9355C27.141 50.4864 26.9586 51.0177 26.75 51.5293C26.4158 52.349 25.7357 52.8531 24.9141 53.0996C24.5713 53.2027 24.5144 53.3299 24.4844 53.4434C24.3188 54.0681 24.0534 54.6426 23.6875 55.1543C23.477 55.4489 23.3211 55.7881 23.2266 56.1855C23.0179 57.0652 22.4125 57.6719 21.6016 58.0059C21.3077 58.1272 21.2449 58.257 21.2188 58.4043C21.11 59.0169 20.9277 59.5991 20.6719 60.1387C20.4481 60.6105 20.2133 61.0754 19.9609 61.5293C19.6824 62.0303 19.3464 62.5005 18.9609 62.9355C18.6151 63.3257 18.2573 63.7103 17.8906 64.0918C17.6081 64.3856 17.3842 64.7097 17.2266 65.0605C17.0785 65.3902 16.9926 65.7712 16.9766 66.209C16.9439 67.0853 16.5368 67.8127 15.8203 68.3105C15.4887 68.5408 15.2845 68.7934 15.1719 69.0605C15.0323 69.3934 14.9593 69.7705 14.9531 70.2012C14.9412 71.0686 14.5536 71.8032 13.8672 72.3262C13.5253 72.5871 13.2945 72.8668 13.1484 73.1621C12.9338 73.5962 12.7295 74.0369 12.5391 74.4824C12.3597 74.9022 12.2148 75.3364 12.0938 75.7793C12.0023 76.1145 11.9791 76.5046 12.0469 76.959C12.1519 77.6669 12.0998 78.3593 11.8672 79.0059C11.6889 79.5011 11.4873 79.9875 11.2656 80.4668C10.9902 81.0623 10.5858 81.5887 10.0703 82.0449C9.85547 82.2351 9.79465 82.4078 9.80469 82.623C9.83456 83.2685 9.76063 83.894 9.57031 84.4902C9.44049 84.8962 9.34788 85.3185 9.30469 85.7559C9.22171 86.601 8.76111 87.2784 8.09375 87.7793C7.76637 88.0249 7.6772 88.2371 7.65625 88.4121C7.61102 88.7953 7.62744 89.2149 7.72656 89.6699C7.87534 90.3541 7.88168 91.0324 7.71094 91.6855C7.58216 92.1781 7.44307 92.6674 7.29688 93.1543C7.16929 93.5792 7.07367 94.0161 7.01562 94.459C6.92231 95.1695 6.614 95.8071 6.14062 96.3652C5.98169 96.5528 5.95101 96.7092 6.00781 96.9277C6.19566 97.6525 6.16967 98.3803 5.89062 99.0684C5.68851 99.5665 5.46461 100.063 5.21094 100.553C5.01982 100.922 4.89825 101.296 4.84375 101.678C4.7637 102.237 4.63011 102.786 4.44531 103.326C4.34961 103.606 4.33597 103.904 4.42969 104.248C4.61752 104.936 4.62554 105.635 4.42969 106.311C4.33184 106.65 4.30827 107.002 4.36719 107.373C4.4665 108 4.45491 108.627 4.32812 109.24C4.23087 109.711 4.14768 110.182 4.07812 110.654C3.99368 111.228 3.83774 111.795 3.61719 112.35C3.54024 112.543 3.53417 112.751 3.67969 113.045C4.01313 113.718 4.15644 114.434 4.04688 115.162C3.94861 115.812 3.69785 116.436 3.32812 117.021C3.25696 117.135 3.2435 117.213 3.24219 117.256C3.24146 117.3 3.25471 117.378 3.32031 117.498C3.74603 118.28 3.77909 119.132 3.375 119.936C3.24866 120.188 3.23872 120.393 3.32812 120.623C3.6005 121.323 3.64478 122.051 3.4375 122.771C3.37152 123.002 3.38618 123.232 3.53906 123.514C3.75581 123.913 3.86273 124.357 3.82031 124.826C3.77856 125.288 3.59922 125.704 3.34375 126.068C3.07589 126.45 2.99583 126.756 3 126.998C3.0072 127.408 3.06929 127.819 3.1875 128.232C3.35223 128.807 3.4453 129.394 3.46094 129.982C3.47275 130.426 3.52101 130.866 3.60938 131.303C3.7256 131.877 3.76914 132.459 3.74219 133.045C3.72172 133.49 3.73958 133.933 3.79688 134.373C3.86694 134.911 3.90665 135.454 3.91406 135.998C3.9187 136.312 4.00694 136.625 4.20312 136.951C4.50068 137.446 4.76466 137.948 5 138.451C5.3388 139.176 5.35599 139.946 5.10156 140.701C4.97418 141.08 4.96997 141.398 5.03906 141.678C5.15811 142.16 5.28053 142.644 5.40625 143.123C5.52553 143.578 5.66747 144.029 5.82812 144.475C6.04108 145.066 6.1382 145.685 6.125 146.318C6.11722 146.702 6.17676 147.067 6.3125 147.412C6.52605 147.956 6.67327 148.515 6.75 149.092C6.80422 149.501 6.9169 149.903 7.07812 150.287C7.36168 150.964 7.40252 151.685 7.24219 152.412C7.1599 152.785 7.18927 153.082 7.29688 153.334C7.52186 153.862 7.69131 154.407 7.80469 154.967C7.85536 155.215 7.99609 155.472 8.29688 155.74C8.86819 156.25 9.26874 156.874 9.41406 157.615C9.50659 158.088 9.61206 158.559 9.73438 159.021C9.87992 159.573 9.96864 160.141 10 160.725C10.0229 161.154 10.1025 161.562 10.2344 161.943C10.4006 162.424 10.5625 162.911 10.7188 163.396C10.8353 163.758 11.0151 164.098 11.2656 164.42C11.7195 165.002 11.9601 165.681 11.9844 166.42C11.9972 166.822 12.0882 167.179 12.2422 167.498C12.429 167.884 12.6605 168.255 12.9375 168.607C13.2526 169.009 13.5685 169.409 13.8906 169.803C14.3111 170.317 14.6021 170.902 14.7578 171.545C14.8798 172.048 14.9998 172.555 15.1094 173.068C15.197 173.478 15.3366 173.859 15.5312 174.209C15.7954 174.684 16.031 175.173 16.2344 175.678C16.3558 175.979 16.5551 176.251 16.8516 176.498C17.488 177.027 17.8378 177.745 17.8828 178.568C17.9001 178.878 18.0032 179.086 18.1875 179.256C18.5906 179.627 18.9765 180.007 19.3438 180.396C19.8223 180.904 20.1368 181.517 20.2891 182.201C20.3817 182.617 20.536 182.99 20.7344 183.326C20.9621 183.712 21.2207 184.078 21.5078 184.428C21.7812 184.76 22.0938 185.073 22.4531 185.357C23.0438 185.826 23.4364 186.444 23.6094 187.178C23.7211 187.654 23.8567 188.114 24.0234 188.553C24.1703 188.938 24.3695 189.286 24.6172 189.592C24.8262 189.85 25.1181 190.077 25.5156 190.264C26.3163 190.64 26.8402 191.303 27 192.178C27.0625 192.521 27.2011 192.75 27.3984 192.92C27.785 193.251 28.1748 193.585 28.5625 193.912C29.0844 194.353 29.4733 194.902 29.7188 195.545C29.8489 195.886 30.0349 196.162 30.2891 196.381C30.7452 196.773 31.1421 197.222 31.4688 197.725C31.7506 198.159 32.0234 198.603 32.2891 199.053C32.4849 199.384 32.7371 199.667 33.0391 199.904C33.4284 200.21 33.8252 200.511 34.2266 200.803C34.6229 201.091 35.0297 201.371 35.4453 201.639C36.1283 202.078 36.5418 202.742 36.7188 203.529C36.8023 203.901 36.9559 204.112 37.1406 204.248C37.5409 204.543 37.95 204.833 38.3594 205.115C38.7716 205.4 39.1853 205.682 39.6016 205.959C40.042 206.252 40.4692 206.56 40.8828 206.881C41.5027 207.361 41.8709 208.044 42.0391 208.818C42.1279 209.226 42.286 209.432 42.4531 209.553C42.7282 209.75 43.0774 209.905 43.5234 209.99C44.3446 210.147 45.0258 210.581 45.4531 211.311C45.7091 211.749 45.9786 212.177 46.2578 212.592C46.4904 212.938 46.7619 213.224 47.0703 213.459C47.3833 213.697 47.737 213.891 48.1406 214.037C48.7912 214.271 49.3534 214.653 49.8047 215.17C50.0458 215.446 50.3355 215.658 50.6719 215.811C51.3095 216.1 51.8291 216.548 52.2266 217.131C52.4238 217.42 52.6644 217.621 52.9531 217.748C53.5062 217.991 54.0171 218.302 54.4766 218.686C54.7471 218.911 55.0684 219.075 55.4453 219.178C56.1877 219.381 56.7915 219.823 57.2266 220.459C57.4323 220.759 57.6731 220.955 57.9531 221.076C58.5434 221.331 59.0674 221.694 59.5156 222.162C59.7501 222.407 60.0234 222.57 60.3516 222.662C61.0297 222.854 61.6143 223.222 62.0938 223.74C62.3856 224.055 62.7098 224.311 63.0547 224.514C63.38 224.705 63.7466 224.838 64.1562 224.912C64.8072 225.031 65.409 225.271 65.9453 225.639C66.2596 225.854 66.6068 226.011 66.9922 226.107C67.7154 226.288 68.3169 226.697 68.7891 227.279C68.9364 227.461 69.0974 227.534 69.3594 227.529C70.246 227.514 71.0022 227.89 71.5312 228.6C71.6967 228.822 71.857 228.904 72.0781 228.912C72.7589 228.935 73.4044 229.093 73.9922 229.404C74.346 229.591 74.7264 229.725 75.1328 229.803C75.6673 229.905 76.191 230.032 76.7031 230.186C77.3608 230.383 77.934 230.751 78.4219 231.256C78.7381 231.583 79.0733 231.84 79.4219 232.029C79.8398 232.257 80.2698 232.46 80.7031 232.646C80.9124 232.736 81.1949 232.771 81.6094 232.654C82.4211 232.426 83.2438 232.489 83.9609 232.967C84.303 233.194 84.6639 233.357 85.0391 233.459C85.4776 233.578 85.9265 233.665 86.3828 233.725C86.9845 233.804 87.5612 233.975 88.1094 234.232C88.5971 234.462 89.0823 234.72 89.5547 235.006C89.8569 235.188 90.1722 235.287 90.5156 235.303C91.066 235.328 91.6075 235.386 92.1406 235.475C92.7213 235.571 93.2877 235.737 93.8281 235.982C94.2562 236.176 94.6914 236.348 95.1328 236.49C95.4361 236.588 95.7682 236.61 96.1484 236.537C96.9301 236.386 97.6891 236.528 98.3594 236.959C98.7492 237.209 99.1456 237.408 99.5469 237.553C100.012 237.72 100.482 237.877 100.953 238.029C101.255 238.127 101.58 238.148 101.945 238.068C102.623 237.921 103.299 237.933 103.953 238.123C104.236 238.205 104.55 238.206 104.906 238.1C105.76 237.845 106.586 238.03 107.281 238.568C107.482 238.722 107.619 238.736 107.805 238.67C108.667 238.362 109.516 238.515 110.234 239.061C110.459 239.231 110.607 239.238 110.781 239.178C111.332 238.989 111.882 238.837 112.43 238.717C113.205 238.547 113.958 238.69 114.641 239.092C114.879 239.232 115.066 239.241 115.281 239.162C116.065 238.877 116.862 238.948 117.594 239.342C117.871 239.49 118.105 239.509 118.344 239.443C118.958 239.274 119.579 239.209 120.203 239.264C120.805 239.317 121.399 239.465 121.984 239.693C122.121 239.747 122.266 239.762 122.531 239.568C122.907 239.292 123.352 239.102 123.852 239.092C124.352 239.083 124.809 239.259 125.195 239.521C125.465 239.704 125.602 239.678 125.727 239.623C126.426 239.312 127.169 239.253 127.906 239.459C128.164 239.53 128.402 239.509 128.672 239.373C129.214 239.098 129.77 238.887 130.328 238.732C131.046 238.534 131.77 238.591 132.469 238.865C132.811 238.999 133.102 239.005 133.367 238.936C133.791 238.824 134.212 238.669 134.633 238.467C135.223 238.182 135.844 238.021 136.484 237.99C136.937 237.968 137.385 237.918 137.828 237.834C138.557 237.696 139.284 237.816 139.977 238.131C140.106 238.19 140.171 238.188 140.188 238.186C140.207 238.182 140.267 238.161 140.367 238.068C140.994 237.495 141.767 237.202 142.625 237.326C143.03 237.385 143.413 237.369 143.773 237.287C144.145 237.203 144.511 237.051 144.875 236.826C145.552 236.407 146.315 236.29 147.094 236.451C147.459 236.526 147.768 236.494 148.047 236.389C148.483 236.225 148.914 236.035 149.336 235.818C149.969 235.494 150.655 235.371 151.367 235.443C151.782 235.486 152.166 235.454 152.523 235.357C152.904 235.254 153.277 235.095 153.633 234.865C154.13 234.545 154.647 234.281 155.188 234.084C155.758 233.876 156.358 233.761 156.977 233.74C157.375 233.727 157.749 233.645 158.094 233.498C158.591 233.286 159.1 233.108 159.617 232.959C159.987 232.852 160.338 232.679 160.672 232.443C161.319 231.987 162.068 231.834 162.852 231.936C163.066 231.964 163.193 231.913 163.344 231.732C163.901 231.062 164.661 230.713 165.539 230.756C165.94 230.775 166.278 230.704 166.57 230.568C167.069 230.337 167.585 230.145 168.117 229.99C168.519 229.874 168.899 229.705 169.258 229.49C169.688 229.233 170.12 228.977 170.547 228.717C170.92 228.49 171.278 228.221 171.617 227.912C172.127 227.447 172.728 227.128 173.398 226.975C173.902 226.859 174.411 226.747 174.922 226.639C175.381 226.542 175.825 226.414 176.25 226.256C176.63 226.114 176.979 225.917 177.305 225.67C177.755 225.328 178.234 225.033 178.734 224.779C179.115 224.587 179.478 224.345 179.812 224.068C180.295 223.67 180.837 223.367 181.43 223.162C181.891 223.003 182.351 222.827 182.797 222.639C182.971 222.564 183.156 222.407 183.312 222.029C183.489 221.604 183.765 221.215 184.172 220.943C184.58 220.672 185.046 220.568 185.508 220.576C185.796 220.581 185.898 220.499 185.984 220.365C186.445 219.643 187.146 219.218 187.992 219.115C188.391 219.067 188.687 218.932 188.922 218.748C189.24 218.498 189.532 218.199 189.789 217.842C190.24 217.216 190.86 216.8 191.609 216.615C191.898 216.544 192.096 216.406 192.25 216.178C192.598 215.658 193.012 215.207 193.484 214.826C193.879 214.508 194.279 214.191 194.68 213.881C195.01 213.625 195.309 213.328 195.578 212.99C195.93 212.549 196.312 212.141 196.727 211.771C197.154 211.39 197.627 211.055 198.133 210.771C198.579 210.521 199.031 210.275 199.484 210.029C199.744 209.889 199.951 209.68 200.102 209.373C200.399 208.768 200.805 208.252 201.32 207.842C201.826 207.44 202.412 207.147 203.062 206.959C203.393 206.863 203.592 206.706 203.727 206.498C204.036 206.017 204.383 205.566 204.766 205.154C205.124 204.768 205.503 204.402 205.891 204.045C206.263 203.702 206.636 203.359 207.016 203.021C207.351 202.723 207.662 202.4 207.945 202.053C208.235 201.698 208.506 201.317 208.75 200.92C208.991 200.529 209.207 200.115 209.398 199.678C209.739 198.898 210.372 198.388 211.172 198.139C211.589 198.009 211.872 197.824 212.062 197.607C212.259 197.384 212.408 197.086 212.484 196.678C212.648 195.797 213.171 195.128 213.992 194.764C214.25 194.649 214.366 194.498 214.43 194.279C214.609 193.66 214.878 193.089 215.242 192.584C215.533 192.181 215.822 191.777 216.109 191.373C216.398 190.967 216.688 190.561 216.977 190.154C217.233 189.792 217.466 189.411 217.664 189.006C217.956 188.409 218.374 187.901 218.906 187.49C219.194 187.268 219.397 187.006 219.531 186.701C219.792 186.11 220.169 185.594 220.648 185.154C220.967 184.862 221.232 184.54 221.453 184.193C221.679 183.839 221.866 183.456 222.008 183.045C222.176 182.557 222.349 182.073 222.523 181.592C222.712 181.071 222.93 180.566 223.188 180.084C223.468 179.559 223.826 179.081 224.25 178.646C224.609 178.279 224.969 177.908 225.328 177.537C225.593 177.264 225.784 176.96 225.906 176.623C226.124 176.023 226.458 175.476 226.891 174.998C227.187 174.67 227.435 174.32 227.641 173.951C227.882 173.517 228.119 173.077 228.352 172.639C228.483 172.391 228.553 172.082 228.516 171.67C228.455 170.994 228.498 170.341 228.664 169.725C228.874 168.95 229.386 168.35 230.062 167.92C230.409 167.699 230.561 167.48 230.625 167.271C230.773 166.783 230.921 166.294 231.078 165.811C231.225 165.36 231.359 164.901 231.469 164.436C231.568 164.015 231.623 163.57 231.633 163.107C231.65 162.281 231.997 161.569 232.609 161.021C232.917 160.746 233.099 160.465 233.195 160.178C233.303 159.853 233.343 159.486 233.297 159.068C233.219 158.367 233.308 157.688 233.578 157.053C233.787 156.561 234.015 156.074 234.273 155.6C234.489 155.203 234.672 154.799 234.812 154.381C234.982 153.878 235.174 153.379 235.391 152.889C235.536 152.559 235.612 152.207 235.609 151.826C235.604 151.085 235.83 150.397 236.266 149.795C236.345 149.685 236.398 149.557 236.273 149.256C235.919 148.396 235.98 147.502 236.578 146.748C236.845 146.412 237.015 146.077 237.102 145.74C237.239 145.205 237.415 144.678 237.633 144.162C237.806 143.753 237.938 143.337 238.023 142.912C238.106 142.506 238.134 142.086 238.109 141.654C238.078 141.103 238.076 140.556 238.109 140.014C238.144 139.449 238.229 138.889 238.367 138.342C238.474 137.921 238.543 137.494 238.562 137.061C238.59 136.442 238.718 135.839 238.953 135.256C239.096 134.902 239.162 134.548 239.148 134.186C239.134 133.82 239.039 133.426 238.852 133.006C238.51 132.239 238.494 131.428 238.859 130.662C239.067 130.227 239.236 129.789 239.367 129.35C239.485 128.955 239.54 128.56 239.531 128.162C239.522 127.742 239.459 127.317 239.344 126.889C239.155 126.188 239.186 125.479 239.43 124.795C239.543 124.477 239.555 124.172 239.484 123.857C239.347 123.253 239.308 122.64 239.367 122.029C239.417 121.52 239.47 121.1 239.531 120.803C239.551 120.704 239.565 120.451 239.523 119.975C239.481 119.485 239.435 118.993 239.375 118.506C239.313 118.003 239.249 117.499 239.195 116.998C239.133 116.412 239.155 115.821 239.25 115.232C239.322 114.786 239.35 114.339 239.344 113.896C239.338 113.477 239.286 113.06 239.18 112.646C239.025 112.047 238.967 111.434 239.016 110.818C239.057 110.29 239.122 109.759 239.203 109.225C239.254 108.892 239.213 108.575 239.086 108.256C238.894 107.776 238.697 107.293 238.5 106.818C238.277 106.282 238.11 105.733 238 105.178C237.873 104.537 237.89 103.884 238.047 103.232C238.132 102.879 238.121 102.565 238.023 102.271C237.888 101.866 237.702 101.464 237.461 101.068C236.998 100.31 236.972 99.469 237.297 98.6621C237.352 98.5251 237.357 98.4455 237.352 98.4043C237.346 98.3668 237.323 98.2974 237.242 98.2012C236.746 97.6098 236.459 96.9155 236.453 96.1465C236.449 95.5775 236.499 94.9972 236.594 94.4121C236.647 94.08 236.6 93.8016 236.469 93.5449C236.25 93.1193 236.003 92.6996 235.734 92.2871C235.257 91.5551 235.203 90.7248 235.469 89.9121C235.516 89.7693 235.507 89.6966 235.5 89.6699C235.494 89.6452 235.471 89.5885 235.375 89.498C234.824 88.9809 234.436 88.3575 234.289 87.6309C234.212 87.2463 234.075 86.8751 233.875 86.5215C233.484 85.83 233.417 85.0606 233.594 84.2871C233.624 84.1543 233.605 84.0844 233.594 84.0527C233.582 84.0197 233.552 83.9535 233.445 83.8652C232.842 83.3645 232.42 82.7291 232.289 81.959C232.206 81.4682 232.118 80.9726 232.023 80.4824C231.949 80.0975 231.815 79.7355 231.617 79.3965C231.362 78.9582 231.104 78.5208 230.852 78.084C230.511 77.4933 230.343 76.8382 230.328 76.1465C230.318 75.6534 230.279 75.1715 230.211 74.7012C230.172 74.4331 230.05 74.1953 229.805 73.9746C229.261 73.4857 228.879 72.887 228.703 72.1855C228.582 71.7018 228.454 71.2198 228.32 70.7402C228.225 70.3991 228.059 70.0912 227.812 69.8105C227.36 69.2942 227.054 68.6912 226.906 68.0215C226.843 67.7393 226.704 67.5023 226.453 67.2871C225.976 66.8776 225.568 66.4136 225.242 65.9043C224.952 65.4501 224.694 64.9766 224.461 64.4902C224.24 64.0291 224.026 63.5623 223.82 63.0918C223.599 62.5858 223.414 62.0591 223.266 61.5137C223.144 61.0662 222.992 60.6384 222.805 60.2324C222.649 59.8948 222.427 59.5961 222.141 59.3262C221.754 58.962 221.375 58.5896 221.008 58.2168C220.634 57.8368 220.277 57.446 219.938 57.0449C219.507 56.5363 219.215 55.9376 219.055 55.2793C218.951 54.8556 218.789 54.4758 218.586 54.1387C218.388 53.8114 218.134 53.5214 217.82 53.2637C217.4 52.9186 217.001 52.5556 216.617 52.1855C216.188 51.7715 215.823 51.3076 215.523 50.7949C215.269 50.3583 215.009 49.9163 214.758 49.4746C214.569 49.1424 214.329 48.8513 214.031 48.5996C213.588 48.2253 213.191 47.8048 212.844 47.3496C212.442 46.8224 212.169 46.2126 212.023 45.5371C211.957 45.2305 211.823 45.0576 211.625 44.9355C211.119 44.6235 210.656 44.2669 210.242 43.8652C209.89 43.5232 209.534 43.1811 209.172 42.8496C208.771 42.4828 208.395 42.0928 208.047 41.6777C207.728 41.2977 207.409 40.9143 207.086 40.5371C206.707 40.0939 206.38 39.6034 206.109 39.0684C205.927 38.7089 205.698 38.4089 205.422 38.1621C205.137 37.9077 204.792 37.6961 204.391 37.5293C203.599 37.1999 203.068 36.5755 202.82 35.7637C202.718 35.4307 202.559 35.2458 202.359 35.1309C201.936 34.8873 201.5 34.6599 201.055 34.4434C200.517 34.182 200.017 33.8642 199.57 33.4902C199.204 33.184 198.831 32.8831 198.445 32.5996C197.828 32.1453 197.437 31.4984 197.227 30.748C197.12 30.3685 196.953 30.1976 196.781 30.0996C196.29 29.8189 195.829 29.4958 195.398 29.1387C195.054 28.8529 194.686 28.5964 194.297 28.3652C193.742 28.0355 193.274 27.5974 192.891 27.0684C192.688 26.7888 192.438 26.589 192.133 26.459C191.571 26.2188 191.055 25.9027 190.594 25.5137C190.38 25.3339 190.097 25.2082 189.703 25.1621C188.788 25.0557 188.087 24.5372 187.695 23.709C187.576 23.458 187.438 23.3696 187.242 23.334C186.441 23.187 185.787 22.7553 185.336 22.0762C185.193 21.8619 185.019 21.7551 184.758 21.7168C184.097 21.6195 183.48 21.4053 182.93 21.0684C182.437 20.7667 181.98 20.4043 181.562 19.9902C181.263 19.6939 180.938 19.4502 180.586 19.2559C180.092 18.9837 179.619 18.6667 179.18 18.3027C178.789 17.9791 178.4 17.6511 178.008 17.3262C177.717 17.0858 177.392 16.911 177.031 16.8027C176.45 16.6285 175.902 16.3766 175.398 16.0449C175.195 15.9111 174.926 15.8324 174.531 15.8652C173.731 15.9326 172.971 15.7398 172.344 15.2324C171.956 14.9191 171.562 14.6145 171.164 14.3184C170.771 14.0258 170.368 13.7498 169.961 13.4824C169.692 13.306 169.383 13.198 169.016 13.1777C168.209 13.1322 167.514 12.7866 166.977 12.1855C166.907 12.1074 166.85 12.0863 166.812 12.0762C166.768 12.0645 166.676 12.0503 166.508 12.0918C165.636 12.3072 164.773 12.1598 164.094 11.5215C163.886 11.3256 163.668 11.2333 163.391 11.2324C162.679 11.2305 162.011 11.0465 161.414 10.6699C161.037 10.4319 160.646 10.2321 160.242 10.0762C159.815 9.91106 159.376 9.77484 158.93 9.66211C158.444 9.53937 157.954 9.41836 157.469 9.29492C156.92 9.1554 156.388 8.96161 155.875 8.7168C155.511 8.54323 155.132 8.42495 154.734 8.36523C154.032 8.26026 153.399 7.9538 152.852 7.48242C152.624 7.28663 152.409 7.22189 152.156 7.24023C151.586 7.28199 151.02 7.28769 150.469 7.25586C149.922 7.22419 149.383 7.16007 148.852 7.06055C148.279 6.95317 147.724 6.76966 147.188 6.52148C146.785 6.33507 146.373 6.19111 145.953 6.0918C145.557 5.99827 145.148 5.95815 144.727 5.97461C144.138 5.99803 143.553 5.95687 142.984 5.8418C142.286 5.69981 141.662 5.34459 141.117 4.8418C141.018 4.75056 140.963 4.74169 140.953 4.74023C140.936 4.73826 140.871 4.73362 140.742 4.79492C140.062 5.11963 139.351 5.27861 138.633 5.19336C138.072 5.1267 137.52 4.99949 136.977 4.81836C136.528 4.66876 136.074 4.54665 135.617 4.44336C135.13 4.33314 134.639 4.22298 134.148 4.11523C133.621 3.99928 133.097 3.85284 132.578 3.67773C132.195 3.54824 131.804 3.48055 131.414 3.48242C131.075 3.48452 130.708 3.5692 130.305 3.75586C129.497 4.13046 128.649 4.10224 127.875 3.6543C127.607 3.49917 127.388 3.4803 127.164 3.54492C126.347 3.77961 125.553 3.62062 124.852 3.16211C124.582 2.98562 124.391 2.97143 124.203 3.0293Z" fill="#609BA1"/>
</g>
<defs>
<filter id="filter0_f_1047_23554" x="0" y="0" width="242.551" height="242.725" filterUnits="userSpaceOnUse" color-interpolation-filters="sRGB">
<feFlood flood-opacity="0" result="BackgroundImageFix"/>
<feBlend mode="normal" in="SourceGraphic" in2="BackgroundImageFix" result="shape"/>
<feGaussianBlur stdDeviation="0.5" result="effect1_foregroundBlur_1047_23554"/>
</filter>
</defs>
</svg>
