<svg width="300" height="661" viewBox="0 0 300 661" fill="none" xmlns="http://www.w3.org/2000/svg">
<path d="M154.479 660.36C133.969 660.36 114.159 654.06 100.119 643.07C99.3591 642.47 98.749 641.7 98.349 640.82C93.309 629.69 93.489 617.19 93.689 606.13C93.449 602.33 93.0391 599.06 92.6491 595.89C91.9691 590.4 91.2691 584.73 91.4991 576.88C91.4991 576.71 91.4991 576.53 91.5091 576.36C91.5191 576.18 91.5191 576 91.5291 575.82C91.5291 575.54 91.5391 575.26 91.5591 574.98C91.5791 574.54 91.6491 574.1 91.7691 573.68C92.1991 570.32 93.0291 567.16 93.7691 564.35C94.4091 561.91 95.009 559.61 95.069 558.19C95.159 554.22 94.8891 550.42 94.6191 546.75C94.1591 540.39 93.6691 533.82 95.1491 526.19C95.2091 525.9 95.2791 525.61 95.3791 525.33C101.129 509.01 101.639 493.17 101.689 475.63C101.689 475.12 101.759 474.61 101.889 474.12C104.909 462.65 105.219 454.69 105.659 443.67C105.809 439.8 105.979 435.46 106.289 430.51C106.219 429.99 106.209 429.46 106.289 428.91C106.849 424.61 108.199 420.92 109.289 417.96C110.039 415.91 110.749 413.98 110.899 412.62C111.309 408.73 111.269 405.35 111.219 401.78C111.209 400.75 111.189 399.7 111.189 398.65C108.759 401.45 105.549 403.43 101.909 404.3C102.039 405.67 102.209 407.04 102.389 408.45C102.859 412.09 103.389 416.21 103.099 421.06C102.889 425.45 102.419 429.69 101.969 433.79C101.439 438.61 100.929 443.16 100.819 448.05C102.249 462.88 99.2991 475.17 92.5091 482.69C87.7591 487.94 81.259 490.72 73.699 490.72C71.049 490.72 68.2391 490.38 65.3091 489.71C64.7691 492.82 63.8591 495.85 63.0291 498.65C62.2791 501.16 61.5691 503.53 61.3991 505.1C61.3191 509.33 61.879 512.92 62.459 516.71C63.099 520.84 63.7591 525.1 63.6591 530.36C63.6591 530.51 63.6491 530.65 63.6391 530.8C61.8291 550.62 63.7691 559.79 73.5391 577.55C73.6991 577.84 73.829 578.13 73.939 578.44C74.849 581.01 76.9991 584.16 79.2791 587.5C84.4091 595.02 90.769 604.34 87.099 614.45C87.029 615.23 87.0991 616 87.1591 616.87C87.3991 619.94 87.8391 625.64 80.0591 629.62C77.2791 631.08 74.2491 631.83 71.0491 631.83C63.0791 631.83 55.519 627.21 49.459 623.49C47.429 622.25 45.5091 621.07 43.8791 620.26C35.8591 616.3 29.479 612.09 23.849 607.04C5.46904 590.94 4.13903 565.11 2.96903 542.32C2.65903 536.38 2.37912 530.77 1.80912 525.54C1.74912 524.94 1.76906 524.34 1.87906 523.76C3.92906 513.1 5.72907 500.45 3.50907 487.41C3.23907 485.94 2.74903 484.15 2.21903 482.26C0.70903 476.83 -0.99098 470.69 0.70902 464.89C3.42902 453.42 13.5491 445.43 25.4091 445.43C26.3191 445.43 27.2291 445.48 28.1391 445.57C38.7591 442.61 46.249 429.61 46.709 418.82C46.549 411.53 47.4891 406.02 48.1691 401.98C48.4991 400.04 48.8991 397.65 48.7991 396.73C48.1391 396.23 45.8091 395.13 37.6391 393.72C37.3591 393.67 37.0691 393.6 36.7991 393.51C16.8091 387 18.029 372.47 19.329 360.58C16.499 334.57 21.3191 322.46 32.9091 301.61C42.7891 273.79 65.4691 254.71 84.4191 241.13C87.1891 238.11 90.6191 235.99 94.6191 234.85C94.7991 234.8 94.9791 234.76 95.1691 234.72C102.019 233.44 108.119 230.23 114.579 226.83C122.629 222.59 130.919 218.22 141.119 217.39C142.359 212.06 142.579 206.38 142.809 200.43C142.979 195.92 143.159 191.25 143.809 186.59C143.849 186.27 143.929 185.95 144.019 185.64C147.489 174.49 148.049 167.02 148.819 156.69C149.139 152.37 149.509 147.5 150.129 141.69C150.129 141.39 150.159 141.08 150.209 140.78C150.239 140.57 150.279 140.37 150.319 140.17L150.339 140.05C150.369 139.85 150.409 139.65 150.459 139.45C151.229 135.77 152.499 132.7 153.609 129.98C154.439 127.95 155.229 126.04 155.419 124.68C155.879 121.02 156.009 117.39 156.129 113.88C156.189 112.13 156.249 110.37 156.359 108.58C155.509 109.62 154.599 110.62 153.629 111.58C153.529 111.68 153.419 111.79 153.299 111.88C149.389 115.23 145.369 119.18 141.479 122.99C128.869 135.37 115.819 148.17 99.9891 148.17C90.0291 148.17 80.6691 143.17 71.3791 132.89C60.2691 120.2 58.3191 105.32 56.4291 90.92C56.4291 90.92 56.1491 88.79 56.1391 88.74C55.9491 86.99 55.7191 85.23 55.4991 83.48C53.8791 70.89 52.039 56.63 63.819 45.57C69.649 39.35 78.479 34.01 84.939 30.09L86.109 29.38C90.159 26.6 94.009 23.38 98.089 19.96C109.429 10.47 121.149 0.67 137.809 0.09C138.129 0.04 138.469 0.01 138.809 0.01C138.809 0.01 139.509 0.02 139.769 0.02H139.969C140.099 0.01 140.239 0 140.369 0C140.539 0 140.709 0 140.879 0.02C158.569 0.05 172.249 10.21 182.689 31.06C182.739 31.17 182.789 31.28 182.839 31.39C184.069 34.26 185.509 36.99 186.899 39.62C190.819 47.03 194.859 54.69 194.389 65.55C194.389 65.59 194.389 65.64 194.389 65.68C194.029 71.22 192.859 77.16 191.729 82.91C190.659 88.36 189.649 93.51 189.329 98.09C189.329 98.15 189.329 98.21 189.309 98.28C188.549 105.76 188.679 113.3 188.819 121.27C188.959 129.62 189.109 138.25 188.149 146.81C188.129 146.96 188.109 147.1 188.079 147.25C186.639 155.47 184.239 161.77 181.919 167.87C180.029 172.85 178.239 177.56 176.989 183.22C176.169 188.37 176.119 192.82 176.069 197.13C175.989 203.95 175.909 210.97 172.689 219.61C175.619 220.77 178.919 221.91 182.849 223.12C192.589 225.45 200.529 230.63 208.209 235.65C213.409 239.04 218.309 242.24 223.599 244.49C234.459 248.8 246.439 260.2 252.919 269.46C254.439 270.92 255.949 272.31 257.419 273.66C262.509 278.33 267.319 282.74 271.359 289.32C277.389 299.5 279.309 310.45 281.169 321.04C281.819 324.71 282.479 328.51 283.309 332.14C287.629 350.03 286.429 361.76 278.519 378.57C275.859 384.31 273.039 389.91 270.309 395.33C268.319 399.28 266.269 403.37 264.269 407.51C264.069 407.92 263.829 408.31 263.539 408.67C259.739 413.39 255.329 420.46 255.789 427.42C256.239 431.21 255.679 435.49 255.139 439.63C253.539 451.86 254.459 453.98 258.479 454.72C284.109 458.61 298.749 476.78 299.749 505.91C301.209 518.3 296.199 530.99 292.089 539.72C287.959 563.29 280.669 572.98 267.569 590.42L266.329 592.07C264.859 594.4 263.479 596.82 262.009 599.37C258.209 605.99 254.269 612.84 248.629 618.62C248.389 618.87 248.119 619.1 247.839 619.3C242.759 622.95 238.059 627.1 233.519 631.12C225.619 638.1 217.449 645.33 206.769 650.48C206.519 650.6 206.269 650.7 205.999 650.79C200.469 652.57 194.849 653.6 189.409 654.58C183.529 655.65 177.979 656.66 172.979 658.52C172.649 658.64 172.319 658.73 171.979 658.8C166.329 659.85 160.449 660.38 154.479 660.38V660.36ZM128.229 622.17C133.829 627.19 140.549 629.63 148.769 629.63C159.969 629.63 173.639 625.05 190.559 615.63C190.729 615.54 190.889 615.45 191.069 615.38C194.109 614.05 197.009 612.92 199.809 611.83C207.199 608.96 213.579 606.48 220.269 601.17C220.309 601.14 220.339 601.11 220.379 601.09C224.209 598.19 225.889 595.1 228.019 591.19C229.919 587.7 232.079 583.74 235.989 579.76C236.099 579.65 236.209 579.55 236.319 579.45C256.739 561.6 258.649 543.78 260.989 517.13C260.879 516.49 260.879 515.82 260.989 515.14C262.039 508.91 263.619 502.2 265.469 496.2C266.029 491.22 265.209 490.65 256.579 488.48C246.639 485.98 231.609 482.21 225.829 459.61C225.759 459.35 225.719 459.1 225.679 458.83C222.909 435.67 221.019 411.19 230.659 388.99C230.689 388.91 230.729 388.83 230.769 388.76C234.539 381 239.469 375.83 243.809 371.27C251.189 363.53 255.639 358.86 251.639 344.81C251.459 344.19 251.389 343.55 251.419 342.91C252.879 309.18 247.149 305.39 219.609 287.2L216.489 285.14C216.349 285.05 216.209 284.94 216.069 284.84C211.199 280.98 207.549 277.23 204.019 273.6C199.739 269.2 195.689 265.05 189.899 261.28C185.309 258.61 181.149 257.37 176.749 256.05C172.939 254.91 169.049 253.75 164.959 251.7C164.939 255.93 165.079 260.23 165.219 264.66C165.479 272.95 165.759 281.52 164.929 290.03C164.919 290.18 164.889 290.33 164.869 290.48C163.569 298.69 161.289 304.99 159.079 311.09C157.239 316.16 155.509 320.94 154.369 326.72C154.349 326.8 154.339 326.87 154.319 326.95C153.229 331.52 153.479 335.19 153.769 339.43C154.109 344.34 154.489 349.91 152.459 356.76C152.389 356.98 152.319 357.2 152.229 357.41C142.889 379.28 143.409 391.73 144.149 408.96C144.449 415.93 144.779 423.84 144.489 433.26C144.489 433.47 144.469 433.68 144.439 433.88C143.319 442.13 141.189 448.5 139.129 454.66C137.419 459.78 135.799 464.61 134.779 470.44C134.769 470.51 134.749 470.59 134.739 470.66C133.759 475.24 134.109 478.89 134.519 483.12C134.989 488.03 135.529 493.6 133.649 500.51C133.589 500.74 133.509 500.96 133.429 501.17C124.529 523.28 125.879 534.59 127.919 551.7C128.759 558.73 129.709 566.71 130.019 576.47C130.109 582.49 128.709 588.87 127.349 595.04C124.979 605.82 122.749 616.02 128.199 622.09C128.229 622.11 128.249 622.14 128.279 622.16L128.229 622.17ZM62.9191 455.76C64.1591 456.31 66.0091 457.12 67.6291 457.73C67.8091 456.3 68.139 454.98 68.469 453.63C68.499 453.51 68.529 453.4 68.569 453.29C69.399 450.62 70.079 447.82 70.599 444.93C68.089 448.71 65.359 452.3 62.739 455.68C62.799 455.71 62.8591 455.73 62.9291 455.76H62.9191ZM105.369 368.91C109.439 371 112.479 374.23 114.219 378.06C114.769 376.14 115.349 374.27 115.919 372.44C117.369 367.77 118.739 363.35 119.579 358.6C120.369 354.13 120.419 349.45 120.469 344.5C120.509 339.93 120.559 335.2 121.219 330.43C121.259 330.14 121.319 329.85 121.399 329.57C124.659 318.4 125.059 311.42 125.649 300.85C125.889 296.61 126.159 291.81 126.669 286.07C126.679 285.83 126.709 285.58 126.749 285.34C126.759 285.26 126.769 285.18 126.779 285.11C126.799 284.93 126.819 284.75 126.849 284.57C126.899 284.24 126.969 283.92 127.069 283.62C127.789 280.15 128.959 277.02 129.999 274.23C130.849 271.96 131.649 269.81 131.829 268.4C132.309 264.53 132.339 261.17 132.369 257.61C132.379 256.43 132.389 255.24 132.419 254.03C126.289 257.71 120.269 261.97 114.379 266.14C113.549 266.73 112.729 267.31 111.919 267.88C111.689 268.16 111.419 268.43 111.079 268.79L110.859 269.02C110.509 269.41 110.109 269.74 109.679 270.02C104.509 273.85 99.029 276.27 93.719 278.62C85.839 282.1 79.0191 285.12 74.5291 292.09C70.1891 301.33 65.4691 308.37 61.3091 314.58C51.6491 328.99 46.169 337.17 53.969 358.79C63.959 362.17 70.1791 367.88 74.0391 374.79C74.5491 374.02 75.099 373.28 75.689 372.58C79.649 367.87 85.059 365.38 91.319 365.38C95.449 365.38 99.9791 366.48 104.799 368.64C104.999 368.73 105.189 368.83 105.379 368.94L105.369 368.91ZM90.719 62.61C87.569 65.79 87.139 70.77 87.469 77.76C87.489 78.21 87.4691 78.66 87.3791 79.1C85.5191 89.48 91.689 97.16 98.839 106.06C100.759 108.45 102.729 110.89 104.579 113.46C110.519 109.57 122.089 100 124.969 97.24C125.029 97.19 125.079 97.13 125.139 97.08C130.559 92.26 133.069 84.06 131.719 77.05C131.199 77.43 130.689 77.82 130.269 78.14C129.179 78.97 128.059 79.82 126.859 80.6C124.459 82.24 115.349 87.82 109.319 87.82C106.649 87.82 104.399 86.78 102.969 84.97C99.099 81.81 94.7291 77.08 94.0291 71.46C93.6991 68.82 94.2091 66.28 95.4991 64C95.4191 63.62 95.3491 63.18 95.3091 62.68C95.2191 61.64 95.409 60.6 95.839 59.66C96.109 59.08 96.3891 58.52 96.6791 57.98C94.5391 59.39 92.529 60.91 90.719 62.62V62.61ZM128.079 40.55C141.669 40.55 154.349 49.49 160.939 63.52C160.089 59.65 158.799 55.91 157.089 52.42C156.879 51.99 156.719 51.53 156.619 51.06C154.449 41.18 149.399 39.09 146.549 38.53C146.409 38.55 146.269 38.57 146.129 38.58C145.389 38.65 144.649 38.68 143.849 38.68C141.359 38.68 138.969 38.36 136.649 38.05C134.639 37.78 132.749 37.53 131.079 37.53C128.779 37.53 127.659 38.03 126.929 38.57C126.179 39.32 125.409 40.04 124.629 40.74C125.779 40.62 126.939 40.56 128.099 40.56L128.079 40.55Z" fill="#77B975"/>
<path d="M39.9102 581.82C36.6002 581.82 33.9102 579.13 33.9102 575.81C33.9102 573.16 35.6502 570.83 38.1802 570.06C38.7502 569.89 39.3301 569.81 39.9001 569.81C41.8801 569.81 43.7802 570.79 44.9102 572.51C44.9702 572.59 45.0201 572.68 45.0701 572.77C46.1401 574.57 46.1901 576.81 45.1901 578.67C44.1401 580.61 42.1102 581.83 39.9102 581.83V581.82Z" fill="#77B975"/>
<path d="M293.777 506.343C293.017 482.103 282.537 464.373 257.507 460.613C242.097 457.863 251.157 438.463 249.827 427.973C249.207 419.703 253.487 411.583 258.877 404.883C263.637 395.013 268.527 385.843 273.097 375.993C280.337 360.593 281.477 350.053 277.467 333.443C274.297 319.523 273.687 304.993 266.257 292.433C261.457 284.603 255.167 279.993 248.337 273.333C242.067 264.143 230.577 253.653 221.347 250.013C207.397 244.103 196.367 232.423 181.297 228.893C175.687 227.163 170.117 225.223 164.827 222.693C172.757 206.863 168.557 197.933 171.127 182.073C174.037 168.723 179.727 160.423 182.217 146.123C184.017 130.133 181.757 113.693 183.377 97.6532C184.077 87.6132 187.777 75.4432 188.437 65.2732C188.997 52.4432 182.087 44.7732 177.357 33.7332C169.437 17.9232 158.207 5.77321 140.327 6.00321C139.917 6.03321 138.787 6.00321 138.827 6.00321V6.06321C118.147 6.35321 105.207 23.5932 89.3869 34.4132C82.9869 38.3032 73.7268 43.7232 68.0868 49.8032C56.9368 60.1232 60.6369 74.3532 62.1269 88.0832C64.0969 102.933 65.5268 117.063 75.8468 128.853C105.057 161.173 126.557 126.883 149.417 107.313C176.437 80.4632 143.697 26.5532 107.947 54.2532C104.487 56.9032 102.767 59.0032 101.297 62.1732C101.417 63.5532 102.177 64.7232 101.317 66.0732C97.0469 71.5332 103.697 77.9632 107.487 80.8932C108.827 84.3732 121.797 77.0232 123.607 75.5432C127.597 72.9732 131.737 68.4032 135.517 69.7632C140.737 80.0132 137.577 94.0532 129.127 101.563C126.487 104.103 102.597 124.513 102.017 120.343C93.1869 106.523 78.2868 95.8332 81.4768 78.0432C81.1468 71.0832 81.2869 63.5432 86.5369 58.3132C97.1169 48.2932 112.587 44.6932 122.917 34.0832C129.247 28.9332 138.037 33.2932 145.587 32.6032C145.697 32.5332 145.787 32.4632 145.877 32.3632C155.517 33.4432 160.467 40.6332 162.477 49.7632C169.127 63.3032 169.947 79.6732 165.117 93.8832C161.217 104.823 162.817 114.133 161.377 125.493C160.767 129.833 157.537 134.633 156.277 140.963C156.237 141.213 156.177 141.453 156.137 141.703H156.167C153.957 161.943 154.947 170.643 149.747 187.393C148.087 199.283 149.687 211.743 145.657 223.233C126.597 222.673 114.217 237.233 96.2669 240.583C93.2469 241.443 90.7069 243.023 88.6169 245.393C88.6169 245.403 88.6369 245.423 88.6469 245.443C67.4569 260.553 47.1569 278.893 38.3969 304.043C26.5769 325.263 22.5769 335.803 25.3669 360.543C23.8769 374.103 23.6569 382.883 38.6569 387.773C63.4469 392.043 52.1468 395.733 52.7068 418.833C52.2068 432.753 42.3269 448.593 28.4869 451.623C18.4269 450.073 8.82687 456.233 6.50687 466.393C4.67687 472.303 8.30691 480.223 9.41691 486.363C11.6069 499.233 10.2769 511.823 7.75687 524.853C10.5269 550.283 6.85683 584.163 27.8368 602.543C33.6468 607.753 39.8869 611.573 46.5469 614.863C54.9669 619.083 66.9569 629.753 77.2769 624.273C83.4469 621.133 80.3368 618.353 81.2268 612.943C85.8868 601.723 71.7269 590.203 68.2669 580.423C57.9669 561.693 55.7169 551.413 57.6469 530.233C57.8269 520.673 55.1569 514.363 55.3869 504.733C55.8369 499.483 59.8769 491.193 59.7769 484.183C58.1969 483.273 58.3969 480.273 60.5169 481.953C87.4969 492.203 97.2169 472.133 94.7969 448.263C94.9969 438.593 96.6568 430.123 97.0968 420.703C97.5868 412.323 95.3469 406.443 95.7569 398.653C109.827 400.563 115.767 380.613 102.327 374.093C77.7668 363.043 71.9969 387.773 75.3169 406.893C78.9369 422.583 78.8669 440.363 74.2869 455.073C73.6069 457.803 73.1969 459.543 73.6869 462.233C72.4869 469.213 57.2569 458.373 52.8169 458.663C61.9969 446.553 76.3168 430.813 74.1968 414.713C74.4368 392.993 74.8469 370.513 49.2969 363.613C49.2969 363.543 49.3368 363.483 49.3368 363.493C34.8668 326.353 54.6769 320.493 69.2669 289.183C78.1069 275.033 94.0969 274.303 106.487 264.913C106.577 264.813 107.297 264.083 107.317 264.043C107.267 263.993 107.237 263.933 107.207 263.863C117.097 256.913 128.177 248.683 139.547 243.413C137.607 252.623 138.987 259.503 137.787 269.143C137.247 273.463 134.007 279.093 132.827 285.443H132.787C132.737 285.753 132.717 286.043 132.667 286.353C130.897 306.303 132.017 314.633 127.157 331.253C125.857 340.633 127.137 350.323 125.487 359.643C123.847 368.943 120.367 376.883 118.337 386.103C116.147 396.063 117.927 403.113 116.857 413.243C116.367 417.783 113.107 422.913 112.237 429.663L112.357 429.683C111.057 449.413 112.067 459.003 107.697 475.633C107.647 493.563 107.077 510.223 101.047 527.313C98.9169 538.373 101.347 546.973 101.077 558.413C100.917 562.643 98.3069 568.853 97.6369 575.273H97.5669C97.5369 575.783 97.5469 576.263 97.5169 576.753C97.1169 588.813 99.0368 595.083 99.7068 605.983C99.5168 616.763 99.3268 628.393 103.827 638.333C122.047 652.603 148.677 656.993 170.887 652.873C181.247 649.013 193.197 648.593 204.167 645.053C220.117 637.353 230.207 624.553 244.337 614.403C251.547 607.013 255.947 597.233 261.387 588.623C275.177 570.243 282.317 561.383 286.317 537.853C290.727 528.603 295.117 517.063 293.767 506.333L293.777 506.343ZM31.9169 473.733C32.5169 472.513 34.4368 472.033 35.7268 471.673C35.3768 472.903 34.8268 475.593 34.4468 477.533C34.3768 477.183 34.3268 476.963 34.3268 476.953C34.3068 476.893 34.2569 476.693 34.2469 476.633C34.2469 476.633 34.2669 476.693 34.2469 476.683C33.1369 476.663 31.4969 475.003 31.9069 473.723L31.9169 473.733ZM46.9069 582.833C44.7969 581.123 41.5469 578.223 39.9269 575.823C42.7269 581.273 38.2468 583.273 34.1068 578.623C26.5668 569.523 28.9768 556.653 30.0968 545.893C31.3068 535.033 26.6269 528.833 28.6269 517.733C30.1769 509.133 31.2269 505.623 33.1169 498.473C33.9769 512.613 37.9569 526.203 39.2869 540.083C39.6469 549.773 38.4868 563.043 41.0968 572.523C41.6468 576.423 47.1269 578.223 48.0069 582.143C48.2169 583.463 47.8569 583.483 46.9069 582.833ZM267.097 516.153C264.627 544.303 262.727 564.323 240.267 583.943C232.807 591.533 232.777 599.213 224.007 605.853C213.897 613.883 204.397 616.073 193.487 620.863C173.267 632.123 144.157 644.463 124.237 626.633C124.237 626.633 124.237 626.653 124.237 626.673C112.007 614.203 124.217 592.403 123.987 576.663C122.967 543.913 114.477 532.093 127.827 498.933C130.897 487.673 126.397 480.833 128.847 469.413C131.207 455.933 136.517 447.463 138.477 433.083C139.487 400.663 132.907 387.353 146.707 355.063C150.027 343.873 145.757 336.933 148.477 325.563C151.127 312.143 156.707 303.793 158.957 289.453C160.527 273.423 157.977 256.943 159.437 240.873C171.267 250.913 180.687 248.933 193.057 256.173C204.357 263.473 209.227 271.733 219.817 280.133C250.417 300.393 259.107 304.703 257.437 343.163C264.997 369.743 245.877 371.453 236.187 391.383C227.027 412.473 229.007 435.893 231.667 458.113C240.787 493.743 274.317 473.453 271.387 497.433C269.587 503.213 267.987 509.823 266.937 516.123L267.127 516.153H267.097Z" fill="#AFDEAE"/>
</svg>
