<svg width="157" height="601" viewBox="0 0 157 601" fill="none" xmlns="http://www.w3.org/2000/svg">
<path d="M129.416 600.51C128.026 600.51 126.536 600.39 124.986 600.15C124.556 600.08 124.136 599.97 123.736 599.82C120.056 598.39 116.716 596.94 113.496 595.53C104.036 591.39 96.5555 588.13 86.3555 588.13C85.0955 588.13 83.7855 588.18 82.4755 588.28C82.3255 588.29 82.1655 588.3 82.0155 588.3C81.4955 588.3 80.9855 588.23 80.4855 588.1C77.9755 587.44 75.4155 587.11 72.6555 587.11C64.6855 587.11 56.6355 589.83 48.1155 592.71C41.6555 594.89 34.9655 597.15 28.1155 598.22C27.8055 598.27 27.5055 598.29 27.1955 598.29C25.8655 598.29 24.5755 597.85 23.5155 597.03C23.4055 597.03 23.2555 597.02 23.0655 597.02C22.6955 597.02 22.3255 597.03 21.9455 597.05C21.4355 597.07 20.9255 597.08 20.4255 597.08C18.4155 597.08 15.4455 596.83 12.9055 594.67C12.3555 594.2 11.8955 593.64 11.5455 593.01C5.85552 582.77 15.8555 573.14 22.4655 566.77C24.2655 565.04 25.9655 563.4 26.9055 562.22C27.0055 562.1 27.0955 561.98 27.2055 561.87C32.5755 556.07 35.8455 548.87 39.3055 541.24C40.6455 538.29 42.0255 535.25 43.5455 532.26C44.2655 528.34 44.1555 523.39 44.0455 518.6C43.9255 513.45 43.8055 508.14 44.6255 503.28C44.3455 500.87 43.8755 498.72 43.3755 496.47C42.5455 492.69 41.6855 488.79 41.7655 483.76C41.7655 483.64 41.7655 483.53 41.7855 483.41C41.9055 481.84 42.0355 480.28 42.1655 478.73C42.8955 469.92 43.5955 461.56 41.6655 453.4C40.9555 452.75 40.3155 452.04 39.7355 451.28C39.9755 455.47 38.9755 459.57 36.7855 462.87C34.0755 466.95 29.9155 469.28 25.3655 469.28C21.7555 469.28 16.3555 467.81 11.1255 460.82C11.0455 460.72 10.9755 460.61 10.9055 460.5C6.3055 453.45 5.27553 445.46 7.93553 437.41C10.0855 430.9 14.6555 424.65 20.8255 419.77C21.2655 419.35 21.6955 418.92 22.1255 418.49C26.2355 414.43 30.7755 409.95 37.2855 408.01C37.3755 405.88 37.6555 403.88 37.9055 402.01C38.1755 400.01 38.4255 398.19 38.4055 396.59C36.2955 395.27 34.5055 393.6 33.1255 391.66C33.3955 395.89 32.3955 400.04 30.1855 403.38C27.4755 407.46 23.3155 409.79 18.7655 409.79C15.1555 409.79 9.75556 408.32 4.52556 401.33C4.47556 401.27 4.42554 401.2 4.38554 401.13C-1.30446 392.84 -1.46446 382.62 3.94554 372.33C10.4555 359.95 23.9255 349.9 36.4155 347.49C35.2855 339.21 35.1555 331.57 35.9955 324.29C35.8755 322.09 35.6156 319.74 35.3356 317.27C34.2356 307.52 33.0055 296.5 39.4055 286.55C39.6055 286.17 39.8355 285.8 40.1155 285.46C42.1155 283.02 44.3956 280.93 46.7756 279.09C30.3456 268.62 32.0755 250.47 33.6355 234.18C33.8255 232.2 34.0155 230.21 34.1755 228.21C32.6755 218.44 32.2255 209.81 31.7855 201.46C31.3555 193.34 30.9155 184.96 29.5055 175.33C29.3255 174.82 29.2155 174.27 29.1855 173.7C29.1555 173.22 29.1655 172.75 29.1755 172.29C29.1755 172.15 29.1755 172.01 29.1755 171.86C29.1655 171.24 29.2555 170.62 29.4255 170.04C30.9055 163.96 30.1355 158.97 29.2455 153.21C28.6755 149.49 28.0855 145.65 28.0155 141.21C28.0155 140.86 28.0355 140.5 28.0955 140.15C30.0855 127.98 29.7855 115.7 27.1655 101.51C27.0655 100.95 27.0355 100.39 27.0955 99.82C27.9355 91.43 27.2255 86.21 26.1555 78.31C25.7455 75.26 25.2755 71.83 24.8455 67.78C24.7655 67.41 24.7155 67.03 24.7055 66.64C24.7055 66.47 24.7055 66.31 24.7055 66.15V66.11C24.6455 65.33 24.7455 64.55 24.9755 63.82C26.3555 57.71 25.5755 52.13 24.7355 46.23C23.9055 40.36 23.0555 34.3 24.1155 27.32C24.0555 18.74 26.8655 10.93 31.8655 5.81C35.5855 2.01 40.2055 0 45.2255 0C50.2455 0 55.4555 2.06 60.4355 6.14C60.5355 6.22 60.6255 6.3 60.7155 6.39C66.7755 12.02 70.8255 17.5 74.7355 22.8C78.6655 28.12 82.3755 33.16 88.1855 38.63C88.7455 38.98 89.2555 39.42 89.6955 39.97C90.0355 40.4 90.3455 40.83 90.6555 41.27L90.8956 41.61C91.0656 41.85 91.2155 42.09 91.3455 42.35C94.3455 47.66 97.4655 51.96 100.486 56.12C109.966 69.2 118.166 80.49 107.976 106.79C107.726 107.43 107.376 108.02 106.926 108.54C103.746 112.23 101.665 117.23 99.4655 122.52C98.6055 124.59 97.7155 126.73 96.7455 128.82C95.9855 132.2 95.8255 134.82 95.6255 138.11C95.4555 140.82 95.2755 143.89 94.6955 147.75L94.6555 148.06C94.5655 148.72 94.3655 149.36 94.0655 149.94C91.3555 156.91 91.4655 162.12 91.6055 168.68C91.6655 171.58 91.7355 174.87 91.5555 178.52C91.5555 178.69 91.5355 178.86 91.5055 179.03C91.1155 181.94 90.5455 184.67 89.9855 187.3C89.2355 190.87 88.5356 194.24 88.3356 197.75C88.4456 201.1 88.7455 204.43 89.0655 207.94C89.7155 215.14 90.3856 222.59 89.3356 230.33C89.4856 232.1 89.8155 234.38 90.1655 236.77C91.0155 242.67 92.0155 249.59 91.6355 256.13C93.9255 255.7 96.2555 254.91 98.8255 254.04C102.456 252.8 106.576 251.4 111.206 250.97C111.366 250.96 111.516 250.95 111.676 250.94C112.066 250.94 112.456 250.94 112.846 250.94C135.396 250.94 145.496 259.5 150.006 267.02C153.436 271.74 155.386 276.57 156.136 282.21C157.676 292.24 152.306 303.47 143.326 309.14C143.146 309.27 142.966 309.39 142.766 309.5L142.316 309.79C141.996 309.99 141.666 310.17 141.326 310.31C135.956 313.12 129.836 314.6 123.576 314.6C109.216 314.6 97.6255 306.82 93.7955 294.95C93.3155 294.77 92.8155 294.6 92.2955 294.45C91.7355 303.78 93.5955 313.31 95.4055 322.58C95.4955 323.06 95.5355 323.55 95.5055 324.05C95.0055 333.45 96.1955 339.35 98.1655 349.13C98.2855 349.71 98.4056 350.31 98.5256 350.92C105.196 358.28 106.246 369.25 101.336 380.42C102.686 386.4 102.346 392.36 102.006 398.13C101.826 401.28 101.646 404.3 101.756 407.17C105.896 410.28 108.746 414.54 110.066 419.67C111.936 426.94 110.586 435.57 106.446 443.16C106.756 444.89 107.156 446.57 107.596 448.45C108.436 451.98 109.386 455.96 110.086 461.69C110.146 461.97 110.186 462.26 110.196 462.55C110.196 462.55 110.196 462.6 110.196 462.65C110.276 463.28 110.246 463.9 110.136 464.51C109.066 473.85 110.236 480.02 112.006 489.29C112.056 489.54 112.096 489.85 112.116 490.11C112.286 492.87 112.216 495.47 112.156 497.99C112.036 502.7 111.926 506.76 113.266 511.17C114.226 514.32 116.156 517.42 118.196 520.71C119.566 522.91 120.975 525.17 122.215 527.63C122.365 527.92 122.486 528.23 122.586 528.55C124.846 535.82 128.326 540.81 132.726 547.12C134.396 549.51 136.116 551.98 137.896 554.76C138.026 554.94 138.136 555.13 138.246 555.33C138.306 555.44 138.376 555.55 138.436 555.66C138.536 555.83 138.636 555.99 138.736 556.17C138.856 556.38 138.966 556.6 139.056 556.83C143.496 565.23 149.816 582.85 143.676 593.19C141.676 596.56 137.586 600.57 129.436 600.57L129.416 600.51ZM101.426 562.1C103.596 562.75 105.656 563.67 107.646 564.68C106.416 561.64 105.516 558.78 104.636 555.99C103.506 552.41 102.436 549.03 100.706 545.29C100.666 545.21 100.636 545.13 100.606 545.06C99.4355 542.21 97.9055 540.2 96.1355 537.88C93.6055 534.57 90.7455 530.82 89.2655 524.71C89.2455 524.65 89.2355 524.59 89.2255 524.52C88.0555 518.94 87.4955 513.16 86.9455 507.56C86.2555 500.49 85.5956 493.81 83.8356 487.62C83.8056 487.5 83.7755 487.39 83.7455 487.27C83.1955 484.74 82.4655 482.15 81.6955 479.4C80.4455 474.94 79.1455 470.33 78.5055 465.57C78.4855 465.45 78.4755 465.33 78.4655 465.2C75.0855 465.2 71.8055 464.73 68.7355 464.08C66.8955 477.06 69.0255 485.81 71.8255 497.35C72.9755 502.07 74.2655 507.42 75.3755 513.51C75.4255 513.78 75.4555 514.04 75.4655 514.31C75.9855 525.72 72.4255 533.37 68.6555 541.47C67.8855 543.13 67.0855 544.84 66.3155 546.62C66.2655 546.74 66.2055 546.87 66.1355 546.99C64.8255 549.51 64.0855 552 63.3155 554.64C62.8955 556.06 62.4555 557.56 61.9055 559.09C64.7455 559.33 67.5355 559.66 70.2655 559.98C73.6755 560.38 76.9055 560.76 80.2255 560.98C80.5755 560.99 80.9155 561 81.2555 561C82.8655 561 84.4355 560.87 86.1055 560.73C87.8655 560.58 89.6755 560.43 91.6055 560.43C95.1755 560.43 98.3055 560.96 101.446 562.09L101.426 562.1ZM36.3655 441.43C36.3655 441.43 36.3655 441.36 36.3655 441.33C36.3555 441.33 36.3456 441.34 36.3356 441.35C36.3456 441.37 36.3555 441.4 36.3655 441.43ZM73.7355 429.95C75.3955 432.96 76.0555 436.24 75.6055 439.31C75.7655 439.29 75.9055 439.26 76.0155 439.24C76.1555 439.14 76.3056 439.05 76.4556 438.96C77.3756 438.43 78.2955 437.15 79.2555 435.74C79.0255 433.57 78.4556 431.71 77.7756 429.69C77.4356 429.61 77.0655 429.57 76.6355 429.57C75.7855 429.57 74.7955 429.72 73.7355 429.94V429.95ZM29.7255 381.87C29.7555 381.94 29.7856 382.01 29.8356 382.1C29.8356 382 29.8356 381.9 29.8356 381.8C29.7956 381.82 29.7655 381.85 29.7355 381.87H29.7255ZM67.2655 370.47C69.3555 374.17 69.0855 377.64 68.8155 379.9C68.9755 379.89 69.1056 379.87 69.2056 379.85C70.1656 379.45 71.0755 378.46 71.9755 377.24C71.7755 376.56 71.5755 375.88 71.3755 375.2C70.8855 373.52 70.3755 371.81 69.9055 370.08C69.1255 370.1 68.2255 370.26 67.2655 370.46V370.47ZM65.2255 312.15C64.8755 314.17 64.4655 316.04 64.0755 317.88C63.2355 321.8 62.4355 325.51 62.2355 330.25C62.2355 330.31 62.2355 330.37 62.2255 330.43C61.9955 333.58 62.6156 336.07 63.3356 338.95C63.6656 340.28 64.0155 341.68 64.2855 343.19C65.6055 342.94 66.9455 342.72 68.3155 342.53C68.6755 339.08 68.8756 336.41 68.8956 331.3C68.9056 328.13 68.1555 325.69 67.2855 322.85C66.3455 319.81 65.3155 316.44 65.2355 312.14L65.2255 312.15ZM66.2155 298.97C66.2355 299.63 66.2555 300.32 66.2655 301.02C66.3655 300.26 66.4655 299.49 66.5655 298.72C66.4455 298.81 66.3255 298.89 66.2155 298.96V298.97ZM117.406 277.7C118.996 280.42 119.556 283.19 119.846 285.33C120.466 285.08 121.226 284.75 122.126 284.33C123.856 283.33 125.596 282.62 127.016 282.04C127.016 282.04 127.026 282.04 127.036 282.04C126.646 281.54 126.346 280.99 126.136 280.39L125.416 278.38C124.556 277.77 123.315 277.28 121.215 277.28C120.045 277.28 118.756 277.43 117.406 277.69V277.7ZM60.0555 253.18C60.0455 253.05 60.0356 252.92 60.0256 252.79C60.0256 252.71 60.0155 252.62 60.0155 252.54C59.7755 245.96 60.6855 240.8 61.5555 235.81C62.2055 232.09 62.8155 228.58 62.9455 224.53C62.9455 224.44 62.9455 224.35 62.9555 224.26C63.1955 221.13 62.6255 218.64 61.9755 215.75C61.1255 211.98 60.1555 207.7 61.0555 202.02C61.4755 199.35 62.1655 196.28 62.8955 193.03C63.6955 189.46 64.5255 185.76 64.8855 183C65.1655 177.51 64.5455 171.92 63.8955 166C63.1055 158.79 62.2855 151.33 63.0955 143.64C63.1055 143.51 63.1255 143.39 63.1455 143.26C64.4255 135.21 67.0556 129.53 69.8356 123.51C71.0756 120.83 72.3556 118.06 73.5856 114.93C73.6356 114.8 73.6855 114.68 73.7455 114.55C74.6755 112.58 75.3455 110.28 76.0555 107.85C77.5955 102.55 79.3455 96.56 84.4855 91.93C87.3055 88.89 87.2356 86.8 87.2056 86.11C87.0156 80.71 79.5155 73.87 73.4955 68.38C70.3555 65.52 67.3855 62.81 65.0455 60.08C61.1255 56.15 58.6355 50.64 56.2355 45.31C54.3355 41.1 52.2455 36.46 49.9955 34.35C50.6855 39.56 52.6255 47.49 53.7155 51.95C55.8255 60.56 56.9055 65.18 56.6455 68.31C56.8255 74.34 56.0355 79.09 55.2655 83.68C54.6455 87.4 54.0555 90.91 54.0155 95.01C54.0155 95.09 54.0155 95.16 54.0155 95.24C53.8655 98.36 54.5355 100.9 55.3055 103.83C56.2755 107.54 57.3856 111.73 56.7756 117.19C56.7456 117.48 56.6855 117.77 56.6155 118.05C52.7355 132.8 55.0155 143.41 57.9055 156.84C58.9855 161.86 60.1055 167.05 60.9655 172.84C60.9955 173.06 61.0156 173.28 61.0256 173.51C61.2556 179.79 60.4455 184.71 59.6655 189.47C59.0455 193.23 58.4655 196.77 58.4255 200.9C58.4255 200.98 58.4255 201.05 58.4255 201.13C58.2755 204.26 58.9355 206.76 59.7055 209.64C60.6755 213.3 61.7855 217.46 61.1755 222.96C61.1555 223.1 61.1355 223.24 61.1155 223.38C59.3155 233.3 57.7855 243.71 60.0655 253.15H60.0856L60.0555 253.18Z" fill="#77B975"/>
<path d="M150.183 283.051C149.543 278.231 147.873 274.301 145.133 270.531L145.193 270.691C138.833 259.271 123.663 256.771 111.743 256.931C102.073 257.831 94.5433 263.901 84.6133 262.131C87.5033 252.291 83.8033 237.771 83.2933 230.121C84.9233 219.211 82.6533 208.531 82.3233 197.671C82.6633 190.851 84.6433 184.901 85.5533 178.211C86.1433 166.381 83.9333 158.981 88.6733 147.211H88.6933C88.7133 147.081 88.7233 146.961 88.7433 146.841C90.0033 138.451 89.2733 134.131 91.0333 126.821C94.5833 119.371 97.0233 110.801 102.373 104.601C114.343 73.6811 98.9233 68.0611 86.0033 45.0811C85.6833 44.6311 85.3833 44.1611 85.0233 43.7211L84.9333 43.7911C71.9433 31.8811 68.3133 21.6311 56.6333 10.7811C41.8133 -1.33891 29.7633 11.5211 30.1133 27.7511C27.8833 41.2211 34.0633 51.7711 30.6933 65.6711H30.6733C30.7033 65.9511 30.6733 66.2211 30.6933 66.5011H30.7333C32.2533 81.2711 34.3233 87.6611 33.0533 100.411C35.5933 114.121 36.2633 127.331 34.0033 141.111C34.1733 152.201 38.0833 160.171 35.1633 171.761C35.1633 172.291 35.1333 172.811 35.1633 173.361H35.2633C38.4133 194.071 37.1133 208.441 40.1933 227.981C38.5333 249.311 33.4033 269.991 59.1433 278.161C53.9933 281.141 48.6433 284.511 44.7333 289.261C44.7933 289.311 44.7333 289.291 44.7533 289.301C37.4833 300.021 41.4833 313.371 41.9933 324.491C40.8133 334.101 41.5633 343.501 43.3733 352.981C24.1133 351.571 -3.60672 378.921 9.31328 397.711C19.6533 411.531 31.0233 399.031 25.9033 386.851C22.4033 382.691 22.9733 378.191 28.0333 376.001C32.5533 373.201 36.7633 368.311 42.9533 366.761C42.7733 368.181 42.5933 369.601 42.4333 371.031C32.9833 376.321 33.9633 388.731 43.8733 392.631C45.6433 398.931 42.2833 405.621 43.5333 413.001C35.1033 413.301 30.1833 419.011 24.7733 424.261C14.5733 432.201 8.19333 445.341 15.9233 457.181C26.2633 471.001 37.6333 458.501 32.5133 446.321C29.0133 442.161 29.5833 437.661 34.6433 435.471C38.3133 433.211 41.3533 429.881 45.9133 427.611C46.1333 429.141 46.3333 430.891 46.3533 432.521C41.0033 437.191 40.9733 445.891 46.9633 449.901C50.2033 461.211 48.6233 472.321 47.7733 483.801C47.6533 491.251 49.9733 496.041 50.6933 503.461C48.8833 512.631 51.3033 525.001 49.2733 534.221C43.6933 544.971 40.0933 556.751 31.6233 565.901C26.8633 571.901 12.2033 581.781 16.8033 590.051C19.4433 592.301 24.4833 589.591 27.2033 592.241C45.3033 589.431 63.1733 577.271 82.0333 582.251C99.8133 580.871 110.183 588.071 125.933 594.181C147.733 597.551 139.813 570.621 133.493 559.031H133.523C133.343 558.701 133.153 558.401 132.983 558.091C126.473 547.911 120.333 541.421 116.853 530.221C113.883 524.301 109.413 519.061 107.523 512.811C105.103 504.831 106.583 497.901 106.133 490.381C104.313 480.831 102.963 473.811 104.233 463.291H104.253C104.223 463.121 104.223 462.961 104.213 462.791H104.193C103.013 452.841 101.023 448.291 100.193 441.881C106.433 431.921 107.773 417.021 96.0033 410.491C94.8233 400.391 97.9533 389.541 94.9733 379.741C99.1533 371.461 100.533 360.691 92.9833 353.761C90.5533 341.501 88.9133 334.931 89.5033 323.641C87.1533 311.561 84.8233 299.451 87.1133 287.201C90.5433 287.621 93.8433 288.391 96.8533 289.631C97.6733 289.501 98.6933 290.101 98.8933 290.761C102.463 308.211 124.283 312.711 139.033 304.631L139.053 304.661C139.233 304.541 139.643 304.271 139.783 304.201C146.683 300.021 151.453 291.081 150.183 282.981V283.051ZM85.3933 437.301C85.3933 437.361 85.3933 437.421 85.3933 437.481C83.6733 439.891 82.1433 442.651 79.4733 444.181C77.9833 445.851 68.9033 446.111 69.8733 443.181C66.4733 444.271 64.6033 441.291 70.0533 443.021C69.3033 442.601 68.8233 440.741 69.4933 439.441C71.0133 434.451 66.3933 428.121 61.3633 427.481C61.4433 426.801 61.5233 426.131 61.6133 425.461C68.9833 426.561 76.2233 420.681 82.7533 425.541C83.9133 429.111 85.3133 432.511 85.3933 437.291V437.301ZM82.3333 397.481C82.4333 397.431 82.5233 397.371 82.6233 397.311C82.6233 400.251 82.3033 403.851 81.9633 407.381C75.2433 407.681 69.3133 408.991 63.0933 410.831C63.0933 410.181 63.0533 408.951 63.0333 408.581C62.7233 405.141 62.0133 401.671 61.2133 398.211C67.9633 399.971 75.9933 400.781 82.3233 397.481H82.3333ZM58.1933 259.041C57.0333 259.151 55.8033 259.211 55.2233 257.911L55.2033 257.941C51.3333 246.401 53.1033 234.001 55.2233 222.351C56.1533 213.931 52.0433 209.381 52.4433 200.891C52.5333 190.931 55.4433 184.301 55.0533 173.781C51.9033 152.711 45.0433 138.551 50.8233 116.571C51.7533 108.231 47.6333 103.441 48.0333 94.9911C48.1333 85.0611 51.0533 78.5511 50.6533 68.1011C51.7433 61.8011 35.7733 18.9211 49.2333 27.3711C59.4333 29.3611 61.5633 48.3211 69.4733 56.0211C78.7233 66.9711 103.333 80.9111 88.7033 96.2711C82.6033 101.611 82.4933 110.171 79.2033 117.141C75.1733 127.421 70.7833 133.591 69.0933 144.291C67.7033 157.461 71.6133 170.551 70.8933 183.561C70.2033 189.121 67.8933 197.431 67.0133 202.991C65.6533 211.551 69.6233 216.171 68.9733 224.741C68.6533 234.811 65.6633 241.621 66.0433 252.341C66.2333 254.761 66.6333 257.201 67.1233 259.641C66.3633 259.551 65.8133 259.491 65.7933 259.491C62.9133 259.311 60.0433 259.271 58.1933 259.051V259.041ZM56.2833 330.011C56.7133 319.941 59.4933 314.381 60.2333 304.131H60.2933C60.3233 302.371 60.2933 300.191 60.2233 298.591C57.2833 295.641 70.6533 289.581 73.2733 288.401C73.6033 294.781 71.7433 303.541 71.3133 309.911C70.6833 318.481 74.9633 322.761 74.9233 331.331C74.9033 338.881 74.4733 341.571 73.7933 347.991C68.4733 348.421 63.7133 349.251 58.7533 350.721C59.4633 342.721 55.6833 338.261 56.2733 330.011H56.2833ZM56.4633 365.991C62.9633 366.631 68.7833 362.071 74.8733 365.211C75.9433 369.621 77.3633 374.011 78.5633 378.331C76.7033 381.111 74.7333 384.111 71.4733 385.431C69.8633 386.271 62.3333 386.321 63.2633 383.701C59.8533 384.791 57.9933 381.811 63.4433 383.541C60.5633 380.651 67.6533 374.661 56.2033 368.211C56.2733 367.491 56.3633 366.751 56.4533 365.991H56.4633ZM89.6333 485.991C93.0133 497.911 92.6033 511.251 95.1233 523.291C97.2433 532.041 102.873 534.671 106.193 542.781C110.453 552.041 111.033 559.211 116.163 568.641C117.263 570.491 117.663 570.881 117.853 570.721C120.073 570.971 124.703 576.051 120.593 577.061C113.413 575.981 106.623 569.861 99.5733 567.801C92.3433 565.131 86.8733 567.261 79.9233 566.981C71.5833 566.431 63.6633 564.901 55.2733 564.741C55.0833 564.491 54.4333 564.561 54.3033 564.421C40.6833 576.761 33.7633 574.391 52.8433 563.601C57.4233 557.581 57.1533 551.291 60.8333 544.231C65.3633 533.861 70.0433 526.681 69.4933 514.601C65.3633 491.881 58.7833 480.911 63.9933 456.681C70.4433 458.561 77.4633 460.091 84.1533 458.641C84.1533 460.331 84.3333 463.131 84.4733 464.781C85.4433 471.911 88.1233 479.101 89.6333 486.001V485.991ZM124.973 289.641C105.693 298.781 122.233 280.931 104.603 275.211C114.283 271.991 124.303 268.421 130.603 274.931L131.833 278.371C138.493 286.501 130.843 286.151 124.983 289.651L124.973 289.641Z" fill="#AFDEAE"/>
</svg>
