<svg width="90" height="635" viewBox="0 0 90 635" fill="none" xmlns="http://www.w3.org/2000/svg">
<path d="M54.49 634.23C42.35 634.23 31.56 627.6 25.62 616.49C25.14 615.6 24.9 614.6 24.91 613.59C24.96 608.76 24.03 604.06 23.03 599.09C21.19 591.65 22.18 584.32 23.14 577.24C23.6 573.86 24.0299 570.66 24.1299 567.6C23.9399 564.7 23.64 561.72 23.34 558.83C22.52 550.85 21.67 542.61 22.98 534.02C22.9 531.53 22.6 529.34 22.25 526.82C21.74 523.15 21.16 518.98 21.06 512.68C21.06 512.43 21.06 512.17 21.1 511.92C21.35 509.67 21.67 507.61 21.95 505.78C22.34 503.26 22.6699 501.1 22.7599 499.02C22.7499 499.02 22.73 499.02 22.72 499.02C13.55 499.02 6.43994 490.94 6.18994 480.23C6.13994 473.94 7.02994 469.08 7.87994 464.37C8.58994 460.48 9.24997 456.81 9.33997 452.53C9.33997 452.46 9.33997 452.39 9.33997 452.31C9.51997 449.11 8.87 446.61 8.12 443.71C7.18 440.07 6.09996 435.94 6.70996 430.42C6.73996 430.14 6.78999 429.87 6.85999 429.6C10.74 414.36 8.35998 403.73 5.34998 390.28C4.23998 385.31 3.08996 380.16 2.14996 374.36C2.10996 374.14 2.08996 373.91 2.07996 373.68C1.78996 367.26 2.55999 362.2 3.29999 357.31C3.87999 353.48 4.42995 349.86 4.44995 345.69C4.44995 345.61 4.44995 345.54 4.44995 345.46C4.57995 342.27 3.91997 339.77 3.15997 336.88C2.17997 333.17 1.06994 328.97 1.68994 323.33C1.71994 323.05 1.76998 322.76 1.84998 322.49C5.54998 308.22 4.02996 298.12 2.26996 286.43C1.29996 279.97 0.29 273.29 7.09178e-10 265.29C7.09178e-10 265.05 -4.15035e-05 264.82 0.0199585 264.58C0.899958 253.77 3.48999 238.08 15.74 226.68C19.61 222.83 25.9 218.75 32.06 218.75C36.84 218.75 40.84 221.12 43.31 225.42C43.44 225.65 43.56 225.9 43.66 226.14C46.82 233.91 46.54 242.41 46.28 250.63C46.13 255.22 45.99 259.56 46.48 263.36C47.12 267.88 48.11 272.43 49.17 277.24C50.61 283.82 52.1 290.63 52.64 297.62C52.64 297.75 52.66 297.88 52.66 298.01C52.74 304.48 51.77 309.55 50.83 314.45C50.11 318.24 49.42 321.82 49.25 325.96C49.25 326.04 49.25 326.11 49.24 326.19C48.98 329.38 49.56 331.9 50.22 334.83C51.06 338.55 52.02 342.76 51.21 348.33C51.17 348.61 51.11 348.89 51.03 349.16C46.59 364.29 48.4 374.96 50.7 388.47C51.57 393.57 52.46 398.84 53.1 404.8C53.12 405.03 53.1399 405.25 53.1299 405.48C53.0899 411.87 52.06 416.86 51.06 421.69C50.28 425.5 49.5399 429.09 49.3199 433.27C49.3199 433.35 49.32 433.42 49.3 433.5C49.01 436.69 49.56 439.22 50.2 442.15C51.01 445.86 51.92 450.06 51.08 455.61C51.04 455.89 50.98 456.16 50.9 456.43C46.35 471.61 48.17 482.31 50.48 495.85C51.34 500.87 52.22 506.07 52.87 511.94C52.89 512.17 52.91 512.39 52.91 512.62C52.88 518.96 51.89 523.91 50.93 528.7C50.16 532.53 49.44 536.14 49.25 540.35C49.25 540.42 49.25 540.5 49.24 540.57C48.98 543.77 49.56 546.29 50.23 549.21C51.08 552.89 52.03 557.05 51.27 562.57C51.24 562.76 51.21 562.96 51.16 563.15C47.74 577.39 47.7899 587.93 51.5099 600.89C51.9899 601.19 52.56 601.49 53.17 601.81C53.57 602.02 53.97 602.23 54.36 602.45C54.48 602.51 54.59 602.58 54.7 602.66C57.02 604.16 58.6399 604.92 59.5099 604.92C59.6499 604.92 59.81 604.84 59.98 604.71C60.09 603.54 59.85 602.11 59.48 600.13C58.88 596.89 58.13 592.86 59.37 588.17C59.4 588.05 59.44 587.94 59.47 587.82C64.32 573.12 62.34 562.1 59.84 548.16C58.97 543.33 58.08 538.34 57.41 532.86C57.38 532.64 57.37 532.41 57.37 532.19C57.32 525.87 58.25 520.91 59.14 516.12C59.86 512.28 60.54 508.65 60.67 504.43C60.67 504.36 60.67 504.28 60.68 504.21C60.9 501.02 60.29 498.5 59.59 495.59C58.7 491.91 57.69 487.74 58.4 482.19C58.44 481.91 58.4899 481.63 58.5699 481.36C62.7499 466.17 60.63 455.45 57.95 441.88C56.97 436.9 55.95 431.74 55.16 425.95C55.13 425.72 55.11 425.5 55.11 425.27C54.97 418.91 55.8399 413.91 56.6899 409.07C57.3599 405.23 57.99 401.61 58.09 397.41C58.09 397.33 58.09 397.26 58.09 397.18C58.28 393.98 57.65 391.47 56.92 388.57C56 384.89 54.95 380.72 55.61 375.16C55.64 374.88 55.7 374.61 55.77 374.34C59.82 359.06 57.6699 348.45 54.9399 335.01C53.9199 329.98 52.86 324.78 52.03 318.89C52 318.67 51.98 318.44 51.97 318.21C51.8 311.84 52.66 306.83 53.49 301.98C54.14 298.15 54.76 294.52 54.84 290.33C54.84 290.25 54.84 290.18 54.84 290.1C55.02 286.9 54.38 284.4 53.64 281.49C52.7 277.81 51.64 273.64 52.29 268.07C52.32 267.79 52.37 267.52 52.45 267.24C56.46 251.96 54.29 241.36 51.54 227.94C50.8 224.33 50.05 220.64 49.37 216.66C49.34 216.66 49.31 216.66 49.29 216.66C44.57 216.66 40.33 214.78 36.59 213.11C35.33 212.55 34.13 212.01 33.06 211.62C31.64 211.38 30 211.27 27.93 211.27C26.64 211.27 25.35 211.31 24.06 211.35C22.64 211.39 21.23 211.43 19.81 211.43C16.78 211.43 12.82 211.27 8.78998 210.01C8.53998 209.94 8.28998 209.86 8.03998 209.76C7.99998 209.75 7.93999 209.72 7.92999 209.72C7.24999 209.48 6.62997 209.13 6.08997 208.67C1.52997 205.25 -0.0300317 199.05 2.02997 192.33C3.95997 186.04 9.14997 179.7 16.41 179.7C17.01 179.7 17.61 179.75 18.2 179.84C18.84 179.89 19.4699 180.04 20.0699 180.3C20.1299 180.32 20.1899 180.35 20.2599 180.38C21.0099 180.7 21.6899 181.18 22.2599 181.77C24.8099 184.11 25.53 184.14 28.27 184.28C30.04 184.37 32.2499 184.47 35.1899 185.13C35.7999 185.27 36.3899 185.5 36.9399 185.82C41.1499 188.31 43.37 188.82 45.4 188.82C46.94 188.82 48.77 188.53 51.05 188.15C51.19 186.71 51.31 185.05 51.43 182.98C51.61 179.78 50.97 177.28 50.23 174.37C49.29 170.69 48.23 166.52 48.89 160.94C48.97 160.24 49.07 159.51 49.18 158.76C32.29 158.34 19.95 140.35 18.15 123.67C16.74 110.62 21.67 100.13 31.33 94.49C26.02 87.5 23.17 79.06 20.58 71.37C19.44 68 18.37 64.82 17.14 61.83C13.68 53.2 13.99 44.66 14.29 36.4C14.45 31.92 14.6 27.68 14.15 23.6C14.08 22.99 14.11 22.39 14.22 21.8C15.79 8.53 26.48 0 41.61 0C53.33 0 64.91 5.19 71.12 13.23C75.85 19.35 77.2999 26.58 75.3199 34.14C75.2799 34.27 75.25 34.41 75.2 34.54C72.12 43.67 73.37 53.63 74.68 64.17C74.87 65.67 75.05 67.16 75.23 68.64C75.28 69.06 75.28 69.49 75.24 69.92C74.41 78.41 74.65 84.87 76.18 93.89C78.04 95.88 79.5499 97.94 80.6899 100.03C88.1399 113.39 81.71 128.24 77.58 137.39C75.63 146.85 76.39 156.3 77.2 166.29C77.65 171.91 78.12 177.68 78.08 183.57C83.2 185.28 87.19 190.28 88.34 196.87C89.67 204.51 86.43 211.19 80.27 213.7C80.09 215.44 79.7799 217.06 79.5099 218.51C79.2199 220.03 78.93 221.59 78.97 222.39C79.14 225.15 79.59 227.56 80.06 230.11C80.76 233.92 81.4899 237.86 81.2599 242.88C81.2399 243.22 81.2 243.57 81.12 243.9C79.02 253.37 79.79 262.82 80.61 272.83C81.22 280.23 81.85 287.87 81.27 295.73C81.41 298.29 81.79 300.52 82.22 303.09C82.84 306.73 83.5299 310.86 83.8199 317.12C83.9299 320.56 83.35 323.49 82.89 325.84C82.6 327.32 82.32 328.71 82.37 329.5C82.54 332.29 82.98 334.69 83.45 337.24C84.15 341.05 84.87 345 84.62 350.03C84.46 353.39 84.03 356.52 83.62 359.55C83.15 362.99 82.71 366.25 82.68 369.61C82.92 372.6 83.28 375.55 83.66 378.67C84.6 386.43 85.58 394.44 84.54 402.82C84.65 403.67 84.77 404.57 84.9 405.52C86.08 414.26 87.84 427.33 85.52 437.55C85.71 439.98 86.09 442.15 86.5 444.44C87.18 448.26 87.88 452.22 87.6 457.26C87.41 460.64 86.97 463.78 86.53 466.81C86.04 470.24 85.57 473.49 85.52 476.84C85.74 479.82 86.08 482.88 86.42 485.84C87.31 493.71 88.24 501.84 87.06 510.35C87.17 512.83 87.5 515.01 87.89 517.52C88.45 521.19 89.09 525.36 89.27 531.68C89.32 535.14 88.68 538.07 88.17 540.43C87.85 541.9 87.55 543.29 87.58 544.08C87.69 546.85 88.06 549.25 88.46 551.79C89.07 555.67 89.7 559.68 89.3 564.79C89.02 568.31 88.46 571.56 87.92 574.7C87.33 578.13 86.77 581.37 86.6 584.76C86.45 587.73 86.73 590.73 87.03 593.9C87.41 597.94 87.81 602.12 87.37 606.72C87.35 606.93 87.32 607.14 87.28 607.35C84.07 623.15 70.63 634.19 54.6 634.19L54.49 634.23ZM44.8799 121.83C44.9699 122.28 45.1 122.82 45.28 123.47C45.33 123.67 45.38 123.87 45.41 124.07C46.11 128.26 47.22 130.38 47.83 131.16C48.22 130.96 48.9 130.52 49.86 129.59C49.32 126.95 48.7899 124.38 48.2599 121.84C47.9099 121.92 47.55 121.98 47.17 122.02C46.96 122.04 46.74 122.05 46.53 122.05C46.02 122.05 45.5099 121.98 45.0099 121.86C44.9699 121.86 44.9199 121.84 44.8799 121.84V121.83ZM42.1 48.51C44.32 52.98 44.96 57.74 45.58 62.34C46.03 65.7 46.45 68.87 47.46 71.59C47.49 71.67 47.52 71.75 47.54 71.83C47.71 72.37 47.93 72.9 48.2 73.42C48.07 71.27 47.6 69.33 47.08 67.18C46.18 63.46 45.15 59.25 45.89 53.63C46.21 51.36 46.71 48.9 47.24 46.3C48.13 41.94 50.18 31.85 48.78 29.39C48.68 29.37 48.52 29.36 48.28 29.36C47.48 29.36 45.69 29.57 42.43 30.91C42.43 30.91 42.42 30.91 42.41 30.92C40.79 37.21 39.84 43.5 42.09 48.51H42.1Z" fill="#77B975"/>
<path d="M83.22 564.331C83.81 556.811 81.78 551.841 81.49 544.331C81.36 540.971 83.25 536.88 83.18 531.86C82.88 521.18 81.17 516.95 80.96 510.05C82.63 498.91 80.21 488.08 79.44 477.03C79.51 470.08 81.15 463.891 81.53 456.951C81.94 449.451 79.81 444.55 79.39 437.05C82.11 426.52 79.48 411.381 78.41 402.831C79.96 391.691 77.46 380.88 76.6 369.85C76.62 362.9 78.22 356.71 78.55 349.76C78.92 342.26 76.76 337.37 76.31 329.88C76.11 326.53 77.91 322.41 77.76 317.41C77.27 306.76 75.5 302.571 75.19 295.671C76.59 277.811 71.22 260.49 75.19 242.62C75.54 235.13 73.38 230.24 72.91 222.75C72.71 219.19 74.83 214.08 74.27 209.01C75.28 208.85 76.76 208.54 77.64 208.27C87.08 204.89 81.74 186.1 71.84 189.31C71.84 189.31 71.81 189.31 71.8 189.32C73.13 171.15 67.84 153.61 71.78 135.52C76.35 125.43 81.25 113.48 75.35 102.9C74.12 100.63 72.39 98.5605 70.53 96.7805C68.67 86.5605 68.24 79.1305 69.2 69.3405C67.78 57.1605 65.45 44.4905 69.45 32.6305C76.59 5.29049 22.92 -5.91951 20.07 22.9405C20.07 22.9405 20.09 22.9405 20.05 22.9405C21.39 35.1205 17.92 47.7805 22.62 59.5405C27.87 72.2905 30.31 88.0105 41.93 96.7705C6.49999 104.51 29.57 162.12 56.39 151.44C55.79 155.07 55.12 158.73 54.78 161.62C53.77 170.18 57.83 174.68 57.35 183.29C57.1 187.76 56.8 190.52 56.38 193.34C46.43 194.78 43.32 196.57 33.83 190.97C26.31 189.3 24.3 191.94 17.84 185.9C17.77 185.88 17.72 185.83 17.66 185.8L17.64 185.84C9.71995 184.02 3.16 199.49 9.87 204.03C9.99 204.09 10.12 204.13 10.24 204.18C18.04 206.72 26.66 204.28 34.54 205.77C40.64 207.84 47.91 213.19 54.49 209.17C54.49 209.6 54.49 210.77 54.5 210.9C57.57 232.56 64.14 246.12 58.21 268.73C57.21 277.29 61.27 281.791 60.79 290.391C60.6 300.481 57.64 307.28 57.92 318C60.97 339.67 67.51 353.22 61.52 375.82C60.5 384.38 64.54 388.88 64.03 397.49C63.81 407.58 60.82 414.371 61.06 425.081C64 446.631 70.47 460.501 64.32 482.891C63.23 491.431 67.24 495.97 66.64 504.56C66.32 514.64 63.26 521.381 63.34 532.081C65.9 553.211 72.26 568.071 65.14 589.651C63.35 596.441 67.41 601.8 65.41 607.61C61.13 612.92 56.37 610.83 51.42 607.63C50.36 607.04 49.22 606.491 48.17 605.831C47.74 606.051 47.17 606.07 46.68 605.63C41.62 589.82 41.45 577.75 45.3 561.69C46.48 553.18 42.53 548.601 43.23 540.021C43.69 529.931 46.84 523.251 46.89 512.531C44.51 490.781 38.43 477.031 45.14 454.641C46.44 446.121 42.54 441.49 43.32 432.9C43.85 422.82 47.05 416.111 47.12 405.391C44.79 383.641 38.68 369.831 45.26 347.421C46.5 338.871 42.56 334.27 43.25 325.66C43.67 315.56 46.78 308.78 46.65 298.03C45.77 286.61 42.12 275.421 40.52 264.081C39.08 252.891 42.44 239.02 38.1 228.35C33.8 220.85 24.32 226.51 19.9 230.95C10.29 239.85 7.06 251.96 6 265.01C6.82 287.47 13.75 300.48 7.66998 323.93C6.70998 332.55 10.82 337.02 10.46 345.65C10.42 355.76 7.58996 362.62 8.07996 373.35C11.53 394.84 18.4 408.49 12.67 431.02C11.73 439.56 15.82 444.02 15.32 452.6C15.11 462.67 12.09 469.37 12.17 480.04C12.42 490.79 21.13 495.79 27.96 491.34C29.85 498.68 28 504.121 27.06 512.531C27.23 523.201 28.88 527.45 29 534.36C27.18 545.49 29.46 556.36 30.15 567.44C29.89 577.37 26.43 587.931 28.9 597.711C29.95 602.981 30.98 608.09 30.92 613.6C43.35 636.84 76.3 630.74 81.3 606.13C82.01 598.61 80.14 591.77 80.51 584.44C80.86 577.44 82.67 571.27 83.22 564.3V564.331ZM41.83 73.6305C39.13 66.3005 40.02 57.6705 36.69 51.0505C33.05 43.1005 35.32 33.7905 37.6 25.7605C38.16 25.4805 38.94 26.0305 39.44 25.6705L39.42 25.6305C63.08 15.4005 53.67 41.6005 51.84 54.3705C50.71 62.9605 54.73 67.5105 54.18 76.1205C53.91 80.3705 53.61 83.0705 53.21 85.7505C48.19 82.9105 43.66 79.3005 41.83 73.6305ZM55.09 132.77C46.07 142.55 41.12 134.79 39.49 125.02C37.6 118.14 38.58 114.34 46.53 116C48.58 115.79 50.6 113.61 52.46 112.7C53.83 119.07 55.11 125.2 56.38 131.52C55.93 131.95 55.49 132.36 55.09 132.77ZM28.6 433.59C27.54 428.13 27.44 422.41 28.14 416.96C28.96 422.47 29.57 427.99 28.6 433.59ZM28.68 396.71C27.6 390.85 25.73 384.65 27.49 378.06C27.69 383.98 30.07 390.2 28.68 396.71ZM29.88 460.54C29.71 458.78 29.63 456.871 29.74 455.081C29.89 456.901 29.98 458.72 29.88 460.54ZM27.77 370.65C25.98 356.92 24.18 350.731 25.33 338.581C22.76 324.941 22.2 311.68 24.85 298.03C25.22 287.38 21.38 279.47 25.5 268.74C25.61 268.02 25.74 267.3 25.79 266.54H25.72C25.8 265.78 25.87 265.081 25.88 264.831C24.63 264.321 23.72 258.25 25.86 261.93C29.16 254.24 29.04 262.74 26.25 265.04C25.63 272.81 27.99 278.22 28.43 286.01C28.61 289.35 26.76 293.43 26.84 298.4C27.92 313.64 29.9 319.28 28.15 332.24C29.83 345.13 30.8 357.89 27.77 370.65Z" fill="#AFDEAE"/>
</svg>
