<svg width="377" height="228" viewBox="0 0 377 228" fill="none" xmlns="http://www.w3.org/2000/svg">
<path d="M98.7424 227.15C95.2624 227.15 92.0824 226.59 89.0024 226.04C86.6324 225.62 84.4024 225.23 82.2624 225.14C80.9024 225.09 79.5524 225.06 78.2224 225.03C68.1024 224.77 58.5524 224.53 47.7024 218.43C47.5524 218.35 47.4024 218.25 47.2624 218.16C12.7824 194.64 -5.1176 152.57 1.2824 110.52C1.1024 109.54 1.1724 108.52 1.4924 107.56C3.3224 102.06 5.7424 96.95 8.0924 92C10.7324 86.44 13.2224 81.19 14.6624 75.85C14.7024 75.72 14.7324 75.59 14.7824 75.46C19.7724 61 32.2824 51.38 43.3224 42.89C44.7424 41.8 46.1524 40.71 47.5224 39.64C50.0024 37.63 52.4524 35.39 55.0324 33.01C60.3824 28.11 65.9024 23.04 72.7024 19.34C72.9424 19.21 73.1824 19.1 73.4324 19C88.4524 13.28 104.532 7.61 121.412 6.56C122.232 6.49 123.072 6.45999 123.912 6.45999C131.532 6.45999 138.562 9.31001 144.762 11.82C145.992 12.32 147.212 12.81 148.422 13.28C150.192 13.78 151.952 14.24 153.712 14.7C162.112 16.89 170.792 19.16 178.762 24.88C178.912 24.99 179.052 25.1 179.192 25.22C186.412 31.46 193.252 38.18 199.872 44.67C206.522 51.2 213.402 57.95 220.612 64.16C220.742 64.27 220.862 64.39 220.982 64.51C224.882 68.5 227.502 73.05 230.022 77.46C231.192 79.49 232.292 81.42 233.492 83.23C235.402 85.91 237.472 88.53 239.462 91.07C243.292 95.94 247.252 100.98 250.592 106.87C253.472 111.31 254.762 116.23 255.902 120.57C256.532 122.95 257.122 125.21 257.892 127.09C259.292 129.98 260.852 132.61 262.492 135.39C264.322 138.49 266.212 141.69 267.892 145.28C271.212 150.81 272.562 159.49 273.982 168.66C274.832 174.17 275.722 179.86 276.992 184.22C277.532 186.08 278.052 187.38 278.502 188.28C280.262 185.57 282.402 180.64 283.692 177.66C285.482 173.52 287.182 169.61 289.092 166.81C289.192 166.67 289.292 166.53 289.402 166.39C297.872 156.06 299.412 151.05 301.752 143.46C303.012 139.38 304.432 134.76 307.092 128.57C307.142 128.45 307.192 128.34 307.252 128.22C309.042 124.68 310.982 121.42 312.852 118.27C315.572 113.69 318.142 109.37 320.122 104.5C321.722 100.56 322.682 96.31 323.602 91.82C321.902 93.39 320.072 94.86 318.052 96.19C317.962 96.25 317.862 96.31 317.762 96.37C307.262 102.48 293.382 109.49 279.122 109.49C271.642 109.49 264.592 107.57 258.192 103.79C249.702 98.71 241.692 89.6 244.572 79.2C246.652 71.66 253.872 66.79 262.972 66.79C267.492 66.79 272.202 67.96 276.982 70.26C277.252 70.39 277.522 70.54 277.772 70.72C281.462 73.25 285.062 74.53 288.472 74.53C295.312 74.53 301.932 69.2 306.622 59.91C306.782 59.59 306.972 59.29 307.192 59C310.452 54.68 314.502 50.88 318.422 47.2C322.822 43.07 326.982 39.17 329.842 34.82C329.902 34.73 329.962 34.64 330.022 34.56C331.982 31.9 333.452 28.01 335.012 23.89C337.922 16.2 341.232 7.48001 349.312 2.35001C349.482 2.24001 349.662 2.13999 349.842 2.04999C352.572 0.689988 355.332 0 358.062 0C362.492 0 366.592 1.78999 369.912 5.17999C374.162 9.51999 376.742 16.29 376.682 22.9C377.112 29.45 376.822 35.15 375.742 41.36C375.722 41.46 375.702 41.56 375.682 41.66C373.502 51.24 370.052 58.11 366.702 64.75C364.532 69.05 362.292 73.5 360.372 78.79C360.342 78.86 360.312 78.94 360.282 79.01C358.472 83.42 358.022 87.31 357.542 91.42C356.942 96.6 356.252 102.46 352.742 109.2C350.972 112.58 348.532 116.59 346.162 120.47C343.512 124.81 340.772 129.3 339.032 132.82C336.052 140.04 334.202 147.68 332.242 155.76C329.862 165.58 327.402 175.74 322.712 185.37C322.642 185.51 322.572 185.64 322.492 185.77C313.462 201.21 292.982 224.18 273.592 224.18C265.842 224.18 255.232 220.49 248.722 202.91C248.642 202.7 248.582 202.49 248.532 202.28C247.232 197.06 246.732 191.56 246.252 186.24C245.452 177.38 244.702 169.01 240.522 162.37C240.452 162.25 240.382 162.13 240.312 162.01C236.972 155.77 233.032 150.01 228.852 143.91C224.522 137.59 220.052 131.06 216.332 123.97C216.282 123.88 216.242 123.78 216.192 123.69C213.952 118.8 212.342 114.42 210.932 110.55C208.362 103.53 206.332 97.96 201.532 91.4C199.222 88.93 196.642 86.77 193.912 84.48C188.672 80.09 183.252 75.54 179.382 68.52C170.952 52.96 153.452 45.08 127.342 45.08C126.692 45.08 126.052 45.08 125.402 45.09C125.372 45.09 125.342 45.09 125.312 45.09C125.042 45.09 124.772 45.07 124.502 45.04C115.012 43.75 108.982 43.06 104.312 43.06C94.8324 43.06 91.3124 45.65 76.2524 57.88L73.7624 59.9C73.3124 60.26 72.8124 60.56 72.2824 60.78C49.0024 70.42 42.6624 86.27 39.2124 113.78C39.4024 114.64 39.4024 115.54 39.2124 116.41C38.6124 119.05 37.8924 121.76 37.1924 124.38C33.9024 136.75 30.7924 148.43 37.7424 157.36C37.9424 157.62 38.1224 157.9 38.2824 158.19L39.2324 159.94C53.5924 186.48 57.1524 192.1 72.0424 192.09C77.7724 192.09 85.1924 191.14 96.7724 188.93C97.2324 188.78 97.7124 188.69 98.1924 188.66C101.092 188.47 103.942 188.37 106.702 188.28C123.632 187.69 133.542 186.73 140.412 173.85C140.722 173.26 141.132 172.73 141.622 172.28C162.782 152.61 163.872 138.47 146.302 111.75C146.162 111.54 146.032 111.31 145.922 111.08C136.792 95.34 132.342 89.39 122.472 89.39C118.992 89.39 114.832 90.11 109.752 91.6C109.232 91.75 108.682 91.83 108.142 91.84C99.9124 91.94 93.2524 95.1 88.3624 101.23C81.8324 109.41 79.2924 122.47 81.8824 134.49C81.9724 134.92 82.0224 135.36 82.0124 135.8C81.9624 141.71 84.0224 147.34 87.5224 150.87C89.8124 153.18 92.4724 154.35 95.4124 154.35C97.3724 154.35 99.4624 153.83 101.632 152.8C102.022 152.62 102.432 152.47 102.852 152.38C107.042 151.41 118.082 148.85 121.532 142.89C123.102 138.76 122.942 136.94 122.842 136.44C122.552 136.33 121.902 136.18 120.782 136.18C118.932 136.18 115.552 136.59 109.952 138.55C109.432 138.73 108.902 138.84 108.372 138.87C107.342 139 106.312 139.07 105.302 139.07C94.5524 139.07 85.6224 131.42 84.5324 121.27C83.7424 113.95 87.5024 104.4 100.582 101.32C100.762 101.26 100.942 101.21 101.132 101.17C101.212 101.15 101.292 101.14 101.372 101.12C101.782 101.02 102.202 100.97 102.622 100.96C105.042 100.79 107.412 100.71 109.682 100.71C123.892 100.71 135.052 103.96 142.852 110.37C150.152 116.37 154.002 124.73 154.002 134.54C154.002 159.2 129.172 186.79 95.9324 186.79C94.0024 186.79 92.0424 186.7 90.1024 186.51C89.7324 186.47 89.3624 186.4 89.0024 186.3C71.8324 181.33 56.4624 169.63 48.8724 155.78C43.4324 145.85 42.1724 135.11 45.2324 124.73C45.2624 124.62 45.3024 124.51 45.3424 124.39C46.8524 120.2 47.9124 116 48.9424 111.93C51.3424 102.44 53.8224 92.62 61.8924 83.54C62.0024 83.42 62.1124 83.3 62.2324 83.19C75.1224 70.85 98.4724 56.44 121.882 56.44C124.392 56.44 126.872 56.61 129.252 56.95C129.642 57 130.022 57.1 130.382 57.22C139.432 60.37 169.842 72.44 181.002 95.46C181.192 95.85 181.332 96.26 181.442 96.68C182.582 101.42 183.752 105.75 184.892 109.93C190.682 131.21 195.252 148.02 179.452 173.92C178.282 175.85 177.152 177.81 175.942 179.89C170.192 189.83 164.232 200.11 154.272 207.33C154.042 207.5 153.802 207.65 153.552 207.78C138.972 215.48 121.852 223.92 102.922 226.77C102.662 226.84 102.392 226.89 102.122 226.92C101.032 227.05 99.8924 227.11 98.7424 227.11V227.15Z" fill="#77B975"/>
<path d="M370.677 23.0677C370.887 13.2677 363.427 1.97771 352.527 7.41771C342.137 13.9977 341.207 29.4877 334.857 38.1177C328.857 47.2377 318.407 54.0877 311.977 62.6077C304.267 77.8877 290.237 86.5277 274.377 75.6677C252.807 65.2577 239.197 85.4277 261.247 98.6177C279.187 109.208 298.617 100.558 314.757 91.1777C326.137 83.6677 331.407 70.5077 339.777 60.2677C338.557 66.8777 334.857 72.7177 332.767 79.0577C329.917 88.0977 329.277 97.8977 325.697 106.748C322.127 115.568 316.877 122.528 312.617 130.928C305.007 148.688 307.847 153.358 294.047 170.188C289.247 177.208 284.417 196.568 277.577 195.798C267.477 191.478 269.287 158.658 262.617 148.118C259.577 141.508 255.647 136.188 252.437 129.538C249.937 123.578 249.427 115.938 245.477 109.978C240.627 101.358 234.237 94.5777 228.557 86.6077C224.597 80.6477 221.767 73.8677 216.697 68.6877C202.147 56.1577 189.587 42.1177 175.267 29.7377C166.557 23.4877 156.577 21.8077 146.537 18.9677C138.757 15.9977 130.527 11.7777 121.857 12.5277C105.897 13.5077 90.3873 18.9477 75.5773 24.5877C66.3373 29.6177 59.3073 37.7977 51.2273 44.3377C39.5673 53.4977 25.4473 62.9177 20.4573 77.3977C17.5273 88.2277 10.9173 98.2077 7.18734 109.428L7.52734 109.498C0.67734 149.588 17.1873 190.358 50.6473 213.178C61.4773 219.278 70.5573 218.718 82.4973 219.128C88.8273 219.388 94.8873 221.738 101.417 220.978V220.948C119.007 218.428 135.287 210.668 150.747 202.498C161.617 194.618 167.547 182.018 174.327 170.818C191.617 142.498 182.667 127.588 175.607 98.0977C167.377 81.1277 145.787 68.9477 128.407 62.9077C106.747 59.8477 81.6373 72.9277 66.3773 87.5377C56.0573 99.1577 56.1273 112.158 50.9873 126.438C43.3973 152.198 68.1573 174.028 90.6673 180.548C147.507 185.998 179.197 101.468 102.737 106.978C102.627 107.008 102.507 107.018 102.397 107.038V107.058C82.0573 111.478 90.1073 135.478 107.957 132.878C121.067 128.298 133.837 127.828 126.967 145.428C122.797 153.308 111.847 156.458 104.187 158.228C88.0173 165.898 75.8573 151.578 75.9873 135.748C71.1173 113.138 81.7873 86.1477 108.047 85.8377C132.967 78.5477 139.437 87.9377 151.307 108.438H151.297C169.257 135.748 170.427 153.678 145.687 176.668C135.317 196.118 117.497 193.418 98.5673 194.648V194.698C54.9773 203.098 52.6673 197.378 32.9973 161.058C22.4373 147.488 29.9273 130.138 33.3573 115.088L33.0173 115.018C36.2873 87.4177 42.2773 66.7177 69.9873 55.2577C93.7673 35.9877 93.7973 34.8377 125.317 39.1077C148.017 38.7677 172.897 43.9677 184.637 65.6377C189.907 75.2077 199.027 79.8577 206.157 87.5877C214.557 98.9377 215.537 107.918 221.637 121.198C228.617 134.518 238.467 145.898 245.587 159.198C253.317 171.488 251.037 187.618 254.337 200.848C268.657 239.548 304.587 204.498 317.297 182.758C325.427 166.058 326.557 147.178 333.547 130.358C336.987 123.338 343.757 113.418 347.407 106.448C353.017 95.6977 350.147 87.8877 354.717 76.7477C359.767 62.8977 366.427 55.2677 369.817 40.3477C370.827 34.5877 371.087 29.2277 370.667 23.0777L370.677 23.0677Z" fill="#AFDEAE"/>
</svg>
