<svg width="399" height="190" viewBox="0 0 399 190" fill="none" xmlns="http://www.w3.org/2000/svg">
<path d="M227.72 189.1C220.9 189.1 213.39 186.9 205.78 182.69C201.02 186.26 195.57 188.06 189.52 188.06C182.91 188.06 175.84 185.96 167.51 181.5C163 184.83 157.2 186.57 150.48 186.57C134.63 186.57 117.59 176.88 111.69 164.5C109.42 159.73 108.81 154.82 109.84 150.06C108.97 150.21 108.1 150.37 107.21 150.53C102.89 151.31 98.4205 152.11 93.7105 152.11C91.0705 152.11 88.6205 151.86 86.2305 151.35C86.0105 151.31 85.7905 151.26 85.5705 151.19L85.2005 151.09C84.8705 151 84.5505 150.89 84.2505 150.76C71.2005 145.79 59.0605 131.17 54.6405 115.02C52.6905 107.9 52.4705 101.14 53.9205 95.14C51.0705 95.75 48.1905 96.43 45.2405 97.12C37.1605 99.02 28.8105 100.98 20.1905 101.71C20.0205 101.72 19.8505 101.73 19.6805 101.73C19.5605 101.73 19.4505 101.73 19.3305 101.72C6.86048 101.72 0.0604836 91.57 0.00048359 82.03C-0.0795164 69.32 9.78048 63.41 18.9805 63.29C19.0105 63.29 19.2605 63.29 19.3605 63.29C19.4605 63.29 19.5505 63.29 19.6505 63.29C23.4005 63.29 26.7705 63.99 29.4805 64.54C31.3305 64.92 33.0905 65.28 34.3205 65.28C34.4305 65.28 34.5405 65.28 34.6505 65.27C38.3405 65.03 41.4905 64.42 44.8205 63.77C49.0405 62.95 53.4005 62.11 58.6705 62.11C59.4105 62.11 60.1705 62.13 60.9405 62.16C65.2805 62.36 69.3505 62.92 73.2805 63.46C77.8605 64.09 82.1805 64.68 86.7105 64.7H86.8505C91.0405 64.7 95.3305 64 99.8705 63.26C104.28 62.54 108.84 61.8 113.56 61.67C113.61 61.67 113.76 61.67 113.78 61.67C116.77 61.7 119.78 61.83 122.68 61.95C125.93 62.09 129 62.22 132.09 62.23C123.45 56.17 121.9 48.42 123.44 42.98C125.21 36.72 131.17 32.51 138.26 32.51C142.45 32.51 146.9 33.94 151.13 36.65C155.55 39.51 158.81 43.09 161.37 47.01C161.44 46 161.61 45.04 161.86 44.15C163.63 37.89 169.59 33.68 176.68 33.68C180.87 33.68 185.31 35.11 189.55 37.82C194 40.77 197.25 44.31 199.79 48.16C199.86 47.16 200.03 46.21 200.28 45.31C202.05 39.05 208.01 34.84 215.1 34.84C219.29 34.84 223.74 36.27 227.97 38.98C228.02 39.01 228.08 39.05 228.13 39.09C239.23 46.71 242.94 57.59 246.53 68.12C246.78 68.85 247.03 69.6 247.29 70.34C249.92 70.07 252.53 70.01 255.09 69.95C260.39 69.83 265.4 69.71 269.28 67.65C274.48 63.5 280.951 56.3 286.171 50.49C287.151 49.4 288.09 48.35 288.99 47.36C290.28 44.85 291.26 42.44 292.3 39.9C294.62 34.21 297.02 28.34 302.69 22.28C302.79 22.17 302.9 22.07 303 21.97C317.95 8.21 335.84 0 350.86 0C367.55 0 380.02 9.97 386.04 28.09C397.63 49.74 397.48 57.92 397.27 69.21C397.17 74.69 397.06 80.91 398.34 90.34C400.69 105.58 394.01 120.06 388.11 132.85L387.3 134.62C382.23 149.06 369.93 165.77 351.76 165.77C348.23 165.77 344.64 165.11 341.09 163.81L339.18 163.27C319.95 157.9 293.64 150.56 293.38 123.04C291.66 110.46 292.09 101.45 294.1 93.73C284.79 98.18 274.24 99.68 264.5 101.07C264.24 101.11 263.98 101.14 263.72 101.18C264.64 111.1 261.42 123.86 258.08 135.54C259 146.57 259.79 157.92 255.37 169.34C255.33 169.44 255.29 169.55 255.24 169.65C247.96 185.71 236.25 189.08 227.71 189.08L227.72 189.1ZM337.55 77.39C330.52 84.63 325.53 94.95 324.99 103.87C324.61 110.12 326.37 115.31 330.21 119.29C330.39 119.47 330.551 119.67 330.701 119.87C334.631 125.15 344.88 133.56 349.61 133.56C350.04 133.56 350.16 133.51 350.29 133.35C352.02 130.67 354.131 127.98 356.171 125.39C356.571 124.88 356.97 124.37 357.37 123.86C356.62 124 355.87 124.07 355.11 124.07C352.13 124.07 347.79 122.98 344.03 117.79C344.01 117.76 343.99 117.73 343.97 117.7C342.72 115.9 341.95 113.95 341.27 112.24C340.82 111.1 340.31 109.82 339.88 109.24C337.32 105.86 335.72 102.51 336.28 97.17C336.43 94.97 336.69 92.5 336.94 90.12C337.35 86.27 337.82 81.91 337.66 79.45C337.66 79.3 337.65 79.15 337.65 79C337.65 78.57 337.62 78.01 337.56 77.4L337.55 77.39ZM180 122.27C181.69 122.5 183.5 122.61 185.5 122.61C187.85 122.61 190.23 122.46 192.69 122.24C193.52 114.2 193.59 104.84 190.24 96.21C186.94 96.38 183.71 96.61 180.52 96.91C180.8 101.46 180.54 106.05 180.27 110.52C180.03 114.63 179.8 118.58 180 122.26V122.27ZM219.08 101.74C219.1 105.03 218.89 108.33 218.69 111.57C218.52 114.29 218.36 116.92 218.34 119.44C221.15 119.02 223.73 118.6 225.47 118.26C225.58 118.24 225.7 118.22 225.81 118.2L226.35 118.12C227.12 118.01 228.07 117.87 229.1 117.84C229.5 117.04 229.94 115.87 230.24 115.07C230.24 115.07 230.58 114.16 230.6 114.12C231.19 112.66 231.57 110.46 231.5 108.38C227.75 106.89 224.36 104.87 221.06 102.9C220.39 102.5 219.74 102.11 219.08 101.72V101.74ZM125.93 118.14C126.52 118.17 127.1 118.18 127.67 118.18C131.33 118.18 134.71 117.6 138.3 117C141.95 116.38 145.73 115.74 149.82 115.74C151.46 115.74 153.05 115.84 154.62 116.05C155.02 110.06 154.81 104.08 153.03 98.63C146.15 97.87 141.03 96.84 136.8 95.99C132 95.02 128.21 94.26 123.76 94.26C118.63 94.26 112.66 95.26 104.4 97.49C103.89 97.63 103.36 97.7 102.83 97.7C102.71 97.7 102.6 97.7 102.48 97.69L101.57 97.64C99.6505 97.53 97.4805 97.4 95.3105 97.4C88.5005 97.4 86.2305 98.71 85.4905 99.49C85.2905 99.7 84.7705 100.25 84.8305 102.04C85.3105 107.55 89.4905 112.96 93.8805 113.77C100.3 114.35 105.2 115.19 109.94 116.01C114.93 116.87 119.65 117.68 125.94 118.15L125.93 118.14ZM207.46 64.99C208.61 65.26 209.74 65.56 210.86 65.88C210.7 65.76 210.53 65.64 210.37 65.52C208.98 64.65 207.76 63.74 206.68 62.81C206.95 63.54 207.21 64.27 207.47 65L207.46 64.99ZM338.63 36.58C344.58 36.58 350.51 39.52 355.77 45.09C356.49 45.85 357.19 46.66 357.88 47.51C356.84 36.26 354.91 32.98 350.24 32.98C350.11 32.98 349.711 32.99 349.641 32.99C349.541 32.99 349.44 32.99 349.34 32.99C348.89 32.97 348.42 32.96 347.96 32.96C341.56 32.96 334.66 34.96 330.66 37.96C330.42 38.2 330.181 38.44 329.951 38.69C332.741 37.3 335.64 36.59 338.63 36.59V36.58Z" fill="#77B975"/>
<path d="M392.429 91.1977C388.419 61.8877 397.299 61.6377 380.519 30.4577C368.109 -8.02228 329.839 5.43771 307.079 26.3877C299.649 34.3177 298.689 41.9377 293.959 50.8277C287.839 57.5477 279.469 67.3377 272.619 72.6777C263.909 77.6577 252.939 74.7477 243.339 77.0777C238.529 64.2977 236.359 52.0077 224.749 44.0477C208.819 33.8477 197.369 50.4577 213.709 60.5277C220.149 65.1977 224.909 69.5677 227.869 76.8577C219.409 75.4177 211.709 71.7577 202.939 70.1577C199.139 59.6977 196.099 49.3577 186.329 42.8777C170.399 32.6777 158.949 49.2877 175.289 59.3577C179.839 62.4677 182.739 65.3577 185.829 69.1977C178.089 70.8277 171.389 67.1477 163.519 66.1477C160.179 56.9677 156.679 47.3877 147.909 41.7177C131.979 31.5177 120.529 48.1277 136.869 58.1977C141.029 61.0077 143.679 63.6477 146.539 66.9477C135.739 69.2577 124.689 67.7877 113.729 67.6777C104.649 67.9177 95.7286 70.7377 86.6986 70.7077C77.6886 70.6777 69.6586 68.5677 60.6686 68.1577C50.9686 67.7177 44.6786 70.6277 35.0386 71.2577C30.7286 71.5377 25.4286 69.1377 19.0586 69.2877C0.38864 69.5177 2.75864 96.0677 19.6886 95.7077C34.8286 94.4377 49.3486 89.0877 64.3386 87.2077C49.7486 105.008 67.6086 138.298 86.7186 145.268C86.9086 145.328 87.0986 145.378 87.2886 145.428C98.3486 147.878 108.779 142.788 119.829 143.128C100.269 167.288 150.489 192.788 166.699 174.138C179.009 181.458 193.729 186.988 205.119 175.308C221.829 186.008 240.469 187.758 249.789 167.188C253.859 156.678 252.929 145.668 252.029 134.958C254.959 124.698 260.529 105.678 256.489 96.2077C273.379 93.4677 293.129 92.7777 304.529 77.9977C315.479 64.4277 314.319 45.3277 326.739 33.3777C332.599 28.7977 342.129 26.5877 349.649 26.9677C367.029 26.3677 362.859 51.6577 365.369 63.9977C368.419 78.6277 374.999 94.9277 371.829 110.258C369.509 120.318 360.319 128.778 355.209 136.778C348.359 146.028 330.499 129.638 325.889 123.438C310.979 107.978 322.569 81.4677 337.149 69.6077C341.809 61.3977 343.669 75.6577 343.639 79.0277C343.939 83.6577 342.629 91.7677 342.259 97.6577C341.869 101.188 342.729 103.038 344.669 105.588C346.469 107.968 347.139 111.708 348.899 114.238C357.129 125.618 368.729 108.598 368.579 100.208C370.309 69.7177 342.369 12.1577 317.579 62.3177C303.559 85.4077 295.229 92.8177 299.389 122.618C299.389 146.848 324.059 152.788 342.959 158.098C361.779 165.158 376.149 148.578 381.739 132.368C387.639 119.518 394.629 105.418 392.409 91.2077L392.429 91.1977ZM137.889 159.198C137.729 159.608 137.619 159.988 137.529 160.358C127.219 155.428 129.339 148.168 139.809 145.478C140.019 145.538 140.019 146.108 140.129 145.868C142.139 144.468 141.799 148.218 141.859 149.448C141.809 152.498 139.309 156.018 137.899 159.198H137.889ZM159.509 142.798C158.799 143.568 158.119 144.428 157.489 145.328C157.329 144.478 157.159 143.478 156.959 142.628C157.829 142.628 158.709 142.668 159.579 142.728C159.559 142.748 159.529 142.768 159.509 142.798ZM159.919 123.478C147.239 118.878 138.299 124.788 125.559 124.098C112.769 123.148 106.129 120.838 93.1186 119.688C85.3986 118.478 79.4586 110.158 78.8486 102.378C78.2586 89.7877 94.2786 91.1777 102.839 91.6777C130.039 84.3177 131.159 90.7077 157.269 92.9977C161.709 102.588 161.149 113.388 159.929 123.478H159.919ZM176.309 160.358C176.149 160.768 176.039 161.148 175.949 161.518C175.399 161.198 174.899 160.838 174.379 160.518C175.549 156.078 175.919 151.768 175.939 147.328C176.839 147.038 178.119 146.148 178.549 147.028C180.559 145.628 180.219 149.378 180.279 150.608C180.229 153.658 177.729 157.178 176.319 160.358H176.309ZM198.169 126.938C198.149 127.208 198.139 127.458 198.129 127.718C190.169 128.498 182.329 129.378 174.519 127.228C172.619 115.878 176.169 102.858 173.799 91.5677C180.579 90.7377 187.259 90.2377 194.049 90.0077C199.979 101.538 199.839 114.458 198.179 126.928L198.169 126.938ZM214.729 161.528C214.569 161.938 214.459 162.318 214.369 162.688C213.819 162.368 213.319 162.008 212.799 161.688C213.969 157.248 214.329 152.938 214.359 148.498C214.419 148.468 214.479 148.438 214.539 148.418C215.789 148.678 217.129 149.028 218.579 149.388C219.459 153.638 216.639 157.478 214.739 161.538L214.729 161.528ZM235.049 152.748C234.949 151.628 234.819 150.508 234.629 149.398C235.279 149.218 235.919 149.028 236.569 148.808C236.319 150.098 235.749 151.408 235.049 152.748ZM236.169 116.338C234.989 119.448 233.889 123.068 230.849 124.098C229.789 123.538 227.939 123.938 226.599 124.118C223.249 124.758 217.379 125.638 212.699 126.248C211.279 115.318 214.779 102.378 211.939 91.6177C221.169 94.6677 228.119 101.458 236.829 103.818C238.039 107.748 237.559 112.888 236.179 116.338H236.169Z" fill="#AFDEAE"/>
</svg>
