<svg width="460" height="254" viewBox="0 0 460 254" fill="none" xmlns="http://www.w3.org/2000/svg">
<path d="M301.951 253.7C300.301 253.7 298.711 253.62 297.061 253.46C292.181 252.96 287.711 252 283.391 251.08C279.161 250.17 275.161 249.32 270.941 248.9C269.361 248.74 267.651 248.67 265.701 248.67C263.261 248.67 260.811 248.79 258.221 248.91C255.591 249.03 252.871 249.16 250.131 249.16C247.681 249.16 245.481 249.06 243.421 248.84C243.081 248.8 242.741 248.74 242.411 248.65C233.411 246.12 225.821 245.58 217.021 244.95C211.321 244.54 205.431 244.12 198.671 243.11C184.451 240.93 178.751 231.28 179.411 222.68C180.081 213.82 187.581 204.86 200.591 204.86C202.301 204.86 204.071 205.02 205.861 205.35C205.951 205.37 206.041 205.38 206.121 205.4C212.841 206.77 218.401 208.92 223.771 211.01C228.931 213.01 233.801 214.9 239.271 215.89C239.381 215.91 239.491 215.93 239.601 215.96C241.141 216.33 242.731 216.51 244.471 216.51C246.591 216.51 248.731 216.25 250.991 215.98C253.541 215.67 256.181 215.36 259.091 215.36C262.001 215.36 264.641 215.68 267.291 216.33C267.511 216.38 267.721 216.45 267.931 216.52C277.691 220.1 286.071 221.77 294.311 221.77C302.551 221.77 310.461 220.11 319.601 218.19C324.961 217.06 331.041 215.78 337.891 214.7C338.091 214.67 338.291 214.65 338.491 214.64C339.701 214.57 340.961 214.54 342.251 214.54C347.071 214.54 351.831 215.02 356.431 215.49C360.841 215.94 365.011 216.36 369.051 216.36C375.121 216.36 379.831 215.34 383.861 213.16C390.451 209.3 398.291 208.57 405.871 207.87C411.431 207.35 416.681 206.87 420.741 205.2C420.801 205.18 420.861 205.15 420.921 205.13C423.541 204.15 425.941 201.59 426.781 199.99C426.051 199.17 424.751 198.33 422.971 197.22C421.321 196.19 419.461 195.03 417.651 193.48C415.851 191.94 414.201 190.45 412.601 189.02C404.871 182.07 400.521 178.44 393.601 178.44C391.231 178.44 388.621 178.86 385.631 179.73C382.451 180.77 378.971 181.28 375.001 181.28C369.311 181.28 363.541 180.24 357.951 179.24C353.341 178.41 348.991 177.63 345.141 177.51C336.791 177.79 328.501 179.99 319.721 182.33C312.311 184.3 304.651 186.34 296.801 187.18C296.701 187.19 296.591 187.2 296.491 187.2C295.121 187.27 293.741 187.31 292.381 187.31C286.161 187.31 280.901 186.54 275.801 185.79C270.941 185.08 266.351 184.4 261.051 184.4C261.051 184.4 260.341 184.4 260.281 184.4C260.011 184.4 259.751 184.39 259.491 184.39C255.521 184.39 252.401 185.3 248.791 186.35C245.011 187.45 240.731 188.7 235.421 188.7C234.301 188.7 233.161 188.64 232.021 188.53C231.781 188.51 231.541 188.47 231.311 188.42C223.181 186.63 216.041 185.76 209.461 185.76C200.111 185.76 192.341 187.51 183.351 189.54C176.361 191.12 168.441 192.91 158.481 194.18C158.291 194.2 158.111 194.22 157.921 194.22C157.281 194.24 156.641 194.25 156.001 194.25C148.931 194.25 142.251 192.89 136.351 191.69C134.031 191.22 131.781 190.76 129.631 190.41C121.411 205.93 102.271 212.96 90.7713 215.89C90.4713 215.98 90.1613 216.05 89.8413 216.1L89.2713 216.21C88.9613 216.26 88.6513 216.3 88.3413 216.3C85.9013 216.57 83.5713 216.7 81.2413 216.7C71.5313 216.7 63.7213 214.36 55.4613 211.87C52.9613 211.12 50.3813 210.34 47.6313 209.59C47.5213 209.56 47.4113 209.53 47.3113 209.49C44.6613 208.6 41.8713 207.92 39.1713 207.25C30.7113 205.17 21.1313 202.8 14.4013 193.56C14.3213 193.44 14.2313 193.32 14.1613 193.2C5.83133 179.83 0.551335 162.33 0.0413353 146.4C-0.598665 126.59 6.21134 110.48 19.2113 101.04C19.2513 101.01 19.2813 100.99 19.3213 100.96C29.5213 93.9 41.4413 93.87 51.9513 93.84C54.3313 93.84 56.5813 93.83 58.7813 93.75C58.8513 93.75 58.9313 93.75 59.0013 93.75C59.1813 93.75 59.3613 93.75 59.5413 93.77C60.1813 93.83 60.8513 93.86 61.5213 93.86C65.4813 93.86 69.4213 92.85 73.5913 91.79C78.2613 90.59 83.1013 89.36 88.4913 89.36C89.8213 89.36 91.1413 89.44 92.4313 89.59C92.7013 89.62 92.9713 89.67 93.2413 89.74C103.051 92.31 111.301 93.5 119.211 93.5C127.521 93.5 135.051 92.17 143.771 90.64C150.101 89.53 157.281 88.26 165.891 87.3C166.111 87.28 166.331 87.26 166.561 87.26C166.661 87.26 166.761 87.26 166.871 87.26C175.751 87.71 182.191 88.86 187.361 89.78C191.571 90.53 194.901 91.12 198.201 91.12C202.681 91.12 208.581 90.16 221.301 83.23C221.921 82.89 222.591 82.67 223.281 82.57C239.951 80.07 246.061 67.01 253.131 51.89C256.241 45.23 259.461 38.35 263.761 32.18C263.901 31.99 264.041 31.8 264.201 31.62C275.211 19.24 292.471 7.09999 307.151 1.42999C307.271 1.37999 307.401 1.34 307.521 1.3C310.271 0.440003 313.021 0 315.711 0C322.751 0 329.201 2.91 334.351 8.41C340.941 15.46 344.611 26.2 343.931 36.45C343.341 46.99 345.191 56.95 347.161 67.5C349.081 77.84 351.071 88.52 350.631 100C350.631 100.18 350.631 100.36 350.601 100.54C350.591 100.7 350.581 100.87 350.561 101.04C350.541 101.36 350.521 101.67 350.491 101.97C350.451 102.4 350.361 102.81 350.241 103.2C346.401 122.28 340.091 137.05 331.921 146.74C332.921 146.68 333.941 146.64 335.011 146.64C335.511 146.64 336.021 146.64 336.541 146.66C341.021 146.8 345.221 147.34 349.271 147.85C353.601 148.4 357.701 148.92 361.971 148.97C369.981 147.58 378.101 146.87 386.121 146.87C426.971 146.87 453.691 164.48 459.401 195.19C459.431 195.34 459.451 195.5 459.471 195.65C462.931 228.02 426.381 235.34 413.621 237.76C412.581 238.13 411.551 238.5 410.521 238.87C398.111 243.32 385.281 247.92 371.171 247.92C370.541 247.92 369.911 247.92 369.281 247.89C365.531 248.49 362.381 249.23 359.321 249.95C354.111 251.17 348.721 252.44 340.751 252.96C340.081 253 339.471 253.02 338.851 253.02C335.221 253.02 332.081 252.41 329.311 251.88C327.501 251.53 325.791 251.2 324.571 251.2C324.461 251.2 324.341 251.2 324.231 251.2C320.681 251.39 317.501 251.9 314.441 252.39C310.551 253.01 306.531 253.65 301.931 253.65L301.951 253.7ZM61.8213 180.7C54.0313 177.69 47.1513 174.01 43.6913 168.9C43.6113 168.79 43.5413 168.67 43.4713 168.55C36.7813 157.05 38.0413 143.21 42.8613 131.68C41.7913 132.26 40.7113 132.86 39.6213 133.47C38.1213 134.3 36.6313 135.13 35.1213 135.94C31.5113 137.9 32.0513 146.32 32.4913 153.09C32.6913 156.16 32.8713 159.06 32.7513 161.71C33.8213 171.24 43.5413 175.04 57.1013 179.34C58.5013 179.78 59.8713 180.22 61.2013 180.66C61.4113 180.67 61.6213 180.69 61.8213 180.7ZM119.091 124.5C126.491 133.44 129.661 143.72 130.201 158.5C133.511 158.47 136.391 158.02 140.001 157.46C144.491 156.76 149.581 155.97 156.981 155.76C157.251 155.76 157.501 155.76 157.741 155.76C161.501 155.76 164.881 156.46 167.591 157.03C169.431 157.41 171.161 157.78 172.381 157.78C172.491 157.78 172.601 157.78 172.711 157.78C176.431 157.54 179.601 156.91 182.961 156.24C187.211 155.4 191.601 154.53 196.951 154.53C197.541 154.53 198.141 154.54 198.751 154.56C202.891 154.71 206.791 155.18 210.561 155.64C214.871 156.17 218.941 156.66 223.161 156.66C223.521 156.66 223.881 156.66 224.241 156.65C228.551 156.56 232.941 155.68 237.581 154.74C241.761 153.9 246.091 153.03 250.581 152.71C250.721 152.7 250.861 152.7 251.001 152.7C251.171 152.7 251.351 152.7 251.521 152.72C254.311 152.96 256.871 153.08 259.351 153.08C265.971 153.08 271.361 152.21 278.181 151.1C279.711 150.85 281.311 150.59 283.021 150.33C278.801 146.51 275.081 141.67 272.141 136.01C266.111 124.39 262.921 107.78 267.561 89.97C261.151 96.91 253.581 102.38 243.501 107.78C227.621 118.88 214.951 123.01 196.901 123.01C195.441 123.01 193.901 122.98 192.311 122.93C183.461 124.55 175.711 125.34 168.641 125.34C161.571 125.34 155.761 124.65 149.911 123.23C146.541 123.36 143.591 123.79 140.471 124.25C136.841 124.78 133.081 125.33 128.801 125.33C127.271 125.33 125.791 125.26 124.271 125.12C122.501 124.96 120.781 124.74 119.091 124.49V124.5ZM88.9313 157.73C90.4513 157.95 92.1013 158.05 93.9713 158.05C95.8413 158.05 97.7413 157.94 99.7013 157.8C97.5413 149.87 91.2013 142.76 86.2213 137.24C85.1313 137.96 83.2913 139.97 82.1313 141.23C81.2113 142.24 80.2613 143.28 79.2413 144.27C79.1913 144.32 78.7913 144.76 78.7913 144.76C78.5013 145.11 78.1713 145.43 77.8113 145.7C77.4213 146.05 77.0313 146.4 76.6313 146.75C74.1713 148.93 72.7813 150.32 72.1413 151.39C77.3713 154.62 82.7613 156.64 88.9313 157.73ZM302.831 95.07C298.341 97.2 297.891 100.83 298.751 110.96C298.881 112.45 299.011 113.99 299.081 115.5C299.101 115.86 299.081 116.22 299.041 116.57C298.571 120.17 299.411 123.79 301.171 125.8C302.251 127.03 303.251 127.17 303.911 127.17C304.791 127.17 305.821 126.87 306.941 126.29C310.791 121.77 311.011 116.54 311.321 109.43C311.461 106.13 311.611 102.71 312.161 99.02C312.161 99.02 312.291 97.75 312.331 97.41C312.431 96.54 312.711 95.74 313.131 95.03C316.641 85.48 315.881 79.22 314.841 70.65C314.441 67.33 313.981 63.57 313.761 59.34C313.751 59.13 313.751 58.91 313.761 58.7L313.861 57.03C314.911 39.81 313.291 34.86 312.401 33.46C312.011 33.59 311.361 33.89 310.391 34.53C306.381 38.23 304.121 41.61 301.271 45.85C299.311 48.76 297.101 52.07 294.031 55.85C292.981 57.17 291.881 58.32 290.781 59.36C291.951 59.16 293.131 59.06 294.311 59.06C300.981 59.06 306.691 62.35 309.581 67.87C309.691 68.08 309.791 68.3 309.881 68.53C312.391 75.11 310.101 80.88 308.261 85.51C307.541 87.34 306.851 89.06 306.591 90.52C306.211 92.61 304.761 94.33 302.811 95.07H302.831Z" fill="#77B975"/>
<path d="M453.45 196.323C445.65 154.423 397.07 148.843 362.42 155.003C353.38 154.983 345.31 152.973 336.3 152.693C326.57 152.393 320.32 155.423 310.67 156.283C306.35 156.673 300.97 154.403 294.52 154.803C274.84 157.123 267.81 160.173 250.93 158.703C241.99 159.333 233.25 162.463 224.29 162.653C215.36 162.843 207.36 160.873 198.45 160.553C188.84 160.203 182.61 163.133 173.02 163.763C168.73 164.043 163.46 161.623 157.09 161.773C141.15 162.243 136.14 165.563 124.23 164.183C124.35 140.533 119.56 129.143 99.8798 115.773C108.44 116.073 116.12 118.393 124.76 119.163C134.36 120.043 140.78 117.453 150.49 117.223C164.15 120.713 178.48 119.413 191.8 116.923C211.54 117.713 223.95 114.143 240.28 102.673C259.78 92.2732 268.56 82.1432 278.08 62.9632C280.49 59.4232 285.55 56.8432 289.33 52.0932C296.71 42.9832 298.82 36.9132 306.61 29.8332C323.02 18.3732 320.21 49.9732 319.7 59.0432C320.48 74.1432 324.38 82.4832 318.33 98.1032H318.24C318.17 98.6832 318.12 99.2332 318.06 99.7932C316.26 111.723 318.98 122.233 310.68 131.043C299.37 137.833 291.54 127.213 293.03 115.793C292.55 106.163 289.59 94.3432 300.64 89.4432C301.74 83.3532 306.75 77.2932 304.22 70.6632C300.43 63.4332 290.12 63.5833 283.93 68.9533C239.6 131.943 323.68 206.483 344.43 101.403H344.47C344.51 100.953 344.53 100.443 344.58 99.9932C345.49 77.8332 336.66 58.3332 337.9 36.0532C338.98 19.8232 327.11 1.43324 309.28 7.02324C295.26 12.4432 278.75 24.2432 268.65 35.6032C254.99 55.2132 252.22 84.2832 224.14 88.4932C196.65 103.473 194.97 94.6832 166.54 93.2332C135.6 96.6832 124.19 104.013 91.7098 95.5032C80.1898 94.1332 70.5698 100.743 58.9998 99.7132C46.9298 100.153 33.4398 98.4532 22.7298 105.863C-2.74018 124.343 4.82982 166.833 19.2498 189.983C26.5698 200.043 37.9998 200.003 49.2098 203.753C63.5098 207.663 72.7898 212.033 88.2198 210.223V210.253C88.4398 210.213 88.7998 210.133 88.9898 210.113C103.12 206.563 120.69 198.763 125.96 183.843C135.5 184.673 146.13 188.593 157.72 188.183C188.82 184.213 199.12 175.143 232.6 182.513C243.7 183.583 249.34 178.023 260.46 178.363C273.48 178.253 282.34 181.933 296.16 181.173C312.58 179.423 328.58 171.963 345.13 171.473C357.23 171.793 372.29 177.813 383.85 173.973C402.22 168.573 408.85 178.023 421.54 188.883C425.95 192.653 431.48 194.093 433.08 199.113C433.02 203.623 427.7 208.973 423 210.723C412.22 215.143 396.78 212.453 386.81 218.353C372.17 226.353 355.19 219.663 338.82 220.613C309.42 225.273 296.06 233.233 265.85 222.143C255.54 219.603 248.14 224.173 238.2 221.793C226.25 219.643 217.48 213.803 204.77 211.253C183.35 207.353 176.89 233.703 199.55 237.173C216.37 239.693 228.36 238.473 244.02 242.873C253.17 243.823 262.45 242.023 271.51 242.933C280.56 243.823 288.51 246.553 297.63 247.493C307.49 248.473 314.03 245.803 323.87 245.263C328.27 244.993 333.72 247.413 340.35 247.013C352.66 246.203 358.15 243.573 368.9 241.913C384.12 242.503 397.92 237.003 412.04 231.983C430.96 228.393 456.09 220.653 453.5 196.313L453.45 196.323ZM84.5598 184.073C74.1698 185.373 69.1998 187.363 59.9298 186.583C46.7398 182.133 28.0998 178.293 26.6698 161.843C27.2598 152.543 22.7698 135.763 32.2298 130.643C40.6298 126.153 48.7398 120.823 58.3698 119.313C56.9498 120.583 55.8998 121.643 54.8598 122.803C45.8998 134.183 40.8998 152.303 48.5998 165.523C54.7398 174.593 79.0798 179.393 90.2798 183.853C88.4798 183.793 86.5698 183.783 84.5598 184.063V184.073ZM87.9198 163.653C80.2298 162.313 73.5698 159.613 67.2698 155.443C67.2898 155.413 67.3298 155.403 67.3098 155.383C67.2998 155.413 66.7498 155.663 66.1898 155.363C66.1598 155.363 66.1298 155.403 66.0898 155.383C63.8398 149.023 69.8398 144.813 74.1198 140.883H74.1298C74.2998 140.693 74.4798 140.513 74.6498 140.323H74.6298C79.8098 135.353 84.4198 127.423 90.2998 132.893C97.1198 140.433 106.39 150.823 106.38 163.263C100.16 163.743 93.9498 164.533 87.8998 163.643L87.9198 163.653Z" fill="#AFDEAE"/>
</svg>
