<svg width="234" height="495" viewBox="0 0 234 495" fill="none" xmlns="http://www.w3.org/2000/svg">
<path d="M82.6871 494.8C79.0771 494.8 75.567 493.31 72.247 490.37C71.857 490.29 71.4671 490.17 71.0971 490.01C58.0871 484.4 59.2271 471.22 60.0471 461.59C60.4871 456.42 60.9471 451.08 59.4771 447.79C59.4671 447.76 59.4471 447.72 59.4371 447.69C58.9171 447.63 58.177 447.57 57.127 447.57C55.047 447.57 52.5571 447.77 50.1571 447.97C47.6271 448.18 45.2271 448.37 43.0471 448.37C41.0271 448.37 39.3971 448.19 38.0271 447.81C29.8571 447.15 21.7471 442 17.6471 434.79C14.0471 428.46 13.9171 421.27 17.2671 415.07C17.2971 415.02 17.327 414.96 17.357 414.91C18.527 412.89 19.9271 411.07 21.4771 409.42C15.7871 409.35 10.4571 406.48 6.4371 401.33C3.1471 397.11 1.08703 391.79 0.737029 386.66C-1.60297 374.31 2.06703 363.23 5.61703 352.52C6.87703 348.73 8.05712 345.15 8.95712 341.58C8.99712 341.43 9.03713 341.28 9.08713 341.13C10.1471 337.97 10.7071 332.94 11.2971 327.62C12.1171 320.26 13.0371 311.91 15.6871 305.18C20.2171 293.68 28.2571 291.17 34.1971 291.08C34.2271 291.08 34.807 291.08 35.007 291.08C36.867 291.08 38.6871 291.33 40.3371 291.69C40.4171 291.17 40.5671 290.66 40.7871 290.18C44.2871 280.95 42.737 278.08 38.237 269.71C37.747 268.8 37.2171 267.81 36.6671 266.76C20.0771 260.31 21.5671 241.32 22.5671 228.56C22.8471 224.99 23.1171 221.61 23.0371 218.84C23.0371 218.78 23.0371 218.73 23.0371 218.67C23.0571 200.07 40.4971 167.48 56.4171 156.22C61.8571 151.9 68.2071 150.35 73.8171 148.97C75.6771 148.52 77.427 148.09 79.007 147.59C80.747 146.89 82.4371 146.19 84.0971 145.49C92.2371 142.09 99.9571 138.86 109.387 138.31C109.467 135.42 109.477 132.51 109.497 129.67C109.547 119.29 109.607 108.56 112.487 97.82C110.687 99.88 108.697 101.77 106.497 103.46C96.937 111.16 87.2271 115.06 77.6471 115.06C65.4371 115.06 54.0271 108.57 44.6571 96.3L44.0571 95.49C36.5171 85.33 27.9771 73.81 29.0171 58.92C30.2871 38.16 46.197 27.39 60.247 17.9C62.357 16.47 64.3671 15.12 66.3071 13.74C75.7971 4.62001 86.0971 0 96.9271 0C108.597 0 120.027 5.43001 129.987 15.71C144.077 30.25 152.797 52.16 152.187 71.51C152.187 71.63 152.177 71.75 152.167 71.88C151.437 79.73 149.097 86.58 146.827 93.2C144.277 100.65 141.867 107.68 141.927 115.67C142.917 123.61 143.627 132.02 141.657 141.03C143.757 141.15 145.907 141.21 148.117 141.28C158.397 141.59 169.037 141.92 178.997 147.5C179.077 147.54 179.147 147.59 179.217 147.63C182.997 149.97 186.657 151.91 190.187 153.79C199.997 159.01 209.257 163.95 218.387 175.48C218.667 175.84 218.907 176.23 219.107 176.64C236.237 212.85 244.247 234.95 209.597 267.32C203.837 273.65 198.627 282.33 194.517 292.48C194.407 293.18 194.297 294 194.337 294.35C194.447 294.8 194.587 295.27 194.727 295.67C194.727 295.67 194.747 295.68 194.747 295.69C195.347 296.13 195.947 296.57 196.567 297.01L199.197 298.91C199.707 299.28 200.147 299.71 200.507 300.21C229.237 327.39 238.847 336.98 222.357 379.97C218.377 395.21 211.587 414 194.537 425.38C179.537 439.86 163.597 448.04 147.157 449.7C139.427 452.7 129.377 456 118.887 456C114.737 456 110.707 455.48 106.837 454.45C105.817 458.05 105.067 461.77 104.397 465.35C104.227 466.27 103.847 467.11 103.317 467.82C103.087 468.93 102.837 470.23 102.717 470.97C102.757 471.69 102.657 472.42 102.427 473.13C96.5671 491.06 88.4671 494.82 82.6971 494.82L82.6871 494.8ZM89.8071 425.35C93.3571 423.72 96.7971 422.96 100.447 422.96C102.837 422.96 105.057 423.28 107.207 423.58C109.397 423.89 111.657 424.21 114.207 424.21C119.647 424.21 128.997 422.9 147.437 411.64C147.687 411.47 147.947 411.31 148.227 411.18C148.517 411.04 148.827 410.87 149.147 410.71C149.557 410.49 149.977 410.27 150.377 410.08C150.837 409.86 151.317 409.69 151.807 409.59C155.637 408.11 158.967 406.9 161.937 405.83C179.207 399.59 181.007 398.93 189.417 376.28C189.547 375.94 189.707 375.61 189.887 375.29C197.947 361.79 200.707 353.68 199.117 348.15C197.527 342.64 190.927 337.27 177.057 330.22C176.807 330.09 176.567 329.95 176.337 329.79C166.547 323.36 160.607 312.94 160.787 302.51C160.277 287.75 172.547 258.63 181.837 248.32C182.257 247.85 182.747 247.46 183.287 247.14C194.757 240.5 200.857 234.08 201.957 227.51C203.147 220.36 198.707 211.29 187.977 198.96C187.807 198.77 187.657 198.57 187.517 198.36C172.947 176.56 168.147 176.1 155.327 174.88C149.917 174.37 143.467 173.75 134.997 171.63C135.007 177.89 135.687 184.29 136.387 190.95C137.267 199.27 138.167 207.87 137.717 216.5C137.717 216.63 137.697 216.77 137.687 216.9C136.807 225.56 134.777 232.09 132.827 238.41C131.277 243.4 129.817 248.12 128.817 254.01C128.807 254.07 128.797 254.13 128.787 254.19C127.867 258.74 128.197 262.56 128.537 266.6C128.967 271.64 129.457 277.36 127.437 284.45C126.347 288.07 124.957 291.92 123.497 295.99C121.797 300.72 120.027 305.6 118.877 309.8C117.477 317.36 117.277 325.11 117.047 333.32C116.777 343.15 116.507 353.31 114.037 363.32C114.017 363.39 113.997 363.47 113.977 363.54C109.587 379.91 100.787 389.66 87.0871 400.97C87.0171 401.03 86.947 401.09 86.867 401.14C83.607 403.59 80.9671 406.33 78.4071 408.98C76.3771 411.09 74.3071 413.24 71.9371 415.24C78.8971 416.72 85.127 420.2 89.737 425.3C89.757 425.32 89.7771 425.33 89.7971 425.35H89.8071ZM66.4671 349.71C63.5771 355.21 61.3971 360.95 59.2871 366.53C55.9371 375.36 52.5271 384.37 46.3271 392.59C49.0171 390.7 51.6071 388.55 54.3371 386.28C58.1371 383.12 62.0571 379.86 66.5271 377.16C72.0471 373.84 73.477 368.53 75.357 360.16C75.797 358.2 76.2471 356.19 76.7971 354.15C76.8271 353.78 76.887 353.41 76.987 353.04C77.127 352.54 77.2871 352.06 77.4571 351.59C77.5171 351.42 77.577 351.26 77.627 351.09C77.797 350.51 78.0571 349.97 78.3871 349.47C79.8971 346.87 81.087 344.23 82.007 341.52C77.467 344.98 72.2271 347.77 66.4471 349.73L66.4671 349.71ZM52.6971 238.42C57.5071 240.52 61.2171 244.93 64.1771 249.64C64.4971 249.18 64.8271 248.72 65.1771 248.28C70.0271 242.09 77.437 238.4 84.987 238.4C86.417 238.4 87.857 238.53 89.257 238.8C89.287 238.8 89.3071 238.8 89.3371 238.82C93.0371 239.34 96.1671 240.66 98.6971 242.49C99.0971 237.82 99.1371 233.2 99.1771 227.65C99.2071 223.75 99.2371 219.35 99.4171 214.23C99.3871 213.89 99.3871 213.54 99.4171 213.19C99.4371 212.95 99.467 212.71 99.497 212.47L99.5271 212.23C99.5371 212.09 99.5571 211.96 99.5771 211.82C100.077 208.18 101.077 205.08 101.967 202.33C102.637 200.25 103.277 198.29 103.367 196.92C103.507 193.23 103.347 189.62 103.197 186.12C103.007 181.86 102.817 177.52 103.157 172.96C95.9871 176.05 88.4271 180.53 79.9571 186.69C79.7071 186.87 79.4471 187.03 79.1771 187.17C70.5971 191.59 56.2971 201.09 56.7171 215.01C57.1871 220.95 55.6771 226.7 54.2071 232.27C53.6471 234.38 53.1171 236.43 52.6971 238.41V238.42ZM66.9271 63.49C64.8771 71.76 72.817 80.41 78.757 84.94C81.307 82.93 84.9371 79.29 85.9071 77.92C86.0671 77.67 86.2171 77.48 86.4071 77.27C87.4471 75.95 89.5671 72.13 91.3171 68.4C88.6971 69.3 86.1071 69.75 83.5671 69.75C76.5071 69.75 70.4671 66.12 67.4071 60.37C67.3871 60.66 67.387 60.96 67.377 61.25C67.377 62.02 67.2171 62.78 66.9271 63.48V63.49Z" fill="#77B975"/>
<path d="M188.645 290.876C192.555 281.066 198.025 271.006 205.285 263.096C237.085 233.476 230.665 215.206 213.635 179.206C202.105 164.646 190.325 161.576 176.015 152.736C163.065 145.486 147.755 148.386 133.775 146.306C137.825 135.796 137.175 126.286 135.885 116.076C135.625 99.4357 144.675 87.2057 146.155 71.3257C147.365 32.6057 107.075 -17.6243 70.1149 18.3657C55.3149 28.9357 36.2449 38.5057 34.9749 59.3457C34.0649 72.3457 42.0649 82.7757 49.3949 92.6557C64.5049 112.436 83.6749 114.146 102.765 98.7457C128.835 78.7757 125.135 19.0357 82.055 37.0157C61.465 47.0957 73.0649 72.3557 93.6449 60.7857L93.6149 60.7156C95.4749 59.7056 96.4849 59.9057 97.5349 58.7257C105.305 56.4357 93.1149 78.8057 90.8749 81.2557C89.3749 83.5457 77.2849 96.0056 76.5949 90.8056C68.2349 84.9656 57.655 73.3156 61.315 61.1956H61.3549C61.4749 48.6456 70.0149 40.0257 81.1749 35.5457C88.6949 31.5657 97.0849 22.6957 106.215 26.2857C114.535 32.9157 118.885 44.1756 121.925 54.7756C122.435 58.7856 120.455 63.3856 119.985 67.6956H119.975C119.935 68.2656 119.835 68.8157 119.795 69.3957H119.865C118.595 79.7657 119.185 88.2457 118.515 98.4657C114.225 113.536 116.105 128.986 115.115 144.316C102.155 143.446 92.7549 148.546 81.0149 153.236C74.4049 155.356 66.1349 156.056 60.0049 161.006C46.0449 170.766 29.0449 201.716 29.0249 218.666C29.3949 232.826 22.2049 256.596 40.8649 261.836C47.1249 274.226 51.6849 278.506 46.2549 292.626C46.0349 294.636 45.5049 296.096 45.5349 297.106C46.3649 297.936 45.5349 299.906 44.2349 299.266C41.5049 298.036 37.5149 296.856 33.9849 297.116L34.2749 297.086C15.2949 297.366 19.2149 329.776 14.7649 343.046C11.2649 356.976 3.67497 370.866 6.69497 385.916C7.12497 395.316 15.7349 407.066 26.6549 402.346C50.6549 387.576 50.6149 365.436 62.3349 344.726C74.7349 341.096 86.1149 332.716 91.2649 320.266C90.8649 331.826 89.4749 342.506 83.3849 352.806H83.3749C83.1949 353.416 82.9449 353.986 82.7649 354.616L82.8749 354.646C79.8449 365.186 79.8049 376.156 69.6149 382.296C62.4049 386.646 56.4749 392.836 49.4149 397.746C40.3049 403.916 28.0949 408.376 22.5349 417.936C16.4449 429.196 27.7049 441.406 39.1349 441.886C44.6449 444.046 64.9149 437.996 64.9549 445.356C70.3149 457.386 58.6149 478.116 73.4649 484.516C74.3649 484.526 75.6849 483.986 75.6149 485.346C86.4149 495.736 93.725 480.336 96.695 471.266C96.335 471.326 98.0249 463.766 98.0249 463.576C98.0849 463.596 98.4449 464.346 98.4749 464.236C99.6149 458.196 100.835 452.386 103.065 446.826C117.405 452.966 131.935 449.236 145.735 443.806C163.135 442.296 178.465 432.646 190.745 420.676C205.685 410.946 212.315 394.696 216.615 378.126C231.925 338.366 224.695 331.356 195.605 303.846L195.665 303.776C195.135 303.386 194.625 303.026 194.125 302.656C193.095 301.916 192.135 301.226 191.165 300.506C191.165 300.526 191.165 300.566 191.165 300.586C189.935 301.016 188.755 296.836 188.465 295.626C188.145 294.146 188.435 292.456 188.685 290.876H188.645ZM40.4149 310.276C40.4249 309.866 40.4349 310.686 40.3749 311.006C40.3849 310.766 40.3949 310.516 40.4149 310.276ZM77.555 304.216C76.935 314.616 70.295 317.986 62.185 322.036C58.095 322.356 53.695 322.686 50.445 325.426C42.575 339.076 37.8948 349.506 27.5749 361.876C32.8649 346.266 39.9549 335.916 39.5149 319.146C54.2849 327.016 70.885 312.806 72.305 297.066C72.805 292.796 72.9749 288.576 72.4649 284.366C74.8349 290.706 78.095 297.436 77.565 304.206L77.555 304.216ZM90.7449 274.066C90.2249 272.566 89.7349 271.016 89.3749 269.496C105.565 267.996 103.675 246.596 88.1149 244.706C75.7249 242.366 63.395 254.276 66.445 266.696C62.185 259.256 56.3549 242.576 45.9649 243.146C46.4849 233.856 51.455 224.256 50.695 215.376C50.115 199.546 63.7649 188.366 76.3949 181.856C86.6349 174.406 98.2449 167.376 110.775 163.926C107.425 175.526 109.795 185.386 109.335 197.236C109.075 201.566 106.295 206.536 105.475 212.816C105.445 213.116 105.395 213.416 105.365 213.726H105.405C104.695 233.836 106.165 242.516 101.775 259.316C101.045 274.026 102.115 289.276 95.8849 303.026C97.3649 292.696 94.2849 282.876 90.7549 274.076L90.7449 274.066ZM103.865 445.116C103.865 445.116 103.815 445.166 103.785 445.196C103.935 444.896 103.985 444.866 104.125 444.626C104.205 444.586 104.055 444.896 103.855 445.116H103.865ZM166.735 302.466C166.515 311.616 172.155 319.966 179.725 324.876C209.315 339.936 212.035 349.826 194.985 378.366C183.965 408.056 180.865 404.666 152.995 415.536L152.965 415.456C152.265 415.796 151.495 416.236 150.795 416.576C106.955 443.466 107.145 419.656 86.945 433.946C85.855 436.796 87.0549 441.876 86.2349 445.266C85.7749 448.936 83.5049 448.656 83.4549 445.186C83.7349 439.996 84.815 434.676 85.945 429.986C85.925 430.006 85.9049 430.026 85.8749 430.056C79.8149 422.816 70.3149 419.776 61.4749 420.566C57.9649 422.116 53.7649 423.696 49.6149 423.216C38.4249 419.606 56.9249 414.256 60.0449 415.686C70.0949 411.326 74.0349 403.236 83.2149 396.346C95.5049 386.206 104.075 377.216 108.155 361.896C112.455 344.456 109.665 325.996 112.965 308.466C115.145 300.416 119.315 290.446 121.605 282.816C124.835 271.436 120.525 264.496 122.835 253.006C125.225 238.916 130.195 230.826 131.665 216.196C132.565 198.796 127.615 181.116 129.285 163.796C165.055 175.126 168.445 159.106 192.445 195.026C213.155 218.836 215.445 235.426 186.235 252.336C177.755 261.756 166.185 289.826 166.725 302.456L166.735 302.466Z" fill="#AFDEAE"/>
</svg>
