<svg width="174" height="376" viewBox="0 0 174 376" fill="none" xmlns="http://www.w3.org/2000/svg">
<path d="M88.1767 375.72C80.8967 375.72 73.4867 374.3 67.7267 371.82C67.1267 371.69 66.5367 371.56 65.9367 371.42C57.5667 369.58 48.9067 367.67 41.1567 361.86C41.0767 361.8 40.9967 361.74 40.9167 361.67C12.0867 337.67 -2.66329 304.63 0.396709 270.98C0.396709 270.81 0.416748 270.64 0.436748 270.47C1.07675 264.75 4.74666 259.46 9.96666 256.55C10.5367 255.78 11.1467 255.05 11.7967 254.38C13.1667 251.99 15.3367 249.97 17.8767 248.72C18.0967 248.6 18.3167 248.5 18.5467 248.41C19.2267 248.1 19.9566 247.92 20.6966 247.88C21.7666 247.81 21.8866 247.56 22.0766 247.18C25.3066 240.68 16.3867 216.96 10.8067 208.51C10.7467 208.42 10.6867 208.32 10.6267 208.22C0.97669 191.63 -1.70326 163.92 10.3067 147.06C10.5167 146.56 10.7967 146.09 11.1367 145.65C11.6667 144.99 12.1667 144.44 12.6867 143.89C12.9867 143.57 13.3267 143.28 13.6867 143.04C14.8067 142.24 15.9967 141.37 17.2367 140.46C29.3167 131.64 45.8667 119.57 61.7467 119.57C63.9367 119.57 66.0467 119.8 68.0567 120.25C67.9767 119.71 67.8967 119.14 67.8067 118.55C67.7967 118.47 67.7867 118.38 67.7767 118.3C67.4767 115.46 66.6466 113.27 65.6966 110.73C64.3066 107.05 62.7266 102.88 63.0766 96.96C63.0966 96.69 63.1267 96.42 63.1767 96.15C65.8767 82.46 65.1866 73.21 62.1966 61.71C59.5066 62.58 56.6767 63.03 53.8067 63.03C46.2167 63.03 38.6467 59.85 33.0467 54.32C33.0167 54.29 32.9866 54.26 32.9566 54.23C26.0766 47.13 24.6667 37.03 29.1167 26.54C35.3167 11.91 50.9767 0 64.0467 0C69.1167 0 81.2866 1.97 85.1966 20.16C89.6366 33.6 90.8967 45.27 88.9667 54.89C89.1967 57.06 89.6067 59.01 90.0367 61.05C90.7867 64.6 91.5567 68.26 91.3667 72.99C91.3567 73.24 91.3267 73.5 91.2867 73.75C89.2267 85.91 89.8867 96.88 93.2967 107.3C93.3967 107.6 93.4667 107.91 93.5167 108.22C93.6167 108.88 93.6867 109.72 93.7767 110.88C93.8567 111.86 94.0367 114.11 94.2967 115.97C94.6067 115.97 95.3167 116 95.3567 116C95.9067 116.03 96.4967 116.06 97.1567 116.15C97.4667 116.19 97.7567 116.25 98.0467 116.33C101.537 116.81 104.357 118.05 106.887 119.16C108.117 119.7 109.287 120.21 110.427 120.59C118.357 122.45 130.167 125.3 137.427 135.25C137.467 135.3 137.497 135.35 137.527 135.4C143.427 144 148.397 153.22 153.217 162.14L154.037 163.65C156.807 168.92 157.267 174.41 157.667 179.25C157.767 180.42 157.857 181.58 157.987 182.73C158.347 184.84 158.757 186.74 159.147 188.59C160.157 193.3 161.117 197.76 161.127 204.43C161.147 204.63 161.147 204.83 161.147 205.03C160.917 214.2 157.427 222.58 151.577 228.04C150.797 228.76 149.847 229.27 148.807 229.5C146.877 229.94 144.867 230.19 142.817 230.27C142.877 232.33 142.517 234.22 142.217 235.79C141.947 237.23 141.657 238.71 141.907 239.35C142.067 239.77 142.897 240.69 143.497 241.37C144.287 242.26 145.177 243.26 145.937 244.45C146.267 244.97 146.517 245.54 146.677 246.13C146.807 246.61 146.917 246.94 146.997 247.15C147.577 247.28 148.527 247.39 149.097 247.46C149.437 247.48 149.787 247.54 150.137 247.63C150.207 247.64 150.267 247.66 150.337 247.67C150.637 247.74 150.937 247.84 151.227 247.96C153.457 248.71 155.537 249.77 157.327 251.06C166.207 253.86 172.737 262.21 173.457 272C173.887 276.89 173.127 281.07 172.517 284.42C172.207 286.12 171.937 287.59 171.897 288.74C171.847 290.19 171.807 291.61 171.777 292.99C171.547 302.08 171.337 310.67 166.307 320.19C166.277 320.25 166.247 320.3 166.217 320.36C158.587 333.74 148.257 345.17 138.227 355.53C138.107 355.65 137.977 355.77 137.847 355.89C130.677 362.12 122.227 365.48 114.057 368.74C110.927 369.99 107.967 371.17 105.077 372.5C99.4166 375.15 92.7567 375.71 88.1767 375.71V375.72ZM98.2767 332.23C98.5667 333.43 98.8267 334.69 99.0567 336.03C99.0567 336.07 99.0666 336.11 99.0766 336.15C99.3766 338.19 99.6467 341.1 99.3967 344.17C109.207 343.22 117.857 338.16 124.587 329.38C124.957 328.9 125.397 328.47 125.897 328.12C138.687 319.13 144.787 309.17 144.027 298.53C144.007 298.28 144.007 298.03 144.027 297.78C144.317 292.39 143.447 286.53 142.607 280.85C142.557 280.48 142.497 280.12 142.447 279.76C140.697 278.09 140.137 277.82 139.177 277.37C138.287 276.95 137.067 276.37 135.267 275.23C134.937 275.02 134.637 274.78 134.347 274.52C129.857 270.26 128.517 267.96 126.477 264.47C126.007 263.67 125.497 262.79 124.867 261.76C124.787 261.63 124.717 261.5 124.647 261.36C124.167 260.42 123.317 259.63 122.247 258.64C120.137 256.69 116.947 253.74 116.357 248.34C116.077 245.79 116.377 243 116.657 240.3C116.787 239.09 116.917 237.85 116.957 236.89C116.857 236.5 116.747 236.11 116.647 235.7C114.267 226.77 110.307 211.88 123.187 203.86C123.407 203.71 123.637 203.57 123.877 203.45L129.707 200.46C130.037 197.43 130.367 194.9 130.657 192.76C132.037 182.4 132.217 181.06 124.597 166.99C124.287 166.41 124.067 165.78 123.957 165.12C121.497 150.39 113.147 147.8 96.5067 147.8C95.8167 147.8 95.1167 147.8 94.4167 147.81C94.3967 147.81 94.3667 147.81 94.3467 147.81C94.2267 147.81 94.1067 147.81 93.9867 147.8C97.1567 154.66 99.2967 161.88 100.397 169.39C105.087 182.28 109.247 195.85 108.587 208.18C109.147 210.85 109.837 213.18 110.557 215.63C111.827 219.91 113.127 224.33 113.497 230.1C113.747 234.22 113.627 238.07 113.507 241.79C113.387 245.44 113.277 248.88 113.507 252.45C113.867 254.97 114.287 257.55 114.697 260.05C116.277 269.73 117.917 279.74 116.587 290.27C117.927 302.97 118.137 316.96 110.367 325.61C107.237 329.09 103.187 331.3 98.2767 332.19V332.23ZM31.4667 277.74C27.7667 299.22 28.0767 300.27 37.3967 315.7C44.8367 307.75 57.1067 303.22 72.1167 303.22C74.2867 303.22 76.4467 303.33 78.5367 303.54C79.6567 303.58 80.8567 303.7 82.0167 303.81C83.4167 303.94 84.8667 304.08 86.0567 304.08C86.1867 304.08 86.3067 304.08 86.4167 304.08C88.5367 297.09 89.8267 292.21 90.2367 283.84C90.4167 280.12 89.6567 277.27 88.7767 273.98C87.7767 270.22 86.6367 265.96 86.9367 260.31C86.9467 260.06 86.9767 259.81 87.0267 259.57C90.2767 241.51 86.0667 228.88 80.7467 212.9C79.3967 208.84 77.9967 204.63 76.6367 200.11C76.5867 199.93 76.5367 199.74 76.4967 199.55C75.3267 193.64 75.1167 188.83 74.9167 184.17C74.7167 179.55 74.5167 175.19 73.3467 170.03C72.1167 165.62 70.0667 161.97 67.9067 158.11C65.7467 154.26 63.5267 150.28 61.9367 145.35C55.2067 145.97 39.1967 159.78 36.8667 164.26C36.7767 164.43 36.6867 164.6 36.5867 164.77C36.4467 165 36.2867 165.22 36.1067 165.43C26.3867 177.45 28.6167 181.92 34.5567 193.82C35.6567 196.03 36.9067 198.53 38.1467 201.24C38.3267 201.63 38.4567 202.03 38.5467 202.45C39.7367 207.86 41.7067 213.62 43.6167 219.19C50.2367 238.49 58.4167 262.36 31.4867 277.74H31.4667Z" fill="#77B975"/>
<path d="M136.395 231.96C134.925 231.96 133.435 231.39 132.335 230.4C130.755 228.98 130.065 226.87 130.425 224.86C130.425 224.83 130.435 224.8 130.445 224.76C130.695 223.37 131.425 222.14 132.485 221.25C132.825 220.95 133.215 220.68 133.595 220.46C133.595 220.46 133.615 220.46 133.625 220.45C134.525 219.94 135.555 219.66 136.595 219.66C136.925 219.66 137.265 219.69 137.595 219.74C139.335 220.03 140.855 221.08 141.755 222.6L141.865 222.79C142.795 224.35 142.965 226.25 142.325 227.95C141.755 229.48 140.575 230.71 139.085 231.35C138.395 231.67 137.675 231.86 136.945 231.92C136.765 231.94 136.585 231.95 136.395 231.95V231.96Z" fill="#77B975"/>
<path d="M167.462 272.487C166.922 264.977 161.682 258.097 154.202 256.437C154.202 256.437 154.262 256.387 154.282 256.377C154.272 256.347 154.262 256.307 154.252 256.277C152.702 255.057 150.812 254.117 148.922 253.527V253.507C148.832 253.487 148.752 253.477 148.662 253.447C143.992 252.917 142.132 252.467 140.862 247.657C139.612 245.687 137.232 243.887 136.312 241.527C134.522 236.937 138.222 232.057 136.192 227.707C135.822 226.617 135.152 225.417 135.642 224.687C135.982 224.847 136.442 225.297 136.582 225.657L136.692 225.847C136.802 225.787 136.852 225.657 136.862 225.507C138.232 224.887 139.872 224.807 141.282 224.337C141.282 224.337 141.252 224.297 141.252 224.287C143.332 224.317 145.452 224.107 147.482 223.647C152.612 218.867 154.972 211.767 155.142 204.877H155.122C155.172 195.917 153.342 191.297 152.042 183.577C151.372 177.817 151.532 171.797 148.752 166.497C143.682 157.107 138.622 147.597 132.582 138.787C126.882 130.977 117.782 128.477 108.822 126.377C104.582 125.037 101.102 122.567 96.3818 122.177V122.097C95.9318 122.037 95.4919 122.017 95.0519 121.987C93.9019 121.957 92.8018 121.937 91.7518 121.947C88.1718 124.817 87.9518 111.507 87.5818 109.157C83.7118 97.3274 83.2718 85.1374 85.3618 72.7374C85.6318 65.8974 83.4619 61.4374 82.9019 54.5274C85.2919 44.0074 82.7618 31.8274 79.3918 21.7274C71.0818 -18.4526 16.3818 28.5074 37.2618 50.0474C44.8518 57.5574 56.7418 59.6274 66.0118 53.1774C70.9418 69.4974 72.3819 80.4274 69.0519 97.3074C68.5619 105.597 72.8618 109.457 73.7318 117.667C74.6118 123.587 74.8219 127.047 76.9019 131.847C59.6419 114.627 32.2419 137.117 17.0319 148.007C16.6219 148.447 16.2118 148.887 15.8218 149.377L15.9618 149.487C4.54179 164.047 6.96187 190.017 15.7919 205.197C21.2719 213.497 38.5119 252.717 21.0519 253.857C20.9419 253.897 20.7918 253.957 20.6818 254.007C19.0418 254.767 17.5418 256.157 16.7618 257.767C16.7818 257.777 16.8118 257.797 16.8318 257.817C15.7518 258.797 14.8019 259.977 14.0219 261.207C10.0219 262.947 6.88185 266.737 6.39185 271.127H6.40186C3.21186 304.717 19.2918 335.837 44.7518 357.047C52.1218 362.577 60.8518 364.107 69.6018 366.077C79.1918 370.427 94.1019 371.007 102.552 367.047C113.162 362.147 124.942 359.137 133.892 351.357C143.922 340.997 153.812 329.957 160.982 317.387C166.072 307.767 165.492 299.017 165.882 288.527C166.032 284.267 168.042 279.027 167.462 272.487ZM65.0718 28.7174C58.8218 28.8474 65.8818 38.8174 58.1118 36.5874C56.5718 36.2374 54.6418 36.0974 54.0818 37.7174C54.0118 38.0774 53.7918 38.4874 53.8618 38.7374C54.6718 39.6874 53.6218 41.2574 52.3818 41.2374C37.2618 36.1374 54.5418 26.0774 61.0018 22.7074C65.0118 18.0274 65.3418 26.0274 65.0818 28.7174H65.0718ZM135.942 224.587H135.852C135.852 224.587 135.912 224.587 135.942 224.587ZM26.0319 273.637H26.0419H26.0118H26.0319ZM63.3218 348.617C57.6718 347.087 51.7719 345.187 47.3019 341.217C54.5919 343.627 62.4718 344.367 68.8418 349.707C66.9818 349.457 65.1318 349.107 63.3218 348.607V348.617ZM73.1418 325.337C72.1218 327.377 72.1518 330.087 72.2518 332.337C72.1118 332.427 71.8818 332.497 71.7318 332.477C73.2018 333.247 72.8819 336.147 71.0419 334.017C66.2919 330.347 60.6519 328.437 55.0219 327.477C54.2719 322.437 70.4018 324.487 73.4718 324.697C73.3518 324.897 73.2418 325.107 73.1418 325.327V325.337ZM78.1018 309.507C63.6318 308.007 43.1419 311.767 37.1619 327.007C22.2919 301.827 20.7919 304.047 26.0319 273.827C58.8719 257.167 38.2818 229.457 32.6418 203.717C24.7618 186.427 17.0718 179.327 31.4418 161.577C34.8918 154.747 61.2118 131.707 67.1118 141.837C69.9318 152.107 76.2818 158.207 79.1218 168.527C81.6618 179.577 80.0918 186.957 82.3418 198.347C89.0418 220.767 97.2718 236.197 92.8918 260.597C92.3918 269.957 96.6418 274.747 96.1918 284.097C95.7118 293.937 94.1218 299.247 91.4318 308.047C91.3918 308.047 91.3318 308.017 91.3418 308.027C89.8118 311.337 82.5318 309.647 78.1018 309.517V309.507ZM149.992 298.087C151.072 313.267 141.012 324.797 129.332 333.017C120.112 345.047 107.062 351.677 91.4119 350.087C93.8219 346.707 93.7118 340.977 93.1218 337.027C92.4818 333.277 91.5219 329.757 89.7819 326.507C112.692 328.807 112.302 306.657 110.512 290.217C112.272 277.597 109.232 265.427 107.512 253.097C106.982 245.337 107.962 238.297 107.482 230.497C106.952 222.077 104.132 216.867 102.522 208.617C103.392 196.427 98.5818 181.997 94.5118 170.877C92.8718 158.947 88.3619 147.867 81.2919 137.947C84.6919 141.337 89.8318 141.347 94.3118 141.827C112.322 141.617 126.402 143.657 129.832 164.147C140.572 183.987 137.302 182.727 135.312 204.317C132.992 205.507 132.322 205.847 126.572 208.797C116.382 214.897 120.732 227.587 122.932 236.157C122.972 239.367 121.922 244.377 122.282 247.667C122.882 253.087 127.622 254.037 129.952 258.617C133.162 263.877 133.592 265.547 138.442 270.147C142.902 272.977 142.602 271.367 148.052 276.887C149.032 283.807 150.352 291.057 149.972 298.077L149.992 298.087ZM135.352 204.437C135.352 204.437 135.322 204.437 135.312 204.437H135.352Z" fill="#AFDEAE"/>
<path d="M136.48 225.707C136.42 225.737 136.39 225.807 136.33 225.837C136.33 225.857 136.33 225.897 136.32 225.917C136.32 225.917 136.38 225.957 136.41 225.937C136.51 225.947 136.6 225.877 136.69 225.847L136.58 225.657C136.58 225.657 136.5 225.707 136.49 225.707H136.48Z" fill="#AFDEAE"/>
</svg>
