<svg width="156" height="314" viewBox="0 0 156 314" fill="none" xmlns="http://www.w3.org/2000/svg">
<path d="M76.6251 313.65C76.2951 313.65 75.9751 313.62 75.6551 313.59C75.6551 313.59 75.5551 313.59 75.5351 313.59C74.8851 313.59 74.2551 313.49 73.6551 313.29C71.1151 312.68 68.7252 312.12 66.4452 311.6C47.2352 307.17 34.4951 304.23 20.2351 282.81C1.76507 263.5 -0.204898 238.54 0.0151017 221.23C-0.00489829 220.93 0.00512124 220.62 0.0351212 220.31C0.585121 214.49 4.24513 209.11 9.54513 206.16C10.0951 205.42 10.6751 204.73 11.2851 204.08C12.5251 201.73 14.5651 199.69 17.0051 198.37C17.0851 198.32 17.1751 198.28 17.2551 198.24C17.7351 198.01 18.2351 197.84 18.7751 197.75C19.3951 197.64 19.8052 197.51 20.0652 197.42C20.0352 196.63 19.7251 195.16 19.1351 193.05C19.0851 192.89 19.0551 192.72 19.0151 192.55C16.7051 180.28 13.4551 171.18 8.77511 163.89C8.71511 163.79 8.65506 163.7 8.59506 163.6C-0.464943 147.54 -1.28491 121.42 13.0051 105.49C13.4951 104.94 14.0851 104.49 14.7251 104.16C16.3751 103.15 18.2351 101.95 20.1851 100.69C30.4951 94.03 43.2352 85.79 55.5752 85.21C54.6052 82.11 53.8751 78.94 53.4251 75.83C53.4251 75.79 53.4151 75.75 53.4051 75.71C52.6051 69.4 53.2351 63.54 53.8751 58.32C52.6351 58.53 51.3751 58.64 50.1151 58.64C39.9951 58.64 30.1251 51.63 25.5451 41.2C21.1651 31.22 22.7451 20.7 29.7751 13.07C29.8251 13.01 29.8851 12.96 29.9351 12.9C38.4551 4.33999 46.7951 0 54.7251 0C60.9551 0 66.6452 2.69001 71.1952 7.79001C79.2452 16.81 83.2952 33.16 81.5752 49.58C81.9452 53.54 82.5351 56.69 83.1651 60.02C83.8251 63.54 84.5151 67.18 85.0451 72.13C85.0451 72.21 85.0651 72.3 85.0651 72.39C85.1251 73.32 85.1251 74.54 85.1151 76.08C85.1151 77.55 85.0951 80.3 85.2351 82.47C101.445 83.82 114.995 94.42 126.205 104.76C135.485 113.05 138.525 125 139.975 133.34C140.455 135.26 140.925 136.99 141.365 138.63C143.115 145.12 144.635 150.72 144.725 160.25C144.725 160.29 144.725 160.32 144.725 160.36C144.645 169.61 141.185 178.09 135.255 183.61C134.485 184.33 133.525 184.84 132.495 185.07C131.225 185.36 129.925 185.57 128.585 185.7C128.585 187.5 128.225 189.03 127.965 190.19C127.845 190.73 127.635 191.64 127.675 191.86C127.675 191.86 127.895 192.59 129.685 194.08C130.655 194.89 131.345 195.98 131.655 197.2C133.615 197.5 136.625 198.18 139.805 200.99C148.645 203.89 155.015 212.28 155.585 222.1C155.905 226.5 155.095 230.19 154.435 233.15C154.125 234.56 153.835 235.89 153.785 236.8C153.675 238.67 153.635 240.4 153.595 242.06C153.435 248.33 153.285 254.25 150.135 261.54C150.055 261.72 149.965 261.9 149.875 262.08C132.745 292.86 107.355 311.08 78.3051 313.49C77.8051 313.62 77.2851 313.69 76.7651 313.69C76.7251 313.69 76.6951 313.69 76.6551 313.69L76.6251 313.65ZM104.885 255.46C109.395 257.12 112.785 261.01 113.875 266.15C121.985 259.6 126.405 255.55 125.955 244.57C125.955 244.41 125.955 244.24 125.955 244.08C126.125 239.84 125.405 235.23 124.715 230.77C124.665 230.45 124.615 230.13 124.565 229.81L121.525 226.86C115.345 224.07 112.575 218.54 110.315 214.04C109.935 213.28 109.555 212.53 109.165 211.79C109.085 211.64 109.015 211.5 108.955 211.34C108.825 211.04 107.915 210.27 107.375 209.81C106.245 208.85 104.685 207.51 103.505 205.6C103.745 210.09 104.175 214.64 104.605 219.31C105.705 231.05 106.835 243.12 104.895 255.45L104.885 255.46ZM31.0051 227.73C29.1151 238.45 27.9951 244.76 31.7251 251.8C32.1951 251.11 32.7351 250.46 33.3651 249.85C33.4251 249.79 33.4851 249.74 33.5451 249.68C36.3551 247.16 38.9251 246.64 41.2751 246.45C41.4351 246.44 41.5951 246.43 41.7651 246.43C41.9751 246.43 42.1951 246.44 42.4051 246.46C47.9651 247.06 53.0051 247.35 57.8051 247.35C65.0651 247.35 71.6151 246.69 77.7551 245.32C77.8551 245.02 77.9651 244.72 78.1051 244.41C79.9951 239.7 79.0451 234.56 77.9351 228.62C77.2351 224.83 76.505 220.91 76.465 216.74C76.465 216.28 76.5051 215.82 76.6151 215.38C80.1451 199.6 76.2851 188.39 71.3851 174.19C70.2851 171 69.1451 167.7 68.0451 164.19C67.9151 163.85 67.8151 163.49 67.7451 163.12C67.7451 163.12 67.6451 162.73 67.6151 162.61C67.5451 162.31 67.5051 162.01 67.4751 161.7C66.5151 156.42 66.485 152.13 66.465 147.97C66.435 143.99 66.4151 140.22 65.4951 135.79C65.4851 135.73 65.4652 135.66 65.4552 135.6C64.9452 132.65 63.7051 130.53 62.3651 128.33C59.2951 124.18 57.8452 119.06 56.5652 114.53C56.2652 113.45 55.9651 112.42 55.6651 111.43C50.6151 113.07 39.3952 122.87 36.4552 126.94C36.2452 127.23 36.0051 127.5 35.7551 127.75C26.5351 136.83 27.5951 139 32.6451 149.37C33.6551 151.46 34.8151 153.82 35.9651 156.47C36.1551 156.9 36.2851 157.35 36.3751 157.81C37.3551 163.32 39.4352 169.23 41.4452 174.94C47.4152 191.9 54.7851 212.87 31.1151 227.17C31.0851 227.36 31.0451 227.55 31.0151 227.73H31.0051ZM99.335 169.99C99.435 170.47 99.5451 170.93 99.6551 171.39C100.255 168.53 101.625 165.62 104.235 162.77C104.635 162.33 105.095 161.96 105.595 161.66C109.395 159.18 111.075 157.89 112.425 156.85C112.645 156.68 112.855 156.52 113.065 156.36C113.165 154.7 113.275 153.13 113.385 151.69C114.455 136.55 114.775 131.98 102.575 120.28C102.275 119.99 102.005 119.67 101.775 119.33C98.3551 114.32 92.2251 109.27 86.2451 109.27C85.8651 109.27 85.4851 109.29 85.1151 109.33C85.0751 109.33 84.3852 109.4 84.0752 109.43C88.0552 117.17 91.5152 125.68 92.4552 135.23C95.5452 143.99 100.445 158.14 99.3451 170L99.335 169.99Z" fill="#77B975"/>
<path d="M149.57 222.485C149.15 214.915 143.92 207.935 136.38 206.275C136.4 206.225 136.44 206.165 136.47 206.125C131 200.545 127.25 205.805 125.81 198.695C117.12 191.455 125.38 188.515 121.41 181.565C121.84 181.545 122.21 181.295 122.52 181.025L122.23 180.735C121.91 180.855 121.53 181.005 121.28 181.235C121.14 180.825 120.83 180.105 121.52 180.005L122.23 180.735L122.52 181.025C122.64 180.885 122.66 180.745 122.64 180.595C123.39 180.325 124.23 180.255 124.95 179.925C124.95 179.925 124.92 179.885 124.91 179.875C126.99 179.895 129.11 179.695 131.14 179.235C136.3 174.435 138.64 167.245 138.7 160.315C138.59 149.165 136.44 144.125 134.08 134.585C132.49 125.375 129.42 115.705 122.11 109.175C111.17 99.075 97.7701 88.585 82.3101 88.335C78.2301 91.345 79.3001 76.435 79.0601 72.775C78.0101 63.025 76.28 58.315 75.52 49.525C78.77 20.925 62.69 -11.525 34.17 17.125C18.65 33.985 42.0201 63.045 60.8101 48.835C60.5401 57.175 58.16 65.515 59.35 74.945C60.23 80.945 62.2901 87.435 65.3201 93.125C50.8501 85.515 29.86 101.995 17.48 109.495H17.47C5.50997 122.815 5.39007 145.685 13.8201 160.635C19.8301 169.995 22.93 180.935 24.9 191.425C26.59 197.505 27.43 202.255 19.84 203.645C18.35 204.445 16.98 205.845 16.34 207.395C16.36 207.405 16.39 207.425 16.41 207.435C15.33 208.415 14.38 209.595 13.6 210.825C9.55998 212.575 6.42 216.425 6 220.865H6.02002C5.70002 242.715 9.58006 263.245 24.9401 279.035C39.6601 301.395 51.18 301.655 75.54 307.575V307.595C75.94 307.575 76.33 307.655 76.73 307.665V307.565C107.36 305.465 130.32 284.795 144.6 259.145C148.07 251.125 147.28 244.965 147.77 236.515C147.94 232.785 150 228.215 149.57 222.475V222.485ZM56.26 27.485C56.9 37.695 52.1 29.875 47.5 34.285C47.31 34.645 47.56 34.555 47.83 34.505L48.65 35.065C35.57 31.895 57.4601 8.87497 57.0701 26.525C56.6801 26.805 56.43 27.165 56.27 27.485H56.26ZM131.95 244.345C132.65 261.185 123.12 266.035 111.99 275.455C104.08 287.655 90.22 288.935 76.92 287.845C55.31 289.925 40.23 284.535 32.48 262.995C20.09 249.275 22.79 240.165 25.67 223.365C55.48 207.445 34.6501 182.475 30.4501 158.875C23.6201 143.185 16.87 137.925 31.59 123.445C35.14 118.545 57.2 97.695 60.88 108.085C62.77 113.625 63.85 120.435 67.34 124.985C68.99 127.695 70.66 130.515 71.37 134.605C73.43 144.545 71.52 151.075 73.5 161.295H73.46C73.51 161.525 73.61 161.865 73.64 162.065H73.65C79.8 181.655 87.24 195.405 82.47 216.725C82.56 226.945 87.69 236.935 83.61 246.845C83.01 248.065 82.6801 252.395 80.6801 250.835V250.845C68.0101 253.925 54.82 253.875 41.77 252.475C40.25 252.595 39.06 252.845 37.55 254.195C33.8 257.825 36.8201 262.965 39.6901 265.785C51.1201 285.495 81.04 290.015 100.99 280.455C112.29 275.715 109.8 258.545 97.6801 260.825C103.73 237.115 95.5001 213.745 97.6801 189.865C97.3301 182.335 94.66 177.685 93.27 170.315C94.63 159.345 89.46 144.835 86.54 136.565C85.49 123.965 79.5401 113.295 73.3101 102.395C76.7101 104.445 80.7201 103.745 84.4501 103.415C93.4501 102.415 102.06 109.155 106.73 115.995C123.07 131.665 120 138.585 118.9 159.625C116.06 161.475 115.48 162.445 108.67 166.875C108.7 166.905 108.75 166.955 108.77 166.985L108.66 166.875C99.77 176.585 111.66 186.825 107.83 199.915C108.01 204.325 112.87 205.325 114.46 209.015C117.11 213.975 119.11 219.725 124.88 221.795L124.97 221.555C124.94 221.625 124.91 221.725 124.88 221.795C126.78 223.635 126.66 223.525 130.21 226.955C131.04 232.605 132.2 238.535 131.96 244.365L131.95 244.345ZM76.65 270.115C74.13 270.635 71.64 269.855 69.41 268.845C71.63 268.855 73.96 269.635 76.65 270.115Z" fill="#AFDEAE"/>
</svg>
