<svg width="195" height="50" viewBox="0 0 195 50" fill="none" xmlns="http://www.w3.org/2000/svg">
<rect opacity="0.3" x="1" y="1" width="193" height="48" rx="19" fill="#D5FBFF" stroke="#F5FCD9" stroke-width="2"/>
<path d="M75.88 17.32L75.28 16.32L76.08 15.72H77.16V23.16H80.38V17.32L79.78 16.32L80.58 15.72H81.66V33.62L80.78 34.02L80.38 33.72V24.34H77.16V33.3L76.28 33.7L75.88 33.4V17.32ZM73.8 31.28L73.4 32.22H67.18L65.98 32.42L65.18 31.62L65.78 30.62V18.08L65.18 17.08L65.98 16.48H67.04V23.3H72.14V18.08L71.54 17.08L72.34 16.48H73.42V30.74L73.8 31.28ZM72.14 31.08V24.42H67.04V31.08H72.14ZM96.5094 18.8L96.3094 19.72H91.6694V24.82L95.9494 30.42L96.9094 30.7L97.0094 31.5L95.8094 32.32L91.0094 26.1L86.7494 31.72L86.6694 32.64L85.6094 32.66L85.0294 31.86L90.3094 24.86V19.72H87.2094L86.0094 20.32L85.4094 19.52L85.6094 18.6H90.3494V17.22L89.8494 16.32L90.5494 15.62H91.6494V18.6H94.7094L95.9094 18L96.5094 18.8ZM100.769 15.72V33.62L99.8694 34.02L99.4694 33.72V17.32L98.8694 16.32L99.6694 15.72H100.769ZM117.515 18.14V17.34L116.915 16.34L117.715 15.64H118.855V18.14H123.875L125.075 17.54L125.675 18.34L125.475 19.26H118.855V21.52L125.195 26.2L126.195 26.28L126.455 27.04L125.475 27.96L118.195 22.6L111.715 27.22L111.395 28.08L110.375 27.8L109.955 26.96L117.515 21.52V19.26H112.535L111.335 19.88L110.735 19.08L110.935 18.14H117.515ZM127.335 31.8L127.135 32.74H110.835L109.635 33.34L109.035 32.54L109.235 31.6H117.535V28.76L116.935 27.76L117.735 27.16H118.855V31.6H125.535L126.735 31L127.335 31.8ZM145.164 15.72V33.62L144.264 34.02L143.864 33.72V17.32L143.264 16.32L144.064 15.72H145.164ZM139.524 16.36L140.224 17.06L140.024 17.98L139.124 24.02L138.844 25.06L137.924 25.68L131.724 31.76L131.344 32.56L130.344 32.34L129.964 31.58L137.824 23.94L138.744 17.8H132.024L130.824 18.42L130.224 17.62L130.424 16.66H138.324L139.524 16.36ZM160.813 18.08L160.613 18.98H150.533L149.333 19.58L148.733 18.78L148.933 17.88H154.133V17.04L153.533 16.2L154.333 15.6H155.433V17.88H159.013L160.213 17.28L160.813 18.08ZM164.193 15.72V23.74H165.353L166.353 23.24L166.953 23.94L166.753 24.9H164.193V33.62L163.313 34.02L162.913 33.72V17.32L162.313 16.32L163.113 15.72H164.193ZM156.213 20.28C157.467 20.28 158.447 20.6267 159.153 21.32C159.86 22.0133 160.213 22.9467 160.213 24.12C160.213 25.2933 159.86 26.2267 159.153 26.92C158.447 27.6 157.467 27.94 156.213 27.94H153.353C152.1 27.94 151.12 27.6 150.413 26.92C149.72 26.2267 149.373 25.2933 149.373 24.12C149.373 22.9467 149.72 22.0133 150.413 21.32C151.12 20.6267 152.1 20.28 153.353 20.28H156.213ZM153.533 21.4C151.613 21.4 150.653 22.3067 150.653 24.12C150.653 25.9333 151.613 26.84 153.533 26.84H156.053C157.973 26.84 158.933 25.9333 158.933 24.12C158.933 22.3067 157.973 21.4 156.053 21.4H153.533ZM161.713 31.76L161.513 32.7H150.453L149.253 33.3L148.653 32.5L148.853 31.56H154.333V30.44L153.733 29.44L154.533 28.84H155.653V31.56H159.913L161.113 30.96L161.713 31.76Z" fill="#EBFEB3"/>
<path d="M28 13.0001L28 20.8629M28 20.8629L35.8628 20.8629M28 20.8629C28 20.8629 32.1699 14.39 37.7297 14.39C46.9825 14.39 47.4595 21.3398 47.4595 21.3398" stroke="#EBFEB3" stroke-width="3" stroke-linecap="round"/>
<path d="M47.4609 36.9999L47.4609 29.1371M47.4609 29.1371L39.5981 29.1371M47.4609 29.1371C47.4609 29.1371 43.2911 35.61 37.7312 35.61C28.4784 35.61 28.0015 28.6602 28.0015 28.6602" stroke="#EBFEB3" stroke-width="3" stroke-linecap="round"/>
</svg>
